<svg width="48" height="27" viewBox="0 0 48 27" fill="none" xmlns="http://www.w3.org/2000/svg">
<path d="M7.61731 14.4582L7.68484 14.5494L7.86042 14.2756L7.61731 14.4582Z" fill="#92DCCE"/>
<path d="M8.80589 13.8456C8.76537 13.7935 8.79239 13.7152 8.75187 13.6631L8.04956 14.4323C8.3737 14.8755 8.6033 13.5588 8.80589 13.8456Z" fill="#92DCCE"/>
<path d="M9.02198 13.9236C9.2921 14.1062 9.41365 13.7411 9.46768 13.6238C9.37313 13.9106 8.95445 13.5325 9.02198 13.9236Z" fill="#92DCCE"/>
<path d="M33.076 13.7542C33.049 13.7542 33.022 13.7672 32.995 13.7802C33.022 13.7802 33.049 13.7672 33.076 13.7542Z" fill="#92DCCE"/>
<path d="M39.3427 12.5157L39.4102 12.2289C38.2352 12.7504 36.9252 12.2159 35.6826 12.4505L35.7636 12.3462C32.6168 12.2289 29.7265 12.7113 26.6066 12.9329C26.6607 12.9068 26.6742 12.8156 26.7282 12.7895C26.5796 12.8938 26.4176 13.0763 26.242 13.0503C26.2015 12.9851 26.2825 12.9199 26.3365 12.8808C25.6747 12.3984 24.4052 13.1806 23.9865 12.8156C23.7974 12.8677 23.7164 13.0633 23.8244 13.2197C21.3799 13.3371 18.7732 13.4283 16.2881 13.8064C16.1666 13.7412 16.1531 13.6109 16.1801 13.4414C14.0596 14.2236 11.8312 13.9107 9.65672 13.7803C9.57569 13.9889 9.87282 14.002 9.67023 14.2106C10.3725 14.4713 10.9533 13.7152 11.5881 14.0802L11.507 14.2757C11.9662 14.4061 11.6016 13.7803 12.0743 14.028C12.2634 14.1975 12.0338 14.2757 12.1148 14.2888C13.1007 14.2106 14.1137 14.38 15.0456 13.9107C15.2752 14.3409 16.099 13.9237 16.4637 14.3279C16.7203 14.1584 16.9769 14.1975 17.0715 13.9237C20.502 14.1454 24 13.7412 27.525 13.7673C29.1728 12.946 31.1446 13.9237 33.0895 13.65C33.103 13.676 33.103 13.7152 33.0895 13.7412C33.7243 13.5326 34.6562 13.4414 35.4125 13.5457L36.0608 13.1937C38.0461 13.5066 40.045 13.5848 42.0574 13.5978V11.8117C39.4373 11.7856 36.8036 11.8769 34.1699 11.7074C28.8891 11.4988 24.2701 10.8991 19.1379 11.9942C19.1514 11.916 19.0974 11.8639 19.2324 11.8378C17.7468 12.0073 16.3962 11.7074 15.0051 11.8769V11.7987C11.5205 12.4766 7.7659 11.7074 4.42994 12.4375C3.03883 12.4114 1.5937 12.4114 0 12.4114V12.9981C2.7417 12.9851 5.69949 12.9068 8.53573 12.7634L8.52223 12.9329C11.9662 12.5809 15.2887 13.4544 18.7327 13.1937C22.2712 13.5717 25.9989 12.255 29.5644 12.7504C31.7659 13.5587 34.6697 11.8248 36.7361 12.6591C37.776 12.959 38.8025 13.1546 39.8154 13.2458V12.1768C36.628 11.8899 33.4811 12.4897 30.2667 13.0633C26.3365 12.62 22.4198 13.7673 18.6246 12.8547C16.8149 13.4283 14.8295 12.1246 12.8306 12.2941L12.8981 12.5027C12.1823 11.8899 11.2909 13.3631 10.8452 12.4505L10.9263 12.4114C10.5346 11.9291 10.0349 13.4935 9.80529 12.946L9.75127 13.1676C9.29206 13.2328 9.69724 12.9068 9.34609 12.8156C9.21103 12.8417 9.29206 13.2328 9.02195 13.1024C8.94091 12.1637 7.87394 13.311 7.84693 12.255C8.10355 12.255 7.45526 11.8508 8.02251 11.6292C7.86044 11.5249 7.0906 11.5771 7.15813 12.0203C7.0906 12.4897 6.77997 12.9068 7.25267 13.2719L7.34721 12.9199C7.50928 13.2719 7.46877 13.0894 7.52279 13.3501C8.13056 13.4023 8.21159 13.8977 8.65729 14.1063C8.65729 14.0932 8.64378 14.0802 8.65729 14.0672C8.95442 13.65 9.3731 13.8977 9.61621 13.9629L9.71075 14.1584C9.85931 14.5626 10.4131 13.3762 10.224 14.0672C11.4665 13.8977 12.8981 13.8977 14.2893 13.8977C14.4783 13.6369 15.3562 13.9237 15.0456 13.4153C15.3967 13.9889 16.4367 14.1454 16.8149 14.1193C16.8013 14.1715 16.7878 14.2366 16.7203 14.2106C17.4631 14.9667 17.6117 13.5196 18.3005 14.4322C18.4086 13.7803 19.5701 14.6408 19.9617 13.8716C20.0428 14.015 20.0833 14.1454 20.0428 14.2627C21.2988 14.2757 22.6899 14.5104 23.7569 14.5365C24.6618 13.9629 25.9584 14.7972 26.7417 14.015C27.39 14.1845 28.4434 14.5104 29.3483 14.1975L29.2538 14.2888C30.2802 14.2366 31.5498 14.1975 32.2521 13.7152C32.5492 14.4713 32.9949 14.3149 33.4406 14.5626C34.1294 14.2106 35.507 14.3149 36.547 14.002C36.7091 14.354 37.4114 13.8586 37.4654 14.354C38.1947 14.1063 38.9781 13.9498 39.7749 13.8586V11.5771C37.3844 11.8508 34.7777 11.5249 32.4412 10.9773L32.4817 10.9382C32.0765 11.212 31.6173 11.8248 31.1986 12.1768C31.1581 12.1377 31.1581 12.0464 31.2527 12.0464C30.6854 12.1377 30.1452 11.6422 29.5779 11.7335C29.5779 11.6553 29.5779 11.6553 29.6725 11.5771C29.1322 11.7987 28.565 11.1729 27.9437 11.564L27.9032 11.4336L27.498 11.6162C27.5115 11.4467 27.525 11.199 27.7411 11.2511C22.8925 11.0947 17.8548 11.9551 12.8306 11.8378L13.0197 11.6814L12.0473 11.9551C12.0473 11.8769 12.1013 11.8248 12.1418 11.7987C10.8993 11.5119 9.61621 11.9812 8.41418 11.916C8.41418 11.8378 8.60326 11.6683 8.42769 11.5771C7.5363 12.0334 6.99606 10.9904 6.55037 11.9291C6.50985 11.8899 6.48284 11.6814 6.56387 11.6031C4.40293 11.8769 2.18796 11.903 0 11.7987V13.6239L0.985931 13.676C3.06584 12.8156 5.40236 13.5978 7.56331 12.9199V13.0894C10.3725 12.4897 13.3438 13.1285 16.2611 13.0111C17.4631 13.0763 18.287 12.8808 19.5025 12.8677L19.5295 13.0763C21.5689 12.268 23.8244 13.8064 25.9584 12.9199L25.8098 13.2067C26.1339 12.7634 27.0929 13.3631 26.9713 12.594L27.3495 12.8286C28.7946 11.8117 29.9831 13.298 31.7659 12.6331L31.6443 12.8156C32.1171 12.6722 32.6708 12.5679 33.0219 12.7243C32.9679 12.7504 32.9949 12.8025 32.8869 12.8547C34.359 13.5717 36.0068 12.7765 37.5734 12.8025L37.3979 13.1415C38.1542 12.7504 39.5318 13.1154 40.5312 12.9329L40.4772 13.0894L40.9769 12.8677L40.9904 13.1937C41.3551 13.1937 41.7197 13.1806 42.0709 13.1546V12.268C41.112 12.3462 40.2476 12.4897 39.3427 12.5157Z" fill="#92DCCE"/>
<path d="M26.3365 12.8809C26.3365 12.8809 26.3501 12.8809 26.3501 12.8939C26.3906 12.8678 26.3771 12.8678 26.3365 12.8809Z" fill="#92DCCE"/>
<path d="M8.81942 14.1846C8.7654 14.1715 8.71137 14.1455 8.65735 14.1194C8.67085 14.1846 8.7654 14.1715 8.81942 14.1846Z" fill="#92DCCE"/>
<path d="M43.7321 14.6149L43.6781 14.7062L43.9347 14.5627L43.7321 14.6149Z" fill="#92DCCE"/>
<path d="M44.5154 14.5106C44.5424 14.4715 44.61 14.4193 44.637 14.3672L43.8671 14.7192C43.6375 15.1233 44.664 14.2499 44.5154 14.5106Z" fill="#92DCCE"/>
<path d="M44.5154 14.6278C44.4614 14.8364 44.7585 14.6017 44.8666 14.5365C44.637 14.706 44.7855 14.3279 44.5154 14.6278Z" fill="#92DCCE"/>
<path d="M42.422 9.3738C42.4355 9.3738 42.449 9.38683 42.4625 9.38683C42.449 9.36076 42.4355 9.36076 42.422 9.3738Z" fill="#92DCCE"/>
<path d="M39.7344 8.51338L39.5048 8.6959C40.2206 8.65678 40.2071 9.38687 40.7203 9.56939L40.6257 9.62154C41.4361 10.5602 42.6111 11.0165 43.6511 11.7205C43.6105 11.7336 43.543 11.7857 43.5025 11.7987C43.6241 11.7727 43.7996 11.6814 43.8266 11.7466C43.7861 11.7987 43.7186 11.8248 43.6781 11.8379C43.516 12.3593 44.4479 12.1507 44.2858 12.5288C44.3804 12.5419 44.5425 12.4245 44.6235 12.2942C45.4068 12.8808 46.2037 13.5327 47.1896 13.9499C47.1761 14.0281 47.0816 14.1194 46.9465 14.2367C47.2706 14.2497 47.5408 14.3149 47.7704 14.4323L46.0551 16.0619C45.4744 15.7751 45.1502 15.2014 44.7721 14.706C44.5965 14.8234 44.6775 14.9146 44.4614 15.0059C44.4749 15.384 45.1907 15.0059 45.0962 15.4361L44.9341 15.5535C44.9746 15.7751 45.3258 15.2275 45.2718 15.5404C45.2042 15.7099 45.0692 15.7099 45.0827 15.736C45.3393 15.8924 45.5014 16.1792 45.839 16.2575L47.973 14.2237C47.8784 14.1976 47.7569 14.1976 47.6083 14.2106C47.8649 13.8456 47.3247 13.9108 47.5273 13.5197C47.3247 13.5718 47.2842 13.4675 47.0546 13.637C46.2577 12.5419 44.9476 11.8639 43.9887 10.8731C42.9082 11.0035 43.0838 9.76495 42.3275 9.42598C42.341 9.3999 42.368 9.38687 42.395 9.36079C42.0709 9.33472 41.7332 9.13916 41.5982 8.86538L41.1525 8.93056C40.3826 7.17055 38.6944 6.24491 37.6004 4.75867C36.2633 3.16813 35.3855 1.4733 33.1435 0.834475C33.1975 0.782327 33.2245 0.730178 33.292 0.743215C33.0894 0.638918 32.9274 0.482472 32.7923 0.312988L31.5768 1.49937C31.8064 1.76012 31.9955 2.04693 32.3061 2.20338L32.2386 2.25553C33.7242 2.72487 34.2239 4.28933 35.7096 4.68044C36.8036 5.84075 38.1677 7.05321 39.5453 8.07011L39.4507 8.21352C40.6798 8.90449 40.9904 10.4298 42.1519 11.186C42.8812 12.4115 44.9071 12.5028 45.5419 13.8325C45.5419 13.8977 45.5554 13.9629 45.5689 14.0281L45.812 13.7934C45.5689 12.8678 43.7186 13.1676 43.7456 12.0856C43.462 10.0257 41.7062 9.47813 39.9504 8.8393C39.1671 7.45736 37.2223 7.19662 36.8171 5.50179C35.8717 5.42356 36.2768 3.95036 35.588 3.52013L35.453 3.68962C35.6961 3.06383 34.3725 3.8591 34.9127 3.08991L34.9668 3.07687C35.1964 2.64664 33.9133 3.6114 34.251 3.15509L34.0619 3.2985C33.8863 3.22028 34.2374 3.10295 34.2104 2.93346C34.1564 2.92042 33.8863 3.22028 33.9133 3.0508C34.5886 2.37286 33.4406 2.88131 34.2104 2.12516C34.278 2.19034 34.3995 1.73404 34.7237 1.721C34.7507 1.60367 34.4941 1.42115 34.1969 1.76012C33.8323 2.07301 33.4406 2.2816 33.3055 2.67272L33.5892 2.45109C33.3731 2.7379 33.4946 2.60753 33.319 2.80309C33.4541 2.99865 33.1165 3.37673 33.0894 3.65051C33.0894 3.63747 33.103 3.63747 33.1165 3.62443C33.5081 3.41584 33.4406 3.70266 33.4676 3.80695L33.3596 3.9634C33.103 4.28933 34.1294 3.59836 33.5757 4.04162C34.0484 4.26325 34.4535 4.65437 34.8587 5.03245C35.1018 4.90208 35.1423 5.34534 35.426 4.90208C35.1018 5.41053 35.2909 5.7886 35.4125 5.87987C35.3719 5.91898 35.3179 5.95809 35.3179 5.91898C34.9803 6.64906 36.0743 5.67127 35.6015 6.50565C36.1013 6.07542 35.8041 7.00106 36.4794 6.57084C36.3984 6.70121 36.3174 6.79247 36.2228 6.87069C36.574 7.22269 36.7901 7.77026 37.0737 8.08315C37.749 7.9267 37.5059 8.86538 38.3027 8.52641C38.3703 8.82627 38.4243 9.33472 38.9105 9.36079L38.816 9.3999C39.1401 9.64761 39.5318 9.97354 40.0855 9.81709C39.6263 10.4298 39.8559 10.4429 39.8019 10.7427C40.2476 10.6775 40.5717 11.1338 41.0985 11.199C40.8959 11.4859 41.4496 11.3294 41.0985 11.6944C42.6381 11.8118 43.408 13.0373 43.7591 14.4062L43.7186 14.4192C44.0292 14.341 44.61 14.0281 44.9882 13.8977C44.9611 13.9368 44.9071 14.002 44.8801 13.976C45.0692 14.0411 44.9611 14.3801 45.0287 14.5496L46.4333 13.1937C46.4198 13.1416 46.3928 13.1155 46.3387 13.0894C46.4063 13.0373 46.4063 13.0373 46.4873 12.9982C46.1767 13.0112 46.4738 12.4115 46.0011 12.5158L46.0821 12.4115L45.8255 12.4376C45.9471 12.3202 46.1362 12.1507 46.1632 12.242C44.8936 10.7949 42.8272 10.0257 41.5036 8.56552L41.6657 8.50034L41.1795 8.43515C41.247 8.383 41.2875 8.35693 41.3281 8.34389C41.1795 7.80937 40.4772 7.78329 40.18 7.40521C40.2341 7.35307 40.4096 7.28788 40.4232 7.17055C39.8424 7.24877 40.4502 6.36224 39.6263 6.9098C39.6398 6.87069 39.7884 6.71424 39.8694 6.67513C38.9375 6.21883 38.2217 5.50179 37.6274 4.71956C36.4119 4.75867 36.3174 3.57228 35.1964 3.45495L35.3179 3.33761C34.0889 2.99865 33.7107 1.73404 32.7923 1.017C32.6843 0.925736 32.5492 0.821438 32.4141 0.730178L32.009 1.12129C32.2116 1.2647 32.4412 1.369 32.6438 1.56456L32.4952 1.721C33.6567 1.70797 33.184 3.41584 34.4265 3.36369L34.1699 3.53317C34.5886 3.31154 34.413 4.00251 34.9398 3.41584L34.8722 3.68962C36.0202 3.37673 35.2774 4.74563 36.2633 4.7717L36.1013 4.86296C36.3444 4.88904 36.574 4.96726 36.547 5.17586C36.5064 5.17586 36.4794 5.22801 36.4119 5.22801C36.3039 6.14061 37.3438 6.03631 37.776 6.47957L37.4789 6.67513C37.9786 6.59691 38.1001 7.23573 38.5188 7.39218L38.3838 7.48344L38.6944 7.45736L38.4648 7.69203C38.8024 8.05707 39.3562 8.20048 39.7344 8.51338Z" fill="#92DCCE"/>
<path d="M43.6781 11.8385C43.6781 11.8385 43.6781 11.824 43.6781 11.8385C43.6511 11.824 43.6646 11.8385 43.6781 11.8385Z" fill="#92DCCE"/>
<path d="M33.0624 3.76777C33.0624 3.7417 33.0624 3.71563 33.0624 3.67651C33.0219 3.72866 33.0489 3.7417 33.0624 3.76777Z" fill="#92DCCE"/>
<path d="M34.5076 26.648L34.6021 26.6872L34.467 26.4395L34.5076 26.648Z" fill="#92DCCE"/>
<path d="M34.4536 25.8396C34.4131 25.8136 34.3591 25.7484 34.3051 25.7354L34.6427 26.5045C35.0749 26.7131 34.17 25.7093 34.4536 25.8396Z" fill="#92DCCE"/>
<path d="M34.5751 25.8398C34.7912 25.8789 34.5616 25.5921 34.4941 25.4878C34.6831 25.7094 34.278 25.5791 34.5751 25.8398Z" fill="#92DCCE"/>
<path d="M42.1789 18.239C42.1789 18.2521 42.1654 18.2651 42.1654 18.2781C42.1924 18.2781 42.1924 18.2651 42.1789 18.239Z" fill="#92DCCE"/>
<path d="M43.2999 15.4231L43.1108 15.2014C43.1108 15.9315 42.3005 15.9706 42.0709 16.5182L42.0169 16.4139C40.9229 17.3135 40.3421 18.552 39.5048 19.6732C39.4913 19.6341 39.4372 19.5689 39.4372 19.5298C39.4643 19.6471 39.5453 19.8296 39.4778 19.8687C39.4102 19.8427 39.3967 19.7644 39.3967 19.7253C38.8295 19.595 38.9915 20.5467 38.5999 20.4033C38.5729 20.4945 38.6944 20.664 38.843 20.7422C38.1542 21.5896 37.3708 22.4631 36.8576 23.4931C36.7766 23.48 36.6685 23.4018 36.5605 23.2714C36.4524 24.4839 35.507 24.9532 34.7102 25.5399C34.8317 25.7094 34.9398 25.6181 35.0208 25.8398C35.426 25.8007 35.0613 25.0836 35.5475 25.1488L35.6691 25.3183C35.9122 25.2661 35.3314 24.9402 35.6691 24.9663C35.8447 25.0184 35.8312 25.1618 35.8717 25.1358C36.1283 24.7707 36.5875 24.5882 36.5335 23.9624C36.9251 24.1971 36.8846 23.6495 37.3033 23.819C37.2628 23.6235 37.3708 23.5713 37.1953 23.3366C38.4648 22.4371 39.2887 21.0551 40.4367 19.9861C40.3556 18.891 41.7197 18.9822 42.1384 18.1739C42.1654 18.1869 42.1924 18.213 42.2059 18.2391C42.26 17.9001 42.4896 17.5351 42.8137 17.3786L42.7597 16.9354C43.7591 16.4791 44.5425 15.7881 45.2988 15.0711L43.9752 13.7934C43.2324 14.5105 42.5301 15.2666 41.6792 15.8794C39.8289 17.3656 37.9111 18.3825 37.0602 20.7553C37.0062 20.6901 36.9521 20.677 36.9792 20.6119C36.628 21.1855 35.9662 21.3941 35.6556 21.9547L35.6016 21.8895C35.0613 23.2584 33.6297 23.8972 32.9274 25.0967L33.6297 25.7746C33.7242 25.6051 33.8188 25.4356 33.8728 25.2401C35.2369 24.0276 36.655 22.5544 37.8841 21.0682L38.0056 21.1855C38.8565 19.8687 40.5717 19.4516 41.4766 18.2C42.8812 17.3656 43.1244 15.2797 44.637 14.5235C45.1367 14.4844 45.3933 14.1324 45.5959 13.7282L45.3933 13.5327C45.0692 14.1845 44.8936 14.9928 44.1103 15.0189C41.8143 15.4491 41.085 17.3004 40.2746 19.1517C38.6809 20.0513 38.2622 22.0851 36.3714 22.6196C36.2228 23.5974 34.6156 23.2845 34.1024 24.0276L34.278 24.1449C33.5892 23.9363 34.3995 25.2531 33.5757 24.7446V24.6925C33.1165 24.4839 34.0889 25.7355 33.6162 25.4226L33.7648 25.6051C33.6702 25.8007 33.5622 25.4356 33.3731 25.4878C33.3461 25.553 33.6567 25.8007 33.4811 25.7876C32.7788 25.1358 33.265 26.283 32.4817 25.5399C32.5627 25.4617 32.0495 25.3704 32.0765 25.0445C31.9415 25.0184 31.7389 25.2922 32.09 25.5921C32.4142 25.9441 32.6303 26.3352 33.0489 26.4525L32.8193 26.1787C33.13 26.3743 32.9814 26.27 33.1975 26.4264C33.4271 26.27 33.8188 26.5959 34.1159 26.609C34.1024 26.609 34.1024 26.5959 34.0889 26.5829C33.8863 26.1918 34.1969 26.2439 34.3185 26.2048L34.4941 26.3091C34.8317 26.5438 34.1429 25.5399 34.5886 26.0875C34.8587 25.579 35.3314 25.1358 35.7771 24.7055C35.6421 24.4578 36.1418 24.3926 35.6691 24.1319C36.2093 24.4318 36.6415 24.2101 36.7496 24.0798C36.7901 24.1189 36.8306 24.171 36.7901 24.171C37.5734 24.4709 36.5605 23.4018 37.4654 23.832C37.0332 23.3366 38.0326 23.5843 37.6004 22.9194C37.7355 22.9977 37.8435 23.0759 37.9111 23.1671C38.3298 22.7891 38.951 22.5153 39.3157 22.2024C39.1941 21.5245 40.2206 21.6939 39.8964 20.8987C40.2206 20.8205 40.8013 20.7162 40.8689 20.2207L40.9094 20.312C41.2065 19.96 41.5847 19.5428 41.4496 18.9692C42.0979 19.4124 42.1249 19.1647 42.4491 19.1908C42.4085 18.7345 42.9353 18.3825 43.0298 17.8349C43.3404 18.0305 43.1919 17.4699 43.5836 17.8089C43.8132 16.2183 45.2178 15.3318 46.7574 14.8885L46.7709 14.9276C46.7574 14.8755 46.7439 14.8234 46.7304 14.7712L44.3399 12.4636C44.4479 12.7896 44.691 13.2589 44.7991 13.5848C44.7586 13.5718 44.691 13.5066 44.7181 13.4805C44.61 13.7282 44.0698 13.5327 43.9482 13.7804C43.8942 13.7152 43.8942 13.7152 43.8537 13.637C43.8402 13.9629 43.2054 13.6891 43.2864 14.1715L43.1784 14.0933L43.1919 14.354C43.0703 14.2367 42.8948 14.0542 43.0028 14.0281C41.3146 15.4361 40.3286 17.6133 38.6134 19.0735L38.5594 18.904L38.4513 19.3994C38.3973 19.3342 38.3703 19.2951 38.3703 19.256C37.7625 19.4385 37.695 20.1686 37.2493 20.4945C37.1953 20.4293 37.1277 20.2599 37.0062 20.2468C37.0467 20.8465 36.1148 20.2729 36.655 21.0812C36.6145 21.0682 36.4389 20.9248 36.4119 20.8465C35.8447 21.8374 35.0073 22.6196 34.0889 23.2845C34.0619 24.171 33.3731 24.523 32.9139 25.0706L33.6567 25.7876C33.8458 25.566 33.9944 25.3183 34.0484 24.9924L34.1699 25.1097C34.6291 23.819 36.0608 23.3366 36.9116 22.3588C37.3438 22.0329 37.4654 21.6418 37.8435 21.2507L38.0056 21.3941C38.0731 20.1947 39.9235 20.5727 39.9505 19.2821L40.1125 19.5298C39.8964 19.1126 40.6393 19.243 40.045 18.7345L40.3421 18.7867C40.072 17.6263 41.5307 18.3043 41.6252 17.2874L41.7197 17.4569C41.7738 17.2092 41.8683 16.9615 42.0979 16.9745C42.0979 17.0136 42.1519 17.0397 42.1519 17.1049C43.1514 17.157 43.0973 16.088 43.6241 15.6186L43.8132 15.9185C43.7591 15.41 44.4749 15.2405 44.664 14.7973L44.7586 14.9276V14.6148L45.0017 14.8364L45.0422 14.7973L44.3264 14.1063C43.8537 14.4713 43.6646 15.0189 43.2999 15.4231Z" fill="#92DCCE"/>
<path d="M34.1564 26.6089C34.1294 26.6089 34.0889 26.6089 34.0619 26.6089C34.1159 26.648 34.1294 26.6089 34.1564 26.6089Z" fill="#92DCCE"/>
</svg>
