<svg width="236" height="274" viewBox="0 0 236 274" fill="none" xmlns="http://www.w3.org/2000/svg">
<path d="M203.757 272.348H19.6154C9.74943 272.348 1.67725 264.657 1.67725 255.256V36.8858C1.67725 27.4855 9.74943 19.7944 19.6154 19.7944H203.757C213.623 19.7944 221.695 27.4855 221.695 36.8858V255.256C221.695 264.657 213.623 272.348 203.757 272.348Z" fill="white"/>
<path d="M204.941 273.681C203.446 273.732 203.984 273.943 203.757 274C206.298 273.823 204.869 273.618 204.941 273.681Z" fill="white"/>
<path d="M222.06 259.381L222.054 259.797L222.215 258.965C222.257 258.686 222.269 258.401 222.299 258.122C222.347 257.558 222.412 257.005 222.377 256.441C222.371 256.686 222.383 256.937 222.365 257.182L222.287 257.917C222.221 258.407 222.185 258.903 222.06 259.381Z" fill="white"/>
<path d="M222.586 238.826C222.162 240.751 222.658 246.215 222.502 249.85L222.407 250.448L222.754 252.089C222.694 247.673 222.467 241.936 222.586 238.826Z" fill="white"/>
<path d="M223.513 227.956C223.345 228.628 223.369 225.603 223.459 230.491C223.483 230.246 223.489 230.178 223.501 230.029C223.501 229.591 223.507 228.987 223.513 227.956Z" fill="white"/>
<path d="M223.501 230.029C223.513 232.177 223.639 228.622 223.501 230.029V230.029Z" fill="white"/>
<path d="M223.405 220.111L223.554 222.942C223.65 222.35 223.674 219.832 223.746 220.766C223.662 217.866 223.566 218.459 223.405 220.111Z" fill="white"/>
<path d="M223.094 217.427L223.154 218.892C223.196 218.635 223.214 218.248 223.094 217.427Z" fill="white"/>
<path d="M223.292 222.002L223.16 218.892C223.094 219.302 222.951 219.347 223.208 220.322C223.076 220.065 223.202 220.681 223.292 222.002Z" fill="white"/>
<path d="M223.226 223.763C223.13 225.352 223.076 227.397 222.927 224.56C222.987 229.973 223.285 229.175 223.226 223.763Z" fill="white"/>
<path d="M222.144 237.789L222.018 239.908L222.162 241.743C222.096 240.826 222.282 237.658 222.144 237.789Z" fill="white"/>
<path d="M223.626 202.484C223.537 202.307 223.387 203.435 223.268 203.646L223.369 205.737C223.435 204.666 223.495 202.626 223.626 202.484Z" fill="white"/>
<path d="M223.268 203.646L223.112 200.518C223.094 203.316 223.166 203.823 223.268 203.646Z" fill="white"/>
<path d="M222.622 216.926L222.951 222.059L222.616 215.935L222.622 216.926Z" fill="white"/>
<path d="M223.638 190.543L223.848 192.315L223.531 189.158L223.638 190.543Z" fill="white"/>
<path d="M223.603 182.624C223.776 183.934 223.896 180.823 224.003 182.213C223.973 180.06 223.824 178.225 223.686 176.568C223.764 178.322 223.746 180.197 223.603 182.624Z" fill="white"/>
<path d="M223.495 173.788C223.537 174.665 223.609 175.576 223.693 176.568C223.651 175.633 223.591 174.716 223.495 173.788Z" fill="white"/>
<path d="M223.16 195.197C223.213 194.958 223.357 194.491 223.417 192.736L223.16 193.967C223.16 194.337 223.16 194.764 223.16 195.197Z" fill="white"/>
<path d="M223.154 194.007L223.16 193.961C223.166 192.628 223.172 191.699 223.172 191.306C223.172 191.648 223.166 192.463 223.154 194.007Z" fill="white"/>
<path d="M223.153 195.505C223.153 195.391 223.153 195.306 223.153 195.197C223.13 195.311 223.124 195.385 223.153 195.505Z" fill="white"/>
<path d="M222.849 208.728C222.706 206.893 222.556 203.059 222.335 206.768C222.514 208.084 222.634 205.965 222.849 208.728Z" fill="white"/>
<path d="M222.837 197.032L222.777 200.353C222.843 200.29 222.945 199.687 223.017 200.598L222.837 197.032Z" fill="white"/>
<path d="M222.753 195.408L222.838 197.032L222.862 195.801L222.753 195.408Z" fill="white"/>
<path d="M223.257 179.479C223.143 178.043 223.137 176.477 223.119 174.705C223.071 176.602 223.041 178.567 223.041 180.436C223.119 180.692 223.263 181.513 223.257 179.479Z" fill="white"/>
<path d="M223.183 186.538C223.177 186.441 223.171 186.31 223.171 186.219C223.148 186.418 223.136 186.572 223.183 186.538Z" fill="white"/>
<path d="M223.118 157.249C223.1 157.346 223.088 157.431 223.07 157.528C223.082 157.551 223.1 157.568 223.112 157.591L223.118 157.249Z" fill="white"/>
<path d="M222.993 180.749C222.945 182.179 223.005 183.028 223.083 183.843C223.059 182.778 223.041 181.644 223.041 180.43C222.999 180.311 222.975 180.294 222.993 180.749Z" fill="white"/>
<path d="M223.376 168.922C223.322 169.668 223.274 170.512 223.238 171.395C223.316 170.665 223.442 169.184 223.376 168.922Z" fill="white"/>
<path d="M223.238 185.74C223.244 185.814 223.244 185.877 223.25 185.957C223.304 185.484 223.28 185.541 223.238 185.74Z" fill="white"/>
<path d="M223.238 185.74C223.202 185.005 223.136 184.43 223.082 183.849C223.1 184.72 223.13 185.524 223.166 186.224C223.184 186.042 223.214 185.865 223.238 185.74Z" fill="white"/>
<path d="M221.474 151.962C221.713 152.213 221.929 155.967 221.677 159.209C221.857 162.399 222.634 160.314 223.071 157.528C222.969 157.431 222.873 157.431 222.73 154.15C222.598 155.3 222.425 161.431 222.216 158.662C222.096 154.315 222.299 155.101 222.425 152.987C222.132 154.782 221.994 147.455 221.564 148.401L221.719 152.213C221.648 152.287 221.54 150.902 221.474 151.962Z" fill="white"/>
<path d="M223.046 163.783L223.076 165.134C223.118 163.595 223.214 162.49 223.399 160.462C223.286 158.217 223.196 157.75 223.118 157.596L223.082 164.245L223.046 163.783Z" fill="white"/>
<path d="M223.076 171.195C222.819 170.141 222.712 166.9 222.431 168.882C222.449 172.847 222.646 171.657 222.76 174.027C222.694 167.629 222.903 175.861 223.047 171.241C223.088 172.5 223.106 173.628 223.112 174.693C223.142 173.543 223.184 172.432 223.232 171.383C223.226 171.44 223.22 171.48 223.214 171.531V171.56L223.208 171.554C223.178 171.828 223.154 171.919 223.172 171.611C223.172 171.588 223.166 171.514 223.166 171.48C223.136 171.446 223.106 171.326 223.076 171.195C223.13 169.344 223.142 170.905 223.172 171.486C223.184 171.509 223.196 171.56 223.208 171.566C223.208 171.56 223.208 171.549 223.214 171.543L223.07 165.134C223.041 166.489 223.047 168.187 223.076 171.195Z" fill="white"/>
<path d="M221.785 203.35C221.809 203.15 221.827 203.162 221.845 203.145C221.809 202.729 221.791 202.575 221.785 203.35Z" fill="white"/>
<path d="M221.94 200.712C221.976 201.179 222.078 201.567 222.054 203.082C221.976 204.398 221.928 203.076 221.845 203.145C221.91 204.056 222.03 206.341 222.156 203.475L222.12 203.019C222.209 200.439 222.532 197.129 222.562 197.579C222.329 198.331 222.168 198.997 221.94 200.712Z" fill="white"/>
<path d="M222.443 185.769L222.317 180.436L222.096 183.154L222.227 183.017C222.173 186.048 222.341 185.393 222.443 185.769Z" fill="white"/>
<path d="M223.244 156.639L223.519 157.346L223.13 154.263L223.244 156.639Z" fill="white"/>
<path d="M223.214 149.706L223.447 149.962L223.304 148.133L223.214 149.706Z" fill="white"/>
<path d="M3.10059 86.2114L3.16665 87.7781C3.14263 87.0375 3.12461 86.559 3.10059 86.2114Z" fill="white"/>
<path d="M3.1128 74.8628L2.99268 74.5836C3.06475 75.1078 3.1128 75.3242 3.1128 74.8628Z" fill="white"/>
<path d="M171.612 18.3758C169.214 18.165 166.535 17.8403 166.828 18.091L167.564 18.3359C169.232 18.2961 170.518 18.3245 171.612 18.3758Z" fill="white"/>
<path d="M49.2192 19.8514C49.4465 19.8742 49.6856 19.9027 49.9188 19.9255C50.4988 19.84 51.0489 19.7603 51.5392 19.6919C50.8397 19.7375 50.0444 19.7944 49.2192 19.8514Z" fill="white"/>
<path d="M47.5272 20.8768L44.3701 20.7173C45.0757 20.7686 46.0922 20.8255 47.5272 20.8768Z" fill="white"/>
<path d="M3.37549 148.196L3.63858 150.025C3.63858 147.165 3.50106 148.424 3.37549 148.196Z" fill="white"/>
<path d="M223.118 78.6969C223.22 76.7257 223.261 75.159 223.273 73.7803C223.124 76.156 222.903 78.0702 223.118 78.6969Z" fill="white"/>
<path d="M0.34375 81.7448C0.391799 82.7019 0.445853 83.1121 0.499908 83.0836C0.457866 82.098 0.409817 81.5397 0.34375 81.7448Z" fill="white"/>
<path d="M223.274 68.0889C223.256 68.4364 223.232 68.7782 223.214 69.1314C223.256 70.5728 223.292 72.0199 223.274 73.7803C223.382 72.0313 223.454 70.0202 223.274 68.0889Z" fill="white"/>
<path d="M115.035 270.941C115.208 270.952 115.411 270.963 115.567 270.969C115.621 270.935 115.387 270.935 115.035 270.941Z" fill="white"/>
<path d="M183.773 273.436C183.098 273.453 181.992 273.453 180.951 273.453C181.459 273.47 182.308 273.47 183.773 273.436Z" fill="white"/>
<path d="M223.328 121.813C223.339 123.283 223.35 122.046 223.328 121.813V121.813Z" fill="white"/>
<path d="M222.299 128.963C222.269 128.649 222.233 128.41 222.173 128.376C222.233 128.495 222.275 128.7 222.299 128.963Z" fill="white"/>
<path d="M221.658 53.4416C221.658 53.396 221.658 53.3619 221.658 53.3163C221.606 53.755 221.617 53.6809 221.658 53.4416Z" fill="white"/>
<path d="M223.208 124.023C223.238 123.471 223.268 122.833 223.286 122.143C223.262 122.445 223.238 123.021 223.208 124.023Z" fill="white"/>
<path d="M223.328 123.727C223.316 124.234 223.31 124.633 223.304 125.014C223.346 125.197 223.376 125.032 223.328 123.727Z" fill="white"/>
<path d="M223.31 119.762C223.316 120.605 223.304 121.385 223.286 122.143C223.304 121.853 223.316 121.733 223.328 121.813C223.322 121.38 223.316 120.77 223.31 119.762Z" fill="white"/>
<path d="M2.46641 252.544C2.4604 252.641 2.44839 252.755 2.44238 252.858C2.55049 254.345 2.53247 253.695 2.46641 252.544Z" fill="white"/>
<path d="M131.442 20.9395C131.514 20.9338 131.55 20.9338 131.615 20.9281C131.544 20.9224 131.454 20.9224 131.388 20.9167L131.442 20.9395Z" fill="white"/>
<path d="M125.899 21.1276C128.261 20.8199 129.601 20.8598 131.388 20.9225L129.553 20.2103L125.899 21.1276Z" fill="white"/>
<path d="M3.1725 113.387L3.4057 109.679C3.78838 114.157 3.65683 117.392 3.9857 113.912C3.1725 113.387 3.90199 99.4978 3.08879 98.9794L3.26219 96.5353C3.25621 97.2361 3.30405 97.35 3.29209 98.0394C3.68075 93.2823 2.70611 94.5071 2.81972 88.3828C2.87951 86.2463 2.9991 84.7594 3.09477 86.2122L2.89147 81.4551C2.90941 80.0707 3.04694 80.4068 3.03498 81.7855L2.97518 74.5274L2.9991 74.5786C2.87353 73.5418 2.67621 71.2002 2.5925 70.0494C2.71209 68.2036 2.67621 70.9724 2.77786 70.5052L2.58054 66.4887C2.78982 64.8537 2.99312 68.1808 2.96322 70.9553C3.77642 67.2009 2.75992 67.6225 3.2323 59.5211L3.33395 63.3154C3.79436 60.8714 3.62694 57.9089 3.91395 53.6189C3.77044 54.6444 3.19642 62.2159 2.99312 57.8519C3.05291 56.6213 3.08281 55.0033 2.92137 52.6504C3.20838 52.6276 3.13663 50.3317 3.12467 47.4604L3.50735 47.6541C3.39972 44.5491 3.2024 44.7941 3.029 42.9653C3.06487 39.5015 3.36384 38.7836 3.61498 37.969C3.61498 36.5504 3.65683 36.2313 3.60302 36.2085C3.56116 36.2085 3.47147 36.5903 3.38776 36.9834C3.32199 37.3992 3.25023 37.7809 3.19044 37.6499C3.16054 37.5872 3.13663 37.3878 3.11271 37.0061C3.10075 36.6358 3.12467 36.1231 3.14859 35.3597C3.44755 33.2517 4.03354 31.5141 4.88859 29.7879C5.76756 28.0731 6.93952 26.3297 8.93066 24.5693C11.5377 22.8602 8.63169 25.0593 9.60633 24.4953C10.2581 23.8686 11.0055 23.3331 11.7649 22.8032C12.3867 22.5241 12.2253 22.695 12.1476 22.7861C13.176 22.2449 13.188 22.1424 13.3554 21.9942C13.4391 21.9145 13.5647 21.8233 13.8936 21.6695C14.055 21.5897 14.2703 21.4986 14.5513 21.3789C14.8443 21.2878 15.203 21.1852 15.6635 21.0599C15.7771 20.9858 15.9804 20.889 16.2614 20.8263C16.5484 20.775 16.9131 20.7238 17.3377 20.6725C17.7622 20.6041 18.2466 20.6155 18.7787 20.6212C19.0418 20.6212 19.3169 20.6269 19.6039 20.6269C19.9028 20.644 20.2078 20.6611 20.5247 20.6782C23.048 20.8206 26.0556 20.9517 28.5132 20.7238C29.727 20.8263 27.9272 20.946 28.2979 21.0884C35.0546 20.7864 34.0919 20.8719 39.6348 20.4674L44.3586 20.7067C40.8845 20.4332 45.3212 20.1085 49.2078 19.8407C47.9761 19.7097 46.9237 19.59 46.2182 19.5388L52.4188 19.3451C53.1662 19.4077 52.5443 19.5331 51.5279 19.6812C51.9524 19.647 52.353 19.6185 52.6639 19.5957C54.8823 19.7325 53.7342 19.9433 52.1437 20.1427C51.3903 20.0686 50.6369 19.9888 49.9074 19.9148C48.3767 20.137 46.9417 20.3819 47.2586 20.5927C47.6592 20.5529 48.4365 20.513 49.2916 20.4959C48.8909 20.5586 48.6338 20.6098 48.8192 20.644C49.0285 20.6839 49.6742 20.6041 50.6907 20.5073L52.1019 20.9118L52.4427 20.7523L60.5567 21.0086C66.3627 20.5984 71.4093 20.0002 80.6236 19.8293C78.3394 20.1256 80.1333 20.3136 80.0077 20.6668C77.4964 20.2908 72.8683 20.8263 68.0967 20.7523C70.5902 20.7921 70.04 20.9574 69.4062 21.02L77.9209 20.6782C77.7295 20.9688 79.7267 20.8947 81.957 21.0143C80.2768 20.4446 88.3071 20.6326 91.7692 20.4617C91.9844 20.6554 91.1533 20.8491 86.9258 20.8035C91.5898 21.2308 92.9531 20.1313 97.5333 20.4959C96.4989 20.5016 95.9428 20.4731 95.5362 20.57C97.9459 20.399 103.842 20.5358 102.454 20.701L101.426 20.7067C108.278 20.775 122.288 20.7124 123.31 20.2281C123.376 20.2908 122.414 20.8149 121.995 20.9118L134.223 19.2824C133.147 19.6983 137.278 20.6896 131.598 20.9232C133.23 20.9801 135.251 21.0542 138.689 20.9061C137.577 20.8491 135.915 20.3022 137.434 20.268C141.607 20.7295 140.334 20.5187 145.482 20.9118C143.814 20.8206 145.667 20.1712 148.304 20.1882C147.892 20.2851 148.526 20.832 147.557 20.9004L154.122 20.2623C152.484 20.3763 153.835 20.8035 155.3 20.9858C154.619 20.8605 160.975 20.9972 162.727 20.9346L159.946 20.7864C167.355 20.8833 167.265 19.8863 174.62 19.9205C173.729 20.0515 172.419 20.7352 176.162 20.8149C177.872 20.4845 183.75 19.2368 190.256 18.9862L191.505 19.1742L196.498 18.9577C193.389 19.4533 184.671 20.4902 179.905 20.8947C182.68 21.0428 180.677 21.1169 184.832 21.0998C186.297 21.2764 182.566 21.3676 181.346 21.3789L191.015 21.4929C190.585 21.1112 198.412 21.1112 198.041 20.7921L187.541 21.1909C187.117 20.8092 193.616 20.1028 200.463 20.1712C202.203 20.325 199.159 20.8548 199.303 20.9801C199.745 20.9118 201.371 20.8491 202.968 20.8149C203.787 20.7807 204.499 20.832 205.097 20.8548C205.396 20.8605 205.647 20.8947 205.85 20.9346C206.047 20.9688 206.197 20.9972 206.263 21.02C205.808 20.9858 205.354 20.946 204.899 20.9801C204.439 20.9972 204.008 20.9915 203.53 21.0257C203.978 21.0485 204.403 21.077 204.816 21.0998C205.019 21.1055 205.222 21.1112 205.419 21.1169C205.617 21.1397 205.808 21.1568 205.999 21.1795C206.388 21.2137 206.765 21.2479 207.148 21.2821C207.524 21.3505 207.895 21.4131 208.278 21.4815C209.772 21.8062 211.405 22.3076 213.097 23.6065C213.396 23.8173 213.737 24.1136 214.102 24.4269C214.472 24.7232 214.783 25.1276 215.106 25.4524C215.435 25.7714 215.674 26.1189 215.889 26.3582C216.099 26.5975 216.266 26.7513 216.35 26.757C216.033 26.2671 215.842 25.8113 215.74 25.4239C215.614 25.0536 215.59 24.7345 215.656 24.501C215.788 24.0338 216.314 23.9028 217.085 24.3813C217.175 24.4896 217.564 24.9396 218.114 25.5834C218.353 25.9252 218.634 26.3183 218.927 26.7399C219.232 27.1501 219.465 27.6572 219.746 28.13C220.26 29.1099 220.697 30.1696 220.954 31.0982C221.02 31.3261 221.085 31.5483 221.151 31.7591C221.193 31.9756 221.229 32.175 221.265 32.3573C221.331 32.7276 221.378 33.0296 221.408 33.246C221.456 33.8727 221.343 33.9696 221.223 33.7873C221.109 33.605 220.876 33.172 220.649 32.739C220.236 31.8502 219.621 31.0413 219.86 32.0155C219.943 32.0383 220.081 32.3573 220.242 32.7333C220.392 33.115 220.589 33.548 220.637 33.8215C220.709 34.5792 220.601 34.4367 220.547 34.5108C220.47 34.5849 220.559 34.864 220.643 36.482C221.097 37.0061 220.619 43.461 221.008 38.0829C221.121 41.4499 220.924 41.6607 220.942 45.6088C221.205 44.3497 221.839 49.1581 221.952 52.5251C221.851 52.3257 221.713 53.0834 221.654 53.448C221.618 60.3472 221.432 64.0447 221.426 70.4767C221.325 71.0692 221.205 74.1741 221.032 72.8524C221.103 73.7753 221.241 74.6242 221.253 76.6125C220.9 80.4524 221.199 72.1915 220.775 75.1142C221.014 75.3648 221.103 80.2416 221.247 83.0673C221.612 82.1957 221.319 76.5384 221.169 73.7127C221.671 73.7013 222.204 78.6236 222.437 85.3462C222.562 90.6901 222.108 87.6649 222.18 88.5878C222.09 98.6205 223.059 97.1335 222.694 105.468C222.371 108.773 222.054 105.617 221.821 106.351C221.701 101.999 222.024 99.6687 222.012 96.7233L221.863 100.352C221.755 98.968 221.677 96.0625 221.767 94.4787C221.48 97.2475 221.713 111.433 221.444 119.17C221.552 120.543 221.665 122.919 221.791 121.796L221.749 119.347C222.006 117.096 222.108 123.956 222.228 120.856C222.407 124.144 222.694 127.824 222.55 132.45L222.186 133.322C222.293 133.225 222.401 130.296 222.293 128.997C222.455 130.923 221.797 136.09 222.275 138.204L222.527 134.962C222.712 138.261 223.101 142.34 222.987 146.436C223.352 144.573 222.945 145.491 223.37 142.579C222.843 145.103 223.394 132.091 222.837 136.147C223.328 133.156 223.047 130.974 223.465 127.066C223.346 127.186 223.232 128.451 223.292 125.01C223.256 124.856 223.214 124.485 223.184 124.252C223.19 124.149 223.19 124.109 223.196 124.018C223.19 124.087 223.184 124.138 223.184 124.206C223.166 124.058 223.16 124.041 223.178 124.275C223.124 125.095 223.059 125.756 222.993 126.029C222.718 124.32 222.724 118.851 222.58 116.999C222.64 114.96 222.718 117.854 222.849 116.737L222.634 113.974C222.903 113.701 223.083 108.551 223.238 113.359L223.25 109.029C223.4 106.482 223.459 102.973 223.346 100.808C223.405 98.7686 223.047 95.6523 223.256 97.4298L223.089 90.6388L223.154 90.5761C223.19 83.8763 222.712 76.7834 223.196 69.1265C223.13 66.8704 223.047 64.5403 223.124 60.7688L223.358 60.0339C223.274 57.1398 223.591 51.3344 223.346 50.0924C223.657 48.5314 223.693 45.0163 223.663 41.2562C223.651 40.3162 223.645 39.359 223.633 38.419C223.627 37.9462 223.621 37.479 223.615 37.0118C223.597 36.5276 223.555 36.0034 223.525 35.5135C223.34 33.5423 222.897 31.7648 222.377 30.4431L222.018 30.3462C221.307 28.5687 220.356 26.8938 219.017 25.3783C217.689 23.8572 216.045 22.4329 213.922 21.2365L214.036 21.6011C212.236 20.5984 209.784 19.4704 206.825 18.9463C206.454 18.8836 206.077 18.8209 205.701 18.7583C205.318 18.7298 204.929 18.7013 204.541 18.6728C203.733 18.5988 203.01 18.6044 202.25 18.5874C200.732 18.5589 199.177 18.5361 197.622 18.5475C198.047 18.4506 199.625 18.4734 200.744 18.5361C193.299 17.9607 185.042 18.9577 178.297 18.5361C176.617 18.6272 175.397 18.5988 174.219 18.5361C174.374 18.5361 174.518 18.5304 174.638 18.5247C174.464 18.5247 174.207 18.5247 173.944 18.519C173.203 18.4734 172.437 18.4335 171.606 18.3823C172.312 18.4449 172.987 18.4962 173.573 18.519C172.276 18.5247 170.308 18.5532 168.383 18.6215L167.564 18.3481C167.408 18.3481 167.283 18.3538 167.115 18.3538C165.226 18.2512 165.597 18.4848 166.601 18.6899C165.633 18.7355 164.742 18.7868 164.048 18.8551C162.511 18.4107 158.99 19.0032 156.891 18.5304C155.593 18.7583 147.198 18.7013 146.17 19.1913C146.104 19.1286 145.536 19.1001 146.576 19.0944C144.424 19.0374 142.277 18.9862 140.352 19.1229L139.437 18.7754L134.743 19.2425C131.891 19.0317 130.707 18.9064 133.541 18.6386C126.707 19.0545 127.992 18.7925 122.18 19.2026L122.461 18.9748C120.381 18.9862 117.062 19.2881 115.806 19.1001C111.154 18.6728 92.8036 19.0431 80.8687 18.6443C83.1828 19.3109 75.3199 18.3481 74.8475 18.8608C74.1539 18.7013 72.4916 18.6158 74.4229 18.4791C68.3299 18.6329 65.2745 18.2284 61.065 18.6614C60.3654 18.5019 62.3685 18.4335 61.7466 18.3367C61.2563 18.3709 59.8093 18.4734 59.1755 18.3823C58.5536 18.2911 60.0664 18.2512 61.0291 18.1829C54.8225 18.2 54.1947 18.6842 53.7402 19.14C50.5891 18.9235 49.0165 18.9577 46.7384 19.2539C45.6382 19.1058 43.8085 18.952 47.6771 18.895C45.5006 18.8722 34.3909 18.6785 34.1697 19.0431C33.488 18.9463 31.1262 19.0146 30.5581 19.0545C25.6789 19.0317 25.2484 18.9975 20.4589 19.0317L21.7864 19.0887C20.8356 19.3223 19.861 19.2995 18.5754 19.3565C18.2585 19.3736 17.9177 19.3565 17.5649 19.3963C17.2121 19.4362 16.8414 19.4818 16.4468 19.5331C16.2494 19.5616 16.0461 19.5787 15.8428 19.6185C15.6395 19.6641 15.4303 19.7154 15.215 19.7667C14.7845 19.8806 14.3181 19.9547 13.8577 20.1313L13.9474 20.0515C13.4032 20.2224 12.9129 20.3763 12.4645 20.5187C12.028 20.6839 11.6513 20.8605 11.3045 21.0029C10.6049 21.2764 10.1206 21.6068 9.70798 21.829C9.50468 21.9487 9.3253 22.0512 9.16983 22.1424C9.02035 22.2506 8.8888 22.3475 8.76921 22.4329C8.53004 22.6152 8.3387 22.7576 8.14736 22.9058C7.75272 23.1849 7.42385 23.5268 6.72426 24.1079C6.05457 24.7175 5.03807 25.6233 3.72261 27.4065L4.2189 27.1558C4.23683 27.4122 3.96776 27.9192 3.52529 28.62C3.33993 28.9903 3.10673 29.4062 2.84962 29.8677C2.59848 30.3348 2.39518 30.8703 2.13209 31.423C1.88693 31.9813 1.71951 32.6023 1.50425 33.2289C1.34281 33.867 1.20528 34.5336 1.09167 35.2059C1.03786 35.8781 0.960128 36.5789 0.960128 37.2226C0.954148 37.8664 0.966107 38.4988 0.996004 39.1027L1.15745 37.3594C1.36673 39.9971 0.320332 44.7371 0.2426 47.3863C0.188786 47.9617 0.158889 46.4748 0.117033 45.6658C-0.24771 52.6049 0.493735 46.5659 0.577446 51.7332C0.374147 52.6846 0.0632186 50.5026 0.0213629 53.9836C-0.140081 55.7155 0.679096 64.0788 0.290436 68.8245C0.4459 67.7763 0.601364 66.7394 0.720952 69.1436C0.774766 72.8239 0.128992 79.0964 0.625282 82.4236C0.583426 82.8907 0.54157 83.0673 0.499714 83.0901C0.625282 85.9045 0.708993 92.234 0.978066 93.9317C-0.0145134 96.5296 1.4624 111.428 0.547549 111.365L0.601364 120.013L0.505694 119.785C0.4459 125.317 0.667137 127.277 0.882395 129.22C0.822601 130.496 0.732911 129.567 0.685075 129.459C0.499714 137.543 0.54157 138.346 0.996004 145.126L0.697034 145.832C0.870437 147.667 0.230642 157.523 0.577446 165.448C0.54157 165.368 0.487755 165.208 0.4459 164.576C0.792704 173.498 -0.373277 185.935 0.703014 189.205L0.966107 195.09C1.04982 187.473 1.4325 196.223 1.61188 193.09C1.67765 196.087 1.28899 200.832 1.2292 197.152L1.28301 196.577C0.720952 195.227 1.08569 206.04 0.703014 205.835C0.732911 220.824 0.421982 235.431 0.398065 249.469L0.83456 247.851L0.810643 252.75C0.708993 254.038 0.469817 254.477 0.487755 250.984C0.362188 251.901 0.416003 253.366 0.511673 254.613C0.547549 255.223 0.649199 255.844 0.720952 256.277C0.798684 256.715 0.858478 256.995 0.882395 257.017C0.996004 257.912 1.07374 258.539 1.12157 258.954C1.20528 259.365 1.23518 259.575 1.22322 259.632C1.21126 259.746 0.978066 259.273 0.810643 258.624C0.416003 257.319 0.284456 255.32 0.332291 256.448C0.350229 256.704 0.356209 256.96 0.392085 257.211L0.523632 257.969C0.613323 258.476 0.679096 258.983 0.84054 259.473C0.804663 259.245 0.73889 259.023 0.726931 258.789C1.11559 259.974 1.36075 260.607 1.7793 261.438C1.97662 261.86 2.17992 262.339 2.52673 262.937C2.69415 263.239 2.85559 263.586 3.08879 263.962C3.32797 264.333 3.59106 264.748 3.89601 265.221C5.57622 267.523 4.57766 266.543 5.32508 267.398C5.31313 267.403 5.36694 267.483 5.5523 267.677C5.73766 267.87 6.03065 268.201 6.57478 268.628C8.25499 270.138 10.2222 271.357 12.3628 272.212C11.9503 272.007 11.5735 271.739 11.1789 271.511L10.5989 271.152L10.0548 270.742C10.7065 271.106 11.442 271.368 12.0639 271.653C12.6977 271.915 13.2837 272.081 13.6723 272.212C14.061 272.348 14.2882 272.371 14.2224 272.314C14.1566 272.274 13.8218 272.086 13.1342 271.744C13.3853 271.87 13.7022 272.018 14.067 272.172C14.4437 272.303 14.8802 272.434 15.3645 272.576C15.8428 272.741 16.387 272.816 16.967 272.924C17.26 272.969 17.5589 273.043 17.8699 273.066C18.1808 273.089 18.5037 273.112 18.8325 273.135C19.5022 273.192 20.154 273.197 20.8296 273.203C21.5053 273.209 22.2049 273.214 22.9165 273.22C24.3336 273.226 25.8045 273.231 27.2635 273.231C33.0934 273.231 38.708 273.186 40.0534 273.277C44.0716 273.038 48.0419 273.043 52.9569 273.072C51.7371 273.004 51.0017 272.633 55.2411 272.679C53.6924 273.442 63.0023 273.009 66.4285 273.562C63.367 273.197 78.483 273.471 73.6755 272.952C77.2153 273.015 73.8908 273.237 76.5755 273.419C84.9945 273.123 95.1296 273.613 105.54 273.511C105.701 273.408 103.961 273.26 106.191 273.106L111.687 273.607C113.743 273.556 113.576 273.026 117.337 273.38C116.805 273.294 116.016 273.169 117.391 273.135C137.781 273.625 159.049 272.736 179.756 273.653C176.952 273.459 178.823 273.442 180.964 273.431C179.571 273.385 180.994 273.186 180.725 273.049L189.395 273.425C190.973 273.049 198.687 273.402 199.596 273.038L196.851 273.1C200.504 272.673 191.745 272.155 192.277 271.608C188.187 272.092 181.496 270.89 174.793 271.585C173.31 271.471 176.055 271.408 175.265 271.283C173.567 271.517 171.51 271.568 167.707 271.46L168.138 271.403C157.453 271.46 152.867 271.232 140.86 271.078L141.751 271.346C139.174 271.312 138.63 271.226 137.422 271.158C134.462 271.568 144.669 271.18 141.972 271.631C138.552 271.084 123.777 271.625 121.463 270.998C117.493 270.992 122.629 271.312 118.658 271.306L117.606 271.135L116.602 271.351C114.001 271.317 112.685 271.106 112.589 270.964C113.223 270.981 114.383 270.924 115.059 270.913C111.687 270.713 105.546 270.981 104.386 270.918L108.201 271.021C97.3659 271.18 84.1395 270.958 73.6755 271.3L74.4708 271.425C66.4763 271.659 68.0669 271.283 59.2951 271.397L59.612 271.368C57.854 271.494 55.5101 271.562 53.1124 271.545C55.3307 271.397 48.9448 271.255 51.8507 271.089C43.1866 271.34 47.5635 271.289 41.8412 271.762L40.5198 271.551C38.5705 271.744 38.4091 271.841 34.0262 271.898C37.6198 271.716 31.2278 271.579 35.2579 271.334C30.6598 271.101 27.2455 271.22 24.4532 271.312C21.6847 271.38 19.4125 271.539 17.547 270.987C16.5544 270.987 16.5006 271.078 16.967 271.203C17.2002 271.266 17.5649 271.351 18.0014 271.414C18.4439 271.443 18.9581 271.482 19.4843 271.517C21.6907 271.556 24.1542 271.511 22.9703 271.579C23.9628 271.676 23.0899 271.784 21.607 271.864C20.8715 271.893 19.9626 271.961 19.1016 271.927C18.6711 271.915 18.2346 271.904 17.822 271.876C17.4154 271.813 17.0268 271.75 16.68 271.699C16.5006 271.67 16.3272 271.642 16.1597 271.613C15.9923 271.574 15.8249 271.517 15.6635 271.471C15.3346 271.368 15.0117 271.26 14.6828 271.141C14.354 271.032 14.0371 270.844 13.6962 270.691C13.3614 270.52 12.9907 270.371 12.6259 270.132C11.143 269.289 9.24757 268.098 6.93952 265.637C7.40591 266.121 7.45375 266.139 7.9321 266.6C7.50756 266.139 7.089 265.683 6.66447 265.216C6.46715 264.976 6.26385 264.731 6.06653 264.486L5.76158 264.116L5.49251 263.717C5.31313 263.449 5.12776 263.176 4.93642 262.903C4.769 262.618 4.61952 262.31 4.46405 262.002C4.12323 261.399 3.93786 260.692 3.71065 259.98C3.50735 259.598 3.3459 259.165 3.2024 258.727C3.04694 258.294 3.02302 257.832 2.93333 257.422C2.89745 257.217 2.86157 257.017 2.83168 256.835C2.81374 256.653 2.7958 256.482 2.77188 256.328C2.71807 256.026 2.64632 255.793 2.52075 255.673C2.61044 257.73 3.11271 259.758 3.99168 261.621C3.23828 260.043 2.60446 258.43 2.31745 256.436C2.17992 255.451 2.14405 254.334 2.12611 253.104C2.10817 251.879 2.12611 250.528 2.19188 249.024C2.28755 249.492 2.41312 251.292 2.48487 252.522C2.6224 250.756 2.39518 249.127 2.53869 247.298C2.77786 247.56 2.80178 249.52 2.81374 251.907C2.83168 253.086 2.80178 254.425 2.86755 255.622C2.92137 256.79 3.13663 257.895 3.4356 258.755C3.41766 258.647 3.39374 258.527 3.36982 258.396C3.35188 258.265 3.33395 258.123 3.31601 257.969C3.27415 257.667 3.21436 257.336 3.15456 256.995C3.09477 256.653 3.08879 256.288 3.05291 255.935C3.02302 255.576 2.97518 255.246 2.97518 254.892C2.92735 253.519 2.92137 252.631 3.17848 253.616C2.52673 250.785 3.26219 246.677 2.75992 241.909L3.04096 242.222C2.9991 241.47 2.86157 239.903 2.86755 238.513L3.23828 241.026C2.92735 237.163 3.51333 233.585 3.33993 229.882C3.34591 237.636 2.9991 231.62 2.78982 234.901C2.40714 225.341 3.53127 229.404 3.39374 218.699C3.4356 220.146 3.22632 224.139 3.09477 221.872C3.15456 219.832 3.26219 217.143 3.41168 215.89C3.35188 208.797 3.11869 216.978 2.94529 213.959C3.29209 211.543 2.80178 210.478 2.69415 207.367L2.98116 207.344C3.16652 199.26 2.37724 205.202 2.60446 197.927L3.00508 201.003L2.90343 197.209L3.20838 198.029C2.96322 193.905 3.029 192.617 3.11869 188.572C2.91539 189.512 2.5925 188.042 2.58652 184.465C2.75992 182.021 2.86157 185.832 2.81972 180.756C2.9991 181.901 3.22632 183.154 2.96322 185.365C3.05889 185.593 3.14261 186.493 3.23828 186.726C3.4356 184.094 3.28013 180.118 3.28013 178.283C3.26817 178.99 3.25621 179.839 3.21436 180.272L2.81374 172.917C2.92137 171.76 3.01106 172.677 3.09477 173.589C3.06487 172.096 2.93333 171.071 2.90343 168.877C3.13663 169.447 3.38178 169.31 3.48941 172.41L3.22632 165.402C3.32797 164.935 3.50735 161.807 3.59106 162.713C3.72859 158.828 3.13663 153.182 3.31601 148.032C3.26817 147.764 3.22632 147.228 3.19642 146.134C3.25023 141.292 3.53725 137.002 3.21436 131.265L3.63292 128.012C3.53725 123.517 3.10075 132.421 2.94529 124.935C2.81374 119.637 3.30405 122.959 3.41766 121.101C3.20838 118.469 2.77188 113.883 3.11869 109.018C3.2024 110.619 3.14261 111.883 3.1725 113.387ZM2.98714 57.9601C3.04694 59.0369 3.2323 61.1733 3.06487 61.9595C2.73601 60.7346 2.89147 59.7889 2.98714 57.9601ZM57.7823 20.3819C56.9452 20.4731 55.6477 20.4275 54.1827 20.325C55.247 20.3022 56.4489 20.3079 57.7823 20.3819ZM223.089 105.696C223.083 105.651 223.077 105.617 223.077 105.582C223.19 103.184 223.142 104.033 223.089 105.696ZM222.963 110.67C223.005 111.171 223.041 111.137 223.083 110.926C223.011 110.579 223.005 109.462 223.023 108.192C222.951 108.539 222.903 109.183 222.963 110.67ZM5.81539 267.779L5.1457 266.97C5.99478 267.802 6.28777 268.11 6.31766 268.144C6.34158 268.195 6.06653 267.996 5.81539 267.779Z" fill="white"/>
<path d="M47.7543 20.7573C47.4374 20.7117 47.3477 20.6604 47.27 20.6091C46.8275 20.6547 46.8215 20.706 47.7543 20.7573Z" fill="white"/>
<path d="M3.32778 147.854L3.32178 148.025C3.3398 148.116 3.35781 148.168 3.37583 148.196L3.32778 147.854Z" fill="white"/>
<path d="M220.2 33.8435C220.015 32.9035 219.919 32.3737 219.865 32.0148C219.794 31.9806 219.871 32.4193 220.2 33.8435Z" fill="white"/>
<path d="M223.454 137.03L223.376 133.845C223.388 135.389 223.328 135.936 223.28 136.716C223.352 136.642 223.454 136.033 223.454 137.03Z" fill="white"/>
<path d="M221.671 164.689C221.707 165.156 221.677 165.675 221.713 166.136L221.846 166.011C221.834 164.028 221.725 162.638 221.671 164.689Z" fill="white"/>
<path d="M222.496 139.981C222.251 140.232 222.335 142.231 222.382 144.464C222.382 144.328 222.382 144.202 222.382 144.071C222.723 144.727 222.61 142.351 222.496 139.981Z" fill="white"/>
<path d="M222.389 144.983C222.401 145.672 222.407 146.373 222.395 147.045C222.533 147.307 222.425 146.208 222.389 144.983Z" fill="white"/>
<path d="M223.124 116.976C223.064 118.036 223.435 117.642 223.334 118.241C223.644 119.426 222.963 111.182 223.124 116.976Z" fill="white"/>
<path d="M221.695 141.787L221.994 140.989L221.755 139.736L221.695 141.787Z" fill="white"/>
<path d="M221.917 124.166L221.833 127.732C221.881 127.681 221.911 128.131 221.935 128.689C221.947 126.49 222.007 124.08 221.917 124.166Z" fill="white"/>
<path d="M221.934 128.683C221.928 129.829 221.934 130.917 221.982 131.555C221.982 130.94 221.97 129.606 221.934 128.683Z" fill="white"/>
<path d="M221.605 136.91L221.672 135.856L221.69 133.338L221.605 136.91Z" fill="white"/>
<path d="M221.977 85.8183L221.893 81.9272C221.791 81.5284 221.725 82.5938 221.767 84.0408C221.839 84.9752 221.875 86.4165 221.977 85.8183Z" fill="white"/>
<path d="M221.157 97.5942C221.216 96.5403 221.288 96.4719 221.384 95.8794L221.013 95.7598L221.157 97.5942Z" fill="white"/>
<path d="M221.067 86.2399C220.966 85.8525 220.774 80.5884 220.792 85.5221C220.9 85.9209 220.984 89.8177 221.067 86.2399Z" fill="white"/>
<path d="M218.938 28.1293C219.112 28.4084 219.315 28.6762 219.465 28.9724L219.937 28.568C219.602 28.4141 219.261 28.2717 218.938 28.1293Z" fill="white"/>
<path d="M167.892 21.3327C172.736 21.4694 169.04 20.9738 173.417 21.1504C174.553 21.0136 169.842 21.0079 171.008 20.8883C168.084 21.0364 166.553 20.951 167.892 21.3327Z" fill="white"/>
<path d="M171.008 20.8883C171.474 20.8598 171.97 20.8313 172.497 20.8029C171.654 20.837 171.253 20.8655 171.008 20.8883Z" fill="white"/>
<path d="M195.177 273.743L198.292 273.869L196.283 273.669L195.177 273.743Z" fill="white"/>
<path d="M201.156 273.316L201.891 273.686L203.763 273.35C203.051 273.367 201.688 273.396 201.156 273.316Z" fill="white"/>
<path d="M3.77105 49.7157L3.67496 49.4878C3.57285 49.9493 3.56685 50.6386 3.54883 52.0344L3.77105 49.7157Z" fill="white"/>
<path d="M3.47706 89.9487L3.48901 89.2537L3.13623 90.5469L3.47706 89.9487Z" fill="white"/>
<path d="M3.92653 123.71C3.93854 122.331 3.86046 120.713 3.87848 119.329C3.94455 122.331 3.48808 124.086 3.92653 123.71Z" fill="white"/>
<path d="M30.512 93.192C32.224 93.192 33.792 92.456 34.88 91.288L32.896 89.528C32.304 90.248 31.456 90.712 30.512 90.712C28.832 90.712 27.408 89.24 27.408 87.496C27.408 85.768 28.832 84.296 30.512 84.296C31.44 84.296 32.304 84.76 32.88 85.48L34.88 83.704C33.792 82.552 32.224 81.816 30.512 81.816C27.312 81.816 24.608 84.408 24.608 87.496C24.608 90.584 27.312 93.192 30.512 93.192ZM41.4964 93.192C44.7124 93.192 47.4164 90.584 47.4164 87.496C47.4164 84.408 44.7124 81.816 41.4964 81.816C38.2964 81.816 35.5924 84.408 35.5924 87.496C35.5924 90.584 38.2964 93.192 41.4964 93.192ZM41.4964 90.712C39.8164 90.712 38.3924 89.24 38.3924 87.496C38.3924 85.768 39.8164 84.296 41.4964 84.296C43.1764 84.296 44.6004 85.768 44.6004 87.496C44.6004 89.24 43.1764 90.712 41.4964 90.712ZM49.072 93H51.808V86.504L56.592 93H59.328V82.008H56.592V88.504L51.808 82.008H49.072V93ZM65.7183 93.192C68.4383 93.192 70.1183 91.816 70.1183 89.608C70.1183 87.544 68.5343 86.84 66.0703 86.312C64.4383 85.96 63.9103 85.736 63.9103 85.064C63.9103 84.52 64.4062 84.104 65.2863 84.104C66.3103 84.104 67.4143 84.504 68.4223 85.272L69.8142 83.32C68.6463 82.344 67.2063 81.816 65.3663 81.816C62.8543 81.816 61.1583 83.224 61.1583 85.336C61.1583 87.544 62.9023 88.184 65.2543 88.712C66.8543 89.096 67.3663 89.24 67.3663 89.896C67.3663 90.488 66.8383 90.904 65.8143 90.904C64.4703 90.904 63.2703 90.392 62.1983 89.512L60.6623 91.352C61.9903 92.552 63.7663 93.192 65.7183 93.192ZM76.689 93.192C79.697 93.192 81.793 91.128 81.793 88.184V82.008H79.073V88.056C79.073 89.608 78.081 90.712 76.689 90.712C75.313 90.712 74.321 89.608 74.321 88.056V82.008H71.585V88.184C71.585 91.128 73.697 93.192 76.689 93.192ZM83.822 93H86.558V86.632L89.726 92.36L92.894 86.632V93H95.63V82.008H92.894L89.726 87.736L86.558 82.008H83.822V93ZM97.7751 93H100.511V82.008H97.7751V93ZM112.187 93L109.531 89.224C110.955 88.648 111.867 87.384 111.867 85.784C111.867 83.56 110.107 82.008 107.691 82.008H102.587V93H105.323V89.56H106.667L109.083 93H112.187ZM105.323 84.504H107.435C108.379 84.504 109.051 85.016 109.051 85.784C109.051 86.552 108.379 87.064 107.435 87.064H105.323V84.504ZM126.68 84.456V82.008H118.024V93H120.76V88.872H126.136V86.424H120.76V84.456H126.68ZM137.905 93L135.249 89.224C136.673 88.648 137.585 87.384 137.585 85.784C137.585 83.56 135.825 82.008 133.409 82.008H128.305V93H131.041V89.56H132.385L134.801 93H137.905ZM131.041 84.504H133.153C134.097 84.504 134.769 85.016 134.769 85.784C134.769 86.552 134.097 87.064 133.153 87.064H131.041V84.504ZM144.361 93.192C147.369 93.192 149.465 91.128 149.465 88.184V82.008H146.745V88.056C146.745 89.608 145.753 90.712 144.361 90.712C142.985 90.712 141.993 89.608 141.993 88.056V82.008H139.257V88.184C139.257 91.128 141.369 93.192 144.361 93.192ZM154.198 93H156.934V84.456H160.262V82.008H150.854V84.456H154.198V93ZM166.7 93.192C169.916 93.192 172.62 90.584 172.62 87.496C172.62 84.408 169.916 81.816 166.7 81.816C163.5 81.816 160.796 84.408 160.796 87.496C160.796 90.584 163.5 93.192 166.7 93.192ZM166.7 90.712C165.02 90.712 163.596 89.24 163.596 87.496C163.596 85.768 165.02 84.296 166.7 84.296C168.38 84.296 169.804 85.768 169.804 87.496C169.804 89.24 168.38 90.712 166.7 90.712ZM178.515 93.192C181.235 93.192 182.915 91.816 182.915 89.608C182.915 87.544 181.331 86.84 178.867 86.312C177.235 85.96 176.707 85.736 176.707 85.064C176.707 84.52 177.203 84.104 178.083 84.104C179.107 84.104 180.211 84.504 181.219 85.272L182.611 83.32C181.443 82.344 180.003 81.816 178.163 81.816C175.651 81.816 173.955 83.224 173.955 85.336C173.955 87.544 175.699 88.184 178.051 88.712C179.651 89.096 180.163 89.24 180.163 89.896C180.163 90.488 179.635 90.904 178.611 90.904C177.267 90.904 176.067 90.392 174.995 89.512L173.459 91.352C174.787 92.552 176.563 93.192 178.515 93.192ZM25.072 112H29.088C32.864 112 35.52 109.712 35.52 106.496C35.52 103.28 32.864 101.008 29.088 101.008H25.072V112ZM27.808 109.52V103.488H29.504C31.376 103.488 32.72 104.736 32.72 106.496C32.72 108.256 31.376 109.52 29.504 109.52H27.808ZM42.6683 112.192C45.8843 112.192 48.5883 109.584 48.5883 106.496C48.5883 103.408 45.8843 100.816 42.6683 100.816C39.4683 100.816 36.7643 103.408 36.7643 106.496C36.7643 109.584 39.4683 112.192 42.6683 112.192ZM42.6683 109.712C40.9883 109.712 39.5643 108.24 39.5643 106.496C39.5643 104.768 40.9883 103.296 42.6683 103.296C44.3483 103.296 45.7723 104.768 45.7723 106.496C45.7723 108.24 44.3483 109.712 42.6683 109.712ZM54.6658 112H57.4018V105.632L60.5698 111.36L63.7378 105.632V112H66.4738V101.008H63.7378L60.5698 106.736L57.4018 101.008H54.6658V112ZM76.3629 112H79.4349L75.0829 101.008H72.0109L67.6589 112H70.7309L71.3709 110.4H75.7229L76.3629 112ZM72.2189 108.256L73.5469 104.88L74.8749 108.256H72.2189ZM90.1709 112L87.5149 108.224C88.9389 107.648 89.8509 106.384 89.8509 104.784C89.8509 102.56 88.0909 101.008 85.6749 101.008H80.5709V112H83.3069V108.56H84.6509L87.0669 112H90.1709ZM83.3069 103.504H85.4189C86.3629 103.504 87.0349 104.016 87.0349 104.784C87.0349 105.552 86.3629 106.064 85.4189 106.064H83.3069V103.504ZM96.0564 112H100.072C103.848 112 106.504 109.712 106.504 106.496C106.504 103.28 103.848 101.008 100.072 101.008H96.0564V112ZM98.7924 109.52V103.488H100.488C102.36 103.488 103.704 104.736 103.704 106.496C103.704 108.256 102.36 109.52 100.488 109.52H98.7924ZM116.821 103.456V101.008H108.165V112H116.821V109.552H110.901V107.616H116.277V105.168H110.901V103.456H116.821ZM131.586 103.456V101.008H122.93V112H125.666V107.872H131.042V105.424H125.666V103.456H131.586ZM138.7 112.192C141.916 112.192 144.62 109.584 144.62 106.496C144.62 103.408 141.916 100.816 138.7 100.816C135.5 100.816 132.796 103.408 132.796 106.496C132.796 109.584 135.5 112.192 138.7 112.192ZM138.7 109.712C137.02 109.712 135.596 108.24 135.596 106.496C135.596 104.768 137.02 103.296 138.7 103.296C140.38 103.296 141.804 104.768 141.804 106.496C141.804 108.24 140.38 109.712 138.7 109.712ZM155.827 112L153.171 108.224C154.595 107.648 155.507 106.384 155.507 104.784C155.507 102.56 153.747 101.008 151.331 101.008H146.227V112H148.963V108.56H150.307L152.723 112H155.827ZM148.963 103.504H151.075C152.019 103.504 152.691 104.016 152.691 104.784C152.691 105.552 152.019 106.064 151.075 106.064H148.963V103.504ZM157.291 112H160.027V105.632L163.195 111.36L166.363 105.632V112H169.099V101.008H166.363L163.195 106.736L160.027 101.008H157.291V112ZM178.988 112H182.06L177.708 101.008H174.636L170.284 112H173.356L173.996 110.4H178.348L178.988 112ZM174.844 108.256L176.172 104.88L177.5 108.256H174.844ZM30.512 131.192C32.224 131.192 33.792 130.456 34.88 129.288L32.896 127.528C32.304 128.248 31.456 128.712 30.512 128.712C28.832 128.712 27.408 127.24 27.408 125.496C27.408 123.768 28.832 122.296 30.512 122.296C31.44 122.296 32.304 122.76 32.88 123.48L34.88 121.704C33.792 120.552 32.224 119.816 30.512 119.816C27.312 119.816 24.608 122.408 24.608 125.496C24.608 128.584 27.312 131.192 30.512 131.192ZM41.4964 131.192C44.7124 131.192 47.4164 128.584 47.4164 125.496C47.4164 122.408 44.7124 119.816 41.4964 119.816C38.2964 119.816 35.5924 122.408 35.5924 125.496C35.5924 128.584 38.2964 131.192 41.4964 131.192ZM41.4964 128.712C39.8164 128.712 38.3924 127.24 38.3924 125.496C38.3924 123.768 39.8164 122.296 41.4964 122.296C43.1764 122.296 44.6004 123.768 44.6004 125.496C44.6004 127.24 43.1764 128.712 41.4964 128.712ZM49.072 131H51.808V124.504L56.592 131H59.328V120.008H56.592V126.504L51.808 120.008H49.072V131ZM65.7183 131.192C68.4383 131.192 70.1183 129.816 70.1183 127.608C70.1183 125.544 68.5343 124.84 66.0703 124.312C64.4383 123.96 63.9103 123.736 63.9103 123.064C63.9103 122.52 64.4062 122.104 65.2863 122.104C66.3103 122.104 67.4143 122.504 68.4223 123.272L69.8142 121.32C68.6463 120.344 67.2063 119.816 65.3663 119.816C62.8543 119.816 61.1583 121.224 61.1583 123.336C61.1583 125.544 62.9023 126.184 65.2543 126.712C66.8543 127.096 67.3663 127.24 67.3663 127.896C67.3663 128.488 66.8383 128.904 65.8143 128.904C64.4703 128.904 63.2703 128.392 62.1983 127.512L60.6623 129.352C61.9903 130.552 63.7663 131.192 65.7183 131.192ZM77.137 131.192C78.849 131.192 80.417 130.456 81.505 129.288L79.521 127.528C78.929 128.248 78.081 128.712 77.137 128.712C75.457 128.712 74.033 127.24 74.033 125.496C74.033 123.768 75.457 122.296 77.137 122.296C78.065 122.296 78.929 122.76 79.505 123.48L81.505 121.704C80.417 120.552 78.849 119.816 77.137 119.816C73.937 119.816 71.233 122.408 71.233 125.496C71.233 128.584 73.937 131.192 77.137 131.192ZM82.9158 131H85.6518V120.008H82.9158V131ZM96.3831 122.456V120.008H87.7271V131H96.3831V128.552H90.4631V126.616H95.8391V124.168H90.4631V122.456H96.3831ZM98.1189 131H100.855V124.504L105.639 131H108.375V120.008H105.639V126.504L100.855 120.008H98.1189V131ZM113.229 131H115.965V122.456H119.293V120.008H109.885V122.456H113.229V131ZM129.399 122.456V120.008H120.743V131H129.399V128.552H123.479V126.616H128.855V124.168H123.479V122.456H129.399ZM132.527 131.192C133.407 131.192 134.143 130.44 134.143 129.512C134.143 128.648 133.407 127.896 132.527 127.896C131.567 127.896 130.831 128.648 130.831 129.512C130.831 130.44 131.567 131.192 132.527 131.192ZM144.625 131.192C147.345 131.192 149.025 129.816 149.025 127.608C149.025 125.544 147.441 124.84 144.977 124.312C143.345 123.96 142.817 123.736 142.817 123.064C142.817 122.52 143.312 122.104 144.193 122.104C145.217 122.104 146.321 122.504 147.329 123.272L148.72 121.32C147.553 120.344 146.113 119.816 144.273 119.816C141.761 119.816 140.065 121.224 140.065 123.336C140.065 125.544 141.809 126.184 144.161 126.712C145.761 127.096 146.273 127.24 146.273 127.896C146.273 128.488 145.745 128.904 144.721 128.904C143.377 128.904 142.177 128.392 141.105 127.512L139.569 129.352C140.897 130.552 142.673 131.192 144.625 131.192ZM158.347 131H161.419L157.067 120.008H153.995L149.643 131H152.715L153.355 129.4H157.707L158.347 131ZM154.203 127.256L155.531 123.88L156.859 127.256H154.203ZM162.603 131H168.555C170.731 131 172.283 129.784 172.283 128.024C172.283 126.824 171.531 125.784 170.267 125.224C171.227 124.744 171.787 123.864 171.787 122.776C171.787 121.176 170.379 120.008 168.347 120.008H162.603V131ZM165.323 124.36V122.328H167.675C168.427 122.328 168.971 122.744 168.971 123.336C168.971 123.928 168.427 124.36 167.675 124.36H165.323ZM165.323 128.68V126.472H168.091C168.891 126.472 169.467 126.936 169.467 127.576C169.467 128.216 168.891 128.68 168.091 128.68H165.323ZM182.493 122.456V120.008H173.837V131H182.493V128.552H176.573V126.616H181.949V124.168H176.573V122.456H182.493ZM193.78 131L191.124 127.224C192.548 126.648 193.46 125.384 193.46 123.784C193.46 121.56 191.7 120.008 189.284 120.008H184.18V131H186.916V127.56H188.26L190.676 131H193.78ZM186.916 122.504H189.028C189.972 122.504 190.644 123.016 190.644 123.784C190.644 124.552 189.972 125.064 189.028 125.064H186.916V122.504ZM30.512 150.192C32.224 150.192 33.792 149.456 34.88 148.288L32.896 146.528C32.304 147.248 31.456 147.712 30.512 147.712C28.832 147.712 27.408 146.24 27.408 144.496C27.408 142.768 28.832 141.296 30.512 141.296C31.44 141.296 32.304 141.76 32.88 142.48L34.88 140.704C33.792 139.552 32.224 138.816 30.512 138.816C27.312 138.816 24.608 141.408 24.608 144.496C24.608 147.584 27.312 150.192 30.512 150.192ZM41.4964 150.192C44.7124 150.192 47.4164 147.584 47.4164 144.496C47.4164 141.408 44.7124 138.816 41.4964 138.816C38.2964 138.816 35.5924 141.408 35.5924 144.496C35.5924 147.584 38.2964 150.192 41.4964 150.192ZM41.4964 147.712C39.8164 147.712 38.3924 146.24 38.3924 144.496C38.3924 142.768 39.8164 141.296 41.4964 141.296C43.1764 141.296 44.6004 142.768 44.6004 144.496C44.6004 146.24 43.1764 147.712 41.4964 147.712ZM49.072 150H51.808V143.632L54.976 149.36L58.144 143.632V150H60.88V139.008H58.144L54.976 144.736L51.808 139.008H49.072V150ZM68.4651 150.192C71.6811 150.192 74.3851 147.584 74.3851 144.496C74.3851 141.408 71.6811 138.816 68.4651 138.816C65.2651 138.816 62.5611 141.408 62.5611 144.496C62.5611 147.584 65.2651 150.192 68.4651 150.192ZM68.4651 147.712C66.7851 147.712 65.3611 146.24 65.3611 144.496C65.3611 142.768 66.7851 141.296 68.4651 141.296C70.1451 141.296 71.5691 142.768 71.5691 144.496C71.5691 146.24 70.1451 147.712 68.4651 147.712ZM89.0706 141.456V139.008H80.4146V150H83.1506V145.872H88.5266V143.424H83.1506V141.456H89.0706ZM96.1839 150.192C99.3999 150.192 102.104 147.584 102.104 144.496C102.104 141.408 99.3999 138.816 96.1839 138.816C92.9839 138.816 90.2799 141.408 90.2799 144.496C90.2799 147.584 92.9839 150.192 96.1839 150.192ZM96.1839 147.712C94.5039 147.712 93.0799 146.24 93.0799 144.496C93.0799 142.768 94.5039 141.296 96.1839 141.296C97.8639 141.296 99.2879 142.768 99.2879 144.496C99.2879 146.24 97.8639 147.712 96.1839 147.712ZM113.312 150L110.656 146.224C112.08 145.648 112.992 144.384 112.992 142.784C112.992 140.56 111.232 139.008 108.816 139.008H103.712V150H106.448V146.56H107.792L110.208 150H113.312ZM106.448 141.504H108.56C109.504 141.504 110.176 142.016 110.176 142.784C110.176 143.552 109.504 144.064 108.56 144.064H106.448V141.504ZM122.519 150H125.591L121.239 139.008H118.167L113.815 150H116.887L117.527 148.4H121.879L122.519 150ZM118.375 146.256L119.703 142.88L121.031 146.256H118.375ZM126.775 150H129.511V143.632L132.679 149.36L135.847 143.632V150H138.583V139.008H135.847L132.679 144.736L129.511 139.008H126.775V150ZM30.512 169.192C32.224 169.192 33.792 168.456 34.88 167.288L32.896 165.528C32.304 166.248 31.456 166.712 30.512 166.712C28.832 166.712 27.408 165.24 27.408 163.496C27.408 161.768 28.832 160.296 30.512 160.296C31.44 160.296 32.304 160.76 32.88 161.48L34.88 159.704C33.792 158.552 32.224 157.816 30.512 157.816C27.312 157.816 24.608 160.408 24.608 163.496C24.608 166.584 27.312 169.192 30.512 169.192ZM44.0347 169H47.1068L42.7548 158.008H39.6828L35.3308 169H38.4028L39.0428 167.4H43.3948L44.0347 169ZM39.8908 165.256L41.2188 161.88L42.5468 165.256H39.8908ZM48.2428 169H50.9788V165.56H53.3468C55.7628 165.56 57.5228 164.008 57.5228 161.784C57.5228 159.56 55.7628 158.008 53.3468 158.008H48.2428V169ZM50.9788 163.064V160.504H53.0908C54.0348 160.504 54.7068 161.016 54.7068 161.784C54.7068 162.552 54.0348 163.064 53.0908 163.064H50.9788ZM61.6354 169H64.3714V160.456H67.6994V158.008H58.2914V160.456H61.6354V169ZM74.189 169.192C77.197 169.192 79.293 167.128 79.293 164.184V158.008H76.573V164.056C76.573 165.608 75.581 166.712 74.189 166.712C72.813 166.712 71.821 165.608 71.821 164.056V158.008H69.085V164.184C69.085 167.128 71.197 169.192 74.189 169.192ZM90.874 169L88.218 165.224C89.642 164.648 90.554 163.384 90.554 161.784C90.554 159.56 88.794 158.008 86.378 158.008H81.274V169H84.01V165.56H85.354L87.77 169H90.874ZM84.01 160.504H86.122C87.066 160.504 87.738 161.016 87.738 161.784C87.738 162.552 87.066 163.064 86.122 163.064H84.01V160.504ZM100.082 169H103.154L98.8016 158.008H95.7296L91.3776 169H94.4496L95.0896 167.4H99.4416L100.082 169ZM95.9376 165.256L97.2656 161.88L98.5936 165.256H95.9376ZM104.338 169H108.354C112.13 169 114.786 166.712 114.786 163.496C114.786 160.28 112.13 158.008 108.354 158.008H104.338V169ZM107.074 166.52V160.488H108.77C110.642 160.488 111.986 161.736 111.986 163.496C111.986 165.256 110.642 166.52 108.77 166.52H107.074ZM121.934 169.192C125.15 169.192 127.854 166.584 127.854 163.496C127.854 160.408 125.15 157.816 121.934 157.816C118.734 157.816 116.03 160.408 116.03 163.496C116.03 166.584 118.734 169.192 121.934 169.192ZM121.934 166.712C120.254 166.712 118.83 165.24 118.83 163.496C118.83 161.768 120.254 160.296 121.934 160.296C123.614 160.296 125.038 161.768 125.038 163.496C125.038 165.24 123.614 166.712 121.934 166.712ZM133.75 169.192C136.47 169.192 138.15 167.816 138.15 165.608C138.15 163.544 136.566 162.84 134.102 162.312C132.47 161.96 131.942 161.736 131.942 161.064C131.942 160.52 132.438 160.104 133.318 160.104C134.342 160.104 135.446 160.504 136.454 161.272L137.845 159.32C136.678 158.344 135.238 157.816 133.398 157.816C130.886 157.816 129.19 159.224 129.19 161.336C129.19 163.544 130.934 164.184 133.286 164.712C134.886 165.096 135.398 165.24 135.398 165.896C135.398 166.488 134.87 166.904 133.846 166.904C132.502 166.904 131.302 166.392 130.23 165.512L128.694 167.352C130.022 168.552 131.798 169.192 133.75 169.192ZM33.68 179.456V177.008H25.024V188H33.68V185.552H27.76V183.616H33.136V181.168H27.76V179.456H33.68ZM48.4456 179.456V177.008H39.7896V188H48.4456V185.552H42.5256V183.616H47.9016V181.168H42.5256V179.456H48.4456ZM54.4214 188.192C57.1414 188.192 58.8214 186.816 58.8214 184.608C58.8214 182.544 57.2374 181.84 54.7734 181.312C53.1414 180.96 52.6134 180.736 52.6134 180.064C52.6134 179.52 53.1094 179.104 53.9894 179.104C55.0134 179.104 56.1174 179.504 57.1254 180.272L58.5174 178.32C57.3494 177.344 55.9094 176.816 54.0694 176.816C51.5574 176.816 49.8614 178.224 49.8614 180.336C49.8614 182.544 51.6054 183.184 53.9574 183.712C55.5574 184.096 56.0694 184.24 56.0694 184.896C56.0694 185.488 55.5414 185.904 54.5174 185.904C53.1734 185.904 51.9734 185.392 50.9014 184.512L49.3654 186.352C50.6934 187.552 52.4694 188.192 54.4214 188.192ZM65.8401 188.192C67.5521 188.192 69.1201 187.456 70.2081 186.288L68.2241 184.528C67.6321 185.248 66.7841 185.712 65.8401 185.712C64.1601 185.712 62.7361 184.24 62.7361 182.496C62.7361 180.768 64.1601 179.296 65.8401 179.296C66.7681 179.296 67.6321 179.76 68.2081 180.48L70.2081 178.704C69.1201 177.552 67.5521 176.816 65.8401 176.816C62.6401 176.816 59.9361 179.408 59.9361 182.496C59.9361 185.584 62.6401 188.192 65.8401 188.192ZM76.8245 188.192C80.0405 188.192 82.7445 185.584 82.7445 182.496C82.7445 179.408 80.0405 176.816 76.8245 176.816C73.6245 176.816 70.9205 179.408 70.9205 182.496C70.9205 185.584 73.6245 188.192 76.8245 188.192ZM76.8245 185.712C75.1445 185.712 73.7205 184.24 73.7205 182.496C73.7205 180.768 75.1445 179.296 76.8245 179.296C78.5045 179.296 79.9285 180.768 79.9285 182.496C79.9285 184.24 78.5045 185.712 76.8245 185.712ZM87.0401 185.552V177.008H84.3201V188H92.3361V185.552H87.0401ZM101.006 177.008V181.168H96.51V177.008H93.774V188H96.51V183.616H101.006V188H103.742V177.008H101.006ZM114.446 179.456V177.008H105.79V188H114.446V185.552H108.526V183.616H113.902V181.168H108.526V179.456H114.446ZM125.733 188L123.077 184.224C124.501 183.648 125.413 182.384 125.413 180.784C125.413 178.56 123.653 177.008 121.237 177.008H116.133V188H118.869V184.56H120.213L122.629 188H125.733ZM118.869 179.504H120.981C121.925 179.504 122.597 180.016 122.597 180.784C122.597 181.552 121.925 182.064 120.981 182.064H118.869V179.504ZM30.512 207.192C33.728 207.192 36.432 204.584 36.432 201.496C36.432 198.408 33.728 195.816 30.512 195.816C27.312 195.816 24.608 198.408 24.608 201.496C24.608 204.584 27.312 207.192 30.512 207.192ZM30.512 204.712C28.832 204.712 27.408 203.24 27.408 201.496C27.408 199.768 28.832 198.296 30.512 198.296C32.192 198.296 33.616 199.768 33.616 201.496C33.616 203.24 32.192 204.712 30.512 204.712ZM42.3276 207.192C45.0476 207.192 46.7276 205.816 46.7276 203.608C46.7276 201.544 45.1436 200.84 42.6796 200.312C41.0476 199.96 40.5196 199.736 40.5196 199.064C40.5196 198.52 41.0156 198.104 41.8956 198.104C42.9196 198.104 44.0236 198.504 45.0316 199.272L46.4236 197.32C45.2556 196.344 43.8156 195.816 41.9756 195.816C39.4636 195.816 37.7676 197.224 37.7676 199.336C37.7676 201.544 39.5116 202.184 41.8636 202.712C43.4636 203.096 43.9756 203.24 43.9756 203.896C43.9756 204.488 43.4476 204.904 42.4236 204.904C41.0796 204.904 39.8796 204.392 38.8076 203.512L37.2716 205.352C38.5996 206.552 40.3756 207.192 42.3276 207.192ZM64.0883 201.496C64.0883 198.408 61.3843 195.816 58.1683 195.816C54.9683 195.816 52.2643 198.408 52.2643 201.496C52.2643 204.584 54.9683 207.192 58.1683 207.192C59.4643 207.192 60.6643 206.776 61.6562 206.072L62.7283 207L64.0563 205.464L63.0803 204.616C63.7203 203.72 64.0883 202.632 64.0883 201.496ZM58.1683 204.712C56.4883 204.712 55.0643 203.24 55.0643 201.496C55.0643 199.768 56.4883 198.296 58.1683 198.296C59.8483 198.296 61.2723 199.768 61.2723 201.496C61.2723 201.96 61.1763 202.392 61.0003 202.792L59.8323 201.784L58.5043 203.32L59.6403 204.312C59.2083 204.568 58.6963 204.712 58.1683 204.712ZM70.7359 207.192C73.7439 207.192 75.8399 205.128 75.8399 202.184V196.008H73.1199V202.056C73.1199 203.608 72.1279 204.712 70.7359 204.712C69.3599 204.712 68.3679 203.608 68.3679 202.056V196.008H65.6319V202.184C65.6319 205.128 67.7439 207.192 70.7359 207.192ZM86.4769 198.456V196.008H77.8209V207H86.4769V204.552H80.5569V202.616H85.9329V200.168H80.5569V198.456H86.4769ZM92.6345 207H95.3705V200.504L100.155 207H102.891V196.008H100.155V202.504L95.3705 196.008H92.6345V207ZM108.961 194.392C109.441 194.392 110.177 195.128 111.073 195.128C112.193 195.128 112.769 194.408 112.929 192.952L111.633 192.76C111.537 193.272 111.345 193.512 110.993 193.512C110.529 193.512 109.761 192.776 108.881 192.776C107.777 192.776 107.201 193.496 107.025 194.968L108.321 195.144C108.433 194.632 108.625 194.392 108.961 194.392ZM112.785 207H115.857L111.505 196.008H108.433L104.081 207H107.153L107.793 205.4H112.145L112.785 207ZM108.641 203.256L109.969 199.88L111.297 203.256H108.641ZM122.481 207.192C125.697 207.192 128.401 204.584 128.401 201.496C128.401 198.408 125.697 195.816 122.481 195.816C119.281 195.816 116.577 198.408 116.577 201.496C116.577 204.584 119.281 207.192 122.481 207.192ZM122.481 204.712C120.801 204.712 119.377 203.24 119.377 201.496C119.377 199.768 120.801 198.296 122.481 198.296C124.161 198.296 125.585 199.768 125.585 201.496C125.585 203.24 124.161 204.712 122.481 204.712ZM25.024 226H27.76V222.56H30.128C32.544 222.56 34.304 221.008 34.304 218.784C34.304 216.56 32.544 215.008 30.128 215.008H25.024V226ZM27.76 220.064V217.504H29.872C30.816 217.504 31.488 218.016 31.488 218.784C31.488 219.552 30.816 220.064 29.872 220.064H27.76ZM45.2646 226L42.6086 222.224C44.0326 221.648 44.9446 220.384 44.9446 218.784C44.9446 216.56 43.1846 215.008 40.7686 215.008H35.6646V226H38.4006V222.56H39.7446L42.1606 226H45.2646ZM38.4006 217.504H40.5126C41.4566 217.504 42.1286 218.016 42.1286 218.784C42.1286 219.552 41.4566 220.064 40.5126 220.064H38.4006V217.504ZM55.3363 217.456V215.008H46.6803V226H55.3363V223.552H49.4163V221.616H54.7923V219.168H49.4163V217.456H55.3363ZM59.904 226.192C62.176 226.192 63.792 224.624 63.792 222.416V215.008H61.056V222.16C61.056 223.072 60.432 223.712 59.568 223.712C58.928 223.712 58.24 223.264 57.904 222.624L56.128 224.368C56.88 225.44 58.464 226.192 59.904 226.192ZM70.7984 226.192C73.8064 226.192 75.9024 224.128 75.9024 221.184V215.008H73.1824V221.056C73.1824 222.608 72.1904 223.712 70.7984 223.712C69.4224 223.712 68.4304 222.608 68.4304 221.056V215.008H65.6944V221.184C65.6944 224.128 67.8064 226.192 70.7984 226.192ZM77.9314 226H81.9474C85.7234 226 88.3794 223.712 88.3794 220.496C88.3794 217.28 85.7234 215.008 81.9474 215.008H77.9314V226ZM80.6674 223.52V217.488H82.3634C84.2354 217.488 85.5794 218.736 85.5794 220.496C85.5794 222.256 84.2354 223.52 82.3634 223.52H80.6674ZM90.0876 226H92.8236V215.008H90.0876V226ZM100.387 226.192C102.099 226.192 103.667 225.456 104.755 224.288L102.771 222.528C102.179 223.248 101.331 223.712 100.387 223.712C98.707 223.712 97.283 222.24 97.283 220.496C97.283 218.768 98.707 217.296 100.387 217.296C101.315 217.296 102.179 217.76 102.755 218.48L104.755 216.704C103.667 215.552 102.099 214.816 100.387 214.816C97.187 214.816 94.483 217.408 94.483 220.496C94.483 223.584 97.187 226.192 100.387 226.192ZM113.91 226H116.982L112.63 215.008H109.558L105.206 226H108.278L108.918 224.4H113.27L113.91 226ZM109.766 222.256L111.094 218.88L112.422 222.256H109.766ZM118.166 226H120.902V219.632L124.07 225.36L127.238 219.632V226H129.974V215.008H127.238L124.07 220.736L120.902 215.008H118.166V226ZM32.816 245H35.888L31.536 234.008H28.464L24.112 245H27.184L27.824 243.4H32.176L32.816 245ZM28.672 241.256L30 237.88L31.328 241.256H28.672ZM41.312 245.192C44.032 245.192 45.712 243.816 45.712 241.608C45.712 239.544 44.128 238.84 41.664 238.312C40.032 237.96 39.504 237.736 39.504 237.064C39.504 236.52 40 236.104 40.88 236.104C41.904 236.104 43.008 236.504 44.016 237.272L45.408 235.32C44.24 234.344 42.8 233.816 40.96 233.816C38.448 233.816 36.752 235.224 36.752 237.336C36.752 239.544 38.496 240.184 40.848 240.712C42.448 241.096 42.96 241.24 42.96 241.896C42.96 242.488 42.432 242.904 41.408 242.904C40.064 242.904 38.864 242.392 37.792 241.512L36.256 243.352C37.584 244.552 39.36 245.192 41.312 245.192ZM54.4166 245H57.1526V236.456H60.4806V234.008H51.0726V236.456H54.4166V245ZM68.9879 245H72.0599L67.7079 234.008H64.6359L60.2839 245H63.3559L63.9959 243.4H68.3479L68.9879 245ZM64.8439 241.256L66.1719 237.88L67.4999 241.256H64.8439ZM82.7959 245L80.1399 241.224C81.5639 240.648 82.4759 239.384 82.4759 237.784C82.4759 235.56 80.7159 234.008 78.2999 234.008H73.1959V245H75.9319V241.56H77.2759L79.6919 245H82.7959ZM75.9319 236.504H78.0439C78.9879 236.504 79.6599 237.016 79.6599 237.784C79.6599 238.552 78.9879 239.064 78.0439 239.064H75.9319V236.504ZM86.9635 245H89.6995V236.456H93.0275V234.008H83.6195V236.456H86.9635V245ZM101.535 245H104.607L100.255 234.008H97.1828L92.8308 245H95.9028L96.5428 243.4H100.895L101.535 245ZM97.3908 241.256L98.7188 237.88L100.047 241.256H97.3908ZM115.343 245L112.687 241.224C114.111 240.648 115.023 239.384 115.023 237.784C115.023 235.56 113.263 234.008 110.847 234.008H105.743V245H108.479V241.56H109.823L112.239 245H115.343ZM108.479 236.504H110.591C111.535 236.504 112.207 237.016 112.207 237.784C112.207 238.552 111.535 239.064 110.591 239.064H108.479V236.504ZM121.798 245.192C124.806 245.192 126.902 243.128 126.902 240.184V234.008H124.182V240.056C124.182 241.608 123.19 242.712 121.798 242.712C120.422 242.712 119.43 241.608 119.43 240.056V234.008H116.694V240.184C116.694 243.128 118.806 245.192 121.798 245.192ZM133.923 240.76H136.275V242.136C135.731 242.504 135.075 242.712 134.435 242.712C132.723 242.712 131.267 241.24 131.267 239.496C131.267 237.768 132.723 236.296 134.435 236.296C135.379 236.296 136.339 236.744 136.931 237.48L138.931 235.704C137.811 234.52 136.131 233.816 134.435 233.816C131.187 233.816 128.467 236.408 128.467 239.496C128.467 242.584 131.187 245.192 134.435 245.192C136.131 245.192 137.811 244.488 138.931 243.288V238.696H133.923V240.76ZM148.55 245H151.622L147.27 234.008H144.198L139.846 245H142.918L143.558 243.4H147.91L148.55 245ZM144.406 241.256L145.734 237.88L147.062 241.256H144.406ZM157.046 245.192C159.766 245.192 161.446 243.816 161.446 241.608C161.446 239.544 159.862 238.84 157.398 238.312C155.766 237.96 155.238 237.736 155.238 237.064C155.238 236.52 155.734 236.104 156.614 236.104C157.638 236.104 158.742 236.504 159.75 237.272L161.142 235.32C159.974 234.344 158.534 233.816 156.694 233.816C154.182 233.816 152.486 235.224 152.486 237.336C152.486 239.544 154.23 240.184 156.582 240.712C158.182 241.096 158.694 241.24 158.694 241.896C158.694 242.488 158.166 242.904 157.142 242.904C155.798 242.904 154.598 242.392 153.526 241.512L151.99 243.352C153.318 244.552 155.094 245.192 157.046 245.192ZM164.417 245.192C165.297 245.192 166.033 244.44 166.033 243.512C166.033 242.648 165.297 241.896 164.417 241.896C163.457 241.896 162.721 242.648 162.721 243.512C162.721 244.44 163.457 245.192 164.417 245.192Z" fill="#282828"/>
<g clip-path="url(#clip0)">
<path d="M199.706 70.5524C218.628 70.5524 233.967 55.0849 233.967 36.0048C233.967 16.9247 218.628 1.45728 199.706 1.45728C180.784 1.45728 165.445 16.9247 165.445 36.0048C165.445 55.0849 180.784 70.5524 199.706 70.5524Z" fill="#84D8C8"/>
<path d="M235.894 36.0048L236 35.898L235.682 35.6162L235.894 36.0048Z" fill="#92DCCE"/>
<path d="M235.143 34.1881C235.095 34.2464 234.998 34.227 234.95 34.2755L235.856 35.3151C236.318 34.8196 234.825 34.5184 235.143 34.1881Z" fill="#92DCCE"/>
<path d="M235.21 33.8772C235.393 33.4498 234.979 33.304 234.834 33.2263C235.152 33.3429 234.777 33.9938 235.21 33.8772Z" fill="#92DCCE"/>
<path d="M216.577 4.60503C216.615 4.62447 216.663 4.6439 216.702 4.6439C216.654 4.60504 216.606 4.5856 216.577 4.60503Z" fill="#92DCCE"/>
<path d="M207.52 2.6231L207.356 2.91456C208.223 2.84655 209.11 3.06029 209.958 3.35175C210.796 3.71122 211.624 4.09983 212.501 4.29413L212.347 4.36214C216.432 6.16918 220.228 8.0248 223.697 11.0268C223.62 11.0074 223.533 11.056 223.456 11.0365C223.697 11.1045 224.015 11.124 224.178 11.3086C224.178 11.4057 224.024 11.3669 223.938 11.3377C224.217 12.3967 226.086 13.2031 226.182 13.9123C226.394 14.0871 226.635 14.0483 226.674 13.8151C229.054 16.5354 231.067 19.8677 232.792 23.2001C232.782 23.3944 232.657 23.4818 232.474 23.5013C234.488 26.1632 234.805 29.6899 234.998 32.9251C235.229 33.032 235.22 32.5656 235.47 32.8765C235.701 31.769 234.661 31.0112 234.95 30.0008L235.181 30.0882C235.21 29.3693 234.622 30.0396 234.786 29.2721C234.921 28.9515 235.066 29.2916 235.066 29.1556C234.921 28.4172 234.699 27.6788 234.507 26.9502C234.276 26.2313 234.064 25.5123 233.563 24.9391C233.89 24.4631 233.033 23.4333 233.274 22.7532C232.965 22.4617 232.879 22.0731 232.541 22.0634C230.74 17.1475 227.213 12.9602 223.359 9.43352C222.743 9.20035 222.242 8.80203 221.673 8.44256C221.124 8.06366 220.604 7.62648 220.084 7.15043C219.573 6.65495 219.005 6.21776 218.407 5.80972C217.81 5.39196 217.193 5.00335 216.538 4.69246C216.538 4.6536 216.557 4.62445 216.586 4.61474C215.623 4.401 214.351 3.89581 213.368 3.30317L212.328 3.33232C209.37 1.64186 205.921 0.922927 202.51 0.592607L199.928 0.466309C199.07 0.466309 198.203 0.544031 197.336 0.573177L196.045 0.641184L194.764 0.816059C193.906 0.942358 193.039 0.990934 192.191 1.16581C188.318 1.86531 184.763 3.15744 181.545 4.99363L180.35 5.71256C179.946 5.94573 179.56 6.20804 179.204 6.4995C178.471 7.0727 177.749 7.65562 177.036 8.25797C176.381 8.92832 175.735 9.61811 175.109 10.3273C174.463 11.0171 173.972 11.8623 173.433 12.659C173.375 12.591 173.298 12.6104 173.394 12.4355C173.066 12.8824 172.691 13.2711 172.373 13.6985C172.045 14.1163 171.727 14.534 171.4 14.9421C171.082 15.3501 170.754 15.7485 170.446 16.1759C170.176 16.6228 169.926 17.0697 169.694 17.5458L169.627 17.4875C169.386 18.0898 169.087 18.6728 168.818 19.2751C168.577 19.8872 168.326 20.4992 168.056 21.1016C167.469 22.2868 167.074 23.5595 166.602 24.8031C166.351 25.4152 166.187 26.0661 166.033 26.6976C165.869 27.3388 165.725 27.9703 165.58 28.6115C165.368 29.8939 165.32 31.1861 165.33 32.4102C164.694 38.3365 165.696 45.3121 168.74 50.8498L168.567 50.9178C168.885 51.4619 169.174 52.0156 169.453 52.5791C169.781 53.1037 170.099 53.6478 170.407 54.1821C170.985 55.2897 171.679 56.3098 172.353 57.359C172.989 58.4374 173.837 59.3507 174.627 60.3319C175.013 60.8274 175.485 61.2452 175.947 61.6726C176.41 62.1001 176.891 62.5081 177.383 62.9065C178.327 63.8003 179.396 64.5969 180.524 65.2964C181.111 65.617 181.699 65.9182 182.296 66.2194L183.192 66.6663L184.127 67.0257L185.987 67.735C186.594 67.9876 187.249 68.1236 187.865 68.3373C188.492 68.5316 189.099 68.7745 189.715 68.9785C190.341 69.1534 190.958 69.3574 191.565 69.5809C191.921 69.7946 192.317 69.9598 192.721 70.1055C193.135 70.2124 193.569 70.2804 194.022 70.3289C194.918 70.3969 195.833 70.4941 196.758 70.3969C197.673 70.3192 198.579 70.2415 199.427 70.2415C200.284 70.2221 201.094 70.1929 201.855 70.3969C203.416 70.7467 204.967 70.5913 206.518 70.4844C207.289 70.3872 208.031 70.1832 208.782 69.9986C209.534 69.814 210.276 69.6003 210.979 69.27C211.692 68.9688 212.395 68.6482 213.089 68.3179C213.763 67.9487 214.418 67.5115 215.064 67.1035L216.027 66.472L216.933 65.7433C217.53 65.2576 218.128 64.7718 218.716 64.2763C219.313 63.9071 219.891 63.5088 220.469 63.0911L221.317 62.4596L222.088 61.7309L223.591 60.2542C224.053 59.7296 224.487 59.1661 224.93 58.6317C225.864 57.5922 226.568 56.3875 227.435 55.3188C227.868 54.7845 228.206 54.1821 228.63 53.6381C229.025 53.0746 229.506 52.5597 229.901 51.9865C230.036 51.3258 230.296 50.7138 230.624 50.1114C230.788 49.8103 230.99 49.5285 231.154 49.2176C231.327 48.9165 231.501 48.6056 231.674 48.2947C232.04 47.6729 232.416 47.0414 232.763 46.3905C233.042 45.7104 233.274 45.0109 233.418 44.2823L233.177 44.3308C233.63 43.8937 233.582 43.2719 233.466 42.7084C233.351 42.1352 233.274 41.6397 233.823 41.3968L233.852 41.5134C234.449 41.0276 232.84 40.0658 233.495 39.8229L233.254 39.7064C233.264 39.0457 233.563 39.6578 233.697 39.1526C233.678 38.9583 233.235 39.036 233.408 38.6474C234.449 38.628 233.264 37.0055 234.439 37.0055C234.42 37.3844 234.921 36.4226 235.123 37.2873C235.258 37.0444 235.258 35.8785 234.748 35.9854C234.218 35.8883 233.765 35.4511 233.341 36.1311L233.717 36.2671C233.322 36.4906 233.514 36.442 233.225 36.5197C233.129 37.3941 232.57 37.4913 232.3 38.0839C232.31 38.0742 232.32 38.0742 232.339 38.0839C232.773 38.5308 232.484 39.104 232.387 39.4246L232.156 39.5315C231.684 39.6772 232.879 40.6002 232.156 40.2504C232.108 41.1151 232.06 42.0672 231.867 43.0096C231.636 43.9422 231.404 44.904 231.173 45.8561C231.366 46.2059 230.634 47.2551 231.318 47.0317C230.528 47.2843 229.93 48.5861 229.718 49.0816C229.67 49.0428 229.622 48.9942 229.68 48.9262C228.475 49.4994 229.844 50.364 228.514 50.7915C228.793 51.0247 228.572 51.4036 228.302 51.8116C228.013 52.2099 227.714 52.6568 227.936 53.1135C227.734 53.1329 227.589 53.094 227.502 52.9872C227.271 53.3563 227.03 53.7255 226.78 54.0947C226.529 54.4639 226.202 54.7845 225.922 55.1245C225.325 55.7754 224.814 56.4458 224.313 56.9704C224.13 57.6408 223.571 58.1557 223.051 58.6803C222.55 59.2244 221.972 59.6421 221.885 60.3513C221.49 60.5845 220.97 60.8857 220.459 61.2549C219.92 61.5852 219.38 61.9835 218.985 62.4984L219.014 62.343C217.964 63.2951 216.442 64.1597 215.883 65.1798C215.131 64.6941 214.65 65.0633 213.995 65.1021C213.667 65.481 213.05 65.8502 212.386 66.2485C211.692 66.5691 210.931 66.9189 210.304 67.3366C209.977 67.0549 209.235 67.9098 208.994 67.3561C208.098 67.8515 207.115 68.347 206.046 68.6579C204.967 68.9105 203.84 69.1728 202.683 69.2311C201.527 69.2311 200.361 69.2797 199.225 69.1048C198.088 68.8911 196.98 68.7259 195.949 68.3762L196.016 68.347C195.438 68.5705 194.706 69.1437 194.06 69.4546C194.012 69.3963 194.031 69.3088 194.157 69.3283C193.752 69.3186 193.386 69.1534 193.02 68.9785C192.663 68.7745 192.317 68.5705 191.921 68.5219C191.95 68.4345 191.95 68.4345 192.095 68.3762C191.315 68.4247 190.727 67.5698 189.763 67.7447V67.5892H189.176C189.243 67.4144 189.359 67.1618 189.609 67.3172C186.43 66.2097 183.318 64.7524 180.37 62.887C179.657 62.3818 178.876 61.9641 178.221 61.3812L176.188 59.681L174.357 57.7574C173.741 57.1162 173.269 56.3584 172.739 55.6491L173.038 55.756L171.968 54.8331C172.045 54.7845 172.122 54.8136 172.199 54.8428C171.554 53.1912 170.137 51.9282 169.521 50.3057C169.608 50.2766 169.877 50.432 169.868 50.1697C169.376 49.7034 169.28 49.1885 169.222 48.7513C169.164 48.3141 169.078 47.9838 168.48 47.8672C168.509 47.7895 168.712 47.6729 168.837 47.7603L168.278 46.5654L168.008 45.9533L167.806 45.3218C167.546 44.4669 167.295 43.6119 167.074 42.7472C166.929 41.8632 166.804 40.9791 166.688 40.095L166.602 39.4343V38.7543L166.592 37.4233C165.975 35.966 166.129 34.3629 166.187 32.7696C166.255 31.973 166.418 31.1861 166.486 30.3894C166.524 29.9911 166.553 29.5927 166.563 29.1944C166.602 28.7961 166.64 28.4075 166.64 27.9994L166.823 28.0577C166.939 26.0078 167.661 23.9967 168.557 22.0925C169.068 21.1599 169.521 20.2078 170.08 19.314C170.667 18.4396 171.188 17.5264 171.746 16.6423C172.854 15.3016 173.317 14.1746 174.531 12.8922L174.733 13.0185C175.34 11.5709 176.699 10.6965 177.951 9.79299C178.606 9.3558 179.3 8.99633 179.917 8.52028C180.225 8.28712 180.524 8.04423 180.803 7.77221C181.102 7.52932 181.381 7.2573 181.651 6.95612L181.632 7.33502C181.776 6.66466 183.289 6.52865 182.711 5.87772L183.298 5.81943C183.954 4.83819 184.907 4.54673 185.89 4.26499C186.883 3.99296 187.971 3.90552 189.06 3.08944L188.964 3.34203C189.542 2.92428 190.303 2.65225 190.833 2.69111C190.765 2.73969 190.813 2.78826 190.669 2.8757C191.806 3.01171 192.846 2.64253 193.954 2.40937C195.053 2.13734 196.161 1.68072 197.288 1.69043L197.066 2.07905C197.587 1.82645 198.357 1.78759 199.157 1.76816C199.966 1.71958 200.814 1.89446 201.527 1.80702L201.431 1.98189L202.163 1.76816L202.154 2.12762C203.069 2.14705 203.955 2.24421 204.842 2.3025C205.747 2.36079 206.643 2.37051 207.52 2.6231Z" fill="#92DCCE"/>
<path d="M223.937 11.328C223.937 11.3183 223.928 11.3183 223.928 11.3086C223.87 11.2892 223.889 11.3086 223.937 11.328Z" fill="#92DCCE"/>
<path d="M232.214 38.317C232.243 38.2393 232.262 38.1713 232.301 38.1033C232.223 38.113 232.233 38.249 232.214 38.317Z" fill="#92DCCE"/>
</g>
<path d="M187.36 50.48C194.96 50.48 200.32 44.6 200.32 36.24C200.32 27.92 194.96 22.04 187.36 22.04C179.76 22.04 174.4 27.92 174.4 36.24C174.4 44.6 179.76 50.48 187.36 50.48ZM187.36 43.44C184.44 43.44 182.4 40.44 182.4 36.24C182.4 32.04 184.44 29.08 187.36 29.08C190.28 29.08 192.32 32.04 192.32 36.24C192.32 40.44 190.28 43.44 187.36 43.44ZM209.591 50H217.351V22.52H211.151L201.951 28.68L204.991 34.04L209.591 31.24V50Z" fill="#282828"/>
<defs>
<clipPath id="clip0">
<rect width="72" height="72" fill="white" transform="translate(164)"/>
</clipPath>
</defs>
</svg>
