<svg width="236" height="274" viewBox="0 0 236 274" fill="none" xmlns="http://www.w3.org/2000/svg">
<path d="M203.757 272.348H19.6154C9.74943 272.348 1.67725 264.657 1.67725 255.256V36.8858C1.67725 27.4855 9.74943 19.7944 19.6154 19.7944H203.757C213.623 19.7944 221.695 27.4855 221.695 36.8858V255.256C221.695 264.657 213.623 272.348 203.757 272.348Z" fill="white"/>
<path d="M204.941 273.681C203.446 273.732 203.984 273.943 203.757 274C206.298 273.823 204.869 273.618 204.941 273.681Z" fill="white"/>
<path d="M222.06 259.381L222.054 259.797L222.215 258.965C222.257 258.686 222.269 258.401 222.299 258.122C222.347 257.558 222.412 257.005 222.377 256.441C222.371 256.686 222.383 256.937 222.365 257.182L222.287 257.917C222.221 258.407 222.185 258.903 222.06 259.381Z" fill="white"/>
<path d="M222.586 238.826C222.162 240.752 222.658 246.215 222.502 249.85L222.407 250.448L222.754 252.089C222.694 247.674 222.467 241.937 222.586 238.826Z" fill="white"/>
<path d="M223.513 227.956C223.345 228.628 223.369 225.603 223.459 230.491C223.483 230.246 223.489 230.177 223.501 230.029C223.501 229.591 223.507 228.987 223.513 227.956Z" fill="white"/>
<path d="M223.501 230.029C223.513 232.177 223.639 228.622 223.501 230.029V230.029Z" fill="white"/>
<path d="M223.405 220.111L223.554 222.942C223.65 222.35 223.674 219.832 223.746 220.766C223.662 217.866 223.566 218.459 223.405 220.111Z" fill="white"/>
<path d="M223.094 217.427L223.154 218.892C223.196 218.635 223.214 218.248 223.094 217.427Z" fill="white"/>
<path d="M223.292 222.002L223.16 218.892C223.094 219.302 222.951 219.347 223.208 220.322C223.076 220.065 223.202 220.681 223.292 222.002Z" fill="white"/>
<path d="M223.226 223.763C223.13 225.352 223.076 227.397 222.927 224.56C222.987 229.973 223.285 229.175 223.226 223.763Z" fill="white"/>
<path d="M222.144 237.789L222.018 239.908L222.162 241.743C222.096 240.825 222.282 237.658 222.144 237.789Z" fill="white"/>
<path d="M223.626 202.484C223.537 202.307 223.387 203.435 223.268 203.646L223.369 205.737C223.435 204.666 223.495 202.626 223.626 202.484Z" fill="white"/>
<path d="M223.268 203.646L223.112 200.518C223.094 203.316 223.166 203.823 223.268 203.646Z" fill="white"/>
<path d="M222.622 216.926L222.951 222.059L222.616 215.935L222.622 216.926Z" fill="white"/>
<path d="M223.638 190.543L223.848 192.314L223.531 189.158L223.638 190.543Z" fill="white"/>
<path d="M223.603 182.624C223.776 183.934 223.896 180.823 224.003 182.213C223.973 180.06 223.824 178.225 223.686 176.568C223.764 178.322 223.746 180.197 223.603 182.624Z" fill="white"/>
<path d="M223.495 173.788C223.537 174.665 223.609 175.576 223.693 176.568C223.651 175.633 223.591 174.716 223.495 173.788Z" fill="white"/>
<path d="M223.16 195.197C223.213 194.958 223.357 194.491 223.417 192.736L223.16 193.967C223.16 194.337 223.16 194.764 223.16 195.197Z" fill="white"/>
<path d="M223.154 194.007L223.16 193.961C223.166 192.628 223.172 191.699 223.172 191.306C223.172 191.648 223.166 192.463 223.154 194.007Z" fill="white"/>
<path d="M223.153 195.505C223.153 195.391 223.153 195.306 223.153 195.197C223.13 195.311 223.124 195.385 223.153 195.505Z" fill="white"/>
<path d="M222.849 208.728C222.706 206.894 222.556 203.059 222.335 206.768C222.514 208.084 222.634 205.965 222.849 208.728Z" fill="white"/>
<path d="M222.837 197.032L222.777 200.353C222.843 200.29 222.945 199.687 223.017 200.598L222.837 197.032Z" fill="white"/>
<path d="M222.753 195.408L222.838 197.032L222.862 195.801L222.753 195.408Z" fill="white"/>
<path d="M223.257 179.479C223.143 178.043 223.137 176.477 223.119 174.705C223.071 176.602 223.041 178.567 223.041 180.436C223.119 180.693 223.263 181.513 223.257 179.479Z" fill="white"/>
<path d="M223.183 186.538C223.177 186.441 223.171 186.31 223.171 186.219C223.148 186.418 223.136 186.572 223.183 186.538Z" fill="white"/>
<path d="M223.118 157.249C223.1 157.346 223.088 157.431 223.07 157.528C223.082 157.551 223.1 157.568 223.112 157.591L223.118 157.249Z" fill="white"/>
<path d="M222.993 180.75C222.945 182.179 223.005 183.028 223.083 183.843C223.059 182.778 223.041 181.644 223.041 180.43C222.999 180.311 222.975 180.294 222.993 180.75Z" fill="white"/>
<path d="M223.376 168.922C223.322 169.668 223.274 170.512 223.238 171.395C223.316 170.665 223.442 169.184 223.376 168.922Z" fill="white"/>
<path d="M223.238 185.74C223.244 185.814 223.244 185.877 223.25 185.956C223.304 185.484 223.28 185.541 223.238 185.74Z" fill="white"/>
<path d="M223.238 185.74C223.202 185.005 223.136 184.43 223.082 183.849C223.1 184.72 223.13 185.524 223.166 186.224C223.184 186.042 223.214 185.865 223.238 185.74Z" fill="white"/>
<path d="M221.474 151.962C221.713 152.212 221.929 155.967 221.677 159.209C221.857 162.399 222.634 160.314 223.071 157.528C222.969 157.431 222.873 157.431 222.73 154.149C222.598 155.3 222.425 161.43 222.216 158.662C222.096 154.315 222.299 155.101 222.425 152.987C222.132 154.782 221.994 147.455 221.564 148.401L221.719 152.212C221.648 152.287 221.54 150.902 221.474 151.962Z" fill="white"/>
<path d="M223.046 163.783L223.076 165.133C223.118 163.595 223.214 162.49 223.399 160.462C223.286 158.217 223.196 157.75 223.118 157.596L223.082 164.245L223.046 163.783Z" fill="white"/>
<path d="M223.076 171.195C222.819 170.141 222.712 166.9 222.431 168.882C222.449 172.847 222.646 171.657 222.76 174.027C222.694 167.629 222.903 175.861 223.047 171.241C223.088 172.5 223.106 173.628 223.112 174.693C223.142 173.543 223.184 172.432 223.232 171.383C223.226 171.44 223.22 171.48 223.214 171.531V171.56L223.208 171.554C223.178 171.828 223.154 171.919 223.172 171.611C223.172 171.588 223.166 171.514 223.166 171.48C223.136 171.446 223.106 171.326 223.076 171.195C223.13 169.344 223.142 170.905 223.172 171.486C223.184 171.509 223.196 171.56 223.208 171.566C223.208 171.56 223.208 171.549 223.214 171.543L223.07 165.134C223.041 166.489 223.047 168.187 223.076 171.195Z" fill="white"/>
<path d="M221.785 203.35C221.809 203.15 221.827 203.162 221.845 203.145C221.809 202.729 221.791 202.575 221.785 203.35Z" fill="white"/>
<path d="M221.94 200.712C221.976 201.179 222.078 201.567 222.054 203.082C221.976 204.398 221.928 203.076 221.845 203.145C221.91 204.056 222.03 206.341 222.156 203.475L222.12 203.02C222.209 200.439 222.532 197.129 222.562 197.579C222.329 198.331 222.168 198.997 221.94 200.712Z" fill="white"/>
<path d="M222.443 185.769L222.317 180.436L222.096 183.154L222.227 183.017C222.173 186.048 222.341 185.393 222.443 185.769Z" fill="white"/>
<path d="M223.244 156.639L223.519 157.346L223.13 154.263L223.244 156.639Z" fill="white"/>
<path d="M223.214 149.706L223.447 149.962L223.304 148.133L223.214 149.706Z" fill="white"/>
<path d="M3.10059 86.2114L3.16665 87.7781C3.14263 87.0375 3.12461 86.559 3.10059 86.2114Z" fill="white"/>
<path d="M3.1128 74.8627L2.99268 74.5835C3.06475 75.1076 3.1128 75.3241 3.1128 74.8627Z" fill="white"/>
<path d="M171.612 18.3758C169.214 18.165 166.535 17.8403 166.828 18.091L167.564 18.3359C169.232 18.2961 170.518 18.3245 171.612 18.3758Z" fill="white"/>
<path d="M49.2192 19.8514C49.4465 19.8742 49.6856 19.9027 49.9188 19.9255C50.4988 19.84 51.0489 19.7603 51.5392 19.6919C50.8397 19.7375 50.0444 19.7944 49.2192 19.8514Z" fill="white"/>
<path d="M47.5272 20.8768L44.3701 20.7173C45.0757 20.7686 46.0922 20.8255 47.5272 20.8768Z" fill="white"/>
<path d="M3.37549 148.196L3.63858 150.025C3.63858 147.165 3.50106 148.424 3.37549 148.196Z" fill="white"/>
<path d="M223.118 78.6969C223.22 76.7257 223.261 75.159 223.273 73.7803C223.124 76.156 222.903 78.0702 223.118 78.6969Z" fill="white"/>
<path d="M0.34375 81.7448C0.391799 82.7019 0.445853 83.1121 0.499908 83.0836C0.457866 82.098 0.409817 81.5397 0.34375 81.7448Z" fill="white"/>
<path d="M223.274 68.0889C223.256 68.4364 223.232 68.7782 223.214 69.1314C223.256 70.5728 223.292 72.0199 223.274 73.7803C223.382 72.0313 223.454 70.0202 223.274 68.0889Z" fill="white"/>
<path d="M115.035 270.941C115.208 270.952 115.411 270.963 115.567 270.969C115.621 270.935 115.387 270.935 115.035 270.941Z" fill="white"/>
<path d="M183.773 273.436C183.098 273.453 181.992 273.453 180.951 273.453C181.459 273.47 182.308 273.47 183.773 273.436Z" fill="white"/>
<path d="M223.328 121.813C223.339 123.283 223.35 122.046 223.328 121.813V121.813Z" fill="white"/>
<path d="M222.299 128.963C222.269 128.649 222.233 128.41 222.173 128.376C222.233 128.495 222.275 128.7 222.299 128.963Z" fill="white"/>
<path d="M221.658 53.4415C221.658 53.3959 221.658 53.3617 221.658 53.3162C221.606 53.7548 221.617 53.6808 221.658 53.4415Z" fill="white"/>
<path d="M223.208 124.023C223.238 123.47 223.268 122.832 223.286 122.143C223.262 122.445 223.238 123.02 223.208 124.023Z" fill="white"/>
<path d="M223.328 123.727C223.316 124.234 223.31 124.633 223.304 125.015C223.346 125.197 223.376 125.032 223.328 123.727Z" fill="white"/>
<path d="M223.31 119.762C223.316 120.605 223.304 121.385 223.286 122.143C223.304 121.853 223.316 121.733 223.328 121.813C223.322 121.38 223.316 120.77 223.31 119.762Z" fill="white"/>
<path d="M2.46641 252.544C2.4604 252.641 2.44839 252.755 2.44238 252.858C2.55049 254.345 2.53247 253.695 2.46641 252.544Z" fill="white"/>
<path d="M131.442 20.9395C131.514 20.9338 131.55 20.9338 131.615 20.9281C131.544 20.9224 131.454 20.9224 131.388 20.9167L131.442 20.9395Z" fill="white"/>
<path d="M125.899 21.1274C128.261 20.8198 129.601 20.8597 131.388 20.9223L129.553 20.2102L125.899 21.1274Z" fill="white"/>
<path d="M3.1725 113.387L3.4057 109.679C3.78838 114.157 3.65683 117.392 3.9857 113.912C3.1725 113.387 3.90199 99.4978 3.08879 98.9794L3.26219 96.5353C3.25621 97.2361 3.30405 97.35 3.29209 98.0394C3.68075 93.2823 2.70611 94.5071 2.81972 88.3828C2.87951 86.2463 2.9991 84.7594 3.09477 86.2122L2.89147 81.4551C2.90941 80.0707 3.04694 80.4068 3.03498 81.7855L2.97518 74.5274L2.9991 74.5786C2.87353 73.5418 2.67621 71.2002 2.5925 70.0494C2.71209 68.2036 2.67621 70.9724 2.77786 70.5052L2.58054 66.4887C2.78982 64.8537 2.99312 68.1808 2.96322 70.9553C3.77642 67.2009 2.75992 67.6225 3.2323 59.5211L3.33395 63.3154C3.79436 60.8714 3.62694 57.9089 3.91395 53.6189C3.77044 54.6444 3.19642 62.2159 2.99312 57.8519C3.05291 56.6213 3.08281 55.0033 2.92137 52.6504C3.20838 52.6276 3.13663 50.3317 3.12467 47.4604L3.50735 47.6541C3.39972 44.5491 3.2024 44.7941 3.029 42.9653C3.06487 39.5015 3.36384 38.7836 3.61498 37.969C3.61498 36.5504 3.65683 36.2313 3.60302 36.2085C3.56116 36.2085 3.47147 36.5903 3.38776 36.9834C3.32199 37.3992 3.25023 37.7809 3.19044 37.6499C3.16054 37.5872 3.13663 37.3878 3.11271 37.0061C3.10075 36.6358 3.12467 36.1231 3.14859 35.3597C3.44755 33.2517 4.03354 31.5141 4.88859 29.7879C5.76756 28.0731 6.93952 26.3297 8.93066 24.5693C11.5377 22.8602 8.63169 25.0593 9.60633 24.4953C10.2581 23.8686 11.0055 23.3331 11.7649 22.8032C12.3867 22.5241 12.2253 22.695 12.1476 22.7861C13.176 22.2449 13.188 22.1424 13.3554 21.9942C13.4391 21.9145 13.5647 21.8233 13.8936 21.6695C14.055 21.5897 14.2703 21.4986 14.5513 21.3789C14.8443 21.2878 15.203 21.1852 15.6635 21.0599C15.7771 20.9858 15.9804 20.889 16.2614 20.8263C16.5484 20.775 16.9131 20.7238 17.3377 20.6725C17.7622 20.6041 18.2466 20.6155 18.7787 20.6212C19.0418 20.6212 19.3169 20.6269 19.6039 20.6269C19.9028 20.644 20.2078 20.6611 20.5247 20.6782C23.048 20.8206 26.0556 20.9517 28.5132 20.7238C29.727 20.8263 27.9272 20.946 28.2979 21.0884C35.0546 20.7864 34.0919 20.8719 39.6348 20.4674L44.3586 20.7067C40.8845 20.4332 45.3212 20.1085 49.2078 19.8407C47.9761 19.7097 46.9237 19.59 46.2182 19.5388L52.4188 19.3451C53.1662 19.4077 52.5443 19.5331 51.5279 19.6812C51.9524 19.647 52.353 19.6185 52.6639 19.5957C54.8823 19.7325 53.7342 19.9433 52.1437 20.1427C51.3903 20.0686 50.6369 19.9888 49.9074 19.9148C48.3767 20.137 46.9417 20.3819 47.2586 20.5927C47.6592 20.5529 48.4365 20.513 49.2916 20.4959C48.8909 20.5586 48.6338 20.6098 48.8192 20.644C49.0285 20.6839 49.6742 20.6041 50.6907 20.5073L52.1019 20.9118L52.4427 20.7523L60.5567 21.0086C66.3627 20.5984 71.4093 20.0002 80.6236 19.8293C78.3394 20.1256 80.1333 20.3136 80.0077 20.6668C77.4964 20.2908 72.8683 20.8263 68.0967 20.7523C70.5902 20.7921 70.04 20.9574 69.4062 21.02L77.9209 20.6782C77.7295 20.9688 79.7267 20.8947 81.957 21.0143C80.2768 20.4446 88.3071 20.6326 91.7692 20.4617C91.9844 20.6554 91.1533 20.8491 86.9258 20.8035C91.5898 21.2308 92.9531 20.1313 97.5333 20.4959C96.4989 20.5016 95.9428 20.4731 95.5362 20.57C97.9459 20.399 103.842 20.5358 102.454 20.701L101.426 20.7067C108.278 20.775 122.288 20.7124 123.31 20.2281C123.376 20.2908 122.414 20.8149 121.995 20.9118L134.223 19.2824C133.147 19.6983 137.278 20.6896 131.598 20.9232C133.23 20.9801 135.251 21.0542 138.689 20.9061C137.577 20.8491 135.915 20.3022 137.434 20.268C141.607 20.7295 140.334 20.5187 145.482 20.9118C143.814 20.8206 145.667 20.1712 148.304 20.1882C147.892 20.2851 148.526 20.832 147.557 20.9004L154.122 20.2623C152.484 20.3763 153.835 20.8035 155.3 20.9858C154.619 20.8605 160.975 20.9972 162.727 20.9346L159.946 20.7864C167.355 20.8833 167.265 19.8863 174.62 19.9205C173.729 20.0515 172.419 20.7352 176.162 20.8149C177.872 20.4845 183.75 19.2368 190.256 18.9862L191.505 19.1742L196.498 18.9577C193.389 19.4533 184.671 20.4902 179.905 20.8947C182.68 21.0428 180.677 21.1169 184.832 21.0998C186.297 21.2764 182.566 21.3676 181.346 21.3789L191.015 21.4929C190.585 21.1112 198.412 21.1112 198.041 20.7921L187.541 21.1909C187.117 20.8092 193.616 20.1028 200.463 20.1712C202.203 20.325 199.159 20.8548 199.303 20.9801C199.745 20.9118 201.371 20.8491 202.968 20.8149C203.787 20.7807 204.499 20.832 205.097 20.8548C205.396 20.8605 205.647 20.8947 205.85 20.9346C206.047 20.9688 206.197 20.9972 206.263 21.02C205.808 20.9858 205.354 20.946 204.899 20.9801C204.439 20.9972 204.008 20.9915 203.53 21.0257C203.978 21.0485 204.403 21.077 204.816 21.0998C205.019 21.1055 205.222 21.1112 205.419 21.1169C205.617 21.1397 205.808 21.1568 205.999 21.1795C206.388 21.2137 206.765 21.2479 207.148 21.2821C207.524 21.3505 207.895 21.4131 208.278 21.4815C209.772 21.8062 211.405 22.3076 213.097 23.6065C213.396 23.8173 213.737 24.1136 214.102 24.4269C214.472 24.7232 214.783 25.1276 215.106 25.4524C215.435 25.7714 215.674 26.1189 215.889 26.3582C216.099 26.5975 216.266 26.7513 216.35 26.757C216.033 26.2671 215.842 25.8113 215.74 25.4239C215.614 25.0536 215.59 24.7345 215.656 24.501C215.788 24.0338 216.314 23.9028 217.085 24.3813C217.175 24.4896 217.564 24.9396 218.114 25.5834C218.353 25.9252 218.634 26.3183 218.927 26.7399C219.232 27.1501 219.465 27.6572 219.746 28.13C220.26 29.1099 220.697 30.1696 220.954 31.0982C221.02 31.3261 221.085 31.5483 221.151 31.7591C221.193 31.9756 221.229 32.175 221.265 32.3573C221.331 32.7276 221.378 33.0296 221.408 33.246C221.456 33.8727 221.343 33.9696 221.223 33.7873C221.109 33.605 220.876 33.172 220.649 32.739C220.236 31.8502 219.621 31.0413 219.86 32.0155C219.943 32.0383 220.081 32.3573 220.242 32.7333C220.392 33.115 220.589 33.548 220.637 33.8215C220.709 34.5792 220.601 34.4367 220.547 34.5108C220.47 34.5849 220.559 34.864 220.643 36.482C221.097 37.0061 220.619 43.461 221.008 38.0829C221.121 41.4499 220.924 41.6607 220.942 45.6088C221.205 44.3497 221.839 49.1581 221.952 52.5251C221.851 52.3257 221.713 53.0834 221.654 53.448C221.618 60.3472 221.432 64.0447 221.426 70.4767C221.325 71.0692 221.205 74.1741 221.032 72.8524C221.103 73.7753 221.241 74.6242 221.253 76.6125C220.9 80.4524 221.199 72.1915 220.775 75.1142C221.014 75.3648 221.103 80.2416 221.247 83.0673C221.612 82.1957 221.319 76.5384 221.169 73.7127C221.671 73.7013 222.204 78.6236 222.437 85.3462C222.562 90.6901 222.108 87.6649 222.18 88.5878C222.09 98.6205 223.059 97.1335 222.694 105.468C222.371 108.773 222.054 105.617 221.821 106.351C221.701 101.999 222.024 99.6687 222.012 96.7233L221.863 100.352C221.755 98.968 221.677 96.0625 221.767 94.4787C221.48 97.2475 221.713 111.433 221.444 119.17C221.552 120.543 221.665 122.919 221.791 121.796L221.749 119.347C222.006 117.096 222.108 123.956 222.228 120.856C222.407 124.144 222.694 127.824 222.55 132.45L222.186 133.322C222.293 133.225 222.401 130.296 222.293 128.997C222.455 130.923 221.797 136.09 222.275 138.204L222.527 134.962C222.712 138.261 223.101 142.34 222.987 146.436C223.352 144.573 222.945 145.491 223.37 142.579C222.843 145.103 223.394 132.091 222.837 136.147C223.328 133.156 223.047 130.974 223.465 127.066C223.346 127.186 223.232 128.451 223.292 125.01C223.256 124.856 223.214 124.485 223.184 124.252C223.19 124.149 223.19 124.109 223.196 124.018C223.19 124.087 223.184 124.138 223.184 124.206C223.166 124.058 223.16 124.041 223.178 124.275C223.124 125.095 223.059 125.756 222.993 126.029C222.718 124.32 222.724 118.851 222.58 116.999C222.64 114.96 222.718 117.854 222.849 116.737L222.634 113.974C222.903 113.701 223.083 108.551 223.238 113.359L223.25 109.029C223.4 106.482 223.459 102.973 223.346 100.808C223.405 98.7686 223.047 95.6523 223.256 97.4298L223.089 90.6388L223.154 90.5761C223.19 83.8763 222.712 76.7834 223.196 69.1265C223.13 66.8704 223.047 64.5403 223.124 60.7688L223.358 60.0339C223.274 57.1398 223.591 51.3344 223.346 50.0924C223.657 48.5314 223.693 45.0163 223.663 41.2562C223.651 40.3162 223.645 39.359 223.633 38.419C223.627 37.9462 223.621 37.479 223.615 37.0118C223.597 36.5276 223.555 36.0034 223.525 35.5135C223.34 33.5423 222.897 31.7648 222.377 30.4431L222.018 30.3462C221.307 28.5687 220.356 26.8938 219.017 25.3783C217.689 23.8572 216.045 22.4329 213.922 21.2365L214.036 21.6011C212.236 20.5984 209.784 19.4704 206.825 18.9463C206.454 18.8836 206.077 18.8209 205.701 18.7583C205.318 18.7298 204.929 18.7013 204.541 18.6728C203.733 18.5988 203.01 18.6044 202.25 18.5874C200.732 18.5589 199.177 18.5361 197.622 18.5475C198.047 18.4506 199.625 18.4734 200.744 18.5361C193.299 17.9607 185.042 18.9577 178.297 18.5361C176.617 18.6272 175.397 18.5988 174.219 18.5361C174.374 18.5361 174.518 18.5304 174.638 18.5247C174.464 18.5247 174.207 18.5247 173.944 18.519C173.203 18.4734 172.437 18.4335 171.606 18.3823C172.312 18.4449 172.987 18.4962 173.573 18.519C172.276 18.5247 170.308 18.5532 168.383 18.6215L167.564 18.3481C167.408 18.3481 167.283 18.3538 167.115 18.3538C165.226 18.2512 165.597 18.4848 166.601 18.6899C165.633 18.7355 164.742 18.7868 164.048 18.8551C162.511 18.4107 158.99 19.0032 156.891 18.5304C155.593 18.7583 147.198 18.7013 146.17 19.1913C146.104 19.1286 145.536 19.1001 146.576 19.0944C144.424 19.0374 142.277 18.9862 140.352 19.1229L139.437 18.7754L134.743 19.2425C131.891 19.0317 130.707 18.9064 133.541 18.6386C126.707 19.0545 127.992 18.7925 122.18 19.2026L122.461 18.9748C120.381 18.9862 117.062 19.2881 115.806 19.1001C111.154 18.6728 92.8036 19.0431 80.8687 18.6443C83.1828 19.3109 75.3199 18.3481 74.8475 18.8608C74.1539 18.7013 72.4916 18.6158 74.4229 18.4791C68.3299 18.6329 65.2745 18.2284 61.065 18.6614C60.3654 18.5019 62.3685 18.4335 61.7466 18.3367C61.2563 18.3709 59.8093 18.4734 59.1755 18.3823C58.5536 18.2911 60.0664 18.2512 61.0291 18.1829C54.8225 18.2 54.1947 18.6842 53.7402 19.14C50.5891 18.9235 49.0165 18.9577 46.7384 19.2539C45.6382 19.1058 43.8085 18.952 47.6771 18.895C45.5006 18.8722 34.3909 18.6785 34.1697 19.0431C33.488 18.9463 31.1262 19.0146 30.5581 19.0545C25.6789 19.0317 25.2484 18.9975 20.4589 19.0317L21.7864 19.0887C20.8356 19.3223 19.861 19.2995 18.5754 19.3565C18.2585 19.3736 17.9177 19.3565 17.5649 19.3963C17.2121 19.4362 16.8414 19.4818 16.4468 19.5331C16.2494 19.5616 16.0461 19.5787 15.8428 19.6185C15.6395 19.6641 15.4303 19.7154 15.215 19.7667C14.7845 19.8806 14.3181 19.9547 13.8577 20.1313L13.9474 20.0515C13.4032 20.2224 12.9129 20.3763 12.4645 20.5187C12.028 20.6839 11.6513 20.8605 11.3045 21.0029C10.6049 21.2764 10.1206 21.6068 9.70798 21.829C9.50468 21.9487 9.3253 22.0512 9.16983 22.1424C9.02035 22.2506 8.8888 22.3475 8.76921 22.4329C8.53004 22.6152 8.3387 22.7576 8.14736 22.9058C7.75272 23.1849 7.42385 23.5268 6.72426 24.1079C6.05457 24.7175 5.03807 25.6233 3.72261 27.4065L4.2189 27.1558C4.23683 27.4122 3.96776 27.9192 3.52529 28.62C3.33993 28.9903 3.10673 29.4062 2.84962 29.8677C2.59848 30.3348 2.39518 30.8703 2.13209 31.423C1.88693 31.9813 1.71951 32.6023 1.50425 33.2289C1.34281 33.867 1.20528 34.5336 1.09167 35.2059C1.03786 35.8781 0.960128 36.5789 0.960128 37.2226C0.954148 37.8664 0.966107 38.4988 0.996004 39.1027L1.15745 37.3594C1.36673 39.9971 0.320332 44.7371 0.2426 47.3863C0.188786 47.9617 0.158889 46.4748 0.117033 45.6658C-0.24771 52.6049 0.493735 46.5659 0.577446 51.7332C0.374147 52.6846 0.0632186 50.5026 0.0213629 53.9836C-0.140081 55.7155 0.679096 64.0788 0.290436 68.8245C0.4459 67.7763 0.601364 66.7394 0.720952 69.1436C0.774766 72.8239 0.128992 79.0964 0.625282 82.4236C0.583426 82.8907 0.54157 83.0673 0.499714 83.0901C0.625282 85.9045 0.708993 92.234 0.978066 93.9317C-0.0145134 96.5296 1.4624 111.428 0.547549 111.365L0.601364 120.013L0.505694 119.785C0.4459 125.317 0.667137 127.277 0.882395 129.22C0.822601 130.496 0.732911 129.567 0.685075 129.459C0.499714 137.543 0.54157 138.346 0.996004 145.126L0.697034 145.832C0.870437 147.667 0.230642 157.523 0.577446 165.448C0.54157 165.368 0.487755 165.208 0.4459 164.576C0.792704 173.498 -0.373277 185.935 0.703014 189.205L0.966107 195.09C1.04982 187.473 1.4325 196.223 1.61188 193.09C1.67765 196.087 1.28899 200.832 1.2292 197.152L1.28301 196.577C0.720952 195.227 1.08569 206.04 0.703014 205.835C0.732911 220.824 0.421982 235.431 0.398065 249.469L0.83456 247.851L0.810643 252.75C0.708993 254.038 0.469817 254.477 0.487755 250.984C0.362188 251.901 0.416003 253.366 0.511673 254.613C0.547549 255.223 0.649199 255.844 0.720952 256.277C0.798684 256.715 0.858478 256.995 0.882395 257.017C0.996004 257.912 1.07374 258.539 1.12157 258.954C1.20528 259.365 1.23518 259.575 1.22322 259.632C1.21126 259.746 0.978066 259.273 0.810643 258.624C0.416003 257.319 0.284456 255.32 0.332291 256.448C0.350229 256.704 0.356209 256.96 0.392085 257.211L0.523632 257.969C0.613323 258.476 0.679096 258.983 0.84054 259.473C0.804663 259.245 0.73889 259.023 0.726931 258.789C1.11559 259.974 1.36075 260.607 1.7793 261.438C1.97662 261.86 2.17992 262.339 2.52673 262.937C2.69415 263.239 2.85559 263.586 3.08879 263.962C3.32797 264.333 3.59106 264.748 3.89601 265.221C5.57622 267.523 4.57766 266.543 5.32508 267.398C5.31313 267.403 5.36694 267.483 5.5523 267.677C5.73766 267.87 6.03065 268.201 6.57478 268.628C8.25499 270.138 10.2222 271.357 12.3628 272.212C11.9503 272.007 11.5735 271.739 11.1789 271.511L10.5989 271.152L10.0548 270.742C10.7065 271.106 11.442 271.368 12.0639 271.653C12.6977 271.915 13.2837 272.081 13.6723 272.212C14.061 272.348 14.2882 272.371 14.2224 272.314C14.1566 272.274 13.8218 272.086 13.1342 271.744C13.3853 271.87 13.7022 272.018 14.067 272.172C14.4437 272.303 14.8802 272.434 15.3645 272.576C15.8428 272.741 16.387 272.816 16.967 272.924C17.26 272.969 17.5589 273.043 17.8699 273.066C18.1808 273.089 18.5037 273.112 18.8325 273.135C19.5022 273.192 20.154 273.197 20.8296 273.203C21.5053 273.209 22.2049 273.214 22.9165 273.22C24.3336 273.226 25.8045 273.231 27.2635 273.231C33.0934 273.231 38.708 273.186 40.0534 273.277C44.0716 273.038 48.0419 273.043 52.9569 273.072C51.7371 273.004 51.0017 272.633 55.2411 272.679C53.6924 273.442 63.0023 273.009 66.4285 273.562C63.367 273.197 78.483 273.471 73.6755 272.952C77.2153 273.015 73.8908 273.237 76.5755 273.419C84.9945 273.123 95.1296 273.613 105.54 273.511C105.701 273.408 103.961 273.26 106.191 273.106L111.687 273.607C113.743 273.556 113.576 273.026 117.337 273.38C116.805 273.294 116.016 273.169 117.391 273.135C137.781 273.625 159.049 272.736 179.756 273.653C176.952 273.459 178.823 273.442 180.964 273.431C179.571 273.385 180.994 273.186 180.725 273.049L189.395 273.425C190.973 273.049 198.687 273.402 199.596 273.038L196.851 273.1C200.504 272.673 191.745 272.155 192.277 271.608C188.187 272.092 181.496 270.89 174.793 271.585C173.31 271.471 176.055 271.408 175.265 271.283C173.567 271.517 171.51 271.568 167.707 271.46L168.138 271.403C157.453 271.46 152.867 271.232 140.86 271.078L141.751 271.346C139.174 271.312 138.63 271.226 137.422 271.158C134.462 271.568 144.669 271.18 141.972 271.631C138.552 271.084 123.777 271.625 121.463 270.998C117.493 270.992 122.629 271.312 118.658 271.306L117.606 271.135L116.602 271.351C114.001 271.317 112.685 271.106 112.589 270.964C113.223 270.981 114.383 270.924 115.059 270.913C111.687 270.713 105.546 270.981 104.386 270.918L108.201 271.021C97.3659 271.18 84.1395 270.958 73.6755 271.3L74.4708 271.425C66.4763 271.659 68.0669 271.283 59.2951 271.397L59.612 271.368C57.854 271.494 55.5101 271.562 53.1124 271.545C55.3307 271.397 48.9448 271.255 51.8507 271.089C43.1866 271.34 47.5635 271.289 41.8412 271.762L40.5198 271.551C38.5705 271.744 38.4091 271.841 34.0262 271.898C37.6198 271.716 31.2278 271.579 35.2579 271.334C30.6598 271.101 27.2455 271.22 24.4532 271.312C21.6847 271.38 19.4125 271.539 17.547 270.987C16.5544 270.987 16.5006 271.078 16.967 271.203C17.2002 271.266 17.5649 271.351 18.0014 271.414C18.4439 271.443 18.9581 271.482 19.4843 271.517C21.6907 271.556 24.1542 271.511 22.9703 271.579C23.9628 271.676 23.0899 271.784 21.607 271.864C20.8715 271.893 19.9626 271.961 19.1016 271.927C18.6711 271.915 18.2346 271.904 17.822 271.876C17.4154 271.813 17.0268 271.75 16.68 271.699C16.5006 271.67 16.3272 271.642 16.1597 271.613C15.9923 271.574 15.8249 271.517 15.6635 271.471C15.3346 271.368 15.0117 271.26 14.6828 271.141C14.354 271.032 14.0371 270.844 13.6962 270.691C13.3614 270.52 12.9907 270.371 12.6259 270.132C11.143 269.289 9.24757 268.098 6.93952 265.637C7.40591 266.121 7.45375 266.139 7.9321 266.6C7.50756 266.139 7.089 265.683 6.66447 265.216C6.46715 264.976 6.26385 264.731 6.06653 264.486L5.76158 264.116L5.49251 263.717C5.31313 263.449 5.12776 263.176 4.93642 262.903C4.769 262.618 4.61952 262.31 4.46405 262.002C4.12323 261.399 3.93786 260.692 3.71065 259.98C3.50735 259.598 3.3459 259.165 3.2024 258.727C3.04694 258.294 3.02302 257.832 2.93333 257.422C2.89745 257.217 2.86157 257.017 2.83168 256.835C2.81374 256.653 2.7958 256.482 2.77188 256.328C2.71807 256.026 2.64632 255.793 2.52075 255.673C2.61044 257.73 3.11271 259.758 3.99168 261.621C3.23828 260.043 2.60446 258.43 2.31745 256.436C2.17992 255.451 2.14405 254.334 2.12611 253.104C2.10817 251.879 2.12611 250.528 2.19188 249.024C2.28755 249.492 2.41312 251.292 2.48487 252.522C2.6224 250.756 2.39518 249.127 2.53869 247.298C2.77786 247.56 2.80178 249.52 2.81374 251.907C2.83168 253.086 2.80178 254.425 2.86755 255.622C2.92137 256.79 3.13663 257.895 3.4356 258.755C3.41766 258.647 3.39374 258.527 3.36982 258.396C3.35188 258.265 3.33395 258.123 3.31601 257.969C3.27415 257.667 3.21436 257.336 3.15456 256.995C3.09477 256.653 3.08879 256.288 3.05291 255.935C3.02302 255.576 2.97518 255.246 2.97518 254.892C2.92735 253.519 2.92137 252.631 3.17848 253.616C2.52673 250.785 3.26219 246.677 2.75992 241.909L3.04096 242.222C2.9991 241.47 2.86157 239.903 2.86755 238.513L3.23828 241.026C2.92735 237.163 3.51333 233.585 3.33993 229.882C3.34591 237.636 2.9991 231.62 2.78982 234.901C2.40714 225.341 3.53127 229.404 3.39374 218.699C3.4356 220.146 3.22632 224.139 3.09477 221.872C3.15456 219.832 3.26219 217.143 3.41168 215.89C3.35188 208.797 3.11869 216.978 2.94529 213.959C3.29209 211.543 2.80178 210.478 2.69415 207.367L2.98116 207.344C3.16652 199.26 2.37724 205.202 2.60446 197.927L3.00508 201.003L2.90343 197.209L3.20838 198.029C2.96322 193.905 3.029 192.617 3.11869 188.572C2.91539 189.512 2.5925 188.042 2.58652 184.465C2.75992 182.021 2.86157 185.832 2.81972 180.756C2.9991 181.901 3.22632 183.154 2.96322 185.365C3.05889 185.593 3.14261 186.493 3.23828 186.726C3.4356 184.094 3.28013 180.118 3.28013 178.283C3.26817 178.99 3.25621 179.839 3.21436 180.272L2.81374 172.917C2.92137 171.76 3.01106 172.677 3.09477 173.589C3.06487 172.096 2.93333 171.071 2.90343 168.877C3.13663 169.447 3.38178 169.31 3.48941 172.41L3.22632 165.402C3.32797 164.935 3.50735 161.807 3.59106 162.713C3.72859 158.828 3.13663 153.182 3.31601 148.032C3.26817 147.764 3.22632 147.228 3.19642 146.134C3.25023 141.292 3.53725 137.002 3.21436 131.265L3.63292 128.012C3.53725 123.517 3.10075 132.421 2.94529 124.935C2.81374 119.637 3.30405 122.959 3.41766 121.101C3.20838 118.469 2.77188 113.883 3.11869 109.018C3.2024 110.619 3.14261 111.883 3.1725 113.387ZM2.98714 57.9601C3.04694 59.0369 3.2323 61.1733 3.06487 61.9595C2.73601 60.7346 2.89147 59.7889 2.98714 57.9601ZM57.7823 20.3819C56.9452 20.4731 55.6477 20.4275 54.1827 20.325C55.247 20.3022 56.4489 20.3079 57.7823 20.3819ZM223.089 105.696C223.083 105.651 223.077 105.617 223.077 105.582C223.19 103.184 223.142 104.033 223.089 105.696ZM222.963 110.67C223.005 111.171 223.041 111.137 223.083 110.926C223.011 110.579 223.005 109.462 223.023 108.192C222.951 108.539 222.903 109.183 222.963 110.67ZM5.81539 267.779L5.1457 266.97C5.99478 267.802 6.28777 268.11 6.31766 268.144C6.34158 268.195 6.06653 267.996 5.81539 267.779Z" fill="white"/>
<path d="M47.7543 20.7573C47.4374 20.7117 47.3477 20.6604 47.27 20.6091C46.8275 20.6547 46.8215 20.706 47.7543 20.7573Z" fill="white"/>
<path d="M3.32778 147.854L3.32178 148.025C3.3398 148.116 3.35781 148.168 3.37583 148.196L3.32778 147.854Z" fill="white"/>
<path d="M220.2 33.8435C220.015 32.9035 219.919 32.3737 219.865 32.0148C219.794 31.9806 219.871 32.4193 220.2 33.8435Z" fill="white"/>
<path d="M223.454 137.03L223.376 133.845C223.388 135.389 223.328 135.936 223.28 136.716C223.352 136.642 223.454 136.033 223.454 137.03Z" fill="white"/>
<path d="M221.671 164.689C221.707 165.156 221.677 165.675 221.713 166.136L221.846 166.011C221.834 164.028 221.725 162.638 221.671 164.689Z" fill="white"/>
<path d="M222.496 139.981C222.251 140.231 222.335 142.231 222.382 144.464C222.382 144.328 222.382 144.202 222.382 144.071C222.723 144.726 222.61 142.351 222.496 139.981Z" fill="white"/>
<path d="M222.389 144.983C222.401 145.672 222.407 146.373 222.395 147.045C222.533 147.307 222.425 146.208 222.389 144.983Z" fill="white"/>
<path d="M223.124 116.976C223.064 118.036 223.435 117.642 223.334 118.241C223.644 119.426 222.963 111.182 223.124 116.976Z" fill="white"/>
<path d="M221.695 141.787L221.994 140.989L221.755 139.736L221.695 141.787Z" fill="white"/>
<path d="M221.917 124.166L221.833 127.732C221.881 127.681 221.911 128.131 221.935 128.689C221.947 126.49 222.007 124.08 221.917 124.166Z" fill="white"/>
<path d="M221.934 128.683C221.928 129.828 221.934 130.917 221.982 131.555C221.982 130.939 221.97 129.606 221.934 128.683Z" fill="white"/>
<path d="M221.605 136.91L221.672 135.856L221.69 133.338L221.605 136.91Z" fill="white"/>
<path d="M221.977 85.8183L221.893 81.9272C221.791 81.5284 221.725 82.5938 221.767 84.0408C221.839 84.9752 221.875 86.4165 221.977 85.8183Z" fill="white"/>
<path d="M221.157 97.5942C221.216 96.5403 221.288 96.4719 221.384 95.8794L221.013 95.7598L221.157 97.5942Z" fill="white"/>
<path d="M221.067 86.2398C220.966 85.8524 220.774 80.5882 220.792 85.522C220.9 85.9208 220.984 89.8176 221.067 86.2398Z" fill="white"/>
<path d="M218.938 28.1294C219.112 28.4086 219.315 28.6763 219.465 28.9726L219.937 28.5681C219.602 28.4142 219.261 28.2718 218.938 28.1294Z" fill="white"/>
<path d="M167.892 21.3326C172.736 21.4693 169.04 20.9736 173.417 21.1503C174.553 21.0135 169.842 21.0078 171.008 20.8882C168.084 21.0363 166.553 20.9509 167.892 21.3326Z" fill="white"/>
<path d="M171.008 20.8882C171.474 20.8597 171.97 20.8312 172.497 20.8027C171.654 20.8369 171.253 20.8654 171.008 20.8882Z" fill="white"/>
<path d="M195.177 273.743L198.292 273.869L196.283 273.669L195.177 273.743Z" fill="white"/>
<path d="M201.156 273.316L201.891 273.686L203.763 273.35C203.051 273.367 201.688 273.396 201.156 273.316Z" fill="white"/>
<path d="M3.77105 49.7157L3.67496 49.4878C3.57285 49.9493 3.56685 50.6386 3.54883 52.0344L3.77105 49.7157Z" fill="white"/>
<path d="M3.47706 89.9487L3.48901 89.2537L3.13623 90.5469L3.47706 89.9487Z" fill="white"/>
<path d="M3.92653 123.71C3.93854 122.331 3.86046 120.713 3.87848 119.329C3.94455 122.331 3.48808 124.086 3.92653 123.71Z" fill="white"/>
<path d="M25.072 188H27.808V181.504L32.592 188H35.328V177.008H32.592V183.504L27.808 177.008H25.072V188ZM41.3983 175.392C41.8783 175.392 42.6143 176.128 43.5103 176.128C44.6302 176.128 45.2063 175.408 45.3663 173.952L44.0703 173.76C43.9743 174.272 43.7823 174.512 43.4303 174.512C42.9663 174.512 42.1983 173.776 41.3183 173.776C40.2143 173.776 39.6383 174.496 39.4623 175.968L40.7583 176.144C40.8703 175.632 41.0623 175.392 41.3983 175.392ZM45.2222 188H48.2943L43.9423 177.008H40.8703L36.5183 188H39.5903L40.2303 186.4H44.5823L45.2222 188ZM41.0783 184.256L42.4063 180.88L43.7343 184.256H41.0783ZM54.9183 188.192C58.1343 188.192 60.8383 185.584 60.8383 182.496C60.8383 179.408 58.1343 176.816 54.9183 176.816C51.7183 176.816 49.0143 179.408 49.0143 182.496C49.0143 185.584 51.7183 188.192 54.9183 188.192ZM54.9183 185.712C53.2383 185.712 51.8143 184.24 51.8143 182.496C51.8143 180.768 53.2383 179.296 54.9183 179.296C56.5983 179.296 58.0223 180.768 58.0223 182.496C58.0223 184.24 56.5983 185.712 54.9183 185.712ZM66.8678 188H69.6038V184.56H71.9718C74.3878 184.56 76.1478 183.008 76.1478 180.784C76.1478 178.56 74.3878 177.008 71.9718 177.008H66.8678V188ZM69.6038 182.064V179.504H71.7158C72.6598 179.504 73.3318 180.016 73.3318 180.784C73.3318 181.552 72.6598 182.064 71.7158 182.064H69.6038ZM86.1644 179.456V177.008H77.5084V188H86.1644V185.552H80.2444V183.616H85.6204V181.168H80.2444V179.456H86.1644ZM97.4521 188L94.7961 184.224C96.2201 183.648 97.1321 182.384 97.1321 180.784C97.1321 178.56 95.3721 177.008 92.9561 177.008H87.8521V188H90.5881V184.56H91.9321L94.3481 188H97.4521ZM90.5881 179.504H92.7001C93.6441 179.504 94.3161 180.016 94.3161 180.784C94.3161 181.552 93.6441 182.064 92.7001 182.064H90.5881V179.504ZM101.62 188H104.356V179.456H107.684V177.008H98.2758V179.456H101.62V188ZM114.173 188.192C117.181 188.192 119.277 186.128 119.277 183.184V177.008H116.557V183.056C116.557 184.608 115.565 185.712 114.173 185.712C112.797 185.712 111.805 184.608 111.805 183.056V177.008H109.069V183.184C109.069 186.128 111.181 188.192 114.173 188.192ZM130.858 188L128.202 184.224C129.626 183.648 130.538 182.384 130.538 180.784C130.538 178.56 128.778 177.008 126.362 177.008H121.258V188H123.994V184.56H125.338L127.754 188H130.858ZM123.994 179.504H126.106C127.05 179.504 127.722 180.016 127.722 180.784C127.722 181.552 127.05 182.064 126.106 182.064H123.994V179.504ZM132.322 188H138.274C140.45 188 142.002 186.784 142.002 185.024C142.002 183.824 141.25 182.784 139.986 182.224C140.946 181.744 141.506 180.864 141.506 179.776C141.506 178.176 140.098 177.008 138.066 177.008H132.322V188ZM135.042 181.36V179.328H137.394C138.146 179.328 138.69 179.744 138.69 180.336C138.69 180.928 138.146 181.36 137.394 181.36H135.042ZM135.042 185.68V183.472H137.81C138.61 183.472 139.186 183.936 139.186 184.576C139.186 185.216 138.61 185.68 137.81 185.68H135.042ZM151.347 188H154.419L150.067 177.008H146.995L142.643 188H145.715L146.355 186.4H150.707L151.347 188ZM147.203 184.256L148.531 180.88L149.859 184.256H147.203ZM165.155 188L162.499 184.224C163.923 183.648 164.835 182.384 164.835 180.784C164.835 178.56 163.075 177.008 160.659 177.008H155.555V188H158.291V184.56H159.635L162.051 188H165.155ZM158.291 179.504H160.403C161.347 179.504 162.019 180.016 162.019 180.784C162.019 181.552 161.347 182.064 160.403 182.064H158.291V179.504ZM25.072 207H27.808V200.504L32.592 207H35.328V196.008H32.592V202.504L27.808 196.008H25.072V207ZM37.4783 207H40.2143V196.008H37.4783V207ZM42.3376 207H45.0736V200.504L49.8576 207H52.5936V196.008H49.8576V202.504L45.0736 196.008H42.3376V207ZM61.9279 196.008V200.168H57.4319V196.008H54.6959V207H57.4319V202.616H61.9279V207H64.6639V196.008H61.9279ZM72.1995 207.192C75.4155 207.192 78.1195 204.584 78.1195 201.496C78.1195 198.408 75.4155 195.816 72.1995 195.816C68.9995 195.816 66.2955 198.408 66.2955 201.496C66.2955 204.584 68.9995 207.192 72.1995 207.192ZM72.1995 204.712C70.5195 204.712 69.0955 203.24 69.0955 201.496C69.0955 199.768 70.5195 198.296 72.1995 198.296C73.8795 198.296 75.3035 199.768 75.3035 201.496C75.3035 203.24 73.8795 204.712 72.1995 204.712ZM84.0151 207.192C86.7351 207.192 88.4151 205.816 88.4151 203.608C88.4151 201.544 86.8311 200.84 84.3671 200.312C82.7351 199.96 82.2071 199.736 82.2071 199.064C82.2071 198.52 82.7031 198.104 83.5831 198.104C84.6071 198.104 85.7111 198.504 86.7191 199.272L88.1111 197.32C86.9431 196.344 85.5031 195.816 83.6631 195.816C81.1511 195.816 79.4551 197.224 79.4551 199.336C79.4551 201.544 81.1991 202.184 83.5511 202.712C85.1511 203.096 85.6631 203.24 85.6631 203.896C85.6631 204.488 85.1351 204.904 84.1111 204.904C82.7671 204.904 81.5671 204.392 80.4951 203.512L78.9591 205.352C80.2871 206.552 82.0631 207.192 84.0151 207.192ZM91.1939 209.416C92.3939 208.328 93.0339 207.176 93.0339 206.12C93.0339 204.824 92.3299 203.896 91.3219 203.896C90.4419 203.896 89.7059 204.648 89.7059 205.56C89.7059 206.44 90.4259 207.192 91.2899 207.192C91.1459 207.72 90.7779 208.264 90.2659 208.712L91.1939 209.416ZM27.776 226H30.512V217.456H33.84V215.008H24.432V217.456H27.776V226ZM42.3472 226H45.4193L41.0673 215.008H37.9953L33.6433 226H36.7153L37.3553 224.4H41.7073L42.3472 226ZM38.2033 222.256L39.5313 218.88L40.8593 222.256H38.2033ZM56.1553 226L53.4993 222.224C54.9233 221.648 55.8353 220.384 55.8353 218.784C55.8353 216.56 54.0753 215.008 51.6593 215.008H46.5553V226H49.2913V222.56H50.6353L53.0513 226H56.1553ZM49.2913 217.504H51.4033C52.3473 217.504 53.0193 218.016 53.0193 218.784C53.0193 219.552 52.3473 220.064 51.4033 220.064H49.2913V217.504ZM60.3229 226H63.0589V217.456H66.3869V215.008H56.9789V217.456H60.3229V226ZM74.8941 226H77.9661L73.6141 215.008H70.5421L66.1901 226H69.2621L69.9021 224.4H74.2541L74.8941 226ZM70.7501 222.256L72.0781 218.88L73.4061 222.256H70.7501ZM88.7021 226L86.0461 222.224C87.4701 221.648 88.3821 220.384 88.3821 218.784C88.3821 216.56 86.6221 215.008 84.2061 215.008H79.1021V226H81.8381V222.56H83.1821L85.5981 226H88.7021ZM81.8381 217.504H83.9501C84.8941 217.504 85.5661 218.016 85.5661 218.784C85.5661 219.552 84.8941 220.064 83.9501 220.064H81.8381V217.504ZM95.1578 226.192C98.1658 226.192 100.262 224.128 100.262 221.184V215.008H97.5417V221.056C97.5417 222.608 96.5498 223.712 95.1578 223.712C93.7818 223.712 92.7898 222.608 92.7898 221.056V215.008H90.0538V221.184C90.0538 224.128 92.1658 226.192 95.1578 226.192ZM107.283 221.76H109.635V223.136C109.091 223.504 108.435 223.712 107.795 223.712C106.083 223.712 104.627 222.24 104.627 220.496C104.627 218.768 106.083 217.296 107.795 217.296C108.739 217.296 109.699 217.744 110.291 218.48L112.291 216.704C111.171 215.52 109.491 214.816 107.795 214.816C104.547 214.816 101.827 217.408 101.827 220.496C101.827 223.584 104.547 226.192 107.795 226.192C109.491 226.192 111.171 225.488 112.291 224.288V219.696H107.283V221.76ZM121.91 226H124.982L120.63 215.008H117.558L113.206 226H116.278L116.918 224.4H121.27L121.91 226ZM117.766 222.256L119.094 218.88L120.422 222.256H117.766ZM130.406 226.192C133.126 226.192 134.806 224.816 134.806 222.608C134.806 220.544 133.222 219.84 130.758 219.312C129.126 218.96 128.598 218.736 128.598 218.064C128.598 217.52 129.094 217.104 129.974 217.104C130.998 217.104 132.102 217.504 133.11 218.272L134.502 216.32C133.334 215.344 131.894 214.816 130.054 214.816C127.542 214.816 125.846 216.224 125.846 218.336C125.846 220.544 127.59 221.184 129.942 221.712C131.542 222.096 132.054 222.24 132.054 222.896C132.054 223.488 131.526 223.904 130.502 223.904C129.158 223.904 127.958 223.392 126.886 222.512L125.35 224.352C126.678 225.552 128.454 226.192 130.406 226.192ZM33.68 236.456V234.008H25.024V245H33.68V242.552H27.76V240.616H33.136V238.168H27.76V236.456H33.68ZM47.5816 245H50.6536L46.3016 234.008H43.2296L38.8776 245H41.9496L42.5896 243.4H46.9416L47.5816 245ZM43.4376 241.256L44.7656 237.88L46.0936 241.256H43.4376ZM56.0776 245.192C58.7976 245.192 60.4776 243.816 60.4776 241.608C60.4776 239.544 58.8936 238.84 56.4296 238.312C54.7976 237.96 54.2696 237.736 54.2696 237.064C54.2696 236.52 54.7656 236.104 55.6456 236.104C56.6696 236.104 57.7736 236.504 58.7816 237.272L60.1736 235.32C59.0056 234.344 57.5656 233.816 55.7256 233.816C53.2136 233.816 51.5176 235.224 51.5176 237.336C51.5176 239.544 53.2616 240.184 55.6136 240.712C57.2136 241.096 57.7256 241.24 57.7256 241.896C57.7256 242.488 57.1976 242.904 56.1736 242.904C54.8296 242.904 53.6296 242.392 52.5576 241.512L51.0216 243.352C52.3496 244.552 54.1256 245.192 56.0776 245.192ZM70.7183 245.192C73.4383 245.192 75.1183 243.816 75.1183 241.608C75.1183 239.544 73.5343 238.84 71.0703 238.312C69.4383 237.96 68.9103 237.736 68.9103 237.064C68.9103 236.52 69.4062 236.104 70.2863 236.104C71.3103 236.104 72.4143 236.504 73.4223 237.272L74.8142 235.32C73.6463 234.344 72.2063 233.816 70.3663 233.816C67.8543 233.816 66.1583 235.224 66.1583 237.336C66.1583 239.544 67.9023 240.184 70.2543 240.712C71.8543 241.096 72.3663 241.24 72.3663 241.896C72.3663 242.488 71.8383 242.904 70.8143 242.904C69.4703 242.904 68.2703 242.392 67.1983 241.512L65.6623 243.352C66.9903 244.552 68.7663 245.192 70.7183 245.192ZM81.689 245.192C84.697 245.192 86.793 243.128 86.793 240.184V234.008H84.073V240.056C84.073 241.608 83.081 242.712 81.689 242.712C80.313 242.712 79.321 241.608 79.321 240.056V234.008H76.585V240.184C76.585 243.128 78.697 245.192 81.689 245.192ZM96.566 245H99.638L95.286 234.008H92.214L87.862 245H90.934L91.574 243.4H95.926L96.566 245ZM92.422 241.256L93.75 237.88L95.078 241.256H92.422ZM105.062 245.192C107.782 245.192 109.462 243.816 109.462 241.608C109.462 239.544 107.878 238.84 105.414 238.312C103.782 237.96 103.254 237.736 103.254 237.064C103.254 236.52 103.75 236.104 104.63 236.104C105.654 236.104 106.758 236.504 107.766 237.272L109.158 235.32C107.99 234.344 106.55 233.816 104.71 233.816C102.198 233.816 100.502 235.224 100.502 237.336C100.502 239.544 102.246 240.184 104.598 240.712C106.198 241.096 106.71 241.24 106.71 241.896C106.71 242.488 106.182 242.904 105.158 242.904C103.814 242.904 102.614 242.392 101.542 241.512L100.006 243.352C101.334 244.552 103.11 245.192 105.062 245.192ZM120.903 245.192C122.615 245.192 124.183 244.456 125.271 243.288L123.287 241.528C122.695 242.248 121.847 242.712 120.903 242.712C119.223 242.712 117.799 241.24 117.799 239.496C117.799 237.768 119.223 236.296 120.903 236.296C121.831 236.296 122.695 236.76 123.271 237.48L125.271 235.704C124.183 234.552 122.615 233.816 120.903 233.816C117.703 233.816 114.999 236.408 114.999 239.496C114.999 242.584 117.703 245.192 120.903 245.192ZM136.233 245L133.577 241.224C135.001 240.648 135.913 239.384 135.913 237.784C135.913 235.56 134.153 234.008 131.737 234.008H126.633V245H129.369V241.56H130.713L133.129 245H136.233ZM129.369 236.504H131.481C132.425 236.504 133.097 237.016 133.097 237.784C133.097 238.552 132.425 239.064 131.481 239.064H129.369V236.504ZM137.697 245H140.433V234.008H137.697V245ZM150.3 245H153.372L149.02 234.008H145.948L141.596 245H144.668L145.308 243.4H149.66L150.3 245ZM146.156 241.256L147.484 237.88L148.812 241.256H146.156ZM158.796 245.192C161.516 245.192 163.196 243.816 163.196 241.608C163.196 239.544 161.612 238.84 159.148 238.312C157.516 237.96 156.988 237.736 156.988 237.064C156.988 236.52 157.484 236.104 158.364 236.104C159.388 236.104 160.492 236.504 161.5 237.272L162.892 235.32C161.724 234.344 160.284 233.816 158.444 233.816C155.932 233.816 154.236 235.224 154.236 237.336C154.236 239.544 155.98 240.184 158.332 240.712C159.932 241.096 160.444 241.24 160.444 241.896C160.444 242.488 159.916 242.904 158.892 242.904C157.548 242.904 156.348 242.392 155.276 241.512L153.74 243.352C155.068 244.552 156.844 245.192 158.796 245.192ZM166.167 245.192C167.047 245.192 167.783 244.44 167.783 243.512C167.783 242.648 167.047 241.896 166.167 241.896C165.207 241.896 164.471 242.648 164.471 243.512C164.471 244.44 165.207 245.192 166.167 245.192Z" fill="#282828"/>
<g clip-path="url(#clip0)">
<path d="M199.706 70.5524C218.628 70.5524 233.967 55.0849 233.967 36.0048C233.967 16.9247 218.628 1.45728 199.706 1.45728C180.784 1.45728 165.445 16.9247 165.445 36.0048C165.445 55.0849 180.784 70.5524 199.706 70.5524Z" fill="#84D8C8"/>
<path d="M235.894 36.0048L236 35.898L235.682 35.6162L235.894 36.0048Z" fill="#92DCCE"/>
<path d="M235.143 34.188C235.095 34.2463 234.998 34.2268 234.95 34.2754L235.856 35.315C236.318 34.8195 234.825 34.5183 235.143 34.188Z" fill="#92DCCE"/>
<path d="M235.21 33.8772C235.393 33.4498 234.979 33.304 234.834 33.2263C235.152 33.3429 234.777 33.9938 235.21 33.8772Z" fill="#92DCCE"/>
<path d="M216.577 4.60503C216.615 4.62447 216.663 4.6439 216.702 4.6439C216.654 4.60504 216.606 4.5856 216.577 4.60503Z" fill="#92DCCE"/>
<path d="M207.52 2.6231L207.356 2.91456C208.223 2.84655 209.11 3.06029 209.958 3.35175C210.796 3.71122 211.624 4.09983 212.501 4.29413L212.347 4.36214C216.432 6.16918 220.228 8.0248 223.697 11.0268C223.62 11.0074 223.533 11.056 223.456 11.0365C223.697 11.1045 224.015 11.124 224.178 11.3086C224.178 11.4057 224.024 11.3669 223.938 11.3377C224.217 12.3967 226.086 13.2031 226.182 13.9123C226.394 14.0871 226.635 14.0483 226.674 13.8151C229.054 16.5354 231.067 19.8677 232.792 23.2001C232.782 23.3944 232.657 23.4818 232.474 23.5013C234.488 26.1632 234.805 29.6899 234.998 32.9251C235.229 33.032 235.22 32.5656 235.47 32.8765C235.701 31.769 234.661 31.0112 234.95 30.0008L235.181 30.0882C235.21 29.3693 234.622 30.0396 234.786 29.2721C234.921 28.9515 235.066 29.2916 235.066 29.1556C234.921 28.4172 234.699 27.6788 234.507 26.9502C234.276 26.2313 234.064 25.5123 233.563 24.9391C233.89 24.4631 233.033 23.4333 233.274 22.7532C232.965 22.4617 232.879 22.0731 232.541 22.0634C230.74 17.1475 227.213 12.9602 223.359 9.43352C222.743 9.20035 222.242 8.80203 221.673 8.44256C221.124 8.06366 220.604 7.62648 220.084 7.15043C219.573 6.65495 219.005 6.21776 218.407 5.80972C217.81 5.39196 217.193 5.00335 216.538 4.69246C216.538 4.6536 216.557 4.62445 216.586 4.61474C215.623 4.401 214.351 3.89581 213.368 3.30317L212.328 3.33232C209.37 1.64186 205.921 0.922927 202.51 0.592607L199.928 0.466309C199.07 0.466309 198.203 0.544031 197.336 0.573177L196.045 0.641184L194.764 0.816059C193.906 0.942358 193.039 0.990934 192.191 1.16581C188.318 1.86531 184.763 3.15744 181.545 4.99363L180.35 5.71256C179.946 5.94573 179.56 6.20804 179.204 6.4995C178.471 7.0727 177.749 7.65562 177.036 8.25797C176.381 8.92832 175.735 9.61811 175.109 10.3273C174.463 11.0171 173.972 11.8623 173.433 12.659C173.375 12.591 173.298 12.6104 173.394 12.4355C173.066 12.8824 172.691 13.2711 172.373 13.6985C172.045 14.1163 171.727 14.534 171.4 14.9421C171.082 15.3501 170.754 15.7485 170.446 16.1759C170.176 16.6228 169.926 17.0697 169.694 17.5458L169.627 17.4875C169.386 18.0898 169.087 18.6728 168.818 19.2751C168.577 19.8872 168.326 20.4992 168.056 21.1016C167.469 22.2868 167.074 23.5595 166.602 24.8031C166.351 25.4152 166.187 26.0661 166.033 26.6976C165.869 27.3388 165.725 27.9703 165.58 28.6115C165.368 29.8939 165.32 31.1861 165.33 32.4102C164.694 38.3365 165.696 45.3121 168.74 50.8498L168.567 50.9178C168.885 51.4619 169.174 52.0156 169.453 52.5791C169.781 53.1037 170.099 53.6478 170.407 54.1821C170.985 55.2897 171.679 56.3098 172.353 57.359C172.989 58.4374 173.837 59.3507 174.627 60.3319C175.013 60.8274 175.485 61.2452 175.947 61.6726C176.41 62.1001 176.891 62.5081 177.383 62.9065C178.327 63.8003 179.396 64.5969 180.524 65.2964C181.111 65.617 181.699 65.9182 182.296 66.2194L183.192 66.6663L184.127 67.0257L185.987 67.735C186.594 67.9876 187.249 68.1236 187.865 68.3373C188.492 68.5316 189.099 68.7745 189.715 68.9785C190.341 69.1534 190.958 69.3574 191.565 69.5809C191.921 69.7946 192.317 69.9598 192.721 70.1055C193.135 70.2124 193.569 70.2804 194.022 70.3289C194.918 70.3969 195.833 70.4941 196.758 70.3969C197.673 70.3192 198.579 70.2415 199.427 70.2415C200.284 70.2221 201.094 70.1929 201.855 70.3969C203.416 70.7467 204.967 70.5913 206.518 70.4844C207.289 70.3872 208.031 70.1832 208.782 69.9986C209.534 69.814 210.276 69.6003 210.979 69.27C211.692 68.9688 212.395 68.6482 213.089 68.3179C213.763 67.9487 214.418 67.5115 215.064 67.1035L216.027 66.472L216.933 65.7433C217.53 65.2576 218.128 64.7718 218.716 64.2763C219.313 63.9071 219.891 63.5088 220.469 63.0911L221.317 62.4596L222.088 61.7309L223.591 60.2542C224.053 59.7296 224.487 59.1661 224.93 58.6317C225.864 57.5922 226.568 56.3875 227.435 55.3188C227.868 54.7845 228.206 54.1821 228.63 53.6381C229.025 53.0746 229.506 52.5597 229.901 51.9865C230.036 51.3258 230.296 50.7138 230.624 50.1114C230.788 49.8103 230.99 49.5285 231.154 49.2176C231.327 48.9165 231.501 48.6056 231.674 48.2947C232.04 47.6729 232.416 47.0414 232.763 46.3905C233.042 45.7104 233.274 45.0109 233.418 44.2823L233.177 44.3308C233.63 43.8937 233.582 43.2719 233.466 42.7084C233.351 42.1352 233.274 41.6397 233.823 41.3968L233.852 41.5134C234.449 41.0276 232.84 40.0658 233.495 39.8229L233.254 39.7064C233.264 39.0457 233.563 39.6578 233.697 39.1526C233.678 38.9583 233.235 39.036 233.408 38.6474C234.449 38.628 233.264 37.0055 234.439 37.0055C234.42 37.3844 234.921 36.4226 235.123 37.2873C235.258 37.0444 235.258 35.8785 234.748 35.9854C234.218 35.8883 233.765 35.4511 233.341 36.1311L233.717 36.2671C233.322 36.4906 233.514 36.442 233.225 36.5197C233.129 37.3941 232.57 37.4913 232.3 38.0839C232.31 38.0742 232.32 38.0742 232.339 38.0839C232.773 38.5308 232.484 39.104 232.387 39.4246L232.156 39.5315C231.684 39.6772 232.879 40.6002 232.156 40.2504C232.108 41.1151 232.06 42.0672 231.867 43.0096C231.636 43.9422 231.404 44.904 231.173 45.8561C231.366 46.2059 230.634 47.2551 231.318 47.0317C230.528 47.2843 229.93 48.5861 229.718 49.0816C229.67 49.0428 229.622 48.9942 229.68 48.9262C228.475 49.4994 229.844 50.364 228.514 50.7915C228.793 51.0247 228.572 51.4036 228.302 51.8116C228.013 52.2099 227.714 52.6568 227.936 53.1135C227.734 53.1329 227.589 53.094 227.502 52.9872C227.271 53.3563 227.03 53.7255 226.78 54.0947C226.529 54.4639 226.202 54.7845 225.922 55.1245C225.325 55.7754 224.814 56.4458 224.313 56.9704C224.13 57.6408 223.571 58.1557 223.051 58.6803C222.55 59.2244 221.972 59.6421 221.885 60.3513C221.49 60.5845 220.97 60.8857 220.459 61.2549C219.92 61.5852 219.38 61.9835 218.985 62.4984L219.014 62.343C217.964 63.2951 216.442 64.1597 215.883 65.1798C215.131 64.6941 214.65 65.0633 213.995 65.1021C213.667 65.481 213.05 65.8502 212.386 66.2485C211.692 66.5691 210.931 66.9189 210.304 67.3366C209.977 67.0549 209.235 67.9098 208.994 67.3561C208.098 67.8515 207.115 68.347 206.046 68.6579C204.967 68.9105 203.84 69.1728 202.683 69.2311C201.527 69.2311 200.361 69.2797 199.225 69.1048C198.088 68.8911 196.98 68.7259 195.949 68.3762L196.016 68.347C195.438 68.5705 194.706 69.1437 194.06 69.4546C194.012 69.3963 194.031 69.3088 194.157 69.3283C193.752 69.3186 193.386 69.1534 193.02 68.9785C192.663 68.7745 192.317 68.5705 191.921 68.5219C191.95 68.4345 191.95 68.4345 192.095 68.3762C191.315 68.4247 190.727 67.5698 189.763 67.7447V67.5892H189.176C189.243 67.4144 189.359 67.1618 189.609 67.3172C186.43 66.2097 183.318 64.7524 180.37 62.887C179.657 62.3818 178.876 61.9641 178.221 61.3812L176.188 59.681L174.357 57.7574C173.741 57.1162 173.269 56.3584 172.739 55.6491L173.038 55.756L171.968 54.8331C172.045 54.7845 172.122 54.8136 172.199 54.8428C171.554 53.1912 170.137 51.9282 169.521 50.3057C169.608 50.2766 169.877 50.432 169.868 50.1697C169.376 49.7034 169.28 49.1885 169.222 48.7513C169.164 48.3141 169.078 47.9838 168.48 47.8672C168.509 47.7895 168.712 47.6729 168.837 47.7603L168.278 46.5654L168.008 45.9533L167.806 45.3218C167.546 44.4669 167.295 43.6119 167.074 42.7472C166.929 41.8632 166.804 40.9791 166.688 40.095L166.602 39.4343V38.7543L166.592 37.4233C165.975 35.966 166.129 34.3629 166.187 32.7696C166.255 31.973 166.418 31.1861 166.486 30.3894C166.524 29.9911 166.553 29.5927 166.563 29.1944C166.602 28.7961 166.64 28.4075 166.64 27.9994L166.823 28.0577C166.939 26.0078 167.661 23.9967 168.557 22.0925C169.068 21.1599 169.521 20.2078 170.08 19.314C170.667 18.4396 171.188 17.5264 171.746 16.6423C172.854 15.3016 173.317 14.1746 174.531 12.8922L174.733 13.0185C175.34 11.5709 176.699 10.6965 177.951 9.79299C178.606 9.3558 179.3 8.99633 179.917 8.52028C180.225 8.28712 180.524 8.04423 180.803 7.77221C181.102 7.52932 181.381 7.2573 181.651 6.95612L181.632 7.33502C181.776 6.66466 183.289 6.52865 182.711 5.87772L183.298 5.81943C183.954 4.83819 184.907 4.54673 185.89 4.26499C186.883 3.99296 187.971 3.90552 189.06 3.08944L188.964 3.34203C189.542 2.92428 190.303 2.65225 190.833 2.69111C190.765 2.73969 190.813 2.78826 190.669 2.8757C191.806 3.01171 192.846 2.64253 193.954 2.40937C195.053 2.13734 196.161 1.68072 197.288 1.69043L197.066 2.07905C197.587 1.82645 198.357 1.78759 199.157 1.76816C199.966 1.71958 200.814 1.89446 201.527 1.80702L201.431 1.98189L202.163 1.76816L202.154 2.12762C203.069 2.14705 203.955 2.24421 204.842 2.3025C205.747 2.36079 206.643 2.37051 207.52 2.6231Z" fill="#92DCCE"/>
<path d="M223.937 11.328C223.937 11.3183 223.928 11.3183 223.928 11.3086C223.87 11.2892 223.889 11.3086 223.937 11.328Z" fill="#92DCCE"/>
<path d="M232.214 38.317C232.243 38.2393 232.262 38.1713 232.301 38.1033C232.223 38.113 232.233 38.249 232.214 38.317Z" fill="#92DCCE"/>
</g>
<path d="M187.36 50.48C194.96 50.48 200.32 44.6 200.32 36.24C200.32 27.92 194.96 22.04 187.36 22.04C179.76 22.04 174.4 27.92 174.4 36.24C174.4 44.6 179.76 50.48 187.36 50.48ZM187.36 43.44C184.44 43.44 182.4 40.44 182.4 36.24C182.4 32.04 184.44 29.08 187.36 29.08C190.28 29.08 192.32 32.04 192.32 36.24C192.32 40.44 190.28 43.44 187.36 43.44ZM213.871 50.52C221.071 50.52 225.591 46.72 225.591 40.64C225.591 34.96 221.311 31.84 216.511 31.84C214.431 31.84 212.751 32.44 211.471 33.36L211.591 29.44H224.071V22.52H204.511L204.111 37.84L209.191 39.76C210.511 38.72 212.111 38.16 213.991 38.16C216.431 38.16 217.871 39.24 217.871 40.92C217.871 42.48 216.511 43.84 213.871 43.84C211.511 43.84 209.071 42.68 207.031 40.96L202.631 46.4C205.391 48.96 209.031 50.52 213.871 50.52Z" fill="#282828"/>
<defs>
<clipPath id="clip0">
<rect width="72" height="72" fill="white" transform="translate(164)"/>
</clipPath>
</defs>
</svg>
