<svg width="28" height="49" viewBox="0 0 28 49" fill="none" xmlns="http://www.w3.org/2000/svg">
<g clip-path="url(#clip0)">
<path d="M13.0418 8.11734L12.9505 8.18487L13.2243 8.36045L13.0418 8.11734Z" fill="white"/>
<path d="M13.6545 9.30583C13.7067 9.26531 13.7849 9.29232 13.837 9.25181L13.0678 8.5495C12.6246 8.87364 13.9413 9.10324 13.6545 9.30583Z" fill="white"/>
<path d="M13.5763 9.52195C13.3938 9.79207 13.7588 9.91362 13.8761 9.96765C13.5893 9.8731 13.9674 9.45442 13.5763 9.52195Z" fill="white"/>
<path d="M13.7458 33.576C13.7458 33.549 13.7327 33.522 13.7197 33.495C13.7197 33.522 13.7327 33.549 13.7458 33.576Z" fill="white"/>
<path d="M14.9843 39.8427L15.2711 39.9102C14.7496 38.7352 15.2842 37.4252 15.0495 36.1826L15.1538 36.2636C15.2711 33.1168 14.7887 30.2265 14.5671 27.1066C14.5932 27.1607 14.6844 27.1742 14.7105 27.2282C14.6062 27.0796 14.4237 26.9176 14.4498 26.742C14.515 26.7015 14.5801 26.7825 14.6193 26.8365C15.1016 26.1747 14.3194 24.9052 14.6844 24.4865C14.6323 24.2974 14.4367 24.2164 14.2803 24.3244C14.163 21.8799 14.0717 19.2732 13.6936 16.7881C13.7588 16.6666 13.8892 16.6531 14.0587 16.6801C13.2764 14.5596 13.5893 12.3312 13.7197 10.1567C13.5111 10.0757 13.4981 10.3728 13.2895 10.1702C13.0287 10.8725 13.7849 11.4533 13.4198 12.0881L13.2243 12.007C13.0939 12.4662 13.7197 12.1016 13.472 12.5743C13.3025 12.7634 13.2243 12.5338 13.2112 12.6148C13.2895 13.6007 13.12 14.6137 13.5893 15.5456C13.1591 15.7752 13.5763 16.599 13.1721 16.9637C13.3416 17.2203 13.3025 17.4769 13.5763 17.5715C13.3547 21.002 13.7588 24.5 13.7327 28.025C14.5541 29.6728 13.5763 31.6446 13.8501 33.5895C13.824 33.603 13.7849 33.603 13.7588 33.5895C13.9674 34.2243 14.0587 35.1562 13.9544 35.9125L14.3064 36.5608C13.9935 38.5461 13.9153 40.545 13.9022 42.5574L15.6883 42.5574C15.7144 39.9373 15.6231 37.3036 15.7926 34.6699C16.0012 29.3891 16.6009 24.7701 15.5058 19.6379C15.584 19.6514 15.6362 19.5974 15.6622 19.7324C15.4928 18.2468 15.7926 16.8962 15.6231 15.5051L15.7013 15.5051C15.0234 12.0205 15.7926 8.2659 15.0625 4.92994C15.0886 3.53883 15.0886 2.0937 15.0886 0.5L14.5019 0.5C14.515 3.2417 14.5932 6.19949 14.7366 9.03573L14.5671 9.02223C14.9191 12.4662 14.0456 15.7887 14.3064 19.2327C13.9283 22.7712 15.245 26.4989 14.7496 30.0644C13.9413 32.2659 15.6753 35.1697 14.8409 37.2361C14.541 38.276 14.3455 39.3025 14.2542 40.3154L15.3233 40.3154C15.6101 37.128 15.0104 33.9811 14.4367 30.7667C14.88 26.8365 13.7327 22.9198 14.6453 19.1246C14.0717 17.3149 15.3754 15.3295 15.2059 13.3306L14.9973 13.3981C15.6101 12.6823 14.1369 11.7909 15.0495 11.3452L15.0886 11.4263C15.571 11.0346 14.0065 10.5349 14.5541 10.3053L14.3324 10.2513C14.2673 9.79206 14.5932 10.1972 14.6844 9.84609C14.6584 9.71103 14.2673 9.79206 14.3976 9.52195C15.3363 9.44091 14.189 8.37394 15.245 8.34693C15.245 8.60355 15.6492 7.95526 15.8708 8.52251C15.9751 8.36044 15.923 7.5906 15.4797 7.65813C15.0104 7.5906 14.5932 7.27997 14.2281 7.75267L14.5801 7.84721C14.2281 8.00928 14.4107 7.96877 14.1499 8.02279C14.0978 8.63056 13.6024 8.71159 13.3938 9.15729C13.4068 9.15729 13.4198 9.14378 13.4329 9.15729C13.8501 9.45442 13.6024 9.8731 13.5372 10.1162L13.3416 10.2107C12.9375 10.3593 14.1238 10.9131 13.4329 10.724C13.6024 11.9665 13.6024 13.3981 13.6024 14.7893C13.8631 14.9783 13.5763 15.8562 14.0847 15.5456C13.5111 15.8967 13.3547 16.9367 13.3807 17.3149C13.3286 17.3013 13.2634 17.2878 13.2895 17.2203C12.5333 17.9631 13.9804 18.1117 13.0678 18.8005C13.7197 18.9086 12.8592 20.0701 13.6284 20.4617C13.485 20.5428 13.3547 20.5833 13.2373 20.5428C13.2243 21.7988 12.9896 23.1899 12.9635 24.2569C13.5372 25.1618 12.7028 26.4584 13.485 27.2417C13.3155 27.89 12.9896 28.9434 13.3025 29.8483L13.2112 29.7538C13.2634 30.7802 13.3025 32.0498 13.7849 32.7521C13.0287 33.0492 13.1852 33.4949 12.9375 33.9406C13.2895 34.6294 13.1852 36.007 13.4981 37.047C13.1461 37.2091 13.6415 37.9114 13.1461 37.9654C13.3938 38.6947 13.5502 39.4781 13.6415 40.2749L15.923 40.2749C15.6492 37.8844 15.9751 35.2777 16.5227 32.9412L16.5618 32.9817C16.288 32.5765 15.6753 32.1173 15.3233 31.6986C15.3624 31.6581 15.4536 31.6581 15.4536 31.7527C15.3624 31.1854 15.8578 30.6452 15.7665 30.0779C15.8448 30.0779 15.8448 30.0779 15.923 30.1725C15.7013 29.6322 16.3271 29.065 15.936 28.4437L16.0664 28.4032L15.8839 27.998C16.0533 28.0115 16.3011 28.025 16.2489 28.2411C16.4054 23.3925 15.5449 18.3548 15.6622 13.3306L15.8187 13.5197L15.5449 12.5473C15.6231 12.5473 15.6753 12.6013 15.7013 12.6418C15.9882 11.3993 15.5188 10.1162 15.584 8.91418C15.6622 8.91418 15.8317 9.10326 15.923 8.92769C15.4667 8.0363 16.5097 7.49606 15.571 7.05037C15.6101 7.00985 15.8187 6.98284 15.8969 7.06387C15.6231 4.90293 15.597 2.68796 15.7013 0.5L13.8761 0.5L13.824 1.48593C14.6844 3.56584 13.9022 5.90236 14.5801 8.06331L14.4107 8.06331C15.0104 10.8725 14.3716 13.8438 14.4889 16.7611C14.4237 17.9631 14.6193 18.787 14.6323 20.0025L14.4237 20.0295C15.232 22.0689 13.6936 24.3244 14.5801 26.4584L14.2933 26.3098C14.7366 26.6339 14.1369 27.5929 14.9061 27.4713L14.6714 27.8495C15.6883 29.2946 14.2021 30.4831 14.867 32.2659L14.6844 32.1443C14.8279 32.6171 14.9322 33.1708 14.7757 33.5219C14.7496 33.4679 14.6975 33.4949 14.6453 33.3869C13.9283 34.859 14.7236 36.5068 14.6975 38.0734L14.3585 37.8979C14.7496 38.6542 14.3846 40.0318 14.5671 41.0312L14.4107 40.9772L14.6323 41.4769L14.3064 41.4904C14.3064 41.8551 14.3194 42.2197 14.3455 42.5709L15.232 42.5709C15.1538 41.612 15.0104 40.7476 14.9843 39.8427Z" fill="white"/>
<path d="M14.6193 26.8365C14.6193 26.8365 14.6193 26.85 14.6062 26.85C14.6323 26.8905 14.6323 26.877 14.6193 26.8365Z" fill="white"/>
<path d="M13.3155 9.31936C13.3286 9.26534 13.3547 9.21131 13.3807 9.15729C13.3155 9.17079 13.3286 9.26534 13.3155 9.31936Z" fill="white"/>
<path d="M12.8853 44.2321L12.7941 44.1781L12.9375 44.4347L12.8853 44.2321Z" fill="white"/>
<path d="M12.9896 45.0155C13.0287 45.0425 13.0809 45.11 13.133 45.137L12.781 44.3672C12.3769 44.1376 13.2504 45.164 12.9896 45.0155Z" fill="white"/>
<path d="M12.8723 45.0155C12.6637 44.9615 12.8984 45.2586 12.9635 45.3666C12.7941 45.137 13.1721 45.2856 12.8723 45.0155Z" fill="white"/>
<path d="M18.1263 42.9221C18.1263 42.9356 18.1132 42.9491 18.1132 42.9626C18.1393 42.9491 18.1393 42.9356 18.1263 42.9221Z" fill="white"/>
<path d="M18.9867 40.2344L18.8042 40.0048C18.8433 40.7206 18.1132 40.7071 17.9307 41.2203L17.8786 41.1258C16.9399 41.9361 16.4836 43.1111 15.7796 44.1511C15.7665 44.1106 15.7144 44.043 15.7014 44.0025C15.7274 44.1241 15.8187 44.2997 15.7535 44.3267C15.7014 44.2862 15.6753 44.2186 15.6622 44.1781C15.1408 44.016 15.3494 44.9479 14.9713 44.7859C14.9582 44.8804 15.0756 45.0425 15.2059 45.1235C14.6193 45.9069 13.9674 46.7037 13.5502 47.6896C13.472 47.6761 13.3807 47.5816 13.2634 47.4465C13.2504 47.7707 13.1852 48.0408 13.0678 48.2704L11.4382 46.5551C11.725 45.9744 12.2987 45.6503 12.7941 45.2721C12.6767 45.0965 12.5855 45.1775 12.4942 44.9614C12.1161 44.975 12.4942 45.6908 12.064 45.5962L11.9466 45.4342C11.725 45.4747 12.2726 45.8258 11.9597 45.7718C11.7902 45.7043 11.7902 45.5692 11.7641 45.5827C11.6077 45.8393 11.3209 46.0014 11.2426 46.3391L13.2764 48.473C13.3025 48.3784 13.3025 48.2569 13.2895 48.1083C13.6545 48.3649 13.5893 47.8247 13.9804 48.0273C13.9283 47.8247 14.0326 47.7842 13.8631 47.5546C14.9582 46.7577 15.6362 45.4477 16.627 44.4887C16.4966 43.4083 17.7352 43.5838 18.0741 42.8275C18.1002 42.841 18.1132 42.868 18.1393 42.895C18.1654 42.5709 18.3609 42.2333 18.6347 42.0982L18.5695 41.6525C20.3296 40.8827 21.2552 39.1944 22.7414 38.1004C24.332 36.7634 26.0268 35.8855 26.6656 33.6435C26.7178 33.6975 26.7699 33.7245 26.7569 33.7921C26.8612 33.5895 27.0176 33.4274 27.1871 33.2923L26.0007 32.0768C25.74 32.3064 25.4532 32.4955 25.2967 32.8061L25.2446 32.7386C24.7752 34.2243 23.2108 34.724 22.8197 36.2096C21.6593 37.3036 20.4469 38.6677 19.43 40.0453L19.2866 39.9508C18.5956 41.1798 17.0703 41.4904 16.3141 42.6519C15.0886 43.3813 14.9973 45.4071 13.6676 46.0419C13.6024 46.0419 13.5372 46.0554 13.472 46.0689L13.7067 46.312C14.6323 46.0689 14.3324 44.2186 15.4145 44.2456C17.4744 43.962 18.022 42.2062 18.6608 40.4505C20.0427 39.6671 20.3035 37.7223 21.9983 37.3171C22.0765 36.3717 23.5497 36.7769 23.98 36.0881L23.8105 35.953C24.4363 36.1961 23.641 34.8725 24.4102 35.4128L24.4232 35.4668C24.8535 35.6964 23.8887 34.4133 24.345 34.751L24.2016 34.5619C24.2798 34.3863 24.3972 34.7375 24.5666 34.7105C24.5797 34.6564 24.2798 34.3863 24.4493 34.4133C25.1272 35.0886 24.6188 33.9406 25.3749 34.7105C25.3098 34.778 25.7661 34.8995 25.7791 35.2237C25.8964 35.2507 26.079 34.9941 25.74 34.697C25.4271 34.3323 25.2185 33.9406 24.8274 33.8056L25.049 34.0892C24.7622 33.8731 24.8926 33.9947 24.697 33.8191C24.5015 33.9541 24.1234 33.6165 23.8496 33.5895C23.8626 33.5895 23.8626 33.603 23.8757 33.6165C24.0843 34.0082 23.7974 33.9406 23.6931 33.9676L23.5367 33.8596C23.2108 33.603 23.9017 34.6294 23.4585 34.0757C23.2368 34.5484 22.8457 34.9536 22.4677 35.3587C22.598 35.6019 22.1548 35.6424 22.598 35.926C22.0896 35.6019 21.7115 35.7909 21.6202 35.9125C21.5811 35.872 21.542 35.818 21.5811 35.818C20.851 35.4803 21.8288 36.5743 20.9944 36.1016C21.4247 36.6013 20.499 36.3042 20.9293 36.9795C20.7989 36.8984 20.7076 36.8174 20.6294 36.7228C20.2774 37.074 19.7298 37.2901 19.417 37.5737C19.5734 38.249 18.6347 38.0059 18.9737 38.8028C18.6738 38.8703 18.1654 38.9243 18.1393 39.4105L18.1002 39.316C17.8525 39.6401 17.5266 40.0318 17.683 40.5855C17.0703 40.1263 17.0572 40.3559 16.7574 40.3019C16.8226 40.7476 16.3662 41.0718 16.3011 41.5985C16.0142 41.3959 16.1707 41.9496 15.8057 41.5985C15.6883 43.1382 14.4628 43.908 13.0939 44.2591L13.0809 44.2186C13.1591 44.5293 13.472 45.11 13.6024 45.4882C13.5633 45.4612 13.4981 45.4071 13.5241 45.3801C13.459 45.5692 13.12 45.4612 12.9505 45.5287L14.3064 46.9333C14.3585 46.9198 14.3846 46.8928 14.4107 46.8388C14.4628 46.9063 14.4628 46.9063 14.5019 46.9873C14.4889 46.6767 15.0886 46.9738 14.9843 46.5011L15.0886 46.5822L15.0625 46.3255C15.1799 46.4471 15.3493 46.6362 15.2581 46.6632C16.7052 45.3936 17.4744 43.3272 18.9346 42.0037L18.9998 42.1657L19.0649 41.6795C19.1171 41.747 19.1432 41.7876 19.1562 41.8281C19.6907 41.6795 19.7168 40.9772 20.0949 40.6801C20.147 40.7341 20.2122 40.9097 20.3296 40.9232C20.2513 40.3424 21.1379 40.9502 20.5903 40.1263C20.6294 40.1398 20.7859 40.2884 20.825 40.3694C21.2813 39.4375 21.9983 38.7217 22.7805 38.1275C22.7414 36.9119 23.9278 36.8174 24.0452 35.6964L24.1625 35.818C24.5015 34.5889 25.7661 34.2107 26.4831 33.2923C26.5744 33.1843 26.6787 33.0492 26.7699 32.9142L26.3788 32.509C26.2354 32.7116 26.1311 32.9412 25.9355 33.1438L25.7791 32.9952C25.7921 34.1567 24.0843 33.684 24.1364 34.9266L23.9669 34.6699C24.1886 35.0886 23.4976 34.9131 24.0843 35.4398L23.8105 35.3723C24.1234 36.5203 22.7545 35.7774 22.7284 36.7634L22.6371 36.6013C22.6111 36.8444 22.5328 37.074 22.3242 37.047C22.3242 37.0065 22.2721 36.9795 22.2721 36.9119C21.3595 36.8039 21.4638 37.8438 21.0205 38.276L20.825 37.9789C20.9032 38.4786 20.2644 38.6002 20.1079 39.0189L20.0167 38.8838L20.0427 39.1944L19.8081 38.9648C19.443 39.3025 19.2996 39.8562 18.9867 40.2344Z" fill="white"/>
<path d="M15.6616 44.1781C15.6616 44.1781 15.6761 44.1781 15.6616 44.1781C15.6761 44.1511 15.6616 44.1646 15.6616 44.1781Z" fill="white"/>
<path d="M23.7323 33.5625C23.7583 33.5625 23.7844 33.5625 23.8235 33.5625C23.7714 33.5219 23.7583 33.5489 23.7323 33.5625Z" fill="white"/>
<path d="M0.852003 35.0076L0.812893 35.1021L1.0606 34.9671L0.852003 35.0076Z" fill="white"/>
<path d="M1.66031 34.9536C1.68639 34.913 1.75157 34.859 1.76461 34.805L0.995416 35.1426C0.786822 35.5748 1.79068 34.6699 1.66031 34.9536Z" fill="white"/>
<path d="M1.66031 35.0751C1.6212 35.2912 1.90802 35.0616 2.01232 34.9941C1.79068 35.1831 1.92106 34.778 1.66031 35.0751Z" fill="white"/>
<path d="M9.26099 42.6789C9.24795 42.6789 9.23491 42.6654 9.22187 42.6654C9.22187 42.6924 9.23491 42.6924 9.26099 42.6789Z" fill="white"/>
<path d="M12.077 43.7999L12.2986 43.6108C11.5686 43.6108 11.5295 42.8005 10.9819 42.5709L11.0862 42.5169C10.1866 41.4229 8.94809 40.8421 7.82689 40.0048C7.86601 39.9913 7.93119 39.9372 7.9703 39.9372C7.85297 39.9643 7.67045 40.0453 7.63134 39.9778C7.65741 39.9102 7.73563 39.8967 7.77475 39.8967C7.90512 39.3295 6.9534 39.4915 7.09681 39.0999C7.00555 39.0729 6.83607 39.1944 6.75785 39.343C5.91043 38.6542 5.03694 37.8708 4.007 37.3576C4.02004 37.2766 4.09826 37.1685 4.22863 37.0605C3.01617 36.9524 2.54684 36.007 1.96016 35.2102C1.79068 35.3317 1.88194 35.4398 1.66031 35.5208C1.69942 35.926 2.41646 35.5613 2.35128 36.0475L2.18179 36.1691C2.23394 36.4122 2.55987 35.8314 2.5338 36.1691C2.48165 36.3447 2.33824 36.3312 2.36431 36.3717C2.72936 36.6283 2.91188 37.0875 3.53766 37.0335C3.30299 37.4251 3.85055 37.3846 3.68107 37.8033C3.87663 37.7628 3.92878 37.8708 4.16345 37.6953C5.06301 38.9648 6.44495 39.7887 7.514 40.9367C8.60912 40.8556 8.51786 42.2197 9.32617 42.6384C9.31313 42.6654 9.28706 42.6924 9.26098 42.7059C9.59995 42.76 9.96499 42.9896 10.1214 43.3137L10.5647 43.2597C11.021 44.2591 11.712 45.0425 12.429 45.7988L13.7067 44.4752C12.9896 43.7324 12.2335 43.0301 11.6207 42.1792C10.1345 40.3289 9.11757 38.4111 6.74481 37.5602C6.80999 37.5062 6.82303 37.4521 6.88822 37.4792C6.31458 37.128 6.10599 36.4662 5.54539 36.1556L5.61057 36.1016C4.24167 35.5613 3.60285 34.1297 2.40343 33.4274L1.72549 34.1297C1.89498 34.2242 2.06446 34.3188 2.26002 34.3728C3.47247 35.7369 4.94568 37.155 6.43192 38.3841L6.31458 38.5056C7.63134 39.3565 8.04853 41.0717 9.3001 41.9766C10.1345 43.3812 12.2204 43.6244 12.9766 45.137C13.0157 45.6367 13.3677 45.8933 13.7718 46.0959L13.9674 45.8933C13.3155 45.5692 12.5072 45.3936 12.4812 44.6103C12.0509 42.3143 10.1997 41.585 8.34838 40.7746C7.44882 39.1809 5.41501 38.7622 4.88049 36.8714C3.9027 36.7228 4.21559 35.1156 3.47248 34.6024L3.35514 34.778C3.56374 34.0892 2.24698 34.8995 2.75543 34.0757L2.80758 34.0757C3.01617 33.6165 1.7646 34.5889 2.0775 34.1162L1.89498 34.2648C1.69942 34.1702 2.06446 34.0622 2.01231 33.8731C1.94713 33.8461 1.69942 34.1567 1.71246 33.9811C2.36431 33.2788 1.21704 33.765 1.96016 32.9817C2.03839 33.0627 2.12965 32.5495 2.45558 32.5765C2.48165 32.4415 2.20787 32.2389 1.90801 32.59C1.55601 32.9142 1.16489 33.1303 1.04756 33.5489L1.32134 33.3193C1.12578 33.63 1.23008 33.4814 1.07363 33.6975C1.23008 33.9271 0.904151 34.3188 0.891114 34.6159C0.891114 34.6024 0.904152 34.6024 0.917189 34.5889C1.3083 34.3863 1.25615 34.6969 1.29527 34.8185L1.19097 34.9941C0.956299 35.3317 1.96016 34.6429 1.4126 35.0886C1.92105 35.3587 2.36431 35.8314 2.79454 36.2771C3.04225 36.1421 3.10743 36.6418 3.36818 36.1691C3.06832 36.7093 3.28996 37.1415 3.42033 37.2496C3.38122 37.2901 3.32907 37.3306 3.32907 37.2901C3.02921 38.0734 4.09826 37.0605 3.66803 37.9654C4.16344 37.5332 3.91574 38.5326 4.58064 38.1004C4.50241 38.2355 4.42419 38.3435 4.33293 38.4111C4.71101 38.8298 4.98479 39.451 5.29768 39.8157C5.97561 39.6941 5.80613 40.7206 6.6014 40.3964C6.67962 40.7206 6.78392 41.3013 7.27933 41.3689L7.18807 41.4094C7.54008 41.7065 7.95727 42.0847 8.5309 41.9496C8.08764 42.5979 8.33534 42.6249 8.30927 42.9491C8.76557 42.9085 9.11757 43.4353 9.66514 43.5298C9.46958 43.8404 10.0302 43.6919 9.69121 44.0836C11.2817 44.3132 12.1683 45.7178 12.6115 47.2574L12.5724 47.2709C12.6246 47.2574 12.6767 47.2439 12.7289 47.2304L15.0365 44.8399C14.7105 44.9479 14.2412 45.191 13.9153 45.2991C13.9283 45.2586 13.9935 45.191 14.0196 45.218C13.7718 45.11 13.9674 44.5698 13.7197 44.4482C13.7849 44.3942 13.7849 44.3942 13.8631 44.3537C13.5372 44.3402 13.811 43.7054 13.3286 43.7864L13.4068 43.6784L13.1461 43.6919C13.2634 43.5703 13.4459 43.3948 13.472 43.5028C12.064 41.8146 9.88677 40.8286 8.4266 39.1134L8.59609 39.0594L8.10067 38.9513C8.16586 38.8973 8.20497 38.8703 8.24408 38.8703C8.06156 38.2625 7.33148 38.195 7.00555 37.7493C7.07074 37.6953 7.24022 37.6277 7.25326 37.5062C6.65355 37.5467 7.22718 36.6148 6.41888 37.155C6.43192 37.1145 6.57533 36.9389 6.65355 36.9119C5.66272 36.3447 4.88049 35.5073 4.21559 34.5889C3.32907 34.5619 2.97706 33.8731 2.4295 33.4139L1.71246 34.1567C1.93409 34.3458 2.18179 34.4944 2.50772 34.5484L2.39039 34.6699C3.68107 35.1291 4.16345 36.5608 5.14124 37.4116C5.46716 37.8438 5.85828 37.9654 6.2494 38.3435L6.10599 38.5056C7.30541 38.5731 6.92733 40.4235 8.21801 40.4505L7.9703 40.6125C8.38749 40.3964 8.25712 41.1393 8.76557 40.545L8.71342 40.8421C9.87373 40.572 9.1958 42.0307 10.2127 42.1252L10.0432 42.2197C10.2909 42.2738 10.5386 42.3683 10.5256 42.5979C10.4865 42.5979 10.4604 42.6519 10.3952 42.6519C10.3431 43.6514 11.4121 43.5973 11.8815 44.1241L11.5816 44.3132C12.0901 44.2591 12.2595 44.9749 12.7028 45.164L12.5724 45.2586L12.8853 45.2586L12.6637 45.5017L12.7028 45.5422L13.3938 44.8264C13.0287 44.3537 12.4812 44.1646 12.077 43.7999Z" fill="white"/>
<path d="M0.891111 34.6564C0.891111 34.6294 0.891111 34.5889 0.891111 34.5619C0.851998 34.6159 0.891111 34.6294 0.891111 34.6564Z" fill="white"/>
</g>
<defs>
<clipPath id="clip0">
<rect width="48" height="27" fill="white" transform="translate(27.5 0.5) rotate(90)"/>
</clipPath>
</defs>
</svg>
