<svg width="348" height="197" viewBox="0 0 348 197" fill="none" xmlns="http://www.w3.org/2000/svg">
<g filter="url(#filter0_d)">
<path d="M179.162 90.1916C179.162 90.1916 169.134 69.8488 160.898 63.6032C156.779 60.5696 150.154 59.1421 144.604 58.6067C142.276 53.9671 138.157 49.6844 131.174 47.1862C125.803 45.2233 120.61 45.0448 116.133 45.7586L121.684 29.877C124.012 23.2745 120.61 16.1366 113.985 13.6384C107.36 11.3186 100.197 14.7091 97.6906 21.3116L92.1399 37.0148C89.0959 33.6243 84.9776 30.5907 79.6059 28.6278C72.8017 26.1296 66.8928 27.0218 62.0583 29.1632C57.2238 26.1296 51.3149 22.9176 46.1222 22.7391C35.737 22.3822 14.9664 32.0183 14.9664 32.0183C14.9664 32.0183 7.62502 38.6208 16.0407 41.4759C20.159 42.9035 34.1254 44.1526 47.0175 45.0448C43.9736 52.5396 33.7673 77.8789 44.8689 104.11C41.1087 103.932 33.9464 104.11 29.2909 105.895C25.1726 107.679 20.5171 107.144 15.6826 130.877C15.5035 131.948 15.6826 133.019 16.2198 133.732C16.936 134.803 18.0103 135.338 18.9056 135.517C19.9799 135.874 21.2333 135.695 22.3077 134.982L50.7777 114.817C55.4332 121.777 61.8793 128.736 70.653 135.338V135.517C81.5755 135.874 91.0655 134.625 99.1231 132.126L108.434 165.674C108.792 166.745 109.687 167.816 110.762 168.172C111.657 168.529 112.731 168.708 113.985 168.351C115.059 168.172 115.775 167.459 116.313 166.388C127.593 144.975 123.654 142.298 121.505 138.55C118.998 134.089 113.627 129.628 110.583 127.308C135.651 113.925 143.529 87.8719 146.036 80.1987C156.6 87.6934 168.239 95.3666 172.357 96.7942C180.773 99.8277 179.162 90.1916 179.162 90.1916Z" fill="white"/>
</g>
<path d="M232.755 57.4925C231.813 58.3543 230.024 58.9288 228.328 58.9288C225.879 58.9288 224.184 56.8223 224.184 53.854V38.1508H233.791V23.5967H224.184V10H206.854V23.5967H200.732V38.1508H206.854V57.4925C206.854 67.3549 213.635 74.249 223.336 74.249C227.669 74.249 232.849 72.1424 235.863 69.1741L232.755 57.4925Z" fill="white"/>
<path d="M274.387 23.5967V51.3645C274.387 55.769 271.467 58.9288 267.417 58.9288C263.084 58.9288 260.07 55.5775 260.07 50.7899V23.5967H242.74V55.0987C242.74 66.3016 250.181 74.249 260.635 74.249C266.475 74.249 271.373 71.9509 274.387 68.1209V73.0999H292.564V23.5967H274.387Z" fill="white"/>
<path d="M320.343 32.4057V23.5967H302.165V73.0999H320.343V52.1305C320.343 43.1299 325.994 37.7678 335.601 37.7678V22.4476C329.008 22.4476 323.545 26.2777 320.343 32.4057Z" fill="white"/>
<path d="M232.755 153.244C231.813 154.105 230.024 154.68 228.328 154.68C225.879 154.68 224.184 152.573 224.184 149.605V133.902H233.791V119.348H224.184V105.751H206.854V119.348H200.732V133.902H206.854V153.244C206.854 163.106 213.635 170 223.336 170C227.669 170 232.849 167.893 235.863 164.925L232.755 153.244Z" fill="white"/>
<path d="M243.399 168.851H261.577V101.921H243.399V168.851Z" fill="white"/>
<path d="M294.988 156.212C290.373 156.212 286.794 153.148 285.381 148.456H319.853C319.853 129.402 310.623 118.199 294.988 118.199C279.918 118.199 269.276 128.827 269.276 143.956C269.276 159.18 280.201 170 295.742 170C303.182 170 311.471 166.84 315.803 162.34L305.82 152.095C302.617 154.68 298.661 156.212 294.988 156.212ZM294.988 131.987C298.944 131.987 302.052 134.668 303.371 138.785H285.664C287.265 134.668 290.656 131.987 294.988 131.987Z" fill="white"/>
<path d="M337.357 170C343.197 170 348 164.925 348 158.701C348 152.956 343.197 147.882 337.357 147.882C331.047 147.882 326.243 152.956 326.243 158.701C326.243 164.925 331.047 170 337.357 170Z" fill="white"/>
<defs>
<filter id="filter0_d" x="0" y="0.909096" width="207.285" height="195.636" filterUnits="userSpaceOnUse" color-interpolation-filters="sRGB">
<feFlood flood-opacity="0" result="BackgroundImageFix"/>
<feColorMatrix in="SourceAlpha" type="matrix" values="0 0 0 0 0 0 0 0 0 0 0 0 0 0 0 0 0 0 127 0"/>
<feOffset dx="8" dy="8"/>
<feGaussianBlur stdDeviation="10"/>
<feColorMatrix type="matrix" values="0 0 0 0 0 0 0 0 0 0 0 0 0 0 0 0 0 0 0.1 0"/>
<feBlend mode="normal" in2="BackgroundImageFix" result="effect1_dropShadow"/>
<feBlend mode="normal" in="SourceGraphic" in2="effect1_dropShadow" result="shape"/>
</filter>
</defs>
</svg>
