<svg width="48" height="27" viewBox="0 0 48 27" fill="none" xmlns="http://www.w3.org/2000/svg">
<path d="M40.3827 12.5421L40.3152 12.4508L40.1396 12.7246L40.3827 12.5421Z" fill="#92DCCE"/>
<path d="M39.1941 13.1549C39.2346 13.207 39.2076 13.2853 39.2481 13.3374L39.9504 12.5682C39.6263 12.1249 39.3967 13.4417 39.1941 13.1549Z" fill="#92DCCE"/>
<path d="M38.978 13.0766C38.7079 12.8941 38.5863 13.2591 38.5323 13.3765C38.6269 13.0896 39.0455 13.4677 38.978 13.0766Z" fill="#92DCCE"/>
<path d="M14.924 13.2461C14.951 13.2461 14.978 13.2331 15.005 13.22C14.978 13.22 14.951 13.2331 14.924 13.2461Z" fill="#92DCCE"/>
<path d="M8.65729 14.4845L8.58976 14.7713C9.76477 14.2498 11.0748 14.7844 12.3174 14.5497L12.2364 14.654C15.3832 14.7713 18.2735 14.289 21.3934 14.0673C21.3393 14.0934 21.3258 14.1847 21.2718 14.2107C21.4204 14.1064 21.5824 13.9239 21.758 13.95C21.7985 14.0152 21.7175 14.0804 21.6635 14.1195C22.3253 14.6018 23.5948 13.8196 24.0135 14.1847C24.2026 14.1325 24.2836 13.937 24.1756 13.7805C26.6201 13.6632 29.2268 13.5719 31.7119 13.1938C31.8334 13.259 31.8469 13.3894 31.8199 13.5589C33.9404 12.7766 36.1688 13.0895 38.3433 13.2199C38.4243 13.0113 38.1272 12.9983 38.3298 12.7897C37.6275 12.5289 37.0467 13.2851 36.4119 12.9201L36.493 12.7245C36.0338 12.5941 36.3984 13.2199 35.9257 12.9722C35.7366 12.8027 35.9662 12.7245 35.8852 12.7115C34.8993 12.7897 33.8863 12.6202 32.9544 13.0895C32.7248 12.6593 31.901 13.0765 31.5363 12.6723C31.2797 12.8418 31.0231 12.8027 30.9285 13.0765C27.498 12.8549 24 13.259 20.475 13.2329C18.8272 14.0543 16.8554 13.0765 14.9105 13.3503C14.897 13.3242 14.897 13.2851 14.9105 13.259C14.2757 13.4676 13.3438 13.5589 12.5875 13.4546L11.9392 13.8066C9.95386 13.4937 7.95498 13.4155 5.9426 13.4024V15.1885C8.56275 15.2146 11.1964 15.1233 13.8301 15.2928C19.1109 15.5014 23.7299 16.1011 28.8621 15.006C28.8486 15.0842 28.9026 15.1364 28.7676 15.1624C30.2532 14.993 31.6038 15.2928 32.9949 15.1233V15.2016C36.4795 14.5236 40.2341 15.2928 43.5701 14.5627C44.9612 14.5888 46.4063 14.5888 48 14.5888V14.0021C45.2583 14.0152 42.3005 14.0934 39.4643 14.2368L39.4778 14.0673C36.0338 14.4193 32.7113 13.5458 29.2673 13.8066C25.7288 13.4285 22.0011 14.7453 18.4356 14.2498C16.2341 13.4415 13.3303 15.1755 11.2639 14.3411C10.224 14.0412 9.19753 13.8457 8.18458 13.7544V14.8235C11.372 15.1103 14.5189 14.5106 17.7333 13.937C21.6635 14.3802 25.5802 13.2329 29.3754 14.1455C31.1851 13.5719 33.1705 14.8756 35.1694 14.7061L35.1019 14.4976C35.8177 15.1103 36.7091 13.6371 37.1548 14.5497L37.0737 14.5888C37.4654 15.0712 37.9651 13.5067 38.1947 14.0543L38.2487 13.8327C38.7079 13.7675 38.3028 14.0934 38.6539 14.1847C38.789 14.1586 38.7079 13.7675 38.9781 13.8978C39.0591 14.8365 40.1261 13.6892 40.1531 14.7453C39.8965 14.7453 40.5447 15.1494 39.9775 15.371C40.1396 15.4753 40.9094 15.4232 40.8419 14.9799C40.9094 14.5106 41.22 14.0934 40.7473 13.7284L40.6528 14.0804C40.4907 13.7284 40.5312 13.9109 40.4772 13.6501C39.8694 13.598 39.7884 13.1026 39.3427 12.894C39.3427 12.907 39.3562 12.9201 39.3427 12.9331C39.0456 13.3503 38.6269 13.1026 38.3838 13.0374L38.2893 12.8418C38.1407 12.4377 37.5869 13.6241 37.776 12.9331C36.5335 13.1026 35.1019 13.1026 33.7107 13.1026C33.5217 13.3633 32.6438 13.0765 32.9544 13.5849C32.6033 13.0113 31.5633 12.8549 31.1851 12.8809C31.1987 12.8288 31.2122 12.7636 31.2797 12.7897C30.5369 12.0335 30.3883 13.4807 29.6995 12.568C29.5914 13.2199 28.4299 12.3595 28.0383 13.1286C27.9572 12.9852 27.9167 12.8549 27.9572 12.7375C26.7012 12.7245 25.3101 12.4898 24.2431 12.4638C23.3382 13.0374 22.0416 12.203 21.2583 12.9852C20.61 12.8158 19.5566 12.4898 18.6517 12.8027L18.7462 12.7115C17.7198 12.7636 16.4502 12.8027 15.7479 13.2851C15.4508 12.5289 15.0051 12.6854 14.5594 12.4377C13.8706 12.7897 12.493 12.6854 11.453 12.9983C11.2909 12.6463 10.5886 13.1417 10.5346 12.6463C9.80529 12.894 9.02195 13.0504 8.2251 13.1417V15.4232C10.6156 15.1494 13.2223 15.4753 15.5588 16.0229L15.5183 16.062C15.9235 15.7882 16.3827 15.1755 16.8014 14.8235C16.8419 14.8626 16.8419 14.9539 16.7473 14.9539C17.3146 14.8626 17.8548 15.358 18.4221 15.2667C18.4221 15.345 18.4221 15.345 18.3275 15.4232C18.8678 15.2016 19.435 15.8273 20.0563 15.4362L20.0968 15.5666L20.502 15.3841C20.4885 15.5536 20.475 15.8013 20.2589 15.7491C25.1075 15.9056 30.1452 15.0451 35.1694 15.1624L34.9803 15.3189L35.9527 15.0451C35.9527 15.1233 35.8987 15.1755 35.8582 15.2016C37.1007 15.4884 38.3838 15.019 39.5858 15.0842C39.5858 15.1624 39.3967 15.3319 39.5723 15.4232C40.4637 14.9669 41.0039 16.0099 41.4496 15.0712C41.4902 15.1103 41.5172 15.3189 41.4361 15.3971C43.5971 15.1233 45.812 15.0973 48 15.2016V13.3764L47.0141 13.3242C44.9342 14.1847 42.5976 13.4024 40.4367 14.0804V13.9109C37.6275 14.5106 34.6562 13.8718 31.7389 13.9891C30.5369 13.9239 29.713 14.1195 28.4975 14.1325L28.4705 13.9239C26.4311 14.7322 24.1756 13.1938 22.0416 14.0804L22.1902 13.7935C21.8661 14.2368 20.9071 13.6371 21.0287 14.4063L20.6505 14.1716C19.2054 15.1885 18.0169 13.7023 16.2341 14.3672L16.3557 14.1847C15.8829 14.3281 15.3292 14.4324 14.9781 14.2759C15.0321 14.2498 15.0051 14.1977 15.1131 14.1455C13.641 13.4285 11.9932 14.2238 10.4266 14.1977L10.6021 13.8587C9.84581 14.2498 8.46821 13.8848 7.46877 14.0673L7.52279 13.9109L7.02307 14.1325L7.00957 13.8066C6.64491 13.8066 6.28025 13.8196 5.9291 13.8457V14.7322C6.88802 14.654 7.75239 14.5106 8.65729 14.4845Z" fill="#92DCCE"/>
<path d="M21.6635 14.1194C21.6635 14.1194 21.6499 14.1194 21.6499 14.1063C21.6094 14.1324 21.6229 14.1324 21.6635 14.1194Z" fill="#92DCCE"/>
<path d="M39.1806 12.8157C39.2346 12.8287 39.2886 12.8548 39.3427 12.8809C39.3291 12.8157 39.2346 12.8287 39.1806 12.8157Z" fill="#92DCCE"/>
<path d="M4.26787 12.3854L4.3219 12.2941L4.06529 12.4375L4.26787 12.3854Z" fill="#92DCCE"/>
<path d="M3.48459 12.4894C3.45758 12.5285 3.39005 12.5807 3.36304 12.6328L4.13287 12.2808C4.36247 11.8767 3.33603 12.7501 3.48459 12.4894Z" fill="#92DCCE"/>
<path d="M3.48458 12.3722C3.53861 12.1636 3.24148 12.3983 3.13343 12.4635C3.36303 12.294 3.21447 12.6721 3.48458 12.3722Z" fill="#92DCCE"/>
<path d="M5.578 17.6262C5.5645 17.6262 5.55099 17.6132 5.53748 17.6132C5.55099 17.6392 5.5645 17.6392 5.578 17.6262Z" fill="#92DCCE"/>
<path d="M8.26565 18.4866L8.49525 18.3041C7.77943 18.3432 7.79294 17.6131 7.27972 17.4306L7.37426 17.3785C6.5639 16.4398 5.38889 15.9835 4.34893 15.2795C4.38945 15.2664 4.45698 15.2143 4.4975 15.2013C4.37595 15.2273 4.20037 15.3186 4.17335 15.2534C4.21387 15.2013 4.2814 15.1752 4.32192 15.1621C4.48399 14.6407 3.55208 14.8493 3.71415 14.4712C3.61961 14.4581 3.45754 14.5755 3.37651 14.7058C2.59316 14.1192 1.79632 13.4673 0.810386 13.0501C0.823892 12.9719 0.918433 12.8806 1.05349 12.7633C0.729351 12.7503 0.459232 12.6851 0.229631 12.5677L1.94488 10.9381C2.52564 11.2249 2.84977 11.7986 3.22794 12.294C3.40352 12.1766 3.32249 12.0854 3.53858 11.9941C3.52507 11.616 2.80926 11.9941 2.9038 11.5639L3.06587 11.4465C3.02535 11.2249 2.6742 11.7725 2.72822 11.4596C2.79575 11.2901 2.93081 11.2901 2.9173 11.264C2.66069 11.1076 2.49862 10.8208 2.16098 10.7425L0.0270405 12.7763C0.121582 12.8024 0.243136 12.8024 0.391701 12.7894C0.135088 13.1544 0.675327 13.0892 0.472738 13.4803C0.675327 13.4282 0.715842 13.5325 0.945443 13.363C1.74229 14.4581 3.05237 15.1361 4.01129 16.1269C5.09176 15.9965 4.91618 17.2351 5.67251 17.574C5.65901 17.6001 5.63199 17.6131 5.60498 17.6392C5.92912 17.6653 6.26677 17.8608 6.40183 18.1346L6.84753 18.0694C7.61736 19.8295 9.3056 20.7551 10.3996 22.2413C11.7367 23.8319 12.6145 25.5267 14.8565 26.1655C14.8025 26.2177 14.7755 26.2698 14.708 26.2568C14.9106 26.3611 15.0726 26.5175 15.2077 26.687L16.4232 25.5006C16.1936 25.2399 16.0045 24.9531 15.6939 24.7966L15.7614 24.7445C14.2758 24.2751 13.7761 22.7107 12.2904 22.3196C11.1964 21.1592 9.83233 19.9468 8.45473 18.9299L8.54927 18.7865C7.32023 18.0955 7.0096 16.5702 5.84809 15.814C5.11877 14.5885 3.09288 14.4972 2.4581 13.1675C2.4581 13.1023 2.4446 13.0371 2.43109 12.9719L2.18799 13.2066C2.4311 14.1322 4.2814 13.8324 4.25439 14.9144C4.53802 16.9743 6.29378 17.5219 8.04955 18.1607C8.83289 19.5426 10.7777 19.8034 11.1829 21.4982C12.1283 21.5764 11.7232 23.0496 12.412 23.4799L12.547 23.3104C12.3039 23.9362 13.6275 23.1409 13.0873 23.9101L13.0332 23.9231C12.8036 24.3534 14.0867 23.3886 13.749 23.8449L13.9381 23.7015C14.1137 23.7797 13.7626 23.8971 13.7896 24.0665C13.8436 24.0796 14.1137 23.7797 14.0867 23.9492C13.4114 24.6271 14.5594 24.1187 13.7896 24.8748C13.722 24.8097 13.6005 25.266 13.2763 25.279C13.2493 25.3963 13.5059 25.5789 13.8031 25.2399C14.1677 24.927 14.5594 24.7184 14.6945 24.3273L14.4108 24.5489C14.6269 24.2621 14.5054 24.3925 14.681 24.1969C14.5459 24.0014 14.8835 23.6233 14.9106 23.3495C14.9106 23.3625 14.897 23.3625 14.8835 23.3756C14.4919 23.5842 14.5594 23.2973 14.5324 23.193L14.6404 23.0366C14.897 22.7107 13.8706 23.4016 14.4243 22.9584C13.9516 22.7367 13.5465 22.3456 13.1413 21.9676C12.8982 22.0979 12.8577 21.6547 12.574 22.0979C12.8982 21.5895 12.7091 21.2114 12.5875 21.1201C12.6281 21.081 12.6821 21.0419 12.6821 21.081C13.0197 20.3509 11.9257 21.3287 12.3985 20.4944C11.8987 20.9246 12.1959 19.9989 11.5206 20.4292C11.6016 20.2988 11.6826 20.2075 11.7772 20.1293C11.426 19.7773 11.2099 19.2297 10.9263 18.9169C10.251 19.0733 10.4941 18.1346 9.69727 18.4736C9.62974 18.1737 9.57572 17.6653 9.08951 17.6392L9.18405 17.6001C8.85991 17.3524 8.46823 17.0265 7.91449 17.1829C8.37369 16.5702 8.14409 16.5571 8.19812 16.2573C7.75242 16.3225 7.42828 15.8662 6.90155 15.801C7.10414 15.5141 6.5504 15.6706 6.90155 15.3056C5.36188 15.1882 4.59204 13.9627 4.24088 12.5938L4.2814 12.5808C3.97077 12.659 3.39001 12.9719 3.01185 13.1023C3.03886 13.0632 3.09288 12.998 3.1199 13.024C2.93081 12.9589 3.03886 12.6199 2.97133 12.4504L1.56671 13.8063C1.58022 13.8584 1.60723 13.8845 1.66125 13.9106C1.59372 13.9627 1.59373 13.9627 1.51269 14.0018C1.82333 13.9888 1.5262 14.5885 1.9989 14.4842L1.91787 14.5885L2.17448 14.5624C2.05293 14.6798 1.86384 14.8493 1.83683 14.758C3.10639 16.2051 5.17279 16.9743 6.49637 18.4345L6.3343 18.4997L6.82051 18.5648C6.75298 18.617 6.71247 18.6431 6.67195 18.6561C6.82051 19.1906 7.52282 19.2167 7.81995 19.5948C7.76593 19.6469 7.59035 19.7121 7.57684 19.8295C8.1576 19.7512 7.54983 20.6378 8.37369 20.0902C8.36019 20.1293 8.21162 20.2858 8.13059 20.3249C9.06249 20.7812 9.77831 21.4982 10.3726 22.2804C11.5881 22.2413 11.6826 23.4277 12.8036 23.5451L12.6821 23.6624C13.9111 24.0014 14.2893 25.266 15.2077 25.983C15.3157 26.0743 15.4508 26.1786 15.5859 26.2698L15.991 25.8787C15.7884 25.7353 15.5588 25.631 15.3562 25.4354L15.5048 25.279C14.3433 25.292 14.816 23.5842 13.5735 23.6363L13.8301 23.4668C13.4114 23.6885 13.587 22.9975 13.0602 23.5842L13.1278 23.3104C11.9798 23.6233 12.7226 22.2544 11.7367 22.2283L11.8987 22.137C11.6556 22.111 11.426 22.0327 11.453 21.8241C11.4936 21.8241 11.5206 21.772 11.5881 21.772C11.6961 20.8594 10.6562 20.9637 10.224 20.5204L10.5211 20.3249C10.0214 20.4031 9.89986 19.7643 9.48118 19.6078L9.61624 19.5166L9.3056 19.5426L9.5352 19.308C9.19756 18.9429 8.64381 18.7995 8.26565 18.4866Z" fill="#92DCCE"/>
<path d="M4.32193 15.1615C4.32193 15.1615 4.32193 15.176 4.32193 15.1615C4.34894 15.176 4.33544 15.1615 4.32193 15.1615Z" fill="#92DCCE"/>
<path d="M14.9376 23.232C14.9376 23.2581 14.9376 23.2841 14.9376 23.3232C14.9781 23.2711 14.9511 23.2581 14.9376 23.232Z" fill="#92DCCE"/>
<path d="M13.4924 0.351953L13.3979 0.312843L13.533 0.560547L13.4924 0.351953Z" fill="#92DCCE"/>
<path d="M13.5464 1.16035C13.5869 1.18643 13.6409 1.25161 13.6949 1.26465L13.3573 0.495456C12.9251 0.286862 13.83 1.29072 13.5464 1.16035Z" fill="#92DCCE"/>
<path d="M13.4249 1.16069C13.2088 1.12158 13.4384 1.4084 13.5059 1.5127C13.3169 1.29106 13.722 1.42143 13.4249 1.16069Z" fill="#92DCCE"/>
<path d="M5.82109 8.76123C5.82109 8.74819 5.83459 8.73516 5.83459 8.72212C5.80758 8.72212 5.80758 8.73516 5.82109 8.76123Z" fill="#92DCCE"/>
<path d="M4.70007 11.5772L4.88915 11.7988C4.88915 11.0687 5.69951 11.0296 5.92911 10.4821L5.98313 10.5864C7.07711 9.68679 7.65787 8.44826 8.49523 7.32706C8.50874 7.36617 8.56276 7.43136 8.56276 7.47047C8.53575 7.35314 8.45472 7.17061 8.52224 7.1315C8.58977 7.15758 8.60328 7.2358 8.60328 7.27491C9.17053 7.40528 9.00846 6.45357 9.40013 6.59698C9.42714 6.50572 9.30559 6.33624 9.15702 6.25801C9.84582 5.4106 10.6292 4.5371 11.1424 3.50717C11.2234 3.5202 11.3315 3.59843 11.4395 3.7288C11.5476 2.51634 12.493 2.047 13.2898 1.46033C13.1683 1.29085 13.0602 1.38211 12.9792 1.16047C12.574 1.19959 12.9387 1.91663 12.4525 1.85144L12.3309 1.68196C12.0878 1.73411 12.6686 2.06004 12.3309 2.03397C12.1553 1.98182 12.1688 1.83841 12.1283 1.86448C11.8717 2.22952 11.4125 2.41204 11.4665 3.03783C11.0749 2.80316 11.1154 3.35072 10.6967 3.18124C10.7372 3.37679 10.6292 3.42894 10.8047 3.66361C9.53519 4.56318 8.71133 5.94512 7.56332 7.01417C7.64436 8.10929 6.28026 8.01803 5.86158 8.82634C5.83457 8.8133 5.80756 8.78723 5.79405 8.76115C5.74003 9.10012 5.51042 9.46516 5.18628 9.6216L5.24031 10.0649C4.24087 10.5212 3.45753 11.2121 2.70119 11.9292L4.02477 13.2068C4.7676 12.4898 5.46991 11.7336 6.32078 11.1209C8.17109 9.63464 10.0889 8.61774 10.9398 6.24497C10.9938 6.31016 11.0479 6.3232 11.0208 6.38838C11.372 5.81475 12.0338 5.60615 12.3444 5.04555L12.3984 5.11074C12.9387 3.74183 14.3703 3.10301 15.0726 1.90359L14.3703 1.22566C14.2758 1.39514 14.1812 1.56463 14.1272 1.76018C12.7631 2.97264 11.345 4.44584 10.1159 5.93208L9.99439 5.81475C9.14352 7.1315 7.42827 7.54869 6.52337 8.80026C5.11876 9.63464 4.87565 11.7206 3.36299 12.4767C2.86327 12.5159 2.60666 12.8679 2.40407 13.272L2.60665 13.4676C2.9308 12.8157 3.10637 12.0074 3.88972 11.9813C6.18572 11.5511 6.91504 9.69983 7.7254 7.84855C9.31909 6.94898 9.73778 4.91518 11.6286 4.38066C11.7772 3.40287 13.3844 3.71576 13.8976 2.97264L13.722 2.85531C14.4108 3.0639 13.6005 1.74715 14.4243 2.2556V2.30775C14.8835 2.51634 13.9111 1.26477 14.3838 1.57766L14.2352 1.39514C14.3298 1.19959 14.4378 1.56463 14.6269 1.51248C14.6539 1.44729 14.3433 1.19958 14.5189 1.21262C15.2212 1.86448 14.735 0.71721 15.5183 1.46033C15.4373 1.53855 15.9505 1.62981 15.9235 1.95574C16.0585 1.98182 16.2611 1.70804 15.91 1.40818C15.5858 1.05618 15.3697 0.66506 14.9511 0.547725L15.1807 0.821507C14.87 0.62595 15.0186 0.730246 14.8025 0.5738C14.5729 0.730246 14.1812 0.404318 13.8841 0.391281C13.8976 0.391281 13.8976 0.404318 13.9111 0.417356C14.1137 0.808471 13.8031 0.756321 13.6815 0.795432L13.5059 0.691135C13.1683 0.456466 13.8571 1.46033 13.4114 0.912767C13.1413 1.42122 12.6686 1.86448 12.2229 2.29471C12.3579 2.54241 11.8582 2.6076 12.3309 2.86834C11.7907 2.56849 11.3585 2.79012 11.2504 2.92049C11.2099 2.88138 11.1694 2.82923 11.2099 2.82923C10.4266 2.52938 11.4395 3.59843 10.5346 3.1682C10.9668 3.66361 9.96738 3.41591 10.3996 4.0808C10.2645 4.00258 10.1565 3.92436 10.0889 3.8331C9.67025 4.21117 9.04897 4.48495 8.68431 4.79785C8.80587 5.47578 7.77942 5.3063 8.10356 6.10156C7.77942 6.17979 7.19866 6.28409 7.13113 6.7795L7.09062 6.68824C6.79349 7.04024 6.41532 7.45743 6.55038 8.03107C5.9021 7.5878 5.87509 7.83551 5.55094 7.80944C5.59146 8.26574 5.06473 8.61774 4.97019 9.1653C4.65955 8.96974 4.80812 9.53034 4.41645 9.19138C4.18685 10.7819 2.78223 11.6684 1.24256 12.1117L1.22905 12.0726C1.24256 12.1247 1.25607 12.1769 1.26957 12.229L3.66011 14.5366C3.55207 14.2107 3.30896 13.7414 3.20092 13.4154C3.24144 13.4285 3.30896 13.4936 3.28195 13.5197C3.39 13.272 3.93023 13.4676 4.05179 13.2199C4.10581 13.2851 4.10581 13.2851 4.14633 13.3633C4.15983 13.0373 4.79461 13.3111 4.71358 12.8288L4.82163 12.907L4.80812 12.6462C4.92967 12.7636 5.10525 12.9461 4.9972 12.9722C6.68544 11.5641 7.67137 9.38694 9.38662 7.92677L9.44065 8.09625L9.54869 7.60084C9.60272 7.66603 9.62973 7.70514 9.62973 7.74425C10.2375 7.56173 10.305 6.83165 10.7507 6.50572C10.8047 6.5709 10.8723 6.74039 10.9938 6.75342C10.9533 6.15371 11.8852 6.72735 11.345 5.91904C11.3855 5.93208 11.5611 6.07549 11.5881 6.15371C12.1553 5.16289 12.9927 4.38066 13.9111 3.71576C13.9381 2.82923 14.6269 2.47723 15.0861 1.92967L14.3433 1.21262C14.1542 1.43425 14.0056 1.68196 13.9516 2.00789L13.8301 1.89056C13.3709 3.18124 11.9392 3.66361 11.0884 4.6414C10.6562 4.96733 10.5346 5.35845 10.1565 5.74956L9.99439 5.60615C9.92686 6.80557 8.07655 6.4275 8.04954 7.71818L7.88747 7.47047C8.10356 7.88766 7.36074 7.75729 7.955 8.26574L7.65786 8.21359C7.92798 9.3739 6.46935 8.69596 6.3748 9.71286L6.28026 9.54338C6.22624 9.79109 6.1317 10.0388 5.9021 10.0258C5.9021 9.98664 5.84807 9.96057 5.84807 9.89539C4.84864 9.84324 4.90266 10.9123 4.37593 11.3816L4.18685 11.0818C4.24087 11.5902 3.52506 11.7597 3.33597 12.203L3.24143 12.0726V12.3855L2.99833 12.1639L2.95781 12.203L3.67362 12.8939C4.14633 12.5289 4.33541 11.9813 4.70007 11.5772Z" fill="#92DCCE"/>
<path d="M13.8436 0.391113C13.8706 0.391113 13.9111 0.391113 13.9381 0.391113C13.8841 0.352 13.8706 0.391113 13.8436 0.391113Z" fill="#92DCCE"/>
</svg>
