<svg width="85" height="40" viewBox="0 0 85 40" fill="none" xmlns="http://www.w3.org/2000/svg">
<path d="M55.7558 11.8731C55.5203 12.0886 55.0729 12.2322 54.6491 12.2322C54.0369 12.2322 53.6131 11.7056 53.6131 10.9635V7.0377H56.0148V3.39916H53.6131V0H49.2805V3.39916H47.75V7.0377H49.2805V11.8731C49.2805 14.3387 50.9759 16.0622 53.4011 16.0622C54.4843 16.0622 55.7793 15.5356 56.5328 14.7935L55.7558 11.8731Z" fill="#84D8C8"/>
<path d="M66.1637 3.39916V10.3411C66.1637 11.4423 65.4337 12.2322 64.4212 12.2322C63.3381 12.2322 62.5846 11.3944 62.5846 10.1975V3.39916H58.2521V11.2747C58.2521 14.0754 60.1122 16.0622 62.7259 16.0622C64.1858 16.0622 65.4102 15.4877 66.1637 14.5302V15.775H70.7081V3.39916H66.1637Z" fill="#84D8C8"/>
<path d="M77.6527 5.60144V3.39916H73.1082V15.775H77.6527V10.5326C77.6527 8.28247 79.0654 6.94195 81.4672 6.94195V3.11191C79.8189 3.11191 78.4532 4.06942 77.6527 5.60144Z" fill="#84D8C8"/>
<path d="M55.7558 35.8109C55.5203 36.0263 55.0729 36.17 54.6491 36.17C54.0369 36.17 53.6131 35.6433 53.6131 34.9013V30.9755H56.0148V27.3369H53.6131V23.9378H49.2805V27.3369H47.75V30.9755H49.2805V35.8109C49.2805 38.2765 50.9759 40 53.4011 40C54.4843 40 55.7793 39.4734 56.5328 38.7313L55.7558 35.8109Z" fill="#84D8C8"/>
<path d="M58.4169 39.7127H62.9613V22.9803H58.4169V39.7127Z" fill="#84D8C8"/>
<path d="M71.3141 36.553C70.1603 36.553 69.2655 35.787 68.9123 34.614H77.5303C77.5303 29.8504 75.2228 27.0497 71.3141 27.0497C67.5466 27.0497 64.8859 29.7068 64.8859 33.4889C64.8859 37.295 67.6173 40 71.5024 40C73.3626 40 75.4347 39.2101 76.5178 38.085L74.0219 35.5236C73.2213 36.17 72.2324 36.553 71.3141 36.553ZM71.3141 30.4967C72.303 30.4967 73.0801 31.167 73.4097 32.1963H68.983C69.3833 31.167 70.2309 30.4967 71.3141 30.4967Z" fill="#84D8C8"/>
<path d="M81.9063 40C83.3662 40 84.567 38.7313 84.567 37.1753C84.567 35.7391 83.3662 34.4704 81.9063 34.4704C80.3287 34.4704 79.1278 35.7391 79.1278 37.1753C79.1278 38.7313 80.3287 40 81.9063 40Z" fill="#84D8C8"/>
<path d="M42.7238 19.8312C42.7238 19.8312 40.1483 14.5827 38.0389 12.9832C37.0087 12.1989 35.3115 11.8468 33.8563 11.6933C33.2498 10.4834 32.1912 9.37925 30.4425 8.75624C29.2044 8.3172 27.8761 8.19613 26.5792 8.4041L28.0189 4.33064C28.3029 3.51754 28.2539 2.62492 27.8828 1.84786C27.5117 1.0708 26.8486 0.472478 26.0384 0.183649C25.2268 -0.10137 24.3356 -0.0531213 23.5594 0.317858C22.7832 0.688837 22.1851 1.3524 21.8957 2.16363L20.4791 6.1842C19.6029 5.2058 18.4962 4.46261 17.2598 4.02235C15.5097 3.40192 13.9966 3.5954 12.7629 4.15134C11.5344 3.35419 9.99814 2.55962 8.70138 2.51705C6.05247 2.43579 0.752087 4.88658 0.752087 4.88658C0.752087 4.88658 -1.11258 6.58794 1.03024 7.33736C2.0965 7.71014 5.65713 8.03003 8.96665 8.25963C8.194 10.1945 5.576 16.6852 8.40519 23.4519C7.42779 23.4248 5.61592 23.4519 4.41316 23.9189C3.34819 24.3342 2.1493 24.2078 0.936235 30.3128C0.909509 30.4415 0.909789 30.5744 0.937057 30.7029C0.964324 30.8315 1.01798 30.953 1.09463 31.0597C1.26501 31.2827 1.49965 31.4479 1.76683 31.5331C1.91021 31.5811 2.06289 31.5944 2.2124 31.572C2.36191 31.5496 2.50399 31.492 2.62705 31.4041L9.89126 26.2342C11.0799 28.0401 12.7243 29.824 14.9727 31.5047L14.9547 31.5576C17.7568 31.6659 20.1585 31.3177 22.2176 30.6637L24.6141 39.2608C24.6542 39.4069 24.7281 39.5415 24.83 39.6535C24.9318 39.7656 25.0586 39.852 25.2 39.9057C25.4608 40.0084 25.7469 40.0277 26.0191 39.9612C26.1459 39.9269 26.2641 39.8664 26.3661 39.7835C26.4682 39.7006 26.5517 39.5973 26.6114 39.4801C29.505 33.971 28.4941 33.3144 27.9275 32.3212C27.2836 31.1951 25.8929 30.0342 25.1151 29.4396C31.5654 25.9646 33.6078 19.2753 34.2246 17.2785C36.9392 19.1863 39.9087 21.1817 40.9724 21.5648C43.1036 22.3297 42.7238 19.8312 42.7238 19.8312Z" fill="#84D8C8"/>
</svg>
