<svg width="108" height="85" viewBox="0 0 108 85" fill="none" xmlns="http://www.w3.org/2000/svg">
<g filter="url(#filter0_d)">
<path d="M59.7604 34.7209C59.7604 34.7209 56.8955 28.9571 54.5422 27.1875C53.3655 26.328 51.4726 25.9236 49.8867 25.7719C49.2216 24.4573 48.045 23.2439 46.0498 22.5361C44.515 21.9799 43.0314 21.9293 41.7524 22.1316L43.3384 17.6318C44.0034 15.7611 43.0314 13.7387 41.1385 13.0308C39.2456 12.3736 37.1993 13.3342 36.483 15.2049L34.8971 19.6542C34.0274 18.6935 32.8507 17.834 31.316 17.2779C29.3719 16.57 27.6837 16.8228 26.3024 17.4295C24.9211 16.57 23.2328 15.66 21.7492 15.6094C18.782 15.5083 12.8475 18.2385 12.8475 18.2385C12.8475 18.2385 10.75 20.1092 13.1545 20.9182C14.3311 21.3226 18.3216 21.6765 22.005 21.9293C21.1353 24.0528 18.2192 31.2323 21.3911 38.6646C20.3168 38.614 18.2704 38.6646 16.9403 39.1702C15.7636 39.6758 14.4335 39.5241 13.0522 46.2485C13.001 46.5519 13.0522 46.8552 13.2056 47.0575C13.4103 47.3608 13.7172 47.5125 13.973 47.5631C14.28 47.6642 14.6381 47.6136 14.9451 47.4114L23.0793 41.6982C24.4095 43.67 26.2512 45.6418 28.758 47.5125V47.5631C31.8787 47.6642 34.5901 47.3103 36.8923 46.6025L39.5526 56.1077C39.6549 56.411 39.9107 56.7144 40.2176 56.8155C40.4734 56.9166 40.7804 56.9672 41.1385 56.8661C41.4455 56.8155 41.6501 56.6133 41.8036 56.3099C45.0266 50.2427 43.9011 49.4844 43.2872 48.4226C42.571 47.1586 41.0362 45.8946 40.1665 45.2373C47.3288 41.4454 49.5798 34.0637 50.296 31.8896C53.3144 34.0131 56.6397 36.1872 57.8164 36.5916C60.2209 37.4512 59.7604 34.7209 59.7604 34.7209Z" fill="#84D8C8"/>
</g>
<path d="M75.0729 25.4562C74.8038 25.7004 74.2925 25.8632 73.8081 25.8632C73.1085 25.8632 72.6241 25.2663 72.6241 24.4253V19.9761H75.3689V15.8524H72.6241V12H67.6726V15.8524H65.9235V19.9761H67.6726V25.4562C67.6726 28.2505 69.6102 30.2039 72.3819 30.2039C73.6198 30.2039 75.0998 29.607 75.961 28.766L75.0729 25.4562Z" fill="#84D8C8"/>
<path d="M86.9676 15.8524V23.7199C86.9676 24.9679 86.1334 25.8632 84.9763 25.8632C83.7384 25.8632 82.8773 24.9136 82.8773 23.5571V15.8524H77.9258V24.778C77.9258 27.9521 80.0517 30.2039 83.0388 30.2039C84.7072 30.2039 86.1065 29.5528 86.9676 28.4676V29.8783H92.1613V15.8524H86.9676Z" fill="#84D8C8"/>
<path d="M100.098 18.3483V15.8524H94.9043V29.8783H100.098V23.937C100.098 21.3868 101.713 19.8675 104.457 19.8675V15.5268C102.574 15.5268 101.013 16.612 100.098 18.3483Z" fill="#84D8C8"/>
<path d="M75.0729 52.5857C74.8038 52.8298 74.2925 52.9926 73.8081 52.9926C73.1085 52.9926 72.6241 52.3958 72.6241 51.5547V47.1055H75.3689V42.9818H72.6241V39.1295H67.6726V42.9818H65.9235V47.1055H67.6726V52.5857C67.6726 55.38 69.6102 57.3333 72.3819 57.3333C73.6198 57.3333 75.0998 56.7365 75.961 55.8955L75.0729 52.5857Z" fill="#84D8C8"/>
<path d="M78.1142 57.0078H83.3079V38.0443H78.1142V57.0078Z" fill="#84D8C8"/>
<path d="M92.8538 53.4267C91.5352 53.4267 90.5126 52.5585 90.109 51.2292H99.9581C99.9581 45.8304 97.3209 42.6563 92.8538 42.6563C88.5482 42.6563 85.5073 45.6677 85.5073 49.9541C85.5073 54.2677 88.6289 57.3333 93.0691 57.3333C95.195 57.3333 97.5631 56.438 98.801 55.163L95.9485 52.2601C95.0335 52.9926 93.9033 53.4267 92.8538 53.4267ZM92.8538 46.5629C93.9841 46.5629 94.8721 47.3226 95.2488 48.4891H90.1897C90.6472 47.3226 91.616 46.5629 92.8538 46.5629Z" fill="#84D8C8"/>
<path d="M104.959 57.3333C106.628 57.3333 108 55.8955 108 54.132C108 52.5043 106.628 51.0664 104.959 51.0664C103.156 51.0664 101.784 52.5043 101.784 54.132C101.784 55.8955 103.156 57.3333 104.959 57.3333Z" fill="#84D8C8"/>
<defs>
<filter id="filter0_d" x="0" y="0.824219" width="87.7957" height="84.097" filterUnits="userSpaceOnUse" color-interpolation-filters="sRGB">
<feFlood flood-opacity="0" result="BackgroundImageFix"/>
<feColorMatrix in="SourceAlpha" type="matrix" values="0 0 0 0 0 0 0 0 0 0 0 0 0 0 0 0 0 0 127 0"/>
<feOffset dx="8" dy="8"/>
<feGaussianBlur stdDeviation="10"/>
<feColorMatrix type="matrix" values="0 0 0 0 0 0 0 0 0 0 0 0 0 0 0 0 0 0 0.1 0"/>
<feBlend mode="normal" in2="BackgroundImageFix" result="effect1_dropShadow"/>
<feBlend mode="normal" in="SourceGraphic" in2="effect1_dropShadow" result="shape"/>
</filter>
</defs>
</svg>
