<svg width="944" height="446" viewBox="0 0 944 446" fill="none" xmlns="http://www.w3.org/2000/svg">
<path d="M919.124 442.315H27.1581C14.1345 442.315 3.56934 433.518 3.56934 422.662V22.4919C3.56934 11.6409 14.1278 2.83829 27.1581 2.83829H919.124C932.148 2.83829 942.713 11.6353 942.713 22.4919V422.667C942.713 433.518 932.148 442.315 919.124 442.315Z" fill="white"/>
<path d="M0.988281 66.0423C1.09664 67.8988 1.205 70.8612 1.32014 72.2154C1.32691 69.6649 1.22532 67.5433 0.988281 66.0423Z" fill="white"/>
<path d="M526.918 1.43325C527.941 1.42197 528.963 1.41632 529.959 1.40504C529.37 1.37683 528.875 1.35425 528.401 1.33733L526.918 1.43325Z" fill="white"/>
<path d="M528.401 1.33732L533.718 0.993118C525.658 1.1229 526.099 1.23011 528.401 1.33732Z" fill="white"/>
<path d="M3.77246 110.885C3.86728 115.399 4.01627 119.851 4.26686 123.925L3.77246 110.885Z" fill="white"/>
<path d="M5.50684 62.2109C5.58133 61.7031 5.64906 60.7664 5.71678 59.0623C5.6152 60.0497 5.55424 61.1388 5.50684 62.2109Z" fill="white"/>
<path d="M96.6297 445.385C95.8441 445.43 95.0856 445.475 94.3203 445.515C95.5123 445.481 96.3047 445.436 96.6297 445.385Z" fill="white"/>
<path d="M137.483 444.815C140.91 444.838 143.911 444.832 146.85 444.821L147.412 444.747C145.82 444.646 140.267 444.759 137.483 444.815Z" fill="white"/>
<path d="M121.189 444.364L129.547 444.324C126.513 444.318 123.756 444.33 121.189 444.364Z" fill="white"/>
<path d="M392.184 440.273L393.444 439.923C392.286 440.075 391.974 440.182 392.184 440.273Z" fill="white"/>
<path d="M87.5011 445.819C89.9392 445.746 92.1335 445.633 94.321 445.515C90.6232 445.611 84.6701 445.645 87.5011 445.819Z" fill="white"/>
<path d="M0.799805 64.9363C0.881075 65.241 0.935256 65.6586 0.989436 66.0423C0.921711 64.8348 0.860758 64.152 0.799805 64.9363Z" fill="white"/>
<path d="M3.69889 143.105L3.70566 142.45C3.67857 139.567 3.6718 140.678 3.69889 143.105Z" fill="white"/>
<path d="M750.204 1.26961C755.832 1.23012 761.46 1.18497 767.061 1.14547C760.614 1.08905 756.408 1.08341 753.807 1.10598C751.206 1.13419 750.218 1.19626 750.204 1.26961Z" fill="white"/>
<path d="M0.805934 386.531C2.06563 381.594 0.860115 404.391 2.06563 403.087C1.8015 393.822 1.59832 386.876 2.25526 382.587C2.94606 390.199 2.18754 401.744 3.23051 405.435L2.83093 391.536C3.35242 382.632 4.1719 394.888 4.09062 386.599C2.66162 374.986 4.64597 346.654 4.42925 333.749L4.5647 338.393L5.23519 318.571C5.26228 318.362 5.2826 318.571 5.30969 318.469C5.22841 318.13 5.14714 317.786 5.04556 317.572C5.7499 309.672 6.25784 294.837 6.08853 278.299C5.28259 272.001 5.8244 226.064 5.1336 218.458C5.33678 225.381 5.35032 231.306 5.1336 239.956L4.15835 238.596C4.17867 223.039 5.06587 237.615 4.47666 222.712C3.14924 225.336 4.47666 244.222 4.32089 255.113C4.01613 251.146 3.752 245.667 3.61655 238.912C3.56914 260.75 3.1086 281.679 4.43603 296.767C4.15158 303.014 3.59623 300.034 3.46078 295.407C4.23962 311.292 2.70902 306.964 3.41337 320.517C2.18754 315.879 2.77675 287.829 2.0724 274.247C3.04765 254.074 2.12658 227.633 1.94372 205.141C2.85125 204.204 3.62332 220.077 4.1448 211.167C4.74756 189.07 3.65718 189.008 3.13569 176.453C3.454 160.62 4.65275 174.817 4.70015 149.729L5.28937 164.626C6.57615 150.198 4.78143 150.813 5.04556 139.843C4.7137 143.449 4.38184 143.449 4.42248 155.998C3.9484 157.274 3.75877 147.687 3.70459 143.099L3.66395 146.039C3.04088 140.786 2.3704 139.121 2.68871 123.259C3.44723 133.196 3.26437 110.716 3.60977 106.766L3.77231 110.885C3.52173 99.3343 3.63009 87.3548 3.48787 80.0249L3.6775 80.6456C3.36596 71.9333 2.42458 68.6549 2.63452 55.9926C3.01379 57.2905 4.04322 72.3791 3.88068 58.3964C4.44957 60.3544 4.50375 75.855 4.2938 88.5059C4.50375 75.8493 5.43836 69.4956 5.49254 85.0131C6.21721 80.7698 5.18101 70.4154 5.51963 62.2053C5.30291 63.6836 5.05233 61.0316 4.82883 61.6523C5.80408 61.2291 4.9101 31.3735 4.23285 30.9051L4.77465 46.1405C3.98904 47.2916 3.48109 28.3038 3.03411 34.398C3.34564 32.6092 3.46078 29.1898 3.47432 24.9408C3.48109 22.8304 3.4066 20.4661 4.04999 18.068C4.66629 15.6755 5.87181 13.266 7.60558 11.1387C9.33258 9.00577 11.5811 7.15496 14.0734 5.76685C16.5589 4.3731 19.2679 3.42513 21.8618 2.96242C24.4422 2.48844 26.9074 2.44329 28.8917 2.51101C30.9032 2.55615 32.5557 2.62386 33.7341 2.73107L27.158 2.20066C64.6373 2.51665 95.7843 1.33168 133.765 1.0834C120.721 1.40504 119.637 2.53358 96.2922 2.14423C131.95 2.3643 106.783 3.26149 117.782 3.82012C145.563 4.23768 132.207 2.77621 140.822 2.42637L121.466 2.6295C146.348 1.32604 193.519 2.91728 231.98 2.10473C234.832 2.44894 224.104 2.29658 218.909 2.42637C236.173 3.10349 235.671 2.2853 246.088 2.03138C263.954 2.13859 285.436 2.43765 274.417 3.26149C294.051 3.46463 272.318 2.76493 282.781 2.50536L286.439 2.69157L307.183 1.76617C324.216 2.03138 344.886 2.48844 352.505 3.26149C392.28 3.10349 366.368 1.40504 395.395 1.10033C411.663 1.52353 392.28 1.72667 390.722 2.04266L416.404 1.95802C407.22 2.87214 386.523 2.42072 388.108 3.48155C409.577 2.4038 417.142 3.17685 445.98 2.46587L444.178 2.36994C456.972 1.63639 486.588 2.14987 503.37 2.00881C496.544 2.45458 477.953 2.49972 465.668 2.66336C484.516 3.02449 532.16 2.67465 548.408 1.72103C559.149 1.86774 582.42 2.25708 566.721 2.64643C604.986 2.80443 582.684 1.28654 615.7 1.57432L614.393 2.29658C650.565 3.3292 685.654 1.36554 719.923 2.30223L722.043 1.42761C729.411 1.80003 744.602 1.96931 747.467 2.31351L729.926 2.61258C744.602 3.35177 747.216 1.90724 765.272 2.42637C765.116 2.16116 750.21 1.56303 750.21 1.26397C676.849 1.77181 604.166 0.507844 529.966 1.39939C532.756 1.5066 536.102 1.6251 534.213 1.79438C526.126 1.57996 511.199 1.81131 513.536 1.34297L516.17 1.2809C496.815 1.48403 479.26 0.400633 467.706 0.411918C460.128 1.01569 427.646 0.163639 436.288 1.19061L423.508 0.5417C419.262 0.919762 421.389 1.42196 413.499 1.61382C400.157 1.52917 399.892 1.1229 410.349 0.863335C359.562 0.468345 299.293 0.575557 247.137 0.902834L261.075 0.423203C248.526 0.186209 215.482 1.27525 226.224 0.0451417C200.806 0.536058 156.798 -0.304706 154.99 0.976189C138.174 -0.265207 93.4207 0.434489 58.0747 0.615056C61.0681 1.1624 53.808 1.23575 44.6108 1.2414C40.0123 1.2414 34.9261 1.2414 30.402 1.2414C29.271 1.24704 28.1738 1.25268 27.1241 1.25832C26.562 1.28654 26.0134 1.31475 25.4784 1.34297C24.9433 1.36554 24.4286 1.39375 23.9342 1.47839C22.9522 1.6251 22.0311 1.72103 21.232 1.94674C20.4328 2.15552 19.7081 2.29094 19.1325 2.52794C18.4755 2.61822 18.4349 2.52794 18.8887 2.30223C19.3289 2.0483 20.3109 1.77745 21.6519 1.42196C22.3223 1.25268 23.108 1.15676 23.9613 1.01005C24.388 0.931047 24.835 0.897191 25.2955 0.863335C25.7628 0.829479 26.2437 0.795622 26.7381 0.761766C27.2528 0.722267 27.6727 0.722267 28.1535 0.705339C28.6208 0.694054 29.1017 0.682768 29.5893 0.66584C30.5578 0.643269 31.5601 0.620698 32.5692 0.598127C40.6624 0.428846 49.4329 0.282136 49.7106 0C45.1526 0.163639 40.1613 0.27085 34.8787 0.338563C32.2238 0.366776 29.4945 0.400633 26.711 0.428846C23.6091 0.45706 20.4531 0.99876 17.48 1.97495C11.5201 3.92168 6.33911 7.79823 3.41337 12.6905C1.93695 15.1281 1.01588 17.7971 0.697573 20.4943C0.650165 21.1715 0.60953 21.8429 0.562122 22.5144C0.55535 23.1125 0.548577 23.7107 0.548577 24.3088C0.535032 25.4994 0.528259 26.6844 0.514714 27.8637C0.358946 46.6878 0.331855 63.3225 1.63219 69.7834C1.5306 73.4286 1.42901 73.4738 1.32065 72.2211C1.31388 78.0669 0.866887 85.8087 0.751754 91.5812C1.20552 95.0571 1.41546 82.4174 1.58478 96.4001C1.48319 107.505 0.765299 101.191 0.433444 105.773C1.02266 126.955 1.27324 160.563 2.31621 164.203C2.03177 170.495 1.44255 177.102 1.23938 170.128C2.05886 203.843 1.08361 202.506 1.6051 236.571C1.57123 224.665 0.494397 230.589 0.934613 213.436C-0.548577 226.905 1.19874 265.625 0.426671 292.704L1.36806 303.634C1.53737 320.134 0.629848 321.11 0.29122 309.559C-0.297993 337.609 0.29122 352.523 0.29122 373.982C0.176087 375.257 -0.0135451 374.281 0.0338628 370.675L0 401.705C0.23704 404.819 0.711119 415.986 1.31388 413.707C0.772072 409.864 0.446989 403.392 0.805934 386.531Z" fill="white"/>
<path d="M1.31445 413.707C1.35509 413.989 1.39572 414.26 1.42959 414.519L1.42281 413.3C1.38895 413.571 1.35509 413.571 1.31445 413.707Z" fill="white"/>
<path d="M5.44548 132.254C5.21521 135.324 5.09331 137.778 5.0459 139.843C5.18812 138.331 5.33035 136.26 5.44548 132.254Z" fill="white"/>
<path d="M329.107 442.778C324.4 441.576 306.493 442.976 290.239 442.648C305.674 442.468 301.786 441.768 299.802 441.418C280.71 442.97 276.416 441.108 241.117 441.429C240.352 440.927 257.385 440.843 259.376 440.284C239.966 440.673 210.201 440.882 205.846 441.751C172.904 441.762 149.498 441.458 129.655 441.593C153.494 441.243 134.057 440.724 151.517 439.985C127.352 440.995 73.3274 442.208 38.0085 443.438C33.7012 442.485 32.1232 442.389 36.4915 441.52C34.0127 441.486 31.7981 441.452 29.8137 441.424C28.8249 441.412 27.8971 441.401 27.0167 441.39C26.1836 441.339 25.3913 441.322 24.6598 441.254C21.7138 440.984 19.6549 440.284 18.0972 439.793C15.0089 438.67 13.9524 437.976 12.8214 437.468C11.7716 436.87 10.6271 436.374 8.55468 434.291C8.30409 434.026 8.01965 433.75 7.74874 433.428C7.49816 433.095 7.22048 432.74 6.92927 432.356C6.61773 431.978 6.37392 431.532 6.08947 431.064C5.94724 430.827 5.80502 430.584 5.65602 430.33C5.52057 430.076 5.41221 429.794 5.27676 429.518C5.14808 429.235 5.0194 428.942 4.88395 428.643C4.74173 428.344 4.674 428.017 4.56564 427.684C4.46405 427.351 4.35569 427.012 4.24733 426.657C4.16606 426.301 4.11188 425.929 4.03738 425.545C3.71907 424.016 3.78003 422.278 3.79357 420.309C3.78003 421.516 3.73262 422.729 3.82066 423.926C3.84098 424.225 3.82743 424.529 3.88161 424.823L4.03061 425.714L4.17961 426.606L4.43696 427.481C5.10745 429.817 6.31296 432.051 7.96547 434.032C7.60652 433.676 7.33562 433.293 7.05117 432.926C6.78027 432.553 6.4755 432.215 6.25201 431.848C5.81857 431.115 5.32417 430.454 5.03295 429.766C4.70109 429.094 4.36924 428.462 4.17283 427.842C3.94934 427.227 3.69876 426.657 3.59039 426.092C3.45494 425.54 3.28563 425.02 3.19759 424.524C3.11632 424.027 3.04859 423.565 2.97409 423.13C2.8251 422.25 2.76414 421.528 2.64901 420.856C2.24266 418.204 1.78212 416.816 1.40286 414.508L1.42318 419.107L1.42995 421.409L1.43672 422.56C1.45027 422.961 1.48413 423.39 1.51122 423.802C1.73471 427.125 2.85896 430.437 4.91104 433.304C6.93604 436.176 9.72633 438.681 13.0855 440.493C16.4447 442.298 20.2983 443.455 24.267 443.822C24.1451 443.94 22.1607 443.957 19.2079 443.297C16.2754 442.643 12.476 441.091 9.22516 438.597C5.89984 436.165 3.41431 432.706 2.08689 429.416C1.76858 428.592 1.53154 427.768 1.2945 426.99C1.1455 426.194 0.969415 425.438 0.8746 424.727C0.820419 424.01 0.773011 423.344 0.725603 422.735C0.712058 422.188 0.698513 421.691 0.684968 421.257C0.447928 418.514 0.29216 418.379 0.170254 419.66C0.109301 420.297 0.0618927 421.291 0.0212573 422.487C0.0144848 423.119 0.0551201 423.903 0.0822104 424.676C0.136391 425.461 0.312477 426.273 0.434383 427.103C0.644333 427.921 0.8746 428.761 1.1455 429.58C1.31482 429.98 1.47736 430.381 1.6399 430.782C1.80921 431.177 1.95821 431.577 2.1817 431.944C2.95377 433.451 3.86807 434.788 4.69432 435.826C5.12099 436.34 5.50026 436.797 5.81857 437.18C6.15042 437.547 6.44164 437.835 6.61773 438.044C6.98345 438.456 6.9699 438.54 6.42132 438.157C6.75995 438.427 7.13921 438.727 7.55234 439.048C7.98578 439.347 8.45986 439.674 8.96103 440.019C9.44866 440.38 10.0176 440.701 10.6135 441.046C11.2027 441.396 11.8191 441.762 12.5166 442.078C15.2121 443.433 18.639 444.606 22.3978 445.114C23.3392 445.221 24.2873 445.374 25.249 445.379C26.204 445.413 27.2266 445.458 28.0122 445.441C29.6918 445.43 31.3714 445.419 33.0172 445.407C36.3154 445.385 39.4917 445.351 42.2685 445.295L44.2461 445.645C64.8279 446.011 76.3818 445.131 94.9928 445.142C96.6521 445.244 96.9095 445.317 96.5979 445.374C103.127 444.979 109.777 444.499 121.155 444.358L112.486 444.397C128.368 443.562 167.656 443.032 141.9 442.118L186.714 442.383C181.702 443.297 172.701 444.702 146.816 444.809L143.796 445.199C163.186 445.718 198.525 444.488 185.867 443.703C205.385 441.491 254.52 443.624 287.469 442.699C289.792 443.303 271.567 443.54 263.575 443.957C253.674 444.025 246.569 444.042 245.777 443.534C203.313 443.867 254.419 445.441 206.842 445.227C183.463 444.917 235.442 444.262 200.909 444.177L176.277 445.842C197.685 445.797 217.021 445.526 234.23 445.323C329.824 444.223 397.388 445.154 397.388 445.154L818.735 444.606C862.798 444.369 878.659 444.443 896.132 442.789C887.023 442.451 860.048 442.603 869.191 442.033C864.437 442.648 847.735 442.981 824.749 442.925C822.393 442.327 845.819 442.631 839.886 442.49L835.518 442.451C837.888 442.146 841.884 441.932 848.995 441.92C823.259 441.006 774.863 441.204 756.577 442.349C735.609 441.734 770.874 441.412 781.615 440.938C707.875 440.476 657.901 440.572 583.348 440.51C582.15 441.57 575.777 441.181 565.462 441.909L559.123 441.52C562.326 441.712 551.93 442.445 566.586 442.665C523.824 441.841 515.819 444.076 486.433 444.539L488.478 443.98C464.233 444.076 457.094 444.087 436.099 444.386C397.266 443.348 470.213 444.217 459.526 442.874L448.425 443.1C454.765 442.581 461.971 441.661 474.256 441.277C436.966 442.157 420.753 440.927 380.287 441.61C385.068 440.995 421.511 440.521 431.487 440.453C417.807 440.391 393.304 440.837 392.159 440.267L389.396 441.034C365.245 441.13 392.586 440.318 384.696 439.832C327.603 439.951 377.124 442.332 329.107 442.778Z" fill="white"/>
<path d="M3.57616 223.722C3.49489 229.495 3.53552 234.449 3.62356 238.924C3.63034 233.868 3.63034 228.789 3.57616 223.722Z" fill="white"/>
<path d="M5.30371 318.469C5.43239 318.943 5.54752 319.536 5.63557 320.252C5.56107 318.571 5.44593 317.894 5.30371 318.469Z" fill="white"/>
<path d="M6.58878 327.847C6.16888 330.149 6.16211 324.14 5.64062 320.252C5.93184 326.374 5.93862 342.084 6.58878 327.847Z" fill="white"/>
<path d="M931.261 436.752C931.118 436.859 930.949 436.989 930.739 437.124C930.522 437.248 930.278 437.389 930.008 437.542C929.737 437.694 929.446 437.858 929.141 438.033C928.816 438.179 928.463 438.332 928.105 438.495C927.4 438.845 926.581 439.088 925.775 439.375C925.375 439.533 924.942 439.607 924.529 439.714C924.109 439.81 923.702 439.928 923.303 440.013C922.483 440.132 921.718 440.295 921.041 440.357C920.363 440.408 919.781 440.459 919.354 440.504C918.467 440.577 918.189 440.611 919.124 440.662C925.842 440.566 932.378 437.762 936.184 433.225C934.762 434.613 933.109 435.832 931.261 436.752Z" fill="white"/>
<path d="M940.966 404.616L941.325 386.718L940.072 374.766C940.093 393.963 940.946 385.414 940.966 404.616Z" fill="white"/>
<path d="M941.664 354.306L941.962 358.38C941.833 354.622 941.745 353.826 941.664 354.306Z" fill="white"/>
<path d="M941.135 353.584L940.228 346.581L940.891 369.942L941.067 360.998C941.386 360.868 941.508 355.141 941.663 354.306L941.013 345.515C941.094 347.676 941.25 352.049 941.135 353.584Z" fill="white"/>
<path d="M941.087 333.603C940.993 334.122 940.911 334.827 940.816 335.205C940.925 335.38 941.013 334.743 941.087 333.603Z" fill="white"/>
<path d="M942.788 288.54C942.456 293.116 941.955 283.721 941.582 282.401C941.23 300.305 942.578 301.197 942.144 316.9C941.426 292.671 941.609 325.641 941.088 333.597C941.934 328.914 942.517 319.964 942.767 301.857L942.199 299.893C942.192 290.267 942.53 295.317 942.788 288.54Z" fill="white"/>
<path d="M941.4 193.838L942.24 208.216C941.834 210.665 941.82 233.558 940.953 232.446C941.075 240.521 941.454 241.824 941.685 248.381C941.244 254.509 940.906 259.08 941.515 266.94C942.111 232.655 942.314 242.902 942.579 213.261C942.768 213.91 942.734 217.628 942.7 221.318L943.168 201.924C942.125 200.147 942.057 175.082 941.4 193.838Z" fill="white"/>
<path d="M942.049 165.45C942.103 180.962 942.902 189.488 943.458 181.842L942.78 148.849C942.787 158.481 942.875 170.291 942.049 165.45Z" fill="white"/>
<path d="M942.056 142.569C942.503 136.43 943.465 126.369 942.591 115.709C942.727 133.405 941.433 125.093 942.056 142.569Z" fill="white"/>
<path d="M942.868 30.5948L942.299 61.1331C941.182 66.8041 941.947 46.5129 941.446 37.1629C941.215 63.1194 941.581 54.8472 942.279 74.4556C942.211 81.8983 942.787 93.4433 943.105 102.173C942.191 62.6736 944.927 60.7325 942.868 30.5948Z" fill="white"/>
<path d="M941.73 91.6771L942.191 95.1869L941.832 80.5441L941.73 91.6771Z" fill="white"/>
<path d="M879.214 1.68153C857.176 0.575555 837.021 2.30787 811.868 1.82824C814.529 1.76617 812.654 1.67024 817.909 1.54046L796.67 1.65331L795.681 1.40503C796.941 2.05959 774.944 2.33044 765.51 2.83828C787.27 3.54362 776.508 2.01445 795.621 2.78185C791.015 3.08656 787.683 3.53798 783.281 3.78061C796.291 3.4477 799.549 3.05271 805.353 2.68029C819.521 2.60693 815.274 2.98499 816.338 3.23327C832.084 2.84392 832.321 1.87338 856.384 2.10473C871.859 2.68593 847.248 3.01885 873.695 2.78185C860.617 1.72667 900.399 2.95114 910.605 2.2853C913.063 2.31915 915.413 2.35301 917.642 2.38122C918.197 2.39251 918.746 2.39251 919.287 2.41508C919.836 2.44894 920.378 2.48279 920.913 2.51665C921.177 2.53922 921.441 2.53922 921.705 2.57872C921.963 2.61822 922.22 2.65772 922.477 2.69157C922.985 2.77057 923.48 2.84392 923.967 2.91728C927.841 3.70726 930.794 5.15744 932.799 6.48912C933.293 6.83896 933.754 7.14931 934.153 7.45402C934.532 7.7813 934.871 8.08036 935.176 8.35121C935.325 8.48664 935.467 8.61642 935.602 8.73492C935.718 8.8647 935.833 8.98884 935.934 9.10169C936.137 9.3274 936.3 9.5249 936.422 9.68289C936.923 10.3205 936.822 10.3939 936.056 9.8296C936.138 9.62082 937.011 10.0327 938.217 11.1331C939.402 12.2278 941.007 14.0052 942.104 16.4598C942.362 17.0748 942.592 17.7294 942.849 18.4009C943.018 19.0893 943.208 19.8003 943.357 20.5395C943.432 21.2787 943.547 22.0574 943.587 22.8135C943.621 23.564 943.655 24.3314 943.696 25.1044C943.831 28.2023 943.933 31.4412 944 34.5616L943.797 27.6267L943.696 24.1565L943.641 22.4185L943.479 20.6241C942.815 15.8504 940.066 11.3588 935.914 8.14807C933.429 5.71606 930.205 3.68469 926.48 2.39815C925.281 2.17244 924.123 1.91288 922.938 1.82824C921.766 1.6646 920.601 1.67588 919.463 1.64203C917.303 1.67024 915.197 1.7041 913.138 1.73231C909.027 1.78874 905.079 1.81695 901.15 1.82824C893.288 1.85081 885.499 1.80002 876.607 1.74924L879.214 1.68153Z" fill="white"/>
<path d="M783.273 3.78062C780.97 3.83705 778.986 3.88219 776.006 3.95555C778.871 3.97248 781.173 3.89912 783.273 3.78062Z" fill="white"/>
<path d="M938.839 13.5538C937.566 11.7594 935.934 10.1625 934.058 8.8252C935.29 9.83524 936.279 11.0202 937.193 12.2165C937.749 12.634 938.277 13.0911 938.839 13.5538Z" fill="white"/>
<path d="M766.572 4.46339C771.001 4.49161 772.586 4.17561 768.136 4.1474L761.33 4.59317L766.572 4.46339Z" fill="white"/>
<path d="M746.655 3.85398L735.656 3.30099L728.85 3.74677L746.655 3.85398Z" fill="white"/>
<path d="M294.852 3.30663C309.277 3.63955 307.929 2.98499 310.3 2.51101C288.052 2.37558 309.792 3.08092 294.852 3.30663Z" fill="white"/>
<path d="M12.9971 8.43585C14.5141 7.49916 16.0718 6.62454 17.7717 6.02642C18.5912 5.67093 19.4716 5.45086 20.325 5.19129C20.7449 5.04458 21.2054 4.9938 21.6389 4.88659C22.0791 4.80195 22.5125 4.68345 22.9595 4.62138L24.3005 4.4521C24.524 4.42389 24.7475 4.39003 24.971 4.36746L25.6482 4.33925L26.9959 4.27153C27.4565 4.2546 27.9576 4.26025 28.4317 4.2546C30.3619 4.23203 32.2921 4.20946 34.2155 4.18689C41.9091 4.08532 49.5757 3.92733 57.5673 3.93861C50.3545 3.77497 41.9091 3.74112 33.6263 3.7919C31.5539 3.80883 29.495 3.82576 27.47 3.84269C26.9553 3.84269 26.5015 3.88783 26.0207 3.9104C25.5466 3.9499 25.0658 3.93861 24.6052 4.01197C23.6774 4.15868 22.7496 4.22639 21.8759 4.46903C18.3271 5.25901 15.2523 6.71483 12.9971 8.43585Z" fill="white"/>
<path d="M7.79491 105.88C7.54432 102.556 7.40887 97.9236 7.30728 105.175L5.90537 92.1963C5.43806 111.652 7.19215 106.495 7.79491 105.88Z" fill="white"/>
<path d="M7.99246 220.184L7.45743 201.671L7.42357 211.241C6.86822 206.512 6.59732 203.155 6.14355 196.152C6.43477 209.886 6.97658 222.938 7.99246 220.184Z" fill="white"/>
<path d="M5.87891 179.506C5.906 181.571 5.93309 183.896 5.96018 186.328C6.12272 184.291 6.33267 183.044 5.87891 179.506Z" fill="white"/>
<path d="M5.98051 193.692C6.04146 194.651 6.08887 195.311 6.14305 196.141C6.0821 192.817 6.02115 189.477 5.96697 186.322C5.83152 187.812 5.72993 189.798 5.98051 193.692Z" fill="white"/>
<path d="M7.30078 234.06L7.44978 266.065L7.72068 253.899C6.86056 251.236 8.22185 239.031 7.30078 234.06Z" fill="white"/>
<path d="M6.5498 401.868L5.71 405.175C5.66259 410.293 5.74386 415.721 5.86577 421.178L5.89286 422.199L5.9064 422.707L5.94704 423.17C6.02154 423.785 6.00799 424.4 6.1773 425.003C6.31953 425.607 6.39403 426.217 6.63107 426.792C6.83424 427.379 7.00356 427.966 7.30155 428.524C8.33775 430.782 9.93607 432.813 11.8663 434.472C13.8032 436.131 16.072 437.417 18.4221 438.292C20.7789 439.172 23.2035 439.641 25.5197 439.81C26.1089 439.838 26.6846 439.866 27.2535 439.895C27.8969 439.9 28.5267 439.911 29.1498 439.917C30.3892 439.934 31.5879 439.962 32.7325 439.996C35.0216 440.064 37.1008 440.165 38.9362 440.306C28.222 439.872 59.1929 439.511 30.186 439.313C29.441 439.347 28.608 439.381 27.6869 439.426C27.1993 439.454 26.8065 439.443 26.3798 439.443C25.9532 439.438 25.5062 439.438 25.0457 439.432C23.2103 439.302 21.1311 438.975 19.0045 438.264C16.8712 437.564 14.7446 436.436 12.8483 434.952C10.9587 433.468 9.33332 431.605 8.21584 429.506C7.0916 427.413 6.48884 425.088 6.4753 422.78C6.46853 420.156 6.46852 417.572 6.46175 415.084C6.46852 410.084 6.50239 405.502 6.5498 401.868Z" fill="white"/>
<path d="M55.5613 440.876C51.5655 441.085 57.505 441.226 60.6949 441.424C69.3909 441.508 78.9063 441.187 74.1791 440.888C67.0205 441.813 64.6839 440.301 55.5613 440.876Z" fill="white"/>
<path d="M168.563 440.814C161.452 440.831 151.523 440.899 161.838 441.08C183.239 441.04 177.693 440.239 188.441 439.765C170.642 439.342 155.106 440.436 168.563 440.814Z" fill="white"/>
<path d="M336.907 446C334.537 445.396 317.497 445.481 313.528 445.69C319.089 445.577 329.39 445.757 336.907 446Z" fill="white"/>
<path d="M340.692 440.984L334.678 440.848L327.547 441.768L340.692 440.984Z" fill="white"/>
<path d="M468.775 440.487L485.057 439.9L460.838 439.996L468.775 440.487Z" fill="white"/>
<path d="M493.34 440.645L514.748 440.606L507.23 440.369C496.923 440.182 500.478 440.628 493.34 440.645Z" fill="white"/>
<path d="M557.592 440.521C554.849 440.577 553.21 440.481 551.652 440.38L532.242 440.769L557.592 440.521Z" fill="white"/>
<path d="M898.537 444.318C893.728 444.934 913.192 444.544 919.125 444.68C920.304 444.527 907.619 443.743 898.537 444.318Z" fill="white"/>
</svg>
