<svg width="944" height="446" viewBox="0 0 944 446" fill="none" xmlns="http://www.w3.org/2000/svg">
<path d="M937.909 40.3111L937.909 406.945C937.909 426.588 909.548 442.66 874.885 442.66L69.6417 442.66C34.9782 442.66 6.61719 426.588 6.61719 406.945L6.61719 40.3111C6.61719 20.6674 34.9782 4.5954 69.6417 4.5954L874.885 4.59541C909.548 4.59541 937.909 20.6675 937.909 40.3111Z" fill="white"/>
<path d="M942.824 37.9537C943.013 40.93 943.79 39.8585 944 40.3109C943.349 35.2512 942.593 38.0966 942.824 37.9537Z" fill="white"/>
<path d="M890.095 3.86931L891.629 3.88123L888.561 3.55978C887.532 3.47644 886.482 3.45265 885.452 3.39313C883.373 3.29789 881.335 3.16694 879.255 3.23836C880.158 3.25027 881.083 3.22645 881.986 3.26216L884.696 3.41693C886.503 3.54788 888.33 3.61931 890.095 3.86931Z" fill="white"/>
<path d="M814.298 2.82138C821.399 3.66666 841.545 2.67853 854.949 2.98807L857.155 3.17853L863.205 2.48803C846.924 2.60708 825.768 3.05949 814.298 2.82138Z" fill="white"/>
<path d="M774.215 0.97439C776.694 1.31062 765.539 1.26258 783.564 1.08246C782.66 1.03443 782.408 1.02241 781.862 0.998394C780.245 0.998394 778.018 0.986399 774.215 0.97439Z" fill="white"/>
<path d="M781.86 0.999939C789.78 0.976031 776.671 0.724994 781.86 0.999939V0.999939Z" fill="white"/>
<path d="M745.285 1.19092L755.726 0.893296C753.541 0.702817 744.256 0.655189 747.701 0.51233C737.008 0.678998 739.193 0.869486 745.285 1.19092Z" fill="white"/>
<path d="M735.392 1.80981L740.791 1.69048C739.845 1.60696 738.417 1.57117 735.392 1.80981Z" fill="white"/>
<path d="M752.26 1.41644L740.789 1.67836C742.302 1.80932 742.47 2.09503 746.062 1.5831C745.117 1.84502 747.386 1.59502 752.26 1.41644Z" fill="white"/>
<path d="M758.751 1.54767C764.612 1.73814 772.154 1.84528 761.692 2.14288C781.65 2.02384 778.709 1.42862 758.751 1.54767Z" fill="white"/>
<path d="M810.474 3.7003L818.289 3.95258L825.053 3.66427C821.671 3.7964 809.99 3.42403 810.474 3.7003Z" fill="white"/>
<path d="M680.285 0.749917C679.633 0.928504 683.793 1.22612 684.57 1.46423L692.28 1.26186C688.331 1.13089 680.81 1.01184 680.285 0.749917Z" fill="white"/>
<path d="M684.571 1.46182L673.038 1.77413C683.353 1.81017 685.223 1.66601 684.571 1.46182Z" fill="white"/>
<path d="M733.54 2.75011L752.469 2.09531L729.885 2.76202L733.54 2.75011Z" fill="white"/>
<path d="M636.252 0.726411L642.786 0.309754L631.147 0.940735L636.252 0.726411Z" fill="white"/>
<path d="M607.051 0.797425C611.882 0.452164 600.412 0.214073 605.538 -0.000226547C597.597 0.0593011 590.832 0.356938 584.719 0.630766C591.189 0.475994 598.101 0.511691 607.051 0.797425Z" fill="white"/>
<path d="M574.466 1.01215C577.701 0.928046 581.062 0.783854 584.718 0.615653C581.272 0.699753 577.89 0.819917 574.466 1.01215Z" fill="white"/>
<path d="M653.417 1.67883C652.535 1.57168 650.812 1.28591 644.342 1.16685L648.88 1.67883C650.245 1.67883 651.821 1.67883 653.417 1.67883Z" fill="white"/>
<path d="M649.027 1.69031L648.859 1.67859C643.943 1.66685 640.519 1.65509 639.069 1.65509C640.33 1.65509 643.334 1.66683 649.027 1.69031Z" fill="white"/>
<path d="M654.55 1.69241C654.13 1.69241 653.815 1.69241 653.416 1.69241C653.836 1.73788 654.109 1.74925 654.55 1.69241Z" fill="white"/>
<path d="M703.311 2.29782C696.547 2.58355 682.409 2.88121 696.085 3.32172C700.938 2.96455 693.123 2.72642 703.311 2.29782Z" fill="white"/>
<path d="M660.183 2.32143L672.43 2.44049C672.199 2.30954 669.972 2.10716 673.334 1.9643L660.183 2.32143Z" fill="white"/>
<path d="M654.194 2.4881L660.182 2.32103L655.644 2.27333L654.194 2.4881Z" fill="white"/>
<path d="M595.456 1.48427C590.162 1.7125 584.385 1.72449 577.852 1.76052C584.847 1.85662 592.095 1.91669 598.986 1.91669C599.931 1.76053 602.956 1.47226 595.456 1.48427Z" fill="white"/>
<path d="M621.484 1.63344C621.127 1.64488 620.644 1.65631 620.308 1.65631C621.043 1.70206 621.61 1.72495 621.484 1.63344Z" fill="white"/>
<path d="M513.481 1.76158C513.839 1.79747 514.154 1.82141 514.511 1.8573C514.595 1.83337 514.658 1.79748 514.742 1.77355L513.481 1.76158Z" fill="white"/>
<path d="M600.141 2.01202C605.414 2.10747 608.544 1.98817 611.548 1.83307C607.619 1.88079 603.439 1.91656 598.964 1.91656C598.523 2.00007 598.46 2.04782 600.141 2.01202Z" fill="white"/>
<path d="M556.525 1.24757C559.277 1.35566 562.387 1.45175 565.643 1.5238C562.954 1.36768 557.492 1.11546 556.525 1.24757Z" fill="white"/>
<path d="M618.544 1.5238C618.817 1.51193 619.048 1.51194 619.342 1.50007C617.599 1.39321 617.809 1.44069 618.544 1.5238Z" fill="white"/>
<path d="M618.543 1.5212C615.833 1.59328 613.711 1.72544 611.568 1.83356C614.783 1.79752 617.745 1.73743 620.329 1.66536C619.657 1.62932 619.005 1.56926 618.543 1.5212Z" fill="white"/>
<path d="M493.985 5.03546C494.91 4.55926 508.754 4.13068 520.708 4.63069C532.472 4.27354 524.783 2.7259 514.51 1.85683C514.153 2.05921 514.153 2.2497 502.052 2.53543C506.296 2.79734 528.901 3.14257 518.691 3.55924C502.662 3.79735 505.561 3.39257 497.767 3.14256C504.384 3.72591 477.368 3.99973 480.855 4.85689L494.91 4.54739C495.183 4.69025 490.078 4.90451 493.985 5.03546Z" fill="white"/>
<path d="M537.579 1.90497L542.557 1.84543C536.885 1.7621 532.81 1.57165 525.331 1.20262C517.054 1.4288 515.331 1.60733 514.764 1.76209L539.28 1.83355L537.579 1.90497Z" fill="white"/>
<path d="M564.909 1.84513C561.023 2.35706 549.069 2.57137 556.38 3.13092C571.002 3.0952 566.611 2.70231 575.35 2.47611C551.758 2.60707 582.115 2.19041 565.077 1.90468C569.72 1.82134 573.88 1.78561 577.808 1.7737C573.565 1.71418 569.468 1.63086 565.603 1.53562C565.813 1.54752 565.96 1.55943 566.149 1.57133L566.254 1.57133L566.233 1.58321C567.241 1.64274 567.577 1.69036 566.443 1.65464C566.359 1.65464 566.086 1.66656 565.96 1.66656C565.834 1.72609 565.393 1.7856 564.909 1.84513C558.082 1.73798 563.838 1.71417 565.981 1.65464C566.065 1.63083 566.254 1.60702 566.275 1.58321C566.254 1.58321 566.212 1.58324 566.191 1.57133L542.557 1.85705C547.557 1.91657 553.817 1.90466 564.909 1.84513Z" fill="white"/>
<path d="M683.48 4.41669C682.744 4.36885 682.786 4.33296 682.723 4.29708C681.19 4.36884 680.622 4.40473 683.48 4.41669Z" fill="white"/>
<path d="M673.751 4.10718C675.474 4.03575 676.902 3.83339 682.491 3.88102C687.343 4.03578 682.47 4.131 682.722 4.29767C686.083 4.16671 694.507 3.92862 683.94 3.67861L682.259 3.75004C672.743 3.57146 660.537 2.92859 662.197 2.86907C664.97 3.33337 667.428 3.65478 673.751 4.10718Z" fill="white"/>
<path d="M618.65 3.10708L598.986 3.35712L609.007 3.79761L608.503 3.53569C619.679 3.64284 617.263 3.30947 618.65 3.10708Z" fill="white"/>
<path d="M511.234 1.51166L513.839 0.964052L502.474 1.73785L511.234 1.51166Z" fill="white"/>
<path d="M485.667 1.57135L486.613 1.10707L479.869 1.39276L485.667 1.57135Z" fill="white"/>
<path d="M251.528 439.827L257.306 439.695C254.575 439.743 252.81 439.779 251.528 439.827Z" fill="white"/>
<path d="M209.684 439.801L208.654 440.042C210.587 439.897 211.385 439.801 209.684 439.801Z" fill="white"/>
<path d="M1.38581 104.314C0.608505 109.088 -0.588961 114.421 0.335398 113.838L1.23875 112.373C1.09169 109.052 1.19673 106.492 1.38581 104.314Z" fill="white"/>
<path d="M6.827 348.002C6.91103 347.55 7.01607 347.074 7.1001 346.609C6.78498 345.454 6.49087 344.359 6.23877 343.383C6.40683 344.776 6.61692 346.359 6.827 348.002Z" fill="white"/>
<path d="M10.6082 351.371L10.02 357.657C10.2091 356.252 10.4192 354.228 10.6082 351.371Z" fill="white"/>
<path d="M480.098 439.279L486.841 438.755C476.295 438.755 480.938 439.029 480.098 439.279Z" fill="white"/>
<path d="M223.82 1.76225C216.552 1.55985 210.774 1.47654 205.69 1.45273C214.451 1.75037 221.51 2.19087 223.82 1.76225Z" fill="white"/>
<path d="M235.061 445.315C238.59 445.219 240.103 445.111 239.998 445.003C236.363 445.087 234.305 445.183 235.061 445.315Z" fill="white"/>
<path d="M184.703 1.45123C185.985 1.48726 187.245 1.53532 188.548 1.57135C193.863 1.48727 199.199 1.41519 205.69 1.45123C199.241 1.23502 191.825 1.09089 184.703 1.45123Z" fill="white"/>
<path d="M932.719 216.961C932.761 216.616 932.803 216.211 932.825 215.901C932.698 215.794 932.698 216.259 932.719 216.961Z" fill="white"/>
<path d="M941.921 80.0987C941.984 81.444 941.984 83.6464 941.984 85.718C942.047 84.706 942.047 83.0155 941.921 80.0987Z" fill="white"/>
<path d="M382.81 1.34528C388.23 1.32214 383.671 1.29901 382.81 1.34528V1.34528Z" fill="white"/>
<path d="M409.177 3.39099C408.021 3.45104 407.139 3.52309 407.013 3.64319C407.454 3.52309 408.21 3.43903 409.177 3.39099Z" fill="white"/>
<path d="M130.692 4.66964C130.524 4.66964 130.398 4.66964 130.229 4.66964C131.847 4.77275 131.574 4.74984 130.692 4.66964Z" fill="white"/>
<path d="M390.963 1.58362C388.925 1.52395 386.572 1.46427 384.03 1.42847C385.144 1.47621 387.266 1.52395 390.963 1.58362Z" fill="white"/>
<path d="M389.867 1.34495C391.737 1.36887 393.207 1.3808 394.615 1.39276C395.287 1.30904 394.678 1.24927 389.867 1.34495Z" fill="white"/>
<path d="M375.247 1.38111C378.356 1.36923 381.234 1.39296 384.029 1.42859C382.957 1.39296 382.516 1.36924 382.81 1.34548C381.213 1.35736 378.966 1.36923 375.247 1.38111Z" fill="white"/>
<path d="M864.886 441.089C865.243 441.101 865.663 441.125 866.041 441.137C871.524 440.922 869.129 440.958 864.886 441.089Z" fill="white"/>
<path d="M10.8384 184.293C10.8174 184.15 10.8174 184.079 10.7964 183.948C10.7754 184.091 10.7754 184.269 10.7544 184.4L10.8384 184.293Z" fill="white"/>
<path d="M11.5332 195.329C10.3988 190.627 10.5458 187.96 10.7769 184.4L8.15088 188.055L11.5332 195.329Z" fill="white"/>
<path d="M351.743 439.683L338.066 439.219C354.579 438.457 366.511 438.719 353.675 438.064C351.743 439.683 300.525 438.231 298.613 439.85L289.601 439.505C292.185 439.517 292.605 439.421 295.147 439.445C277.605 438.671 282.122 440.612 259.538 440.386C251.66 440.267 246.177 440.029 251.534 439.838L233.992 440.243C228.887 440.207 230.126 439.933 235.21 439.957L208.446 440.076L208.635 440.029C204.812 440.279 196.177 440.671 191.934 440.838C185.127 440.6 195.337 440.671 193.614 440.469L178.803 440.862C172.774 440.445 185.043 440.04 195.274 440.1C181.43 438.481 182.984 440.505 153.111 439.564L167.102 439.362C158.089 438.445 147.165 438.778 131.346 438.207C135.128 438.493 163.047 439.636 146.955 440.04C142.417 439.921 136.451 439.862 127.775 440.183C127.691 439.612 119.224 439.755 108.636 439.779L109.351 439.017C97.9011 439.231 98.8044 439.624 92.0608 439.969C79.2878 439.898 76.6408 439.302 73.6366 438.802C68.4056 438.802 67.2291 438.719 67.1451 438.826C67.1451 438.909 68.5527 439.088 70.0022 439.255C71.5358 439.386 72.9434 439.529 72.4602 439.648C72.2291 439.707 71.4938 439.755 70.0863 439.802C68.7207 439.826 66.83 439.779 64.0149 439.731C56.2419 439.136 49.8344 437.969 43.4689 436.266C37.1455 434.516 30.717 432.183 24.2254 428.219C17.923 423.028 26.0321 428.814 23.9523 426.873C21.6414 425.576 19.6667 424.087 17.7129 422.575C16.6835 421.337 17.3138 421.659 17.6499 421.814C15.6541 419.766 15.276 419.742 14.7298 419.409C14.4356 419.242 14.0995 418.992 13.5323 418.337C13.2382 418.016 12.902 417.587 12.4609 417.028C12.1247 416.444 11.7466 415.73 11.2844 414.813C11.0113 414.587 10.6542 414.182 10.4231 413.623C10.234 413.051 10.0449 412.325 9.85586 411.48C9.60376 410.635 9.64578 409.67 9.66679 408.611C9.66679 408.087 9.6878 407.539 9.6878 406.968C9.75082 406.372 9.81384 405.765 9.87687 405.134C10.4021 400.11 10.8853 394.122 10.0449 389.229C10.4231 386.812 10.8643 390.396 11.3895 389.657C10.276 376.205 10.5911 378.121 9.09957 367.085L9.98191 357.68C8.97352 364.597 7.77605 355.763 6.78867 348.025C6.30548 350.477 5.86431 352.573 5.67524 353.978L4.96096 341.632C5.19205 340.144 5.65423 341.382 6.20044 343.406C6.07439 342.56 5.96935 341.763 5.88532 341.144C6.38951 336.727 7.16682 339.013 7.9021 342.179C7.629 343.679 7.33488 345.18 7.06178 346.632C7.88109 349.68 8.78444 352.537 9.56175 351.906C9.41469 351.108 9.26763 349.561 9.20461 347.858C9.4357 348.656 9.62477 349.168 9.75082 348.799C9.89788 348.382 9.60376 347.096 9.24662 345.072L10.7382 342.263L10.15 341.584L11.0953 325.429C9.58276 313.869 7.3769 303.821 6.74665 285.475C7.83908 290.023 8.53235 286.451 9.83485 286.701C8.44831 291.701 10.4231 300.916 10.15 310.416C10.297 305.452 10.9063 306.547 11.1374 307.809L9.87687 290.856C10.9483 291.237 10.6752 287.261 11.1164 282.82C9.01554 286.165 9.70881 270.177 9.07856 263.283C9.79284 262.855 10.5071 264.51 10.339 272.927C11.9147 263.641 7.86009 260.926 9.20461 251.807C9.22562 253.866 9.12058 254.974 9.47772 255.783C8.84747 250.985 9.35167 239.247 9.9609 242.009L9.98191 244.056C10.234 230.413 10.0029 202.519 8.21723 200.483C8.44832 200.352 10.3811 202.269 10.7382 203.102L4.72987 178.756C6.26347 180.899 9.91889 172.673 10.7802 183.983C10.9903 180.733 11.2634 176.709 10.7172 169.863C10.5071 172.077 8.49033 175.387 8.36428 172.363C10.0659 164.053 9.28864 166.589 10.7382 156.339C10.4021 159.66 8.00715 155.97 8.07017 150.719C8.42731 151.541 10.4441 150.279 10.6962 152.208L8.34328 139.136C8.76344 142.398 10.3391 139.707 11.0113 136.79C10.5491 138.148 11.0533 125.492 10.8222 122.004L10.276 127.54C10.6332 112.789 6.95674 112.968 7.08279 98.3245C7.56597 100.098 10.087 102.706 10.3811 95.253C9.16259 91.8481 4.56181 80.1452 3.63745 67.1923L4.33072 64.7041L3.53241 54.7632C5.36012 60.954 9.1836 78.3118 10.6752 87.8003C11.2214 82.2762 11.4945 86.2645 11.4315 77.9904C12.0827 75.0736 12.4189 82.5024 12.4609 84.9311L12.881 65.6803C11.4735 66.5375 11.4735 50.9536 10.297 51.6917L11.7676 72.5973C10.3601 73.4425 7.75505 60.5016 8.00715 46.8701C8.57437 43.4057 10.5281 49.4654 10.9903 49.1797C10.7382 48.2987 10.5071 45.0605 10.3811 41.8818C10.255 40.2508 10.4441 38.834 10.5281 37.6435C10.5491 37.0483 10.6752 36.5482 10.8222 36.1435C10.9483 35.7506 11.0533 35.4529 11.1374 35.322C11.0113 36.2268 10.8643 37.1316 10.9903 38.0364C11.0533 38.9531 11.0323 39.8103 11.1584 40.7627C11.2424 39.8698 11.3474 39.0245 11.4315 38.2031C11.4525 37.7983 11.4735 37.3935 11.4945 37.0006C11.5785 36.6078 11.6416 36.2268 11.7256 35.8458C11.8516 35.072 11.9777 34.322 12.1037 33.56C12.3558 32.81 12.5869 32.0719 12.839 31.3099C14.0365 28.3336 15.8852 25.0835 20.6751 21.7143C21.4524 21.119 22.5448 20.4405 23.7002 19.7142C24.7927 18.9761 26.2842 18.3571 27.4817 17.7142C28.6582 17.0594 29.9397 16.5832 30.822 16.1546C31.7044 15.7379 32.2716 15.4045 32.2926 15.2379C30.4859 15.8688 28.8052 16.2498 27.3767 16.4522C26.0111 16.7022 24.8347 16.7498 23.9733 16.6189C22.2507 16.357 21.7675 15.3093 23.5322 13.7736C23.9313 13.595 25.591 12.8211 27.9649 11.7258C29.2254 11.2496 30.675 10.6901 32.2296 10.1067C33.7421 9.49954 35.6119 9.03525 37.3556 8.47571C40.969 7.45184 44.8765 6.58279 48.3008 6.07086C49.1411 5.93991 49.9604 5.80893 50.7377 5.67798C51.5361 5.59464 52.2713 5.52319 52.9436 5.45175C54.3091 5.3208 55.4226 5.22559 56.2209 5.16605C58.5318 5.0708 58.8889 5.297 58.2167 5.5351C57.5444 5.76132 55.9478 6.22562 54.3512 6.67801C51.0739 7.49945 48.0907 8.72571 51.6831 8.24951C51.7672 8.08283 52.9436 7.80902 54.3301 7.48758C55.7377 7.18994 57.3343 6.79709 58.3427 6.70184C61.1368 6.55896 60.6116 6.77326 60.8847 6.8804C61.1578 7.03519 62.1872 6.8566 68.1535 6.68991C70.0863 5.78513 93.8885 6.73755 74.0568 5.96372C86.4726 5.73752 87.2499 6.13037 101.809 6.09467C97.1658 5.57083 114.897 4.30887 127.312 4.08267C126.577 4.28507 129.371 4.55887 130.716 4.67792C156.157 4.74936 169.791 5.11844 193.509 5.13034C195.694 5.33274 207.144 5.57083 202.27 5.91608C205.673 5.77323 208.803 5.49942 216.135 5.47559C230.295 6.17801 199.833 5.58274 210.61 6.42801C211.534 5.95178 229.517 5.7732 239.937 5.48749C236.723 4.76126 215.862 5.34464 205.442 5.64224C205.4 4.64221 223.551 3.58264 248.341 3.11835C268.046 2.86835 256.891 3.77314 260.294 3.63025C297.29 3.80884 291.806 1.88022 322.541 2.60645C334.726 3.24933 323.088 3.88028 325.798 4.34458C309.747 4.58271 301.155 3.93979 290.294 3.96363L303.676 4.26123C298.571 4.47553 287.857 4.63031 282.017 4.45172C292.227 5.0232 344.537 4.5589 373.066 5.09464C378.129 4.88035 386.889 4.65412 382.751 4.40409L373.717 4.48746C365.419 3.97553 390.713 3.77314 379.284 3.53504C391.406 3.17789 404.977 2.60642 422.036 2.89216L425.25 3.61838C424.893 3.40409 414.095 3.18976 409.305 3.40406C416.406 3.08262 435.46 4.39219 443.254 3.43979L431.301 2.93979C443.464 2.57071 458.506 1.79685 473.611 2.02305C466.741 1.29685 470.124 2.10642 459.388 1.26114C468.695 2.30881 420.712 1.21351 435.67 2.32068C424.641 1.34446 416.595 1.90403 402.183 1.07065C402.624 1.30875 407.288 1.53498 394.599 1.4159C394.032 1.48734 392.667 1.57068 391.805 1.63019C391.427 1.61829 391.28 1.61832 390.944 1.60639C391.196 1.61832 391.385 1.63019 391.637 1.63019C391.091 1.66593 391.028 1.67783 391.889 1.64213C394.914 1.74927 397.351 1.88022 398.36 2.01117C392.057 2.55881 371.89 2.54691 365.062 2.83265C357.541 2.7136 368.213 2.55881 364.095 2.29688L353.907 2.7255C352.898 2.18976 333.907 1.83258 351.638 1.52304L335.671 1.49927C326.281 1.20163 313.34 1.08258 305.357 1.30878C297.836 1.18973 286.344 1.90403 292.899 1.48734L267.857 1.82068L267.626 1.6897C242.92 1.61829 216.765 2.57071 188.53 1.60639C180.211 1.73737 171.619 1.90402 157.711 1.74927L155.001 1.28494C144.329 1.4516 122.922 0.82065 118.342 1.30878C112.586 0.689699 99.6237 0.618257 85.7584 0.677796C82.292 0.7016 78.7626 0.713502 75.2963 0.737306C73.5526 0.749207 71.8299 0.761109 70.1073 0.773011C68.3216 0.808747 66.3888 0.89206 64.5821 0.9516C57.3133 1.32065 50.7588 2.20166 45.8849 3.2374L45.5277 3.95172C38.9732 5.36844 32.7968 7.26138 27.2086 9.92813C21.5994 12.5711 16.3474 15.845 11.9357 20.0714L13.2802 19.8452C9.58276 23.4287 5.42314 28.3098 3.49039 34.2029C3.2593 34.941 3.02821 35.6911 2.79712 36.4411C2.69208 37.203 2.58704 37.9769 2.482 38.7507C2.20889 40.3579 2.2299 41.7985 2.16688 43.3104C2.06184 46.3344 1.9778 49.4297 2.01982 52.5251C1.66268 51.6798 1.74671 48.5368 1.9778 46.3105C-0.144021 61.1325 3.53241 77.5737 1.9778 91.0028C2.31393 94.3482 2.20889 96.7768 1.9778 99.1222C1.9778 98.8126 1.9568 98.5269 1.93579 98.2888C1.93579 98.634 1.93579 99.146 1.91478 99.6698C1.74671 101.146 1.59966 102.67 1.41058 104.325C1.64167 102.92 1.83075 101.575 1.91478 100.408C1.93579 102.991 2.04083 106.908 2.29293 110.742L1.28453 112.373C1.28453 112.682 1.30554 112.932 1.30554 113.266C0.927395 117.028 1.78873 116.29 2.54502 114.289C2.71309 116.218 2.90216 117.992 3.15426 119.373C1.51562 122.433 3.70047 129.445 1.95679 133.624C2.79712 136.207 2.58704 152.922 4.39374 154.97C4.16265 155.101 4.05761 156.232 4.0366 154.16C3.82652 158.446 3.63745 162.72 4.14164 166.553L2.86015 168.375L4.58281 177.721C3.80551 183.399 3.34333 185.757 2.35595 180.113C3.88954 193.721 2.92317 191.162 4.43576 202.733L3.59543 202.174C3.63745 206.317 4.75088 212.924 4.05761 215.424C2.482 224.687 3.84753 261.224 2.37696 284.987C4.83491 280.379 1.28453 296.035 3.17527 296.975C2.58704 298.356 2.27192 301.666 1.76772 297.821C2.33494 309.952 0.84336 316.036 2.43998 324.417C1.85175 325.81 1.59965 321.821 1.24251 323.06C1.36856 324.036 1.74671 326.917 1.41058 328.179C1.07445 329.417 0.927392 326.405 0.675294 324.488C0.738319 336.846 2.52401 338.096 4.20467 339.001C3.40636 345.275 3.5324 348.406 4.62483 352.942C4.07862 355.132 3.5114 358.775 3.30131 351.073C3.21728 355.406 2.503 377.526 3.84753 377.967C3.49039 379.324 3.74249 384.026 3.88954 385.157C3.80551 394.872 3.67946 395.729 3.80551 405.265L4.01559 402.622C4.87693 404.515 4.79289 406.456 5.00298 409.015C5.066 409.646 5.00297 410.325 5.15003 411.027C5.29709 411.73 5.46515 412.468 5.65423 413.254C5.75927 413.647 5.82229 414.051 5.96935 414.456C6.13742 414.861 6.32649 415.278 6.51556 415.706C6.93573 416.563 7.20883 417.492 7.86008 418.409L7.56597 418.23C8.19622 419.313 8.76344 420.29 9.28864 421.183C9.89788 422.052 10.5491 422.802 11.0743 423.492C12.0827 424.885 13.3012 425.849 14.1205 426.671C14.5617 427.076 14.9398 427.433 15.276 427.742C15.6751 428.04 16.0323 428.302 16.3474 428.54C17.0196 429.016 17.5448 429.397 18.0911 429.778C19.1205 430.564 20.381 431.219 22.5238 432.612C24.7717 433.945 28.112 435.969 34.6875 438.588L33.7631 437.6C34.7085 437.564 36.5782 438.1 39.1622 438.981C40.5278 439.35 42.0614 439.814 43.763 440.326C45.4857 440.826 47.4605 441.231 49.4983 441.755C51.5571 442.243 53.847 442.576 56.1578 443.005C58.5108 443.326 60.9687 443.6 63.4477 443.826C65.9267 443.933 68.5107 444.088 70.8846 444.088C73.2585 444.1 75.5904 444.076 77.8173 444.017L71.3888 443.695C81.1155 443.279 98.5943 445.362 108.363 445.517C110.485 445.624 105.002 445.684 102.019 445.767C127.607 446.493 105.338 445.017 124.392 444.85C127.901 445.255 119.855 445.874 132.691 445.957C139.077 446.279 169.917 444.648 187.417 445.422C183.551 445.112 179.728 444.803 188.593 444.564C202.165 444.457 225.295 445.743 237.563 444.755C239.286 444.838 239.937 444.922 240.021 445.005C250.399 444.755 273.739 444.588 280 444.053C289.58 446.029 344.516 443.088 344.285 444.91L376.175 444.803L375.335 444.993C395.734 445.112 402.961 444.672 410.124 444.243C414.83 444.362 411.406 444.541 411.007 444.636C440.817 445.005 443.779 444.922 468.779 444.017L471.384 444.612C478.149 444.267 514.493 445.541 543.715 444.85C543.421 444.922 542.833 445.029 540.501 445.112C573.4 444.422 619.261 446.743 631.319 444.6L653.021 444.076C624.933 443.91 657.201 443.148 645.647 442.791C656.697 442.66 674.197 443.433 660.626 443.552L658.504 443.445C653.525 444.564 693.398 443.838 692.642 444.6C747.915 444.541 801.78 445.16 853.544 445.207L847.577 444.338L865.644 444.386C870.392 444.588 872.01 445.064 859.132 445.029C862.514 445.279 867.913 445.172 872.514 444.981C874.762 444.91 877.052 444.707 878.648 444.564C880.266 444.41 881.295 444.291 881.379 444.243C884.678 444.017 886.989 443.862 888.522 443.767C890.035 443.6 890.812 443.541 891.022 443.564C891.442 443.588 889.699 444.053 887.304 444.386C882.493 445.172 875.119 445.434 879.279 445.338C880.224 445.303 881.169 445.291 882.094 445.219L884.888 444.957C886.758 444.779 888.627 444.648 890.434 444.326C889.594 444.398 888.774 444.529 887.913 444.553C892.283 443.779 894.615 443.291 897.682 442.457C899.236 442.064 901.001 441.66 903.207 440.969C904.32 440.636 905.602 440.314 906.988 439.85C908.354 439.374 909.888 438.85 911.631 438.243C920.119 434.897 916.505 436.886 919.656 435.397C919.677 435.421 919.971 435.314 920.686 434.945C921.4 434.576 922.619 433.993 924.194 432.909C929.761 429.564 934.257 425.647 937.408 421.385C936.652 422.206 935.665 422.956 934.824 423.742L933.501 424.897L931.988 425.98C933.333 424.683 934.299 423.218 935.349 421.98C936.316 420.718 936.925 419.552 937.408 418.778C937.912 418.004 937.997 417.551 937.786 417.682C937.639 417.813 936.946 418.48 935.686 419.849C936.148 419.349 936.694 418.718 937.261 417.992C937.744 417.242 938.228 416.373 938.753 415.409C939.362 414.456 939.635 413.373 940.034 412.218C940.202 411.635 940.475 411.039 940.559 410.42C940.643 409.801 940.727 409.158 940.812 408.503C941.022 407.17 941.043 405.872 941.064 404.527C941.085 403.182 941.106 401.789 941.127 400.372C941.148 397.551 941.169 394.622 941.169 391.717C941.169 380.11 941.001 368.93 941.337 366.252C940.454 358.251 940.475 350.346 940.58 340.56C940.328 342.989 938.963 344.453 939.131 336.013C941.946 339.096 940.349 320.56 942.387 313.738C941.043 319.833 942.051 289.737 940.139 299.309C940.37 292.261 941.19 298.88 941.862 293.535C940.77 276.772 942.576 256.593 942.198 235.866C941.82 235.544 941.274 239.009 940.707 234.568L942.555 223.627C942.366 219.532 940.412 219.865 941.715 212.377C941.4 213.436 940.938 215.008 940.812 212.27C942.618 171.673 939.341 129.326 942.723 88.0979C942.009 93.6815 941.946 89.9551 941.904 85.693C941.736 88.467 941.001 85.6336 940.496 86.1693L941.883 68.9067C940.496 65.7637 941.799 50.406 940.454 48.5964L940.685 54.0609C939.11 46.7868 937.198 64.2279 935.181 63.1684C936.967 71.3115 932.534 84.6335 935.097 97.9793C934.677 100.932 934.446 95.4673 933.984 97.0388C934.845 100.42 935.034 104.515 934.635 112.087L934.425 111.23C934.635 132.504 933.795 141.636 933.228 165.541L934.215 163.768C934.089 168.899 933.774 169.982 933.522 172.387C935.034 178.28 933.606 157.958 935.265 163.327C933.249 170.137 935.244 199.555 932.933 204.162C932.912 212.067 934.089 201.841 934.068 209.746L933.438 211.841L934.236 213.841C934.11 219.02 933.333 221.639 932.807 221.829C932.87 220.567 932.66 218.258 932.618 216.913C931.883 223.627 932.87 235.854 932.639 238.163L933.018 230.568C933.606 252.14 932.786 278.475 934.047 299.309L934.509 297.725C935.37 313.643 933.984 310.476 934.404 327.941L934.299 327.31C934.761 330.81 935.013 335.477 934.95 340.251C934.404 335.834 933.879 348.549 933.27 342.763C934.194 360.013 934.005 351.299 935.749 362.692L934.971 365.323C935.686 369.204 936.043 369.526 936.253 378.252C935.581 371.097 935.076 383.824 934.173 375.8C933.312 384.955 933.753 391.753 934.089 397.313C934.341 402.825 934.929 407.349 932.891 411.063C932.891 413.039 933.228 413.147 933.69 412.218C933.921 411.754 934.236 411.027 934.467 410.158C934.572 409.277 934.719 408.253 934.845 407.206C934.992 402.813 934.824 397.908 935.076 400.265C935.433 398.289 935.833 400.027 936.127 402.979C936.232 404.444 936.484 406.253 936.358 407.968C936.316 408.825 936.274 409.694 936.169 410.515C935.938 411.325 935.707 412.099 935.518 412.789C935.412 413.147 935.307 413.492 935.202 413.825C935.055 414.158 934.845 414.492 934.677 414.813C934.299 415.468 933.9 416.111 933.459 416.766C933.06 417.421 932.366 418.051 931.799 418.73C931.169 419.397 930.623 420.135 929.74 420.861C926.631 423.814 922.24 427.588 913.165 432.183C914.951 431.254 915.013 431.159 916.715 430.207C915.013 431.052 913.333 431.885 911.61 432.731C910.728 433.124 909.825 433.528 908.921 433.921L907.556 434.528L906.085 435.064C905.098 435.421 904.089 435.79 903.081 436.171C902.03 436.505 900.896 436.802 899.762 437.112C897.535 437.79 894.93 438.159 892.304 438.612C890.896 439.017 889.3 439.338 887.682 439.624C886.085 439.933 884.384 439.981 882.871 440.16C882.115 440.231 881.379 440.302 880.707 440.362C880.035 440.398 879.405 440.433 878.837 440.481C877.724 440.588 876.863 440.731 876.422 440.981C884.005 440.802 891.484 439.802 898.354 438.052C892.535 439.552 886.589 440.814 879.237 441.386C875.602 441.66 871.485 441.731 866.947 441.767C862.43 441.802 857.451 441.767 851.905 441.636C853.628 441.445 860.266 441.195 864.804 441.052C858.292 440.779 852.283 441.231 845.54 440.945C846.506 440.469 853.733 440.421 862.535 440.398C866.884 440.362 871.821 440.421 876.232 440.29C880.539 440.183 884.615 439.755 887.787 439.159C887.388 439.195 886.947 439.243 886.463 439.29C885.98 439.326 885.455 439.362 884.888 439.398C883.774 439.481 882.556 439.6 881.295 439.719C880.035 439.838 878.69 439.85 877.388 439.921C876.064 439.981 874.846 440.076 873.543 440.076C868.48 440.171 865.203 440.183 868.838 439.671C858.397 440.969 843.25 439.505 825.666 440.505L826.821 439.945C824.048 440.029 818.271 440.302 813.145 440.29L822.41 439.552C808.166 440.171 794.973 439.005 781.318 439.35C809.91 439.338 787.725 440.029 799.826 440.445C764.574 441.207 779.553 438.969 740.079 439.243C745.415 439.159 760.141 439.576 751.78 439.838C744.259 439.719 734.343 439.505 729.722 439.207C703.566 439.326 733.734 439.79 722.6 440.136C713.692 439.445 709.764 440.421 698.293 440.636L698.209 440.064C668.399 439.695 690.31 441.267 663.483 440.814L674.827 440.017L660.836 440.219L663.861 439.612C648.651 440.1 643.903 439.969 628.987 439.79C632.454 440.195 627.034 440.838 613.841 440.85C604.828 440.505 618.882 440.302 600.164 440.386C604.387 440.029 609.009 439.576 617.16 440.1C618 439.909 621.319 439.743 622.181 439.552C612.475 439.159 597.811 439.469 591.047 439.469C593.652 439.493 596.782 439.517 598.378 439.6L571.257 440.398C566.992 440.183 570.375 440.005 573.736 439.838C568.232 439.898 564.45 440.16 556.362 440.219C558.463 439.755 557.959 439.267 569.387 439.052L543.547 439.576C541.825 439.374 530.291 439.017 533.631 438.85C519.304 438.576 498.485 439.755 479.493 439.398C478.506 439.493 476.531 439.576 472.498 439.636C454.641 439.529 438.822 438.957 417.666 439.6L405.671 438.767C389.095 438.957 421.931 439.826 394.326 440.136C374.789 440.398 387.036 439.421 380.188 439.195C370.482 439.612 353.57 440.481 335.629 439.79C341.533 439.624 346.197 439.743 351.743 439.683ZM147.354 440.052C151.325 439.933 159.203 439.564 162.102 439.898C157.585 440.552 154.098 440.243 147.354 440.052ZM8.78445 330.953C9.12058 332.62 8.95251 335.203 8.57436 338.12C8.49033 336.001 8.51134 333.608 8.78445 330.953ZM323.382 1.82068C323.214 1.83258 323.088 1.84449 322.961 1.84449C314.117 1.61829 317.247 1.71354 323.382 1.82068ZM341.722 2.07068C343.571 1.98734 343.444 1.91593 342.667 1.83262C341.386 1.97547 337.268 1.98734 332.583 1.95163C333.865 2.09449 336.239 2.18973 341.722 2.07068ZM921.064 434.421L918.081 435.755C921.148 434.064 922.282 433.481 922.408 433.421C922.597 433.374 921.862 433.921 921.064 434.421Z" fill="white"/>
<path d="M10.1663 350.919C9.99826 351.55 9.80919 351.729 9.62012 351.883C9.78818 352.764 9.97726 352.776 10.1663 350.919Z" fill="white"/>
<path d="M478.84 439.374L479.47 439.386C479.806 439.35 479.995 439.315 480.1 439.279L478.84 439.374Z" fill="white"/>
<path d="M58.4222 7.57155C54.9559 7.94061 53.0021 8.13109 51.6786 8.23824C51.5526 8.38111 53.1702 8.22634 58.4222 7.57155Z" fill="white"/>
<path d="M438.922 1.092L427.179 1.24817C432.872 1.22414 434.889 1.34427 437.767 1.44037C437.494 1.29622 435.246 1.092 438.922 1.092Z" fill="white"/>
<path d="M540.916 4.64282C542.639 4.57075 544.55 4.6308 546.252 4.55873L545.79 4.29446C538.479 4.31848 533.353 4.53471 540.916 4.64282Z" fill="white"/>
<path d="M449.804 3.00026C450.728 3.48838 458.102 3.3217 466.337 3.22646C465.833 3.22646 465.371 3.22646 464.888 3.22646C467.303 2.54786 458.543 2.77406 449.804 3.00026Z" fill="white"/>
<path d="M468.249 3.21448C470.791 3.19056 473.375 3.17863 475.854 3.20254C476.82 2.9275 472.766 3.14273 468.249 3.21448Z" fill="white"/>
<path d="M364.975 1.75016C368.883 1.86921 367.433 1.13111 369.639 1.33349C374.009 0.714441 343.61 2.07159 364.975 1.75016Z" fill="white"/>
<path d="M456.463 4.59521L453.522 3.99996L448.9 4.47619L456.463 4.59521Z" fill="white"/>
<path d="M391.486 4.15326L404.637 4.32141C404.448 4.22534 406.107 4.16527 408.166 4.11723C400.057 4.09322 391.171 3.97312 391.486 4.15326Z" fill="white"/>
<path d="M408.146 4.11928C412.369 4.13124 416.382 4.1193 418.735 4.02362C416.466 4.02362 411.55 4.04752 408.146 4.11928Z" fill="white"/>
<path d="M438.482 4.77399L434.595 4.64274L425.31 4.60696L438.482 4.77399Z" fill="white"/>
<path d="M250.081 4.03188L235.732 4.20005C234.262 4.40423 238.19 4.53634 243.526 4.45226C246.972 4.30814 252.287 4.23606 250.081 4.03188Z" fill="white"/>
<path d="M293.504 5.66722C289.617 5.54817 289.365 5.4053 287.18 5.21481L286.739 5.95294L293.504 5.66722Z" fill="white"/>
<path d="M251.634 5.84571C250.205 6.0481 230.794 6.42906 248.987 6.39335C250.457 6.17905 264.827 6.01238 251.634 5.84571Z" fill="white"/>
<path d="M37.3521 10.0838C38.3815 9.73854 39.3688 9.33375 40.4613 9.03612L38.9697 8.09558C38.4025 8.76229 37.8773 9.44091 37.3521 10.0838Z" fill="white"/>
<path d="M12.289 111.719C12.7932 102.076 10.9655 109.433 11.6168 100.718C11.1126 98.4564 11.0916 107.838 10.6504 105.516C11.1966 111.338 10.8815 114.386 12.289 111.719Z" fill="white"/>
<path d="M10.6501 105.516C10.545 104.587 10.44 103.599 10.335 102.552C10.461 104.23 10.5661 105.028 10.6501 105.516Z" fill="white"/>
<path d="M943.054 57.395L943.517 51.1924L942.781 55.1925L943.054 57.395Z" fill="white"/>
<path d="M941.481 45.4896L942.847 44.0252L941.607 40.2989C941.671 41.7156 941.776 44.43 941.481 45.4896Z" fill="white"/>
<path d="M116.952 438.489L116.111 438.682C117.813 438.886 120.355 438.898 125.502 438.934L116.952 438.489Z" fill="white"/>
<path d="M265.312 439.077L262.749 439.053L267.518 439.755L265.312 439.077Z" fill="white"/>
<path d="M389.807 438.181C384.723 438.157 378.756 438.313 373.651 438.277C384.723 438.145 391.193 439.058 389.807 438.181Z" fill="white"/>
</svg>
