<svg width="741" height="179" viewBox="0 0 741 179" fill="none" xmlns="http://www.w3.org/2000/svg">
<g clip-path="url(#clip0)">
<g opacity="0.85">
<g opacity="0.85">
<g opacity="0.85">
<path opacity="0.85" d="M751.55 141.252C750.069 141.976 748.545 142.951 747.272 143.922C744.424 143.457 741.314 142.994 738.477 142.528C737.614 145.533 736.543 148.25 735.417 151.175C733.395 153.278 731.122 155.302 729.154 157.155C734.901 160.498 737.498 160.884 741.765 164.952C740.614 166.713 739.463 168.432 738.062 170.153C733.653 169.456 728.993 168.721 724.334 167.985C721.998 167.597 719.413 167.211 717.088 166.822C716.277 165.501 715.684 164.426 715.146 163.143C711.147 164.438 706.898 165.694 702.899 166.947C701.611 166.754 700.313 166.561 699.014 166.327C697.134 165.06 695.451 164.081 693.267 163.025C692.648 167.483 687.431 162.802 685.323 165.365C677.485 163.169 672.339 156.781 669.245 161.601C667.537 159.417 663.028 157.972 658.576 157.484C654.236 164.523 653.9 151.465 649.309 158.424C648.403 154.899 639.346 153.466 636.879 156.449C623.815 153.649 608.039 152.336 594.015 153C586.228 153.174 572.013 152.135 565.77 147.3C563.253 147.87 564.395 150.228 563.549 151.777C562.085 151.045 558.237 151.631 558.864 149.835C558.368 148.302 556.765 148.279 555.466 148.086C553.777 148.522 553.76 149.978 553.523 151.145C533.781 140.312 517.873 155.807 498.423 144.762C498.189 150.006 491.673 145.132 490.872 150.549C483.903 150.631 476.976 150.504 470.269 150.625C461.567 151.392 451.742 148.388 442.599 147.414C438.828 144.879 435.647 146.081 434.63 148.547C428.367 147.788 422.061 147.28 415.798 146.522C411.033 143.583 407.935 143.12 402.107 145.559C397.961 144.901 393.563 144.203 389.667 143.584C382.439 141.006 378.195 140.806 379.1 144.29C378.325 144.174 377.551 144.059 376.764 143.901C372.837 143.531 369.117 143.409 365.135 143.247C364.056 143.302 362.671 143.568 361.33 143.625C358.525 142.951 355.512 141.988 352.706 141.272C349.405 139.064 347.377 142.582 345.842 143.557C341.707 142.898 337.571 142.24 333.413 141.581C328.038 139.024 326.608 142.16 324.632 141.393C317.124 140.192 309.617 138.99 302.109 137.789C298.318 139.372 295.208 138.868 291.858 138.325C291.474 137.539 291.363 136.792 290.978 136.006C289.68 135.813 288.643 135.617 287.344 135.425C283.095 136.681 279.637 136.597 276.37 138.257C275.334 138.103 274.046 137.868 272.747 137.676C272.07 137.101 271.326 136.736 270.386 136.081C268.062 135.692 265.465 135.307 263.129 134.918C260.708 135.03 258.843 134.969 256.683 135.077C255.257 135.593 253.818 136.068 252.348 136.792C251.756 135.717 251.121 134.893 250.486 134.068C248.107 133.93 246.199 134.119 244.04 134.227C241.716 133.838 239.893 133.569 237.831 133.218C235.783 134.116 234.04 134.76 231.992 135.658C228.23 135.785 225.66 133.902 224.328 129.841C222.03 130.7 219.719 131.517 217.464 132.126C216.427 131.972 215.652 131.815 214.877 131.699C210.921 132.744 206.757 133.541 202.801 134.586C196.299 133.789 190.502 135.978 183.981 132.561C182.457 133.535 180.921 134.468 179.648 135.482C177.27 135.343 175.373 135.532 173.203 135.682C169.694 139.925 161.591 133.572 157.296 137.699C153.673 137.118 149.788 136.498 146.165 135.916C146.638 133.581 147.057 131.496 147.508 129.162C148.519 128.11 149.53 127.058 150.487 126.257C152.517 126.815 154.506 127.624 156.513 128.182C160.034 130.679 160.279 125.393 162.352 125.743C166.212 125.157 170.06 124.571 174.127 124.232C177.499 124.775 180.609 125.279 183.969 125.781C191.164 124.531 198.108 123.202 205.248 122.203C207.835 122.63 210.17 122.977 212.756 123.405C216.476 123.527 220.457 123.647 224.123 124.02C223.201 121.951 222.278 119.882 221.629 117.851C224.608 114.946 231.905 118.521 230.227 112.218C241.985 112.163 256.259 118.319 264.355 108.531C269.442 103.064 272.594 103.318 275.802 103.364C276.602 104.686 277.664 106.046 278.78 107.197C279.606 109.725 280.669 111.127 281.48 112.449C284.604 114.159 285.553 110.695 287.351 109.801C288.892 107.412 290.706 105.019 292.509 102.669C303.571 103.454 314.317 104.451 325.337 105.487C330.432 109.42 332.708 104.735 335.835 103.783C337.384 104.014 339.196 104.326 340.745 104.557C343.288 105.193 345.789 106.079 348.07 106.676C354.689 109.676 353.704 105.154 355.997 105.792C356.857 105.45 357.729 105.107 358.808 105.052C367.125 110.238 368.338 104.15 371.474 105.86C372.884 106.801 374.305 107.741 375.934 108.97C376.891 108.168 377.805 107.575 378.72 107.023C379.768 107.177 380.542 107.293 381.317 107.45C389.497 110.682 385.997 104.109 390.779 105.592C391.762 105.997 392.964 106.69 394.177 107.341C396.432 106.732 398.634 106.374 400.859 106.015C401.494 106.839 403.619 109.601 404.652 112.418C405.176 112.495 405.438 112.534 405.951 112.611C410.978 108.85 422.126 109.176 428.292 110.394C432.858 108.967 440.861 111.66 446.942 113.378C451.664 109.787 457.637 111.963 462.168 113.407C466.303 114.066 470.45 114.724 474.597 115.383C478.744 116.041 482.879 116.7 487.038 117.358C489.009 112.843 492.837 116.375 494.127 113.906C496.784 112.627 504.554 113.867 506.32 117.049C507.094 117.165 507.88 117.28 508.917 117.476C514.415 114.042 514.77 116.243 521.165 113.672C530.954 115.47 540.962 117.558 550.708 119.565C552.878 119.414 551.571 116.56 553.756 117.657C559.096 116.347 555.863 121.834 560.577 122.361C564.183 117.66 570.121 122.665 572.824 118.515C578.953 125.265 588.107 119.5 596.201 123.191C609.311 123.12 622.715 122.838 636.075 122.806C641.649 122.99 649.194 125.356 654.07 129.043C655.106 129.197 656.405 129.431 657.692 129.624C660.498 130.298 663.511 131.261 666.262 132.186C666.846 130.598 667.65 129.299 668.191 127.92C678.492 129.796 689.013 131.96 699.076 133.797C708.403 131.192 714.37 134.783 724.353 135.664C726.389 134.767 727.899 132.627 730.223 132.974C731.772 133.206 733.595 133.517 735.144 133.749C743.071 132.824 747.993 133.64 752.689 135.581C756.05 136.124 759.411 136.667 762.52 137.13C764.406 143.763 756.734 142.064 751.55 141.252Z" fill="#E1F5F1"/>
</g>
<g opacity="0.85">
<path opacity="0.85" d="M730.212 133.016C727.888 132.669 726.378 134.809 724.342 135.706C714.359 134.825 708.393 131.234 699.065 133.839C689.002 132.002 678.481 129.838 668.18 127.962C667.639 129.341 666.835 130.64 666.251 132.228C663.5 131.303 660.487 130.34 657.681 129.666C656.394 129.473 655.095 129.239 654.059 129.085C649.183 125.398 641.639 123.032 636.065 122.848C622.704 122.88 609.289 123.162 596.19 123.233C588.096 119.542 578.942 125.307 572.813 118.557C570.11 122.707 564.172 117.66 560.566 122.403C555.852 121.876 559.085 116.389 553.745 117.699C551.561 116.643 552.856 119.498 550.697 119.607C540.951 117.558 530.943 115.512 521.154 113.714C514.76 116.326 514.404 114.084 508.906 117.518C507.87 117.364 507.095 117.248 506.309 117.091C504.543 113.909 496.773 112.669 494.116 113.948C492.825 116.376 488.998 112.885 487.027 117.4C482.88 116.742 478.733 116.083 474.586 115.425C470.451 114.766 466.304 114.108 462.157 113.449C457.637 112.005 451.654 109.87 446.931 113.42C440.85 111.744 432.847 109.009 428.281 110.436C422.115 109.218 410.967 108.892 405.94 112.653C405.427 112.576 405.165 112.537 404.641 112.46C403.608 109.644 401.472 106.882 400.848 106.057C398.635 106.416 396.422 106.816 394.166 107.383C392.953 106.732 391.762 106.039 390.768 105.634C385.986 104.151 389.486 110.724 381.306 107.492C380.532 107.377 379.757 107.261 378.709 107.065C378.581 107.774 378.441 108.483 378.247 109.4C377.473 109.285 376.697 109.127 375.923 109.012C374.294 107.783 372.873 106.843 371.463 105.902C368.339 104.192 367.125 110.279 358.797 105.094C358.137 103.064 357.727 101.072 357.317 99.0801C358.371 97.8199 359.479 96.3094 360.795 95.0876C368.992 96.8633 369.923 94.8557 374.711 94.8827C377.402 97.4718 380.791 96.5585 383.281 97.4444C385.835 98.08 388.074 98.9273 390.563 99.8132C405.878 96.7218 414.143 99.495 426.607 98.5584C433.433 101.806 435.772 99.5324 439.691 97.2818C430.974 92.7668 431.215 96.8821 427.08 96.2235C425.963 95.0718 425.163 93.7501 424.101 92.3899C413.255 94.5138 402.142 91.3164 394.321 87.6644C390.943 88.5776 387.773 89.7379 384.646 90.6897C381.658 90.9327 378.408 91.1372 375.378 91.6304C372.894 89.2885 370.422 86.988 367.939 84.6461C359.343 80.8784 354.935 80.1814 351.286 78.3939C347.951 79.057 344.867 79.8003 341.782 80.5021C336.957 79.2692 332.132 77.9947 327.003 76.9317C327.518 74.3467 328.066 71.5532 328.582 69.0098C330.667 69.3597 332.728 69.6683 334.802 70.0183C343.582 76.9452 344.853 71.8555 349.818 72.4212C350.41 73.4957 351.057 74.3201 351.942 75.1832C354.406 74.8632 357.143 74.5815 359.661 74.0112C364.511 76.4917 369.153 78.6419 373.753 81.0837C378.151 75.0422 382.323 76.9067 384.702 77.0452C386.712 81.7221 392.215 76.7906 396.331 77.6991C397.897 76.516 401.879 76.6773 404.274 75.3597C406.086 75.6296 407.635 75.9026 409.447 76.1725C409.708 76.2111 410.221 76.2882 410.483 76.3268C410.247 77.4943 410.01 78.6617 409.785 79.8291C412.59 80.5033 415.604 81.4663 418.355 82.3908C422.189 80.5987 424.25 80.9073 427.623 81.4501C428.859 79.231 430.064 77.2618 431.3 75.0426C432.849 75.274 434.661 75.5855 436.21 75.817C437.369 76.7185 438.517 77.6202 439.633 78.7718C442.291 77.4927 445.156 76.5024 448.022 75.5536C448.754 75.9194 449.431 76.4938 450.163 76.8596C451.462 77.0523 452.75 77.2868 454.06 77.4794C454.623 79.9686 455.449 82.538 456.329 84.8155C460.861 79.5211 469.148 86.121 474.797 81.9782C481.789 85.7647 483.751 85.3257 485.702 84.9285C486.599 85.7915 487.234 86.616 487.827 87.6906C486.773 88.9508 485.719 90.2527 484.36 91.7245C484.733 92.5105 485.118 93.2963 485.229 94.0438C488.089 94.5094 491.198 94.9721 494.035 95.438C489.549 97.8616 486.16 98.7749 484.993 95.2113C482.834 95.3614 480.706 95.2616 478.547 95.3701C464.975 97.7756 450.493 91.3731 440.968 97.558C446.3 100.324 448.911 101.957 450.629 100.065C471.42 104.355 498.011 100.882 520.465 110.228C522.86 108.91 525.213 107.843 527.609 106.567C539.915 107.795 553.902 112.664 564.016 110.216C563.56 111.095 564.207 111.919 564.885 112.535C570.191 114.095 571.447 107.799 574.991 107.425C577.187 108.481 579.633 109.617 582.08 110.711C583.671 117.473 590.06 109.578 594.483 111.481C598.447 113.057 602.705 114.463 606.451 115.791C612.287 116.014 623.434 116.341 626.861 109.895C627.983 109.59 628.855 109.247 629.684 109.154C637.636 109.477 645.807 110.047 653.705 110.578C653.19 113.163 652.631 115.957 652.126 118.5C653.835 120.685 657.934 120.137 660.685 121.062C661.983 121.255 663.021 121.45 664.319 121.643C665.014 120.803 665.678 120.171 666.079 119.501C670.215 120.16 674.362 120.818 678.497 121.477C680.904 120.159 680.152 117.173 683.237 116.471C685.059 116.741 686.598 117.014 688.42 117.284C689.508 119.85 690.912 122.246 692 124.854C692.911 126.923 696.007 126.221 697.973 127.03C700.177 124.009 705.526 125.319 708.933 122.992C711.519 123.419 713.854 123.766 716.44 124.193C717.374 126.262 720.448 125.56 722.467 126.119C725.862 130.53 728.684 129.748 729.04 131.99C729.315 132.153 729.731 132.731 730.212 133.016Z" fill="#D5F2EC"/>
</g>
<g opacity="0.85">
<path opacity="0.85" d="M708.988 122.907C705.582 125.235 700.233 123.925 698.029 126.946C696.052 126.137 692.967 126.839 692.056 124.77C690.968 122.204 689.564 119.807 688.476 117.2C695.332 119.033 702.176 120.866 708.988 122.907Z" fill="#E1F5F1"/>
</g>
<g opacity="0.85">
<path opacity="0.85" d="M666.135 119.459C665.733 120.129 665.07 120.719 664.375 121.601C663.088 121.408 662.039 121.212 660.741 121.019C657.989 120.095 653.879 120.642 652.182 118.457C652.686 115.873 653.245 113.079 653.761 110.536C658.335 111.73 662.69 112.677 667.253 113.913C672.687 114.764 678.132 115.657 683.305 116.47C680.22 117.172 680.972 120.2 678.565 121.476C674.417 120.776 670.27 120.117 666.135 119.459Z" fill="#E1F5F1"/>
</g>
<g opacity="0.85">
<path opacity="0.85" d="M631.362 87.4204C627.24 94.7067 619.909 87.2636 615.298 91.6022C614.193 90.4505 613.131 89.0902 612.068 87.73C612.337 86.3541 612.669 84.6863 612.949 83.3103C615.869 82.1114 618.734 81.121 621.348 80.0504C624.954 82.088 628.297 84.0454 631.587 86.2531C631.544 86.5032 631.459 86.9617 631.362 87.4204Z" fill="#E1F5F1"/>
</g>
<g opacity="0.85">
<path opacity="0.85" d="M560.544 63.3768C559.69 62.3053 558.542 61.3621 557.395 60.4604C557.62 59.293 557.814 58.3756 558.039 57.2083C560.913 52.1413 565.014 55.6705 568.58 55.2959C567.856 57.5922 568.543 60.8288 566.19 61.8963C564.239 62.2936 562.55 62.7294 560.544 63.3768Z" fill="#E1F5F1"/>
</g>
<g opacity="0.85">
<path opacity="0.85" d="M570.041 86.8087C568.204 85.2912 566.367 83.8153 564.487 82.5478C561.351 80.8375 559.506 83.4382 556.549 83.4313C554.25 84.2486 551.952 85.1075 549.642 85.9249C549.1 87.2624 548.309 88.6028 547.725 90.1903C545.224 89.3045 542.723 88.4187 540.442 87.8215C539.781 85.791 539.372 83.7992 538.962 81.8073C528.694 77.0193 525.906 81.6693 520.967 82.3096C520.192 82.1939 519.418 82.0782 518.381 81.8824C514.812 81.0507 511.263 80.0108 507.433 79.1822C505.829 79.1594 503.921 79.3482 502.329 79.3253C499.646 79.3983 497.213 79.4685 494.584 79.2913C493.821 79.1755 493.035 79.0599 492.26 78.9026C489.674 78.4754 487.077 78.0899 484.752 77.7012C483.716 77.547 482.953 77.4311 482.166 77.274C479.221 77.3085 476.331 77.0928 473.385 77.0858C472.349 76.9316 471.563 76.816 470.799 76.6586C466 76.6317 461.451 76.6018 456.61 76.825C455.792 76.9178 454.921 77.2608 454.104 77.3952C452.805 77.2024 451.517 76.968 450.207 76.7753C449.475 76.4096 448.798 75.8352 448.066 75.4694C442.953 72.9503 436.499 70.4886 436.254 75.7327C434.693 75.5015 432.893 75.1898 431.344 74.9584C429.051 74.3613 426.562 73.4754 424.061 72.5896C419.698 75.7606 414.471 75.1563 410.526 76.2009C410.265 76.1624 409.752 76.0852 409.49 76.0467C407.678 75.7352 406.129 75.5038 404.318 75.2338C402.438 73.9664 400.59 72.449 398.753 70.973C396.417 70.5845 393.831 70.1988 391.496 69.8103C389.249 73.0812 382.498 73.4516 383.988 68.6088C379.24 70.994 376.116 69.2835 373.658 68.1477C372.054 68.1249 370.146 68.3136 368.5 68.5409C366.113 72.4791 362.299 70.1944 360.111 71.7591C356.739 71.2163 353.629 70.7536 350.269 70.2107C348.901 69.0204 347.23 68.0417 345.808 67.0601C343.475 70.7896 337.768 69.8998 337.839 68.1935C336.916 66.1244 336.506 64.1326 338.301 65.8586C332.867 65.0072 329.329 63.9672 329.033 66.7993C325.259 66.9268 321.508 67.054 317.484 67.1428C315.202 66.5456 312.702 65.6598 310.158 65.0241C309.976 65.9829 309.751 67.1087 309.514 68.2762C307.179 67.9292 304.604 67.5018 302.269 67.1133C298.481 66.0346 294.889 65.2032 291.113 64.1244C290.887 65.2917 290.651 66.4592 290.426 67.6266C286.017 66.9296 281.358 66.1939 276.96 65.4967C274.049 69.3578 270.193 67.3232 267.51 67.3547C265.898 64.6698 265.559 61.0132 258.94 64.793C256.508 64.9047 253.879 64.686 251.458 64.7976C246.286 63.9847 241.364 63.1689 236.442 62.3947C234.249 65.4154 228.9 64.0639 225.494 66.4333C222.261 65.1817 219.04 63.93 215.85 62.4699C204.537 61.6459 198.143 64.2167 187.314 64.9261C182.421 62.6957 179.075 63.3589 180.226 61.6399C183.997 57.4359 188.528 58.8803 190.124 56.2409C193.057 56.2065 196.264 56.2521 199.155 56.4678C201.115 51.9523 210.2 58.7092 210.34 51.2617C212.786 52.3561 215.244 53.492 217.386 54.798C227.996 53.8416 242.211 54.9227 253.917 52.456C256.668 53.3804 259.474 54.0547 262.225 54.9791C263.871 54.7518 266.178 56.555 267.383 54.5858C271.285 53.7497 280.328 54.018 283.235 59.5163C284.01 59.632 284.784 59.7477 285.559 59.905C290.96 56.9299 293.583 58.5214 295.246 56.8796C294.646 53.1845 299.69 54.706 302.153 54.3859C306.537 53.8769 304.899 56.7247 308.781 60.007C313.173 55.4214 319.45 57.386 321.447 54.0764C334.587 60.4946 347.724 54.8912 361.782 58.0957C362.582 59.4174 363.644 60.7776 364.524 63.0968C366.78 62.4879 369.09 61.6705 371.388 60.8116C373.186 59.917 375.222 59.0195 376.965 58.3335C387.127 67.6569 391.959 50.1294 399.736 60.7702C401.382 60.5429 403.438 62.3075 404.883 60.3771C404.117 56.1431 407.611 57.4332 410.46 57.899C410.138 59.5251 409.013 62.4917 412.165 62.7458C416.754 65.1878 420.302 59.4474 423.114 58.7073C426.737 59.2887 430.622 59.9087 434.244 60.4902C444.295 62.3273 454.042 64.376 463.788 66.3832C465.391 66.4059 466.855 67.0959 467.909 65.8356C467.143 61.6433 470.669 62.6835 473.517 63.1076C472.768 64.1979 473.719 64.8107 474.354 65.6352C478.945 65.415 480.663 63.523 485.958 65.0831C485.356 68.1268 488.692 67.4637 488.657 70.3343C503.753 66.9542 519.509 72.385 536.093 70.9009C526.592 63.6081 511.839 61.2438 502.902 63.2205C498.475 63.938 500.734 60.7085 497.1 60.1272C487.425 63.1525 475.517 57.1774 465.378 58.461C456.261 58.6928 441.843 55.9085 434.729 58.155C432.533 57.0993 430.086 55.9633 427.64 54.8688C427.316 52.4184 427.003 49.9679 426.647 47.7258C430.201 47.3513 433.44 47.1469 436.951 46.981C438.826 42.9656 444.738 46.7648 448.501 46.6791C452.648 47.3376 456.783 47.9962 460.942 48.6546C463.325 47.3371 465.402 45.0249 468.085 44.9934C472.038 46.5693 476.045 47.9366 480.053 49.3039C493.291 48.5247 507.264 52.1877 520.571 52.4059C530.413 53.9544 535.822 53.6413 540.969 53.2482C546.622 54.3882 552.233 55.7782 558.083 57.1655C557.858 58.3329 557.664 59.2503 557.439 60.4176C555.129 61.2767 552.819 62.0941 550.521 62.953C548.159 68.0972 555.701 66.428 558.672 67.6411C558.934 67.6796 559.447 67.7568 559.709 67.7953C566.755 71.3316 569.341 71.7172 571.676 72.1058C574.22 72.7415 576.709 73.6274 578.99 74.2246C579.127 76.1781 579.024 78.0927 579.172 80.0461C578.711 82.3809 578.249 84.7158 577.83 86.8006C575.102 86.8742 572.723 86.7357 570.041 86.8087Z" fill="#BEEBE2"/>
</g>
<g opacity="0.85">
<path opacity="0.85" d="M468.029 45.0364C465.347 45.1094 463.282 47.4215 460.886 48.6975C456.739 48.039 452.604 47.3804 448.445 46.722C450.04 44.0827 451.331 41.6549 452.621 39.1855C457.378 39.4625 461.817 39.9096 466.574 40.1866C467.081 41.7613 467.534 43.5031 468.029 45.0364Z" fill="#E1F5F1"/>
</g>
<g opacity="0.85">
<path opacity="0.85" d="M272.758 137.676C263.447 138.825 258.787 144.828 251.704 140.086C249.338 139.948 246.655 140.021 243.972 140.052C237.492 143.123 227.127 138.794 218.888 137.268C214.854 148.172 202.938 139.535 197.216 144.178C190.691 143.381 187.339 138.761 180.302 137.887C174.221 142.95 165.443 140.1 164.377 148.099C161.266 147.595 158.419 147.17 155.807 145.537C151.817 149.494 146.388 147.187 141.381 146.83C139.028 147.897 136.633 149.215 134.291 150.282C123.36 146.126 117.968 151.763 107.479 149.39C103.603 151.433 96.636 148.852 96.0576 155.764C88.3423 154.315 84.1354 155.321 77.6013 158.601C81.1867 164.715 89.9959 163.447 89.3205 170.818C82.8573 179.172 71.9898 163.95 69.3405 174.63C66.8399 173.744 62.1634 174.464 62.0579 172.261C55.3423 169.761 54.0297 161.581 46.941 158.295C44.5259 156.951 40.0599 155.256 41.8375 151.7C43.2932 149.769 45.0419 147.627 46.8026 145.527C48.9188 145.626 51.0889 145.476 53.2051 145.576C55.0849 146.844 56.9329 148.319 58.7588 149.837C61.2084 148.311 65.3184 147.764 66.0958 145.217C70.7808 147.159 72.0685 147.393 76.5828 143.513C79.1181 141.528 81.6642 139.502 84.145 137.726C90.2856 137.737 96.1216 137.96 102.219 138.179C108.055 138.402 113.891 138.583 119.989 138.844C123.492 136.016 130.128 137.561 134.822 135.426C135.816 135.83 137.018 136.523 138.262 136.924C140.988 136.643 143.452 136.323 146.189 136C149.812 136.581 153.696 137.201 157.319 137.782C161.615 133.656 169.706 140.008 173.227 135.766C175.397 135.615 177.294 135.427 179.672 135.565C180.945 134.552 182.469 133.619 184.004 132.644C190.515 136.104 196.311 133.872 202.824 134.67C206.781 133.625 210.944 132.827 214.901 131.783C215.664 131.898 216.45 132.014 217.487 132.21C219.743 131.601 222.053 130.783 224.351 129.925C225.684 133.985 228.252 135.827 232.015 135.741C234.063 134.844 235.806 134.158 237.854 133.302C239.928 133.652 241.739 133.922 244.063 134.311C246.222 134.16 248.131 134.013 250.509 134.152C251.144 134.976 251.779 135.801 252.372 136.875C253.853 136.151 255.291 135.635 256.707 135.161C258.877 135.01 260.731 135.072 263.152 135.002C265.488 135.39 268.085 135.776 270.409 136.165C271.337 136.736 272.069 137.102 272.758 137.676Z" fill="#ECF9F7"/>
</g>
<g opacity="0.85">
<path opacity="0.85" d="M175.61 71.3867C175.568 71.6368 175.471 72.0955 175.385 72.5541C173.781 72.5313 171.885 72.7199 170.281 72.6971C167.421 72.2315 164.322 71.7271 161.475 71.3029C159.402 70.9945 157.339 70.6443 155.266 70.2942C153.818 74.8869 147.869 69.8403 143.437 72.0137C143.212 73.1811 143.018 74.0985 142.782 75.266C142.391 75.9361 141.716 76.5264 141.021 77.4081C141.118 76.9494 141.215 76.4907 141.246 76.2407C138.646 74.6073 136.023 73.0158 133.358 71.6328C131.284 71.3243 129.222 70.9742 127.149 70.6241C124.369 71.1559 124.488 74.5238 122.372 74.4239C121.335 74.2696 120.036 74.0353 118.749 73.8424C118.33 75.9272 117.868 78.262 117.407 80.5969C114.968 82.123 113.763 84.0922 111.83 83.0749C101.986 81.4849 108.241 86.3616 106.603 89.2094C106.89 90.454 107.221 91.49 107.246 92.6961C117.881 92.9457 125.825 90.6062 132.16 89.7C133.361 90.3514 134.563 91.0445 135.808 91.4874C138.186 91.6259 140.869 91.5529 143.541 91.5215C144.521 90.7197 145.52 89.668 146.531 88.6162C150.416 89.2362 154.039 89.8177 157.662 90.3991C161.572 92.2251 165.483 94.0511 169.436 95.627C168.077 97.0989 166.51 98.282 164.89 99.7153C162.705 98.6594 161.073 100.051 158.251 100.833C148.484 102.861 140.222 97.4672 134.873 102.896C124.927 96.4819 113.907 108.966 104.843 98.1319C101.393 100.71 97.9439 103.288 94.4946 105.866C95.5028 107.476 96.2603 109.048 97.2369 110.867C96.8178 112.951 96.3676 115.286 95.7013 118.58C100.178 120.233 104.436 121.639 108.956 123.083C103.843 127.303 100.5 125.346 98.0075 127.122C96.9709 126.968 96.1963 126.852 95.4098 126.695C92.1856 128.105 88.7108 129.477 85.4865 130.888C85.2245 130.849 84.7119 130.772 84.4499 130.734C80.7046 129.405 77.2212 128.115 73.5189 126.577C73.2683 126.539 72.7443 126.462 72.4824 126.423C69.346 131.452 65.4357 129.626 61.4653 129.464C58.0505 129.171 54.8546 129.126 51.4398 128.833C50.8303 129.215 50.2207 129.596 49.9162 129.808C50.3148 131.8 50.7134 133.792 51.3854 135.822C51.9604 138.311 56.8194 136.673 55.6088 140.099C55.4148 141.016 55.1897 142.183 54.9646 143.351C54.3012 143.982 53.6486 144.572 53.2045 145.493C51.0883 145.393 48.9182 145.543 46.8019 145.443C43.4156 143.694 45.4807 141.382 45.3327 139.429C44.3988 137.36 41.3254 138.061 39.3062 137.503C31.2325 129.736 29.6454 134.996 22.1802 133.544C19.8479 130.535 17.5468 127.276 15.2145 124.266C17.1402 122.663 19.0654 121.018 21.2417 119.454C21.6607 117.369 22.1223 115.034 22.5838 112.699C24.6575 113.049 26.7193 113.358 28.7929 113.708C30.0835 111.28 31.3736 108.811 32.6642 106.383C35.458 107.057 38.4713 108.02 41.234 108.945C42.1056 108.602 42.9657 108.259 44.0454 108.204C44.7888 108.57 45.4664 109.145 46.1445 109.761C51.6046 111.86 53.3392 108.511 56.5295 103.233C59.0387 100 62.67 103.244 65.9543 100.169C66.2764 98.5427 66.5554 97.1251 66.8344 95.7076C67.1423 92.8753 67.1338 90.2132 67.376 87.5898C65.5648 87.3199 64.0151 87.0468 62.2039 86.7769C61.4464 85.2051 60.4698 83.3863 59.4617 81.7758C57.9721 79.8383 54.0758 79.2184 50.644 80.3818C50.3934 80.3431 49.8694 80.2661 49.6188 80.2274C49.0183 76.5323 48.3747 73.0457 47.7197 69.5593C45.1335 69.132 48.7342 65.8868 46.5011 63.5836C43.3909 63.0793 40.554 62.6134 37.7062 62.1892C39.3269 60.7559 40.8936 59.5728 42.2636 58.1009C43.5683 56.8792 44.6877 55.3686 45.73 54.0669C43.4232 52.2637 41.421 50.2489 39.1029 48.4458C42.5806 44.4117 46.8816 45.6092 49.2513 43.0855C52.7886 44.1256 56.6309 44.9956 60.1568 46.0358C59.6521 48.5791 59.1367 51.1642 58.5895 53.9576C60.6518 54.3078 62.725 54.6163 64.7986 54.9663C69.9826 49.0403 76.0092 50.9662 81.9677 51.9363C80.8285 53.6967 79.7204 55.2072 78.5155 57.1764C87.9143 59.6452 89.6489 56.2971 95.866 59.9263C104.055 59.0815 101.503 55.7836 106.026 54.5658C94.4229 48.3792 90.3379 56.8713 84.779 51.1961C85.6421 48.191 86.7676 45.266 87.8927 42.2994C89.3194 41.7835 90.496 41.2706 91.9341 40.7545C99.1288 39.5054 106.018 38.4263 113.213 37.1771C120.906 34.799 130.208 37.7265 139.188 35.5413C141.402 35.1826 143.614 34.7822 145.87 34.215C154.247 37.7357 157.653 35.3663 161.304 34.4915C162.079 34.6072 162.854 34.7229 163.64 34.8801C163.232 36.9647 162.759 39.2997 162.287 41.6347C154.44 43.5154 151.432 47.8352 147.034 47.138C145.485 46.9066 143.662 46.5952 142.113 46.3638C140.675 46.8799 139.509 47.3927 138.028 48.1172C136.04 47.3086 134.064 46.5415 132.044 45.9412C127.316 44.208 126.669 50.1224 123.42 50.3685C119.894 49.3283 116.052 48.4582 112.526 47.4181C108.171 46.4708 110.39 51.4365 107.287 53.5527C109.373 53.9026 111.434 54.2112 113.508 54.5613C117.541 57.1346 119.598 52.1604 122.97 52.7032C124.85 53.9706 126.686 55.4466 128.535 56.964C133.977 60.4775 132.568 52.7986 136.923 53.7458C146.41 59.8325 146.051 53.5139 150.876 54.7468C156.344 59.4664 157.695 55.374 160.494 57.5042C160.605 58.2516 160.99 59.0375 161.363 59.8235C163.243 61.0909 165.176 62.1081 167.11 63.1254C170.482 63.6682 173.592 64.1725 176.953 64.7154C176.351 67.6758 175.975 69.5105 175.61 71.3867Z" fill="#BEEBE2"/>
</g>
<g opacity="0.85">
<path opacity="0.85" d="M65.9773 100.168C62.693 103.243 59.0622 100.041 56.5524 103.232C53.4053 101.522 50.2809 99.8114 47.1026 98.3512C48.5582 96.4206 49.6548 94.9103 50.8054 93.1497C52.3835 91.9665 56.3109 92.3364 55.3628 89.0613C57.6185 88.4525 59.9173 87.6352 62.2269 86.7761C64.0386 87.0877 65.5878 87.3191 67.399 87.589C67.1455 90.2126 67.1535 92.8331 66.8574 95.7068C66.5784 97.1244 66.2989 98.5004 65.9773 100.168Z" fill="#E1F5F1"/>
</g>
<g opacity="0.85">
<path opacity="0.85" d="M46.1685 109.76C45.4908 109.185 44.8013 108.57 44.0693 108.204C42.9897 108.258 42.1295 108.601 41.2579 108.944C38.4953 108.02 35.482 107.057 32.6881 106.382C31.3975 108.81 30.1074 111.279 28.8169 113.707C26.7432 113.357 24.67 113.049 22.6077 112.698C22.1348 115.033 21.6732 117.368 21.2656 119.453C19.0779 121.018 17.1528 122.663 15.2385 124.266C10.7531 119.951 8.29833 116.194 8.89092 110.488C3.71038 107.013 3.44839 106.975 2.2638 104.867C2.63978 102.991 3.01576 101.115 3.60547 98.0712C3.71947 96.1564 3.58332 94.2445 3.43533 92.2912C2.77472 90.2607 1.84075 88.1918 0.929527 86.1226C2.75823 84.978 4.90284 83.6218 6.73155 82.4772C5.58951 80.1196 4.25127 77.5147 3.16364 74.9484C4.20589 73.6467 5.32578 72.1776 6.63001 70.9144C10.1588 69.2923 13.9812 67.5004 17.8037 65.7085C21.5519 64.375 25.0267 63.0031 28.775 61.6696C28.6525 60.9223 28.268 60.1365 28.1569 59.3891C29.4044 57.1698 30.5867 55.2008 31.8342 52.9816C34.2839 51.4553 36.7216 49.8876 39.1599 48.3615C41.4781 50.1646 43.4803 52.1794 45.787 53.9826C44.7329 55.2429 43.6249 56.7534 42.3207 58.0166C40.9506 59.4886 39.3839 60.6716 37.7633 62.105C40.6116 62.5707 43.4593 62.9949 46.5582 63.4993C48.7794 65.7611 45.1792 69.0479 47.7768 69.475C48.4317 72.9614 49.0748 76.4065 49.6759 80.1431C45.372 81.6079 41.2762 83.3615 36.9298 85.0763C34.7767 83.7705 32.3304 82.6761 30.1456 81.5786C28.3311 83.9293 26.5279 86.2799 24.6708 88.8807C25.4653 91.6584 26.2483 94.4362 27.0201 97.2142C29.3302 96.3967 31.3239 95.7494 33.8955 94.9289C38.2505 95.8761 42.8129 97.0705 47.1248 98.2262C50.3031 99.6864 53.4389 101.397 56.5747 103.107C53.3745 108.511 51.628 111.817 46.1685 109.76Z" fill="#CAEEE7"/>
</g>
<g opacity="0.85">
<path opacity="0.85" d="M34.7533 90.5927C31.381 90.0499 28.0202 89.507 24.6479 88.9642C24.4943 88.4668 24.0554 87.8896 23.5972 87.6038C25.8591 85.5806 27.8386 83.7271 30.1228 81.6621C32.3075 82.7596 34.7538 83.854 36.9069 85.1598C36.2689 86.9976 35.4229 88.5466 34.7533 90.5927Z" fill="#E1F5F1"/>
</g>
<g opacity="0.85">
<path opacity="0.85" d="M749.553 151.3C746.189 153.419 742.857 151.42 735.417 151.216C736.543 148.291 737.602 145.533 738.477 142.57C741.325 143.036 744.424 143.498 747.272 143.964C747.907 144.789 748.542 145.613 749.146 146.688C750.014 148.965 749.789 150.133 749.553 151.3Z" fill="#ECF9F7"/>
</g>
<g opacity="0.85">
<path opacity="0.85" d="M722.523 126.034C724.936 123.302 727.809 124.974 730.45 125.151C730.031 127.236 729.569 129.571 729.096 131.906C728.74 129.664 725.929 130.404 722.523 126.034Z" fill="#ECF9F7"/>
</g>
<g opacity="0.85">
<path opacity="0.85" d="M717.088 166.822C711.503 166.679 705.658 170.533 702.888 166.988C706.886 165.694 711.136 164.479 715.135 163.184C715.684 164.426 716.276 165.459 717.088 166.822Z" fill="#ECF9F7"/>
</g>
<g opacity="0.85">
<path opacity="0.85" d="M696.023 169.233C693.809 169.591 691.596 169.95 689.352 170.559C687.985 169.368 686.302 168.39 684.892 167.45C675.738 166.476 666.365 165.213 657.211 164.239C648.615 167.21 636.22 162.322 625.682 161.614C617.545 164.912 604.874 158.779 595.247 160.14C563.758 159.927 528.891 153.889 496.638 153.56C496.219 155.645 493.084 153.976 490.848 150.467C491.649 145.05 498.165 149.923 498.399 144.679C517.86 155.765 533.769 140.271 553.511 151.104C553.747 149.937 553.765 148.481 555.454 148.045C556.752 148.238 558.356 148.26 558.851 149.794C558.225 151.631 562.073 151.045 563.536 151.735C564.382 150.186 563.229 147.829 565.758 147.258C572.012 152.093 586.216 153.175 594.003 152.959C608.027 152.295 623.803 153.607 636.867 156.407C639.334 153.425 648.391 154.858 649.296 158.383C653.888 151.424 654.223 164.482 658.564 157.442C663.016 157.931 667.536 159.375 669.233 161.56C672.327 156.782 677.473 163.127 685.311 165.323C687.418 162.761 692.636 167.442 693.254 162.984C695.439 164.04 697.122 165.06 699.001 166.286C698.002 167.379 697.034 168.181 696.023 169.233Z" fill="#ECF9F7"/>
</g>
<g opacity="0.85">
<path opacity="0.85" d="M663.148 147.863C666.64 145.035 668.201 145.308 670.012 145.578C674.603 152.096 664.114 149.723 663.148 147.863Z" fill="#ECF9F7"/>
</g>
<g opacity="0.85">
<path opacity="0.85" d="M655.866 145.494C644.194 151.829 637.444 145.46 627.723 144.617C637.917 143.125 646.41 142.069 655.866 145.494Z" fill="#ECF9F7"/>
</g>
<g opacity="0.85">
<path opacity="0.85" d="M642.991 88.0747C639.775 92.1473 632.017 90.9072 631.362 87.4207C631.459 86.962 631.544 86.5035 631.587 86.2534C628.286 84.0459 624.942 82.0468 621.348 80.0507C622.969 78.6174 624.536 77.4343 626.156 76.001C632.089 75.7234 630.739 79.8574 633.359 84.1111C634.438 84.0569 635.31 83.7139 636.181 83.3709C638.266 83.7208 640.317 84.0295 642.402 84.3794C642.555 84.8768 642.994 85.454 643.464 85.7397C643.313 86.4486 643.173 87.1574 642.991 88.0747Z" fill="#ECF9F7"/>
</g>
<g opacity="0.85">
<path opacity="0.85" d="M626.906 109.852C624.294 108.219 621.671 106.586 619.06 104.994C622.358 103.126 629.906 102.871 629.729 109.112C628.9 109.205 628.028 109.507 626.906 109.852Z" fill="#ECF9F7"/>
</g>
<g opacity="0.85">
<path opacity="0.85" d="M610.853 107.254C605.351 105.405 600.731 107.081 595.419 106.977C587.18 105.41 581.196 103.275 575.97 102.671C573.896 102.321 571.834 102.013 569.749 101.663C569.24 98.9232 564.814 99.6823 565.719 96.4271C567.149 93.2905 568.622 89.9039 570.041 86.7675C572.724 86.6944 575.102 86.8329 577.785 86.8014C581.92 87.4601 586.067 88.1186 590.214 88.7771C592.513 87.9597 594.247 84.6116 597.078 86.4919C602.085 86.8075 607.104 87.123 612.068 87.6887C613.119 89.0491 614.193 90.4508 615.297 91.561C608.86 94.3819 603.494 94.4864 599.777 98.4818C602.19 102.488 604.844 97.1328 607.51 98.5159C609 100.453 613.867 101.436 616.462 104.526C614.676 105.462 612.64 106.359 610.853 107.254Z" fill="#ECF9F7"/>
</g>
<g opacity="0.85">
<path opacity="0.85" d="M597.299 143.145C597.997 139.642 600.436 138.116 604.389 139.692C605.026 144.635 600.888 146.638 597.299 143.145Z" fill="#ECF9F7"/>
</g>
<g opacity="0.85">
<path opacity="0.85" d="M585.584 73.149C583.371 73.5078 581.17 73.908 578.945 74.2668C576.664 73.6697 574.175 72.7837 571.632 72.148C569.296 71.801 566.71 71.3738 559.664 67.8375C559.932 66.4201 560.265 64.7939 560.545 63.4179C562.55 62.7704 564.239 62.3346 566.19 61.9374C568.167 62.7461 569.924 63.2663 572.162 64.0719C574.376 63.7132 576.338 63.2742 578.844 62.7456C578.844 69.4844 581.667 68.7441 583.948 69.3413C584.637 69.9156 585.315 70.5316 586.047 70.8974C585.906 71.523 585.767 72.2318 585.584 73.149Z" fill="#ECF9F7"/>
</g>
<g opacity="0.85">
<path opacity="0.85" d="M520.515 52.448C507.208 52.2713 493.235 48.5667 479.997 49.346C475.978 47.9788 471.982 46.6114 468.029 45.0355C467.534 43.5022 467.081 41.7605 466.574 40.2273C476.54 35.7843 488.986 43.0842 498.759 39.6002C505.488 43.3065 515.446 42.9817 521.213 48.9457C524.987 48.8182 528.999 48.7295 532.762 48.6022C534.078 47.3804 541.853 47.1644 540.913 53.2486C535.766 53.6418 530.358 53.9964 520.515 52.448Z" fill="#ECF9F7"/>
</g>
<g opacity="0.85">
<path opacity="0.85" d="M442.588 147.414C438.614 149.915 434.505 150.462 434.619 148.547C435.635 146.039 438.817 144.879 442.588 147.414Z" fill="#ECF9F7"/>
</g>
<g opacity="0.85">
<path opacity="0.85" d="M448.457 46.7214C444.694 46.8487 438.782 43.008 436.907 47.0233C433.395 47.1893 430.157 47.3936 426.602 47.7681C423.754 47.3024 420.644 46.8397 417.796 46.3739C417.893 45.9152 417.99 45.4565 418.032 45.2064C416.335 43.0217 414.626 40.7955 412.94 38.6106C409.568 38.0678 406.783 40.0556 403.729 40.5074C402.704 40.353 401.929 40.2373 401.144 40.1217C397.771 39.5789 394.41 39.036 391.3 38.5317C389.374 40.135 387.301 39.8266 384.393 41.0254C383.356 40.8712 382.582 40.7555 381.807 40.5982C379.967 41.7429 377.845 43.0989 376.005 44.2436C371.869 43.5849 367.722 42.9264 363.576 42.2679C356.939 40.7235 347.848 35.4225 338.954 37.1492C330.019 36.4221 321.335 35.7752 312.346 35.2983C306.786 36.3202 300.689 36.1006 294.577 34.6332C289.858 28.8234 284.246 34.172 277.801 34.3724C277.399 35.0427 276.736 35.6744 276.303 36.5531C275.779 36.476 275.266 36.3988 275.016 36.3602C273.29 35.5901 271.837 34.8999 270.319 34.4186C266.819 34.5844 263.319 34.7503 259.807 34.9163C254.179 34.9823 248.593 34.7983 243.282 34.6942C242.909 33.9082 242.524 33.1224 242.456 32.1664C244.271 29.8157 246.073 27.4235 247.615 25.0344C254.829 26.4057 265.194 17.2575 268.614 29.5717C271.978 20.7137 277.238 25.1861 279.38 26.492C282.507 25.5402 285.94 24.4184 289.067 23.4666C295.347 22.769 291.661 26.5144 295.458 30.2552C297.619 27.4428 299.989 24.9608 302.14 22.1901C312.521 25.0217 323.356 22.9396 332.156 25.7481C332.539 22.4575 338.07 22.8501 341.618 23.89C349.901 25.2072 358.183 26.5243 366.476 27.8413C367.058 28.916 367.844 29.0316 368.812 28.2299C368.326 22.62 377.311 25.7175 379.186 21.7022C382.296 22.2065 382.58 26.0717 384.053 29.4654C387.222 28.2635 390.35 27.3533 393.74 26.44C395.602 29.1635 401.028 27.3528 403.153 30.1149C412.352 28.2183 410.304 35.8546 415.582 32.0905C415.721 31.3817 415.872 30.6728 416.001 30.0057C421.591 35.4726 432.725 27.8545 435.282 36.4351C436.928 36.2078 439.247 38.0524 440.44 36.0418C443.593 36.296 449.56 33.1478 452.633 39.1849C451.331 41.6544 450.041 44.0822 448.457 46.7214Z" fill="#ECF9F7"/>
</g>
<g opacity="0.85">
<path opacity="0.85" d="M439.726 97.3223C435.807 99.6145 433.469 101.888 426.642 98.5989C414.189 99.4937 405.913 96.7206 390.598 99.8537C388.109 98.9678 385.87 98.1205 383.316 97.4849C380.729 97.0577 378.406 96.7105 375.808 96.2835C375.654 95.7861 375.173 95.459 374.746 94.9232C369.958 94.8962 369.015 96.9039 360.83 95.1281C359.514 96.3498 358.406 97.8603 357.352 99.1206C357.762 101.112 358.16 103.104 358.832 105.135C357.753 105.189 356.881 105.532 356.021 105.875C354.642 104.685 352.971 103.706 351.561 102.766C350.524 102.612 349.75 102.496 348.964 102.38C348.317 101.556 347.694 100.731 347.047 99.907C346.011 99.7528 345.225 99.6372 344.461 99.4798C343.31 101.24 342.214 102.751 340.758 104.681C339.209 104.45 337.386 104.138 335.848 103.907C335.299 102.624 334.749 101.341 334.21 100.016C329.725 102.44 325.657 102.737 325.361 105.569C314.353 104.533 303.595 103.537 292.533 102.751C288.996 101.711 285.208 100.632 281.628 99.8009C278.048 99.011 278.856 102.953 275.826 103.446C272.618 103.401 269.466 103.147 264.379 108.614C261.2 107.154 258.23 105.941 255.008 104.689C252.833 92.7761 245.199 106.967 237.894 100.772C235.342 104.212 231.822 101.716 228.851 100.545C223.941 99.7705 219.02 98.9963 213.836 98.142C211.762 97.792 209.7 97.4834 207.615 97.1335C200.276 100.547 193.235 95.5551 191.52 101.565C185.909 100.175 180.53 99.1151 175.862 95.7173C175.033 95.8102 174.161 96.1532 173.344 96.2876C173.603 98.9884 173.831 101.898 174.101 104.598C177.427 108.012 173.568 108.598 172.759 111.353C173.035 112.597 173.366 113.633 173.403 114.839C174.08 115.414 174.812 115.779 175.764 116.434C179.856 117.301 183.907 118.46 187.956 119.577C193.342 122.134 193.619 116.64 198.498 117.665C200.902 119.009 205.744 118.828 205.307 122.368C198.167 123.409 191.223 124.697 184.028 125.946C180.656 125.403 177.557 124.899 174.186 124.397C170.119 124.736 166.271 125.322 162.411 125.908C160.338 125.6 160.093 130.844 156.572 128.348C154.553 127.789 152.565 126.98 150.546 126.422C149.589 127.223 148.589 128.275 147.567 129.327C145.644 128.31 143.71 127.251 141.82 126.025C140.532 125.832 139.233 125.598 137.935 125.405C137.49 126.284 136.838 126.915 136.437 127.586C136.297 128.294 136.169 129.003 135.975 129.92C131.028 127.94 126.332 125.999 121.646 124.015C117.414 123.815 113.224 123.407 108.981 123.207C104.461 121.763 100.203 120.357 95.7259 118.704C95.5064 118.415 95.0908 117.879 94.6207 117.552C97.7854 111.067 94.2226 108.821 94.5192 105.989C97.9685 103.411 101.418 100.834 104.867 98.2557C113.932 109.089 124.953 96.6473 134.898 103.02C140.247 97.6326 148.52 103.026 158.275 100.957C161.097 100.175 162.719 98.7833 164.914 99.8391C166.535 98.4057 168.113 97.2225 169.46 95.7508C165.507 94.1749 161.597 92.3489 157.687 90.5229C154.064 89.9414 150.441 89.36 146.556 88.74C145.545 89.7918 144.545 90.8435 143.565 91.6453C140.894 91.7182 138.211 91.7497 135.833 91.6112C134.588 91.1683 133.386 90.5168 132.184 89.8238C125.85 90.73 117.917 93.0693 107.271 92.8198C107.245 91.6138 106.915 90.5778 106.627 89.3332C108.276 86.4437 102.011 81.6087 111.854 83.1987C113.788 84.216 114.982 82.2469 117.431 80.7207C117.893 78.3858 118.354 76.051 118.773 73.9662C120.061 74.1591 121.36 74.3934 122.396 74.5477C124.501 74.6478 124.382 71.2382 127.173 70.7479C129.235 71.0981 131.309 71.4065 133.382 71.7566C136.604 73.0083 139.574 74.1798 142.807 75.4313C143.043 74.2638 143.226 73.3466 143.462 72.1791C147.894 70.0056 153.844 75.0523 155.291 70.4596C157.364 70.8097 159.438 71.1181 161.5 71.4683C161.178 73.0944 160.899 74.5119 160.577 76.138C165.846 76.4922 167.911 74.1801 170.317 72.8624C171.91 72.8853 173.818 72.6965 175.421 72.7193C175.518 72.2606 175.615 71.8019 175.647 71.5519C176.011 69.6758 176.387 67.7995 176.989 64.7975C177.214 63.6301 177.45 62.4626 177.644 61.5036C178.418 61.6193 179.204 61.7349 180.23 61.9308C179.091 63.6913 182.426 62.9866 187.319 65.217C198.148 64.5492 204.53 61.9369 215.854 62.7608C219.044 64.2209 222.265 65.4726 225.498 66.7242C228.904 64.3548 234.253 65.7064 236.447 62.6856C241.368 63.4598 246.289 64.234 251.462 65.0885C253.883 64.9769 256.523 65.1955 258.944 65.0839C261.705 61.9317 268.979 61.6384 267.976 65.3107C267.793 66.228 267.654 66.9368 267.514 67.6456C270.197 67.5725 274.053 69.6487 276.964 65.7877C281.362 66.4848 286.021 67.2205 290.43 67.9175C290.667 66.75 290.892 65.5827 291.117 64.4153C294.905 65.494 298.485 66.3255 302.273 67.4042C304.609 67.7928 307.183 68.1786 309.519 68.5671C309.755 67.3996 309.992 66.2321 310.163 65.315C312.717 65.9506 315.207 66.8365 317.488 67.4337C321.512 67.3449 325.263 67.2177 329.037 67.0902C329.333 64.2582 332.871 65.2982 338.305 66.1496C336.511 64.4235 336.921 66.4154 337.843 68.4844C337.772 70.1491 343.48 71.0805 345.813 67.351C347.234 68.3327 348.906 69.3114 350.273 70.5017C353.634 71.0446 356.744 71.5489 360.116 72.0501C362.292 70.4854 366.117 72.77 368.504 68.8319C370.15 68.6046 372.058 68.4158 373.662 68.4386C376.12 69.5329 379.244 71.2433 383.992 68.8998C382.502 73.7009 389.252 73.3305 391.5 70.1012C393.836 70.4898 396.421 70.8754 398.757 71.264C400.582 72.7401 402.431 74.2575 404.322 75.5248C401.927 76.8424 397.945 76.6811 396.378 77.8642C392.274 76.9556 386.76 81.8872 384.749 77.2103C382.371 77.0718 378.199 75.2073 373.801 81.2489C369.201 78.8486 364.559 76.6568 359.709 74.1763C357.191 74.7466 354.465 75.0282 351.99 75.3484C351.093 74.4854 350.458 73.6609 349.865 72.5863C347.567 73.4452 345.268 74.2625 342.958 75.08C340.304 73.6968 334.049 75.6004 334.861 70.1833C332.788 69.8332 330.726 69.5246 328.641 69.1747C328.125 71.7598 327.578 74.5532 327.062 77.0967C332.203 78.1595 337.016 79.3926 341.841 80.6671C344.926 79.9653 348.01 79.222 351.345 78.5589C354.994 80.3464 359.391 81.0435 367.998 84.8111C370.47 87.1115 372.953 89.4534 375.437 91.7953C378.467 91.3022 381.717 91.0977 384.705 90.8547C387.832 89.9028 391.002 88.7425 394.38 87.8294C402.201 91.4813 413.314 94.6787 424.16 92.5548C425.222 93.9151 426.022 95.2368 427.139 96.3884C431.25 96.9641 430.997 92.8074 439.726 97.3223Z" fill="#CAEEE7"/>
</g>
<g opacity="0.85">
<path opacity="0.85" d="M415.786 146.481C411.605 148.693 404.359 147.53 402.096 145.518C407.923 143.079 411.022 143.583 415.786 146.481Z" fill="#ECF9F7"/>
</g>
<g opacity="0.85">
<path opacity="0.85" d="M389.667 143.542C384.93 145.927 379.772 146.279 379.1 144.248C378.195 140.765 382.427 140.923 389.667 143.542Z" fill="#ECF9F7"/>
</g>
<g opacity="0.85">
<path opacity="0.85" d="M376.764 143.901C371.677 149.369 369.168 145.821 365.135 143.247C369.128 143.409 372.836 143.49 376.764 143.901Z" fill="#ECF9F7"/>
</g>
<g opacity="0.85">
<path opacity="0.85" d="M361.33 143.583C354.77 145.656 348.271 146.065 345.842 143.515C347.377 142.54 349.405 139.022 352.706 141.23C355.512 141.946 358.536 142.908 361.33 143.583Z" fill="#ECF9F7"/>
</g>
<g opacity="0.85">
<path opacity="0.85" d="M333.424 141.582C329.285 143.544 322.561 145.162 324.643 141.393C326.62 142.161 328.05 139.024 333.424 141.582Z" fill="#ECF9F7"/>
</g>
<g opacity="0.85">
<path opacity="0.85" d="M291.87 138.325C284.385 140.991 276.068 142.545 276.381 138.257C279.648 136.596 283.106 136.68 287.355 135.424C288.643 135.617 289.691 135.813 290.99 136.005C291.374 136.791 291.485 137.539 291.87 138.325Z" fill="#ECF9F7"/>
</g>
<g opacity="0.85">
<path opacity="0.85" d="M226.507 34.4752C219.545 37.2191 222.935 29.5671 217.962 33.1195C210.566 32.6656 201.474 34.1033 193.275 34.9899C190.95 34.6012 189.128 34.3314 187.066 34.0228C184.716 32.428 182.356 30.875 180.256 29.319C175.816 28.8303 171.259 32.9603 168.573 35.654C167.024 35.4226 165.212 35.1111 163.663 34.8797C162.888 34.764 162.114 34.6483 161.327 34.4911C157.676 35.3659 154.28 37.6936 145.893 34.2146C143.638 34.8234 141.424 35.1822 139.211 35.5409C130.242 37.726 120.929 34.7986 113.236 37.1767C106.041 38.4259 99.1515 39.505 91.9569 40.7541C90.2341 37.3634 88.249 33.8925 86.2642 30.4632C92.7694 28.5983 98.902 25.9889 105.402 25.5799C115.347 25.2552 122.004 22.6813 132.402 24.0984C133.824 18.2997 142.365 29.0564 143.387 21.2657C146.139 22.1902 149.952 24.4749 153.23 22.8141C151.829 17.7557 159.257 18.0013 161.436 20.5132C160.687 21.6035 161.627 22.2164 162.262 23.0409C163.615 23.0251 165.067 23.7152 166.132 22.4548C165.104 18.1823 169.941 19.4567 171.134 17.4876C174.105 18.6591 176.805 17.1715 177.987 15.2026C185.791 13.5719 195.434 24.2325 198.36 14.8388C203.769 14.4842 212.304 19.9581 214.019 13.948C212.191 8.3538 220.066 11.7972 218.183 6.41162C236.896 5.06897 230.384 18.9556 237.942 29.3078C234.163 30.8912 230.329 32.6833 226.507 34.4752Z" fill="#ECF9F7"/>
</g>
<g opacity="0.85">
<path opacity="0.85" d="M55.3625 89.061C56.3107 92.336 52.3833 91.9661 50.8052 93.1494C49.6546 94.9099 48.5579 96.4203 47.1023 98.3509C42.7905 97.1951 38.2275 95.9591 33.8731 95.0535C34.1951 93.4274 34.4742 92.0099 34.7537 90.6339C35.4347 88.5876 36.2693 87.0387 36.9073 85.201C41.2537 83.4861 45.3495 81.7326 49.6534 80.2678C49.904 80.3064 50.428 80.3835 50.6786 80.4221C54.1109 79.3003 57.9958 79.9203 59.4963 81.8162C60.5044 83.4267 61.4696 85.2456 62.2385 86.8173C59.917 87.6349 57.6187 88.4938 55.3625 89.061Z" fill="#ECF9F7"/>
</g>
<g opacity="0.85">
<path opacity="0.85" d="M49.2743 43.0851C46.9046 45.6087 42.6036 44.4112 39.1259 48.4454C36.6876 49.9715 34.2379 51.4977 31.8002 53.0654C30.4761 51.6666 28.9009 50.1876 27.5337 48.9973C27.9414 46.9127 28.2743 45.2449 28.6508 43.4102C35.7854 43.8257 42.4136 35.9692 48.4056 40.7658C48.5281 41.5131 48.9012 42.2991 49.2743 43.0851Z" fill="#ECF9F7"/>
</g>
<g opacity="0.85">
<path opacity="0.85" d="M612.068 87.7306C607.104 87.1649 602.086 86.8494 597.079 86.5337C597.777 83.0314 598.421 79.7793 599.076 76.4854C599.85 76.6011 600.625 76.7168 601.411 76.874C605.279 78.9501 609.397 81.0232 612.96 83.2692C612.669 84.6869 612.347 86.313 612.068 87.7306Z" fill="#D5F2EC"/>
</g>
<g opacity="0.85">
<path opacity="0.85" d="M626.906 109.853C623.479 116.299 612.331 115.972 606.495 115.749C602.75 114.421 598.492 113.015 594.528 111.439C591.454 112.14 588.359 112.884 585.285 113.586C581.705 112.754 577.935 110.261 575.035 107.383C571.492 107.799 570.236 114.095 564.929 112.493C564.252 111.919 563.605 111.094 564.061 110.174C553.958 112.664 539.96 107.794 527.653 106.525C525.258 107.842 522.905 108.91 520.509 110.186C498.055 100.84 471.453 104.314 450.673 100.023C448.956 101.915 446.344 100.282 441.013 97.5161C450.526 91.3313 465.008 97.7338 478.591 95.3282C480.793 94.9696 483.006 94.5692 485.262 94.002C485.14 93.2547 484.767 92.4687 484.393 91.6827C485.752 90.2109 486.806 88.9506 487.86 87.6488C487.268 86.6158 486.633 85.7913 485.735 84.8867C483.784 85.2839 481.833 85.7228 474.83 81.9364C469.193 86.1207 460.894 79.4793 456.362 84.7737C455.482 82.4546 454.656 79.9268 454.093 77.4376C454.91 77.3449 455.781 76.9603 456.599 76.8675C461.441 76.6859 465.989 76.6741 470.788 76.701C471.563 76.8167 472.338 76.974 473.375 77.1282C476.32 77.1353 479.211 77.3509 482.155 77.3164C482.93 77.4321 483.705 77.5478 484.742 77.7436C487.077 78.1322 489.663 78.5178 492.249 78.9451C493.024 79.0608 493.81 79.1763 494.574 79.3338C497.214 79.5108 499.635 79.3992 502.318 79.3677C503.91 79.3906 505.818 79.2019 507.422 79.2246C511.252 80.0532 514.79 81.1349 518.37 81.9248C519.406 82.079 520.181 82.2363 520.956 82.352C525.895 81.7117 528.683 77.0617 538.951 81.8498C539.361 83.8416 539.771 85.8335 540.431 87.864C542.713 88.4612 545.213 89.347 547.714 90.2328C548.298 88.6452 549.09 87.3048 549.631 85.9674C551.941 85.1499 554.239 84.291 556.538 83.4737C559.483 83.4392 561.329 80.8801 564.476 82.5902C566.356 83.8577 568.193 85.3336 570.03 86.8512C568.611 89.9876 567.127 93.3744 565.709 96.5108C564.802 99.7244 569.229 99.0069 569.738 101.746C571.824 102.096 573.885 102.405 575.959 102.755C581.185 103.359 587.169 105.494 595.409 107.061C600.72 107.165 605.329 105.53 610.843 107.337C612.629 106.443 614.665 105.545 616.451 104.609C617.487 104.764 618.262 104.921 619.048 105.036C621.671 106.586 624.294 108.219 626.906 109.853Z" fill="#CAEEE7"/>
</g>
<g opacity="0.85">
<path opacity="0.85" d="M434.212 60.5736C430.589 59.9922 426.704 59.3722 423.081 58.7907C420.258 59.531 416.709 65.2299 412.133 62.8293C408.98 62.5751 410.105 59.6085 410.427 57.9825C407.579 57.5167 404.096 56.2681 404.85 60.4605C403.406 62.3909 401.35 60.6264 399.704 60.8537C391.926 50.2129 387.105 67.7402 376.933 58.417C375.19 59.103 373.153 60.0004 371.356 60.8951C369.057 61.754 366.747 62.5714 364.492 63.1802C363.623 60.861 362.549 59.5009 361.749 58.1791C347.691 54.9747 334.555 60.578 321.414 54.1599C319.417 57.4694 313.128 55.4634 308.748 60.0904C304.866 56.8082 306.493 53.9605 302.121 54.4694C299.657 54.7895 294.613 53.268 295.214 56.963C293.55 58.6049 290.927 57.0133 285.527 59.9885C284.752 59.8728 283.978 59.7571 283.202 59.5998C280.295 54.0599 271.263 53.8331 267.35 54.6693C266.156 56.6384 263.838 54.8353 262.192 55.0626C259.441 54.1381 256.636 53.4639 253.884 52.5394C242.178 55.0062 227.963 53.9666 217.353 54.8815C215.212 53.5755 212.754 52.4812 210.307 51.3452C210.167 58.7927 201.082 52.0358 199.122 56.5512C196.231 56.3356 193.036 56.2899 190.091 56.3244C188.496 58.9637 183.964 57.5194 180.193 61.7234C179.157 61.5691 178.37 61.412 177.607 61.2961C177.413 62.2551 177.188 63.3809 176.952 64.59C171.657 63.0298 166.351 61.4698 161.361 59.698C160.977 58.9122 160.604 58.1262 160.493 57.3788C157.705 55.2485 156.354 59.3824 150.874 54.6214C146.05 53.3885 146.397 59.6656 136.922 53.6204C132.567 52.6732 133.976 60.3937 128.533 56.8386C126.685 55.3628 124.848 53.8452 122.968 52.5778C119.596 52.035 117.551 57.009 113.507 54.4358C111.433 54.0858 109.371 53.7772 107.286 53.4273C110.388 51.2695 108.17 46.3454 112.524 47.2927C116.05 48.3328 119.893 49.2029 123.419 50.2431C126.668 50.0385 127.315 44.1242 132.043 45.8158C134.073 46.3743 136.05 47.1831 138.027 47.9918C139.508 47.2673 140.684 46.7127 142.111 46.2384C143.66 46.4698 145.484 46.7812 147.033 47.0126C151.43 47.7098 154.438 43.39 162.285 41.5093C162.758 39.1743 163.22 36.8394 163.639 34.7547C165.199 34.986 167 35.2976 168.549 35.529C171.223 32.8354 175.792 28.7469 180.232 29.194C182.331 30.75 184.692 32.303 187.042 33.8978C189.115 34.2062 190.927 34.5177 193.251 34.8648C201.439 34.02 210.542 32.5821 217.938 32.9945C222.911 29.442 219.521 37.0941 226.482 34.3502C228.886 35.6947 231.247 37.2893 233.335 38.8039C237.037 40.3412 239.606 35.4442 243.022 35.7785C246.128 38.9034 249.509 42.1083 252.627 45.2331C255.108 43.4569 257.643 41.4721 260.147 39.6957C262.801 41.0788 265.425 42.7119 268.298 44.3837C268.777 40.5928 274.544 39.8179 274.981 36.3187C275.231 36.3573 275.744 36.4345 276.268 36.5116C278.41 37.8175 280.771 39.4121 282.87 40.9266C286.746 38.8845 290.378 35.3893 294.542 34.5917C300.654 36.0591 306.752 36.2787 312.311 35.2568C321.3 35.7337 329.984 36.3806 338.919 37.1077C347.825 35.3809 356.905 40.682 363.541 42.2265C367.688 42.885 371.834 43.5435 375.97 44.2021C378.453 46.5024 380.914 48.8446 383.398 51.1865C387.003 53.224 389.043 49.6643 390.262 48.9013C392.805 49.537 395.294 50.4229 397.587 51.02C400.976 50.1067 397.641 44.031 402.771 45.094C403.503 45.4598 404.181 46.0342 404.913 46.4C409.199 46.3497 413.485 46.2994 417.761 46.2908C420.609 46.7566 423.719 47.2193 426.567 47.685C426.923 49.9271 427.236 52.3776 427.561 54.8281C430.007 55.9641 432.454 57.0585 434.649 58.1143C441.764 55.8678 456.17 58.6522 465.298 58.4203C475.437 57.1366 487.345 63.1533 497.02 60.0864C500.655 60.6677 498.396 63.8972 502.822 63.1797C511.76 61.2446 526.524 63.5672 536.014 70.8602C519.44 72.3025 503.673 66.9135 488.578 70.2935C488.612 67.4229 485.277 68.086 485.878 65.0424C480.583 63.4822 478.866 65.3742 474.275 65.5945C473.639 64.77 472.7 64.157 473.438 63.0669C470.589 62.6011 467.063 61.5609 467.829 65.7949C466.775 67.0551 465.323 66.365 463.708 66.3424C454.009 64.4595 444.263 62.4524 434.212 60.5736Z" fill="#B1E6DC"/>
</g>
<g opacity="0.85">
<path opacity="0.85" d="M517.459 93.3742C513.226 93.1743 508.982 92.9745 504.793 92.566C505.289 94.0993 505.741 95.8411 506.499 97.4129C503.912 96.9857 501.589 96.6385 498.991 96.2114C500.045 94.9096 501.153 93.4407 502.457 92.1775C500.011 91.0414 497.564 89.947 495.369 88.8913C495.702 87.2651 495.97 85.8476 496.292 84.2216C497.066 84.3373 497.841 84.453 498.628 84.6101C501.031 85.9546 503.477 87.0491 505.674 88.1464C509.681 89.5137 513.677 90.8811 517.641 92.4569C517.587 92.6655 517.501 93.1241 517.459 93.3742Z" fill="#D5F2EC"/>
</g>
<g opacity="0.85">
<path opacity="0.85" d="M417.796 46.4156C413.521 46.4657 409.234 46.4744 404.948 46.5247C404.216 46.1589 403.538 45.5845 402.806 45.2187C403.128 43.5927 403.407 42.1751 403.729 40.549C406.772 40.0974 409.557 38.1096 412.941 38.6523C414.638 40.837 416.335 43.0634 418.033 45.2481C417.99 45.4982 417.893 45.9569 417.796 46.4156Z" fill="#D5F2EC"/>
</g>
<g opacity="0.85">
<path opacity="0.85" d="M335.836 103.907C332.709 104.859 330.433 109.545 325.338 105.611C325.634 102.779 329.713 102.44 334.188 100.058C334.748 101.341 335.287 102.624 335.836 103.907Z" fill="#D5F2EC"/>
</g>
<g opacity="0.85">
<path opacity="0.85" d="M287.364 109.926C285.566 110.82 284.617 114.284 281.493 112.574C280.682 111.252 279.62 109.892 278.793 107.322C277.677 106.171 276.626 104.81 275.815 103.489C278.845 102.996 278.036 99.0119 281.617 99.8435C285.197 100.675 288.985 101.754 292.522 102.794C290.719 105.144 288.904 107.495 287.364 109.926Z" fill="#D5F2EC"/>
</g>
<g opacity="0.85">
<path opacity="0.85" d="M294.577 34.7161C290.413 35.5137 286.781 39.0089 282.905 41.051C280.806 39.4949 278.445 37.9419 276.303 36.636C276.748 35.7572 277.4 35.1256 277.801 34.4553C280.154 33.3878 282.538 32.1119 284.891 31.0028C288.263 31.5456 291.623 32.0469 294.996 32.6313C294.706 34.049 294.62 34.5076 294.577 34.7161Z" fill="#D5F2EC"/>
</g>
<g opacity="0.85">
<path opacity="0.85" d="M272.581 74.0757C277.244 72.1907 283.237 70.2485 282.424 75.6241C279.052 75.1229 275.953 74.6185 272.581 74.0757Z" fill="#D5F2EC"/>
</g>
<g opacity="0.85">
<path opacity="0.85" d="M264.494 128.163C259.461 126.642 254.668 125.159 249.897 123.676C248.843 124.936 247.735 126.446 246.42 127.71C240.314 124.828 236.893 125.95 236.115 128.455C232.352 128.582 228.328 128.671 224.554 128.798C224.267 127.554 223.948 126.518 223.911 125.312C220.288 124.73 216.403 124.11 212.769 123.529C210.182 123.102 207.847 122.755 205.261 122.327C198.121 123.368 191.177 124.656 183.982 125.905C181.168 122.569 178.574 119.521 175.717 116.393C174.766 115.78 174.046 115.414 173.356 114.798C173.319 113.592 172.989 112.556 172.713 111.312C173.522 108.557 177.381 107.971 174.055 104.557C173.796 101.856 173.568 98.9473 173.298 96.2467C174.115 96.1539 174.986 95.7693 175.815 95.6764C180.483 99.0742 185.863 100.176 191.474 101.524C193.201 95.5556 200.229 100.506 207.569 97.0926C209.654 97.4425 211.716 97.7511 213.789 98.1011C218.973 98.9138 223.894 99.688 228.805 100.504C231.775 101.675 235.284 104.172 237.848 100.731C245.164 106.968 252.787 92.7767 254.962 104.648C258.183 105.9 261.153 107.071 264.332 108.573C256.237 118.36 241.963 112.246 230.205 112.26C231.894 118.562 224.586 114.988 221.606 117.893C222.267 119.923 223.189 121.992 224.101 124.062C225.69 122.878 227.299 121.445 228.604 120.223C234.041 118.412 242.802 122.719 250.313 121.258C256.436 122.725 262.602 123.943 268.726 125.41C267.248 126.426 265.713 127.4 264.494 128.163Z" fill="#D5F2EC"/>
</g>
<g opacity="0.85">
<path opacity="0.85" d="M243.045 35.904C239.63 35.6113 237.061 40.4667 233.358 38.9294C231.27 37.3732 228.898 35.8204 226.506 34.4757C230.329 32.6838 234.162 30.8918 237.942 29.3083C239.363 30.2484 241.034 31.2271 242.444 32.1673C242.512 33.1232 242.897 33.9507 243.27 34.6951C243.228 34.9867 243.142 35.4453 243.045 35.904Z" fill="#D5F2EC"/>
</g>
<g opacity="0.85">
<path opacity="0.85" d="M187.065 33.9812C184.716 32.3865 182.355 30.8335 180.256 29.2774C175.815 28.7888 171.258 32.9187 168.572 35.6124C171.247 32.9189 175.816 28.8304 180.256 29.2774C182.355 30.8335 184.704 32.3866 187.065 33.9812Z" fill="#D5F2EC"/>
</g>
<g opacity="0.85">
<path opacity="0.85" d="M170.281 72.6973C167.874 74.0151 165.809 76.3272 160.54 75.973C160.862 74.3469 161.141 72.9294 161.463 71.3033C164.334 71.7688 167.422 72.2733 170.281 72.6973Z" fill="#D5F2EC"/>
</g>
<g opacity="0.85">
<path opacity="0.85" d="M146.19 136.041C143.464 136.322 140.989 136.643 138.264 136.966C137.019 136.523 135.817 135.871 134.823 135.467C130.129 137.602 123.482 136.058 119.99 138.886C113.903 138.624 108.056 138.443 102.22 138.221C96.1337 137.959 90.2982 137.778 84.1463 137.767C81.6654 139.543 79.1188 141.528 76.5841 143.555C73.2232 143.012 70.113 142.507 66.7412 142.006C68.5014 139.864 70.262 137.764 71.7062 135.833C75.933 137.489 78.9009 134.584 84.3718 136.641C84.7478 134.765 85.1124 132.889 85.4889 131.054C88.7131 129.644 92.188 128.272 95.4122 126.861C100.821 126.507 105.327 126.745 108.947 123.25C113.191 123.45 117.38 123.858 121.613 124.058C126.298 126 130.994 127.941 135.941 129.963C136.124 129.046 136.263 128.337 136.403 127.628C136.804 126.958 137.457 126.368 137.901 125.448C139.2 125.64 140.499 125.875 141.786 126.068C143.677 127.335 145.611 128.352 147.533 129.37C147.07 131.621 146.651 133.706 146.19 136.041Z" fill="#D5F2EC"/>
</g>
<g opacity="0.85">
<path opacity="0.85" d="M145.893 34.1729C154.269 37.6936 157.676 35.3242 161.327 34.4494C157.676 35.3242 154.269 37.652 145.893 34.1729Z" fill="#D5F2EC"/>
</g>
<g opacity="0.85">
<path opacity="0.85" d="M33.8728 95.0542C31.3007 95.8331 29.3069 96.4805 26.9973 97.3395C26.2142 94.5617 25.4425 91.7837 24.648 89.006C28.0203 89.5488 31.3811 90.0918 34.7534 90.6346C34.4625 92.0107 34.1948 93.4281 33.8728 95.0542Z" fill="#D5F2EC"/>
</g>
<g opacity="0.85">
<path opacity="0.85" d="M28.7515 61.7118C25.0033 63.0452 21.5284 64.4171 17.7802 65.7506C17.6436 63.7971 17.7576 61.8823 17.5982 59.9291C21.1099 59.7631 24.6103 59.5973 28.1221 59.4313C28.2445 60.1786 28.6176 60.9646 28.7515 61.7118Z" fill="#D5F2EC"/>
</g>
<g opacity="0.85">
<path opacity="0.85" d="M390.298 49.0262C389.079 49.7892 387.039 53.3073 383.434 51.3114C380.95 48.9695 378.49 46.6689 376.006 44.327C377.846 43.1823 379.968 41.8263 381.808 40.6816C382.582 40.7973 383.357 40.913 384.394 41.1088C386.299 43.5823 388.435 46.3026 390.298 49.0262Z" fill="#BEEBE2"/>
</g>
<g opacity="0.85">
<path opacity="0.85" d="M260.16 39.8624C257.657 41.6388 255.133 43.6235 252.641 45.3998C249.522 42.2334 246.142 39.0701 243.035 35.9452C243.132 35.4865 243.217 35.0279 243.26 34.7778C248.583 34.8818 254.157 35.0659 259.785 34.9999C260.773 36.8186 260.482 38.1947 260.16 39.8624Z" fill="#BEEBE2"/>
</g>
<g opacity="0.85">
<path opacity="0.85" d="M597.078 86.5339C594.248 84.6536 592.512 87.9602 590.214 88.8191C586.067 88.1606 581.921 87.5021 577.785 86.8434C578.204 84.7587 578.666 82.4238 579.127 80.089C578.979 78.1356 579.093 76.2208 578.945 74.2675C581.158 73.9088 583.371 73.5084 585.584 73.1497C590.19 74.1356 594.502 75.2913 599.076 76.5272C598.42 79.7794 597.776 83.0316 597.078 86.5339Z" fill="#CAEEE7"/>
</g>
<g opacity="0.85">
<path opacity="0.85" d="M559.664 67.8372C559.402 67.7987 558.89 67.7215 558.628 67.683C555.657 66.4699 548.115 68.1807 550.476 62.9949C552.775 62.136 555.085 61.3186 557.394 60.4595C558.553 61.3611 559.701 62.2628 560.544 63.376C560.265 64.7936 559.932 66.4198 559.664 67.8372Z" fill="#CAEEE7"/>
</g>
<g opacity="0.85">
<path opacity="0.85" d="M439.679 78.8132C438.563 77.6616 437.415 76.7599 436.256 75.8584C436.501 70.5727 442.955 73.076 448.067 75.595C445.202 76.5438 442.336 77.5341 439.679 78.8132Z" fill="#CAEEE7"/>
</g>
<g opacity="0.85">
<path opacity="0.85" d="M427.657 81.4491C424.285 80.9063 422.212 80.5978 418.389 82.3898C415.638 81.4653 412.625 80.5023 409.819 79.8281C410.044 78.6607 410.281 77.4932 410.517 76.3257C414.462 75.2811 419.689 75.8854 424.052 72.7144C426.553 73.6002 429.042 74.4861 431.335 75.0832C430.098 77.2608 428.905 79.2714 427.657 81.4491Z" fill="#CAEEE7"/>
</g>
<g opacity="0.85">
<path opacity="0.85" d="M402.807 45.2606C397.677 44.1977 401.012 50.2733 397.623 51.1866C395.33 50.5896 392.841 49.7036 390.298 49.0679C388.435 46.3443 386.299 43.624 384.394 41.1505C387.302 39.9517 389.376 40.2601 391.301 38.6568C394.412 39.1611 397.772 39.704 401.145 40.2468C401.919 40.3625 402.694 40.4782 403.73 40.6325C403.408 42.2169 403.14 43.5928 402.807 45.2606Z" fill="#CAEEE7"/>
</g>
<g opacity="0.85">
<path opacity="0.85" d="M260.16 39.8627C260.482 38.2366 260.761 36.8191 259.796 35.0001C263.296 34.8342 266.797 34.6684 270.309 34.5024C271.815 34.9839 273.279 35.7155 275.005 36.444C274.557 39.985 268.801 40.7597 268.322 44.509C265.437 42.8374 262.826 41.2457 260.16 39.8627Z" fill="#CAEEE7"/>
</g>
<g opacity="0.85">
<path opacity="0.85" d="M96.717 94.6905C94.3757 95.7579 92.0117 96.8255 89.6278 98.143C86.6514 98.3859 84.4302 96.1241 83.8802 94.7995C85.7089 93.6549 87.8422 92.2988 89.6823 91.1541C89.4118 88.4534 89.1957 85.5442 88.6633 82.805C91.5115 83.2708 94.6218 83.775 97.4695 84.1992C100.466 86.6183 99.2977 89.7934 102.1 93.1298C100.411 93.6072 98.4488 94.0046 96.717 94.6905Z" fill="#CAEEE7"/>
</g>
<g opacity="0.85">
<path opacity="0.85" d="M84.3815 136.558C78.9214 134.459 75.9422 137.364 71.7159 135.75C70.2716 137.68 68.5115 139.822 66.7509 141.923C66.2383 141.846 65.9763 141.807 65.4632 141.688C59.038 137.77 57.6509 140.699 55.6317 140.14C56.8423 136.715 51.9833 138.352 51.4083 135.863C50.7477 133.833 50.3377 131.841 49.9391 129.849C50.2441 129.679 50.8532 129.256 51.4627 128.874C54.8775 129.167 58.0734 129.213 61.4882 129.506C65.4586 129.667 69.3803 131.493 72.5053 126.464C72.7673 126.503 73.2912 126.58 73.5419 126.619C77.2442 128.156 80.7275 129.446 84.4728 130.775C84.7348 130.813 85.2474 130.891 85.5094 130.929C85.1221 132.806 84.7575 134.682 84.3815 136.558Z" fill="#CAEEE7"/>
</g>
<g opacity="0.85">
<path opacity="0.85" d="M84.8014 51.1547C83.9837 51.2475 83.1122 51.5905 81.99 51.8949C76.032 50.9664 70.0054 49.0405 64.8209 54.9249C62.7473 54.5748 60.6741 54.2664 58.6118 53.9162C59.159 51.1228 59.6745 48.5377 60.1791 45.9944C61.9647 45.0583 64.0129 44.2023 65.756 43.5163C73.0618 43.0146 80.0484 41.4768 87.915 42.258C86.79 45.2246 85.6644 48.1496 84.8014 51.1547Z" fill="#CAEEE7"/>
</g>
<g opacity="0.85">
<path opacity="0.85" d="M73.5309 126.661C73.2803 126.622 72.7563 126.545 72.4943 126.506C70.102 125.162 67.7522 123.567 65.6421 122.053C69.282 121.178 72.7143 120.056 76.3542 119.182C77.0007 120.006 77.6358 120.831 78.5328 121.694C76.8578 123.335 75.1941 124.977 73.5309 126.661Z" fill="#B1E6DC"/>
</g>
<g opacity="0.85">
<path opacity="0.85" d="M80.0649 88.4394C76.1801 87.8194 72.5572 87.2379 68.6724 86.618C74.0729 83.6428 79.5098 81.832 80.4835 86.313C80.1931 87.7307 80.1075 88.1893 80.0649 88.4394Z" fill="#B1E6DC"/>
</g>
<g opacity="0.85">
<path opacity="0.85" d="M44.1701 119.808C41.4954 122.502 38.109 120.753 35.3893 119.62C33.4382 120.017 31.7381 120.495 29.7869 120.892C29.0662 120.526 28.3772 119.952 27.6996 119.378C28.0756 117.501 28.4402 115.625 28.8166 113.791C30.9584 115.097 33.416 116.191 35.8514 117.327C36.7655 116.734 37.6915 116.182 38.6372 115.381C40.4962 116.815 42.3329 118.291 44.1701 119.808Z" fill="#B1E6DC"/>
</g>
<g opacity="0.85">
<path opacity="0.85" d="M35.2538 139.09C35.8118 143.035 36.3584 146.98 36.6544 150.887C28.3092 153.897 28.5972 148.402 23.0067 142.936C24.8354 141.791 26.98 140.435 28.8087 139.29C26.4589 137.695 24.3488 136.181 21.9565 134.836C22.0535 134.378 22.139 133.919 22.1816 133.669C29.6354 135.121 31.222 129.819 39.3075 137.628C38.1305 138.099 36.6919 138.574 35.2538 139.09Z" fill="#B1E6DC"/>
</g>
<g opacity="0.85">
<path opacity="0.85" d="M627.735 144.618C624.812 148.479 620.181 146.287 617.473 145.154C614.79 145.227 612.411 145.047 609.74 145.12C610.951 141.695 613.625 139.001 618.128 141.902C621.446 142.653 624.46 143.616 627.735 144.618Z" fill="#ECF9F7"/>
</g>
<g opacity="0.85">
<path opacity="0.85" d="M621.348 80.0512C618.733 81.0802 615.868 82.0706 612.949 83.3111C609.386 81.0651 605.268 78.9504 601.4 76.9159C603.161 74.7738 604.685 73.8408 606.208 72.8662C612.525 73.3744 617.723 75.3933 621.348 80.0512Z" fill="#ECF9F7"/>
</g>
<g opacity="0.85">
<path opacity="0.85" d="M358.832 105.177C357.753 105.231 356.881 105.574 356.021 105.917C356.87 105.574 357.741 105.231 358.832 105.177Z" fill="#D5F2EC"/>
</g>
<g opacity="0.85">
<path opacity="0.85" d="M326.001 76.8179C325.337 77.4496 324.685 78.0396 324.241 78.96C323.728 78.8828 323.216 78.8056 322.954 78.7671C319.966 79.0101 316.716 79.2147 313.74 79.4576C306.648 78.8336 299.61 77.9178 292.53 77.2938C289.943 76.8665 287.62 76.5194 285.022 76.0923C287.375 75.0248 289.77 73.7072 292.123 72.6397C292.22 72.181 292.305 71.7224 292.348 71.4723C294.506 71.3222 296.634 71.422 298.793 71.3135C301.545 72.238 304.35 72.9122 307.363 73.8752C310.707 75.8742 312.746 72.3145 314.227 71.59C317.918 73.1274 322.091 74.9919 326.001 76.8179Z" fill="#D5F2EC"/>
</g>
<g opacity="0.85">
<path opacity="0.85" d="M327.037 76.9729C326.775 76.9344 326.262 76.8572 326 76.8186C326.262 76.8572 326.775 76.9344 327.037 76.9729Z" fill="#D5F2EC"/>
</g>
<g opacity="0.85">
<path opacity="0.85" d="M22.1812 133.627C22.1272 133.877 22.0416 134.336 21.9561 134.794C22.053 134.336 22.1386 133.877 22.1812 133.627Z" fill="#BEEBE2"/>
</g>
<g opacity="0.85">
<path opacity="0.85" d="M441.014 97.5575C440.501 97.4803 440.239 97.4418 439.727 97.3646C440.239 97.4418 440.501 97.4803 441.014 97.5575Z" fill="#CAEEE7"/>
</g>
<g opacity="0.85">
<path opacity="0.85" d="M106.048 54.5241C101.537 55.7417 104.077 59.0397 95.8887 59.8845C89.6716 56.2553 87.9364 59.5618 78.5381 57.1347C79.7317 55.1656 80.8398 53.6551 81.9903 51.8945C83.1125 51.5902 83.9841 51.2472 84.8017 51.1544C90.3497 56.8713 94.4455 48.3374 106.048 54.5241Z" fill="#B1E6DC"/>
</g>
<g opacity="0.85">
<path opacity="0.85" d="M107.299 53.5522C106.994 53.7221 106.397 54.1451 106.038 54.5653C106.407 54.1034 107.006 53.722 107.299 53.5522Z" fill="#B1E6DC"/>
</g>
<g opacity="0.85">
<path opacity="0.85" d="M417.796 46.4156C417.893 45.9569 417.99 45.4982 418.032 45.2481C417.99 45.4982 417.893 45.9569 417.796 46.4156Z" fill="#B1E6DC"/>
</g>
<g opacity="0.85">
<path opacity="0.85" d="M65.6423 122.01C64.3692 123.023 63.369 124.033 62.401 124.877C58.9432 124.792 55.7478 124.788 52.3325 124.454C50.7464 123.017 49.3793 121.826 48.0552 120.428C48.4998 119.549 49.1632 118.917 49.5647 118.247C59.7472 116.755 62.122 119.514 65.6423 122.01Z" fill="#B1E6DC"/>
</g>
<g opacity="0.85">
<path opacity="0.85" d="M356.009 105.917C353.717 105.32 354.702 109.801 348.082 106.8C345.801 106.203 343.3 105.317 340.757 104.681C342.213 102.751 343.31 101.24 344.46 99.4798C345.235 99.5955 346.01 99.7528 347.046 99.9071C347.693 100.731 348.317 101.556 348.963 102.38C349.738 102.496 350.512 102.612 351.56 102.766C352.97 103.748 354.642 104.726 356.009 105.917Z" fill="#D5F2EC"/>
</g>
</g>
</g>
</g>
<defs>
<clipPath id="clip0">
<rect width="169.871" height="761.214" fill="white" transform="translate(1.99268 178.789) rotate(-90.6721)"/>
</clipPath>
</defs>
</svg>
