<svg width="200" height="30" viewBox="0 0 200 30" fill="none" xmlns="http://www.w3.org/2000/svg">
<rect y="30" width="30" height="200" rx="10" transform="rotate(-90 0 30)" fill="#84D8C8"/>
<path d="M25.168 10.008L22.016 17.752L18.864 10.008H16.208L20.688 21H23.328L27.808 10.008H25.168ZM30.8156 21H33.1836V10.008H30.8156V21ZM41.2174 21.192C43.9054 21.192 45.4894 19.8 45.4894 17.704C45.4894 15.672 43.9214 14.968 41.5534 14.44C39.8574 14.056 39.2014 13.8 39.2014 13C39.2014 12.344 39.8094 11.816 40.8174 11.816C41.8734 11.816 42.9774 12.248 43.9534 13.032L45.1854 11.336C44.0654 10.376 42.6734 9.816 40.8814 9.816C38.4814 9.816 36.8174 11.208 36.8174 13.24C36.8174 15.368 38.4654 16.024 40.7854 16.552C42.4654 16.936 43.1054 17.176 43.1054 17.96C43.1054 18.648 42.4974 19.192 41.3134 19.192C39.9214 19.192 38.7374 18.648 37.6974 17.752L36.3374 19.368C37.6174 20.552 39.3134 21.192 41.2174 21.192ZM48.8944 21H51.2624V10.008H48.8944V21ZM57.9841 21H60.3521V12.136H63.7761V10.008H54.5601V12.136H57.9841V21ZM74.2708 21H76.9268L72.4468 10.008H69.8068L65.3268 21H67.9668L68.6708 19.272H73.5668L74.2708 21ZM69.4868 17.272L71.1188 13.256L72.7508 17.272H69.4868ZM89.1984 21L86.4944 17.16C87.9984 16.632 88.9904 15.352 88.9904 13.72C88.9904 11.544 87.2304 10.008 84.8464 10.008H79.9024V21H82.2544V17.432H83.9984L86.5104 21H89.1984ZM82.2544 12.168H84.5904C85.7584 12.168 86.5584 12.776 86.5584 13.72C86.5584 14.664 85.7584 15.272 84.5904 15.272H82.2544V12.168ZM98.5749 21H100.927V17.432H103.519C105.903 17.432 107.663 15.896 107.663 13.72C107.663 11.544 105.903 10.008 103.519 10.008H98.5749V21ZM100.927 15.272V12.168H103.263C104.431 12.168 105.231 12.776 105.231 13.72C105.231 14.664 104.431 15.272 103.263 15.272H100.927ZM120.113 21L117.409 17.16C118.913 16.632 119.905 15.352 119.905 13.72C119.905 11.544 118.145 10.008 115.761 10.008H110.817V21H113.169V17.432H114.913L117.425 21H120.113ZM113.169 12.168H115.505C116.673 12.168 117.473 12.776 117.473 13.72C117.473 14.664 116.673 15.272 115.505 15.272H113.169V12.168ZM128.749 21.192C131.933 21.192 134.589 18.584 134.589 15.496C134.589 12.408 131.933 9.816 128.749 9.816C125.597 9.816 122.909 12.408 122.909 15.496C122.909 18.584 125.597 21.192 128.749 21.192ZM128.749 19.048C126.909 19.048 125.341 17.416 125.341 15.496C125.341 13.592 126.909 11.96 128.749 11.96C130.605 11.96 132.173 13.592 132.173 15.496C132.173 17.416 130.605 19.048 128.749 19.048ZM140.789 21.192C143.013 21.192 144.581 19.624 144.581 17.416V10.008H142.213V17.224C142.213 18.296 141.509 19.048 140.549 19.048C139.813 19.048 139.029 18.552 138.677 17.832L137.109 19.368C137.845 20.44 139.381 21.192 140.789 21.192ZM156.868 12.136V10.008H148.404V21H156.868V18.872H150.772V16.456H156.292V14.328H150.772V12.136H156.868ZM163.182 21H165.55V12.136H168.974V10.008H159.758V12.136H163.182V21ZM177.094 21.192C180.278 21.192 182.934 18.584 182.934 15.496C182.934 12.408 180.278 9.816 177.094 9.816C173.942 9.816 171.254 12.408 171.254 15.496C171.254 18.584 173.942 21.192 177.094 21.192ZM177.094 19.048C175.254 19.048 173.686 17.416 173.686 15.496C173.686 13.592 175.254 11.96 177.094 11.96C178.95 11.96 180.518 13.592 180.518 15.496C180.518 17.416 178.95 19.048 177.094 19.048Z" fill="white"/>
</svg>
