<svg width="152" height="144" viewBox="0 0 152 144" fill="none" xmlns="http://www.w3.org/2000/svg">
<g filter="url(#filter0_d)">
<path d="M123.917 63.3107C123.917 63.3107 117.204 49.8044 111.689 45.6577C108.932 43.6436 104.496 42.6957 100.78 42.3403C99.2217 39.2599 96.4644 36.4165 91.789 34.7578C88.1926 33.4546 84.716 33.3361 81.719 33.81L85.4353 23.2656C86.9938 18.8819 84.716 14.1429 80.2804 12.4842C75.8448 10.944 71.0496 13.1951 69.3712 17.5787L65.6549 28.0046C63.6169 25.7536 60.8596 23.7395 57.2632 22.4362C52.7077 20.7776 48.7516 21.37 45.5148 22.7917C42.278 20.7776 38.3219 18.645 34.8454 18.5265C27.8923 18.2896 13.986 24.6873 13.986 24.6873C13.986 24.6873 9.07088 29.0709 14.7053 30.9666C17.4626 31.9144 26.8133 32.7437 35.4448 33.3361C33.4068 38.3121 26.5736 55.1358 34.0062 72.5519C31.4887 72.4334 26.6934 72.5519 23.5765 73.7366C20.8193 74.9214 17.7023 74.566 14.4655 90.3234C14.3457 91.0342 14.4655 91.7451 14.8252 92.219C15.3047 92.9299 16.024 93.2853 16.6234 93.4038C17.3427 93.6407 18.1819 93.5223 18.9012 93.0483L37.9623 79.6605C41.0792 84.2811 45.3949 88.9017 51.2691 93.2853V93.4038C58.5819 93.6407 64.9356 92.8114 70.3303 91.1527L76.5641 113.426C76.8039 114.137 77.4033 114.848 78.1226 115.085C78.722 115.322 79.4413 115.44 80.2804 115.203C80.9997 115.085 81.4792 114.611 81.8389 113.9C89.3914 99.683 86.754 97.9059 85.3155 95.4179C83.6371 92.456 80.0407 89.494 78.0027 87.9538C94.7861 79.0681 100.061 61.7705 101.739 56.676C108.812 61.652 116.604 66.7465 119.362 67.6943C124.996 69.7084 123.917 63.3107 123.917 63.3107Z" fill="white"/>
</g>
<defs>
<filter id="filter0_d" x="0" y="0" width="152" height="143.333" filterUnits="userSpaceOnUse" color-interpolation-filters="sRGB">
<feFlood flood-opacity="0" result="BackgroundImageFix"/>
<feColorMatrix in="SourceAlpha" type="matrix" values="0 0 0 0 0 0 0 0 0 0 0 0 0 0 0 0 0 0 127 0"/>
<feOffset dx="8" dy="8"/>
<feGaussianBlur stdDeviation="10"/>
<feColorMatrix type="matrix" values="0 0 0 0 0 0 0 0 0 0 0 0 0 0 0 0 0 0 0.1 0"/>
<feBlend mode="normal" in2="BackgroundImageFix" result="effect1_dropShadow"/>
<feBlend mode="normal" in="SourceGraphic" in2="effect1_dropShadow" result="shape"/>
</filter>
</defs>
</svg>
